G04 Layer_Color=16711935*
%FSLAX25Y25*%
%MOIN*%
G70*
G01*
G75*
%ADD69C,0.01400*%
%ADD88O,0.00709X0.02756*%
%ADD89R,0.03400X0.03400*%
%ADD90R,0.03400X0.03400*%
%ADD94R,0.02900X0.02400*%
%ADD95R,0.05400X0.06400*%
%ADD96R,0.02400X0.02900*%
%ADD97C,0.01205*%
%ADD100O,0.02008X0.06693*%
%ADD101R,0.02008X0.06693*%
%ADD108R,0.20400X0.07900*%
%ADD113C,0.03550*%
%ADD114C,0.15361*%
%ADD115R,0.06699X0.06699*%
%ADD116C,0.06699*%
%ADD117C,0.06305*%
%ADD118R,0.06305X0.06305*%
%ADD119R,0.10243X0.10243*%
%ADD120C,0.10243*%
%ADD121C,0.00069*%
%ADD122R,0.10243X0.10243*%
%ADD123C,0.12211*%
%ADD124C,0.07093*%
%ADD125R,0.06305X0.06305*%
%ADD126C,0.05400*%
%ADD127R,0.12211X0.29928*%
%ADD128C,0.01600*%
%ADD129R,0.06896X0.05991*%
%ADD130R,0.01778X0.05991*%
%ADD131R,0.14573X0.05991*%
G04:AMPARAMS|DCode=132|XSize=80mil|YSize=23mil|CornerRadius=7.75mil|HoleSize=0mil|Usage=FLASHONLY|Rotation=270.000|XOffset=0mil|YOffset=0mil|HoleType=Round|Shape=RoundedRectangle|*
%AMROUNDEDRECTD132*
21,1,0.08000,0.00750,0,0,270.0*
21,1,0.06450,0.02300,0,0,270.0*
1,1,0.01550,-0.00375,-0.03225*
1,1,0.01550,-0.00375,0.03225*
1,1,0.01550,0.00375,0.03225*
1,1,0.01550,0.00375,-0.03225*
%
%ADD132ROUNDEDRECTD132*%
%ADD133R,0.02600X0.06200*%
%ADD134R,0.06400X0.05400*%
D69*
X277100Y189700D02*
D03*
X277200Y185500D02*
D03*
X227600Y189200D02*
D03*
Y185000D02*
D03*
X170400Y64200D02*
D03*
Y68300D02*
D03*
X140300Y64100D02*
D03*
X143100D02*
D03*
X140300Y68200D02*
D03*
X143100D02*
D03*
X504500Y97200D02*
D03*
X501300D02*
D03*
Y93100D02*
D03*
X479000D02*
D03*
X476100D02*
D03*
Y97200D02*
D03*
X479000D02*
D03*
X481700Y93100D02*
D03*
Y97200D02*
D03*
X484300D02*
D03*
Y93100D02*
D03*
X487200Y97200D02*
D03*
Y93100D02*
D03*
X492600Y97200D02*
D03*
Y93100D02*
D03*
X495400Y97200D02*
D03*
Y93100D02*
D03*
X504500D02*
D03*
X489900D02*
D03*
Y97200D02*
D03*
X498400D02*
D03*
Y93100D02*
D03*
X168192Y64225D02*
D03*
Y68325D02*
D03*
X165292Y64225D02*
D03*
Y68325D02*
D03*
X159992D02*
D03*
Y64225D02*
D03*
X157092Y68325D02*
D03*
Y64225D02*
D03*
X151692Y68325D02*
D03*
X148892D02*
D03*
X151692Y64225D02*
D03*
X148892D02*
D03*
X162592Y68325D02*
D03*
Y64225D02*
D03*
X154392Y68325D02*
D03*
Y64225D02*
D03*
X145892Y68325D02*
D03*
Y64225D02*
D03*
X167492Y11200D02*
D03*
X164592D02*
D03*
X167492Y7100D02*
D03*
X164592D02*
D03*
X159292Y11200D02*
D03*
Y7100D02*
D03*
X156392Y11200D02*
D03*
Y7100D02*
D03*
X150992D02*
D03*
Y11200D02*
D03*
X148192D02*
D03*
Y7100D02*
D03*
X139092Y11200D02*
D03*
X142292D02*
D03*
X139092Y7100D02*
D03*
X142292D02*
D03*
X161892Y11200D02*
D03*
Y7100D02*
D03*
X153692Y11200D02*
D03*
Y7100D02*
D03*
X145192Y11200D02*
D03*
Y7100D02*
D03*
X378000Y184200D02*
D03*
X386200Y180100D02*
D03*
X389100D02*
D03*
X386200Y184200D02*
D03*
X394500Y180100D02*
D03*
X397300D02*
D03*
X394500Y184200D02*
D03*
X397300D02*
D03*
X403200Y180100D02*
D03*
X406400Y184200D02*
D03*
Y180100D02*
D03*
X403200Y184200D02*
D03*
X279400Y185550D02*
D03*
X282300D02*
D03*
X279400Y189650D02*
D03*
X282300D02*
D03*
X287600Y185550D02*
D03*
Y189650D02*
D03*
X290500Y185550D02*
D03*
Y189650D02*
D03*
X295900D02*
D03*
Y185550D02*
D03*
X298700D02*
D03*
Y189650D02*
D03*
X304600Y185550D02*
D03*
X307800D02*
D03*
X304600Y189650D02*
D03*
X307800D02*
D03*
X285000Y185550D02*
D03*
Y189650D02*
D03*
X293200Y185550D02*
D03*
Y189650D02*
D03*
X301700Y185550D02*
D03*
Y189650D02*
D03*
X225300Y185100D02*
D03*
X222400D02*
D03*
X225300Y189200D02*
D03*
X222400D02*
D03*
X217100Y185100D02*
D03*
Y189200D02*
D03*
X214200Y185100D02*
D03*
Y189200D02*
D03*
X208800Y185100D02*
D03*
X206000D02*
D03*
X208800Y189200D02*
D03*
X206000D02*
D03*
X200100Y185100D02*
D03*
X196900D02*
D03*
X200100Y189200D02*
D03*
X196900D02*
D03*
X219700Y185100D02*
D03*
Y189200D02*
D03*
X211500Y185100D02*
D03*
Y189200D02*
D03*
X203000Y185100D02*
D03*
Y189200D02*
D03*
X380900Y184200D02*
D03*
X378000Y180100D02*
D03*
X389100Y184200D02*
D03*
X380900Y180100D02*
D03*
D88*
X223725Y164200D02*
D03*
X225300D02*
D03*
X222150D02*
D03*
X220576D02*
D03*
X219001D02*
D03*
X217426D02*
D03*
X215851D02*
D03*
X214276D02*
D03*
X212702D02*
D03*
X211127D02*
D03*
X209552D02*
D03*
X207977D02*
D03*
X225300Y169436D02*
D03*
X223725D02*
D03*
X222150D02*
D03*
X220576D02*
D03*
X219001D02*
D03*
X217426D02*
D03*
X215851D02*
D03*
X214276D02*
D03*
X212702D02*
D03*
X211127D02*
D03*
X209552D02*
D03*
X207977D02*
D03*
X206402D02*
D03*
X204828D02*
D03*
X203253D02*
D03*
X206402Y164200D02*
D03*
X204828D02*
D03*
X203253D02*
D03*
X223725Y150364D02*
D03*
X225300D02*
D03*
X222150D02*
D03*
X220576D02*
D03*
X219001D02*
D03*
X217426D02*
D03*
X215851D02*
D03*
X214276D02*
D03*
X212702D02*
D03*
X211127D02*
D03*
X209552D02*
D03*
X207977D02*
D03*
X225300Y155600D02*
D03*
X223725D02*
D03*
X222150D02*
D03*
X220576D02*
D03*
X219001D02*
D03*
X217426D02*
D03*
X215851D02*
D03*
X214276D02*
D03*
X212702D02*
D03*
X211127D02*
D03*
X209552D02*
D03*
X207977D02*
D03*
X206402D02*
D03*
X204828D02*
D03*
X203253D02*
D03*
X206402Y150364D02*
D03*
X204828D02*
D03*
X203253D02*
D03*
D89*
X78450Y132699D02*
D03*
Y138199D02*
D03*
X78626Y116050D02*
D03*
Y121550D02*
D03*
X562600Y144300D02*
D03*
Y149800D02*
D03*
X562800Y159600D02*
D03*
Y165100D02*
D03*
X593700Y69300D02*
D03*
Y63800D02*
D03*
X185100Y177800D02*
D03*
Y183300D02*
D03*
X540800Y149700D02*
D03*
Y144200D02*
D03*
Y165400D02*
D03*
Y159900D02*
D03*
X479100Y130400D02*
D03*
Y135900D02*
D03*
X476400Y168900D02*
D03*
Y174400D02*
D03*
X466500Y169100D02*
D03*
Y174600D02*
D03*
X285500Y134500D02*
D03*
Y129000D02*
D03*
X296300Y134800D02*
D03*
Y129300D02*
D03*
X10300Y92600D02*
D03*
Y87100D02*
D03*
X124448Y242700D02*
D03*
Y248200D02*
D03*
X90625Y175275D02*
D03*
Y180775D02*
D03*
Y160975D02*
D03*
Y166475D02*
D03*
X93426Y138150D02*
D03*
Y132650D02*
D03*
Y122050D02*
D03*
Y116550D02*
D03*
X388100Y60500D02*
D03*
Y66000D02*
D03*
X388300Y74700D02*
D03*
Y80200D02*
D03*
X185200Y197300D02*
D03*
Y191800D02*
D03*
D90*
X54500Y207300D02*
D03*
X60000D02*
D03*
X71100D02*
D03*
X76600D02*
D03*
X54100Y75700D02*
D03*
X48600D02*
D03*
X565700Y201325D02*
D03*
X571200D02*
D03*
X575900Y167825D02*
D03*
X570400D02*
D03*
X581200Y188925D02*
D03*
X586700D02*
D03*
X581200Y178925D02*
D03*
X586700D02*
D03*
X444000Y154000D02*
D03*
X438500D02*
D03*
X353000Y273000D02*
D03*
X347500D02*
D03*
X368700D02*
D03*
X363200D02*
D03*
X567900Y55100D02*
D03*
X562400D02*
D03*
X600700Y85800D02*
D03*
X606200D02*
D03*
X537100Y258800D02*
D03*
X542600D02*
D03*
X555300Y258600D02*
D03*
X560800D02*
D03*
X575300Y258700D02*
D03*
X569800D02*
D03*
D94*
X237700Y155400D02*
D03*
X242700D02*
D03*
X241800Y167000D02*
D03*
X236800D02*
D03*
X243400Y151600D02*
D03*
X238400D02*
D03*
X243300Y148300D02*
D03*
X238300D02*
D03*
X228600Y151800D02*
D03*
X233600D02*
D03*
D95*
X198700Y178000D02*
D03*
Y187000D02*
D03*
X207400Y178000D02*
D03*
Y187000D02*
D03*
X215700Y178000D02*
D03*
Y187000D02*
D03*
X223800Y178000D02*
D03*
Y187000D02*
D03*
X8600Y135200D02*
D03*
Y144200D02*
D03*
X605400Y59700D02*
D03*
Y68700D02*
D03*
D96*
X233400Y166700D02*
D03*
Y171700D02*
D03*
X230000Y171600D02*
D03*
Y166600D02*
D03*
X228900Y154700D02*
D03*
Y159700D02*
D03*
X452900Y169600D02*
D03*
Y164600D02*
D03*
X444800Y169700D02*
D03*
Y164700D02*
D03*
X444500Y134100D02*
D03*
Y139100D02*
D03*
D97*
X237362Y163662D02*
D03*
X235787D02*
D03*
X234213Y163662D02*
D03*
X232638D02*
D03*
X237362Y162087D02*
D03*
X232638Y162087D02*
D03*
X237362Y160513D02*
D03*
X232638Y160513D02*
D03*
X237362Y158938D02*
D03*
X235787D02*
D03*
X234213Y158938D02*
D03*
X232638D02*
D03*
D100*
X470350Y133070D02*
D03*
X467850D02*
D03*
X465350D02*
D03*
X462850D02*
D03*
X460350D02*
D03*
X457850D02*
D03*
X455350D02*
D03*
X452850D02*
D03*
X470350Y154330D02*
D03*
X467850D02*
D03*
X465350D02*
D03*
X462850D02*
D03*
X460350D02*
D03*
X457850D02*
D03*
X455350D02*
D03*
D101*
X452850D02*
D03*
D108*
X524600Y34900D02*
D03*
Y9900D02*
D03*
X42000Y189200D02*
D03*
Y164200D02*
D03*
X72000Y189000D02*
D03*
Y164000D02*
D03*
X434100Y75100D02*
D03*
Y50100D02*
D03*
X44300Y48300D02*
D03*
Y23300D02*
D03*
X524800Y71900D02*
D03*
Y46900D02*
D03*
X258200Y76100D02*
D03*
Y51100D02*
D03*
D113*
X556200Y14800D02*
D03*
X426500Y11600D02*
D03*
X435200Y7600D02*
D03*
X563022Y108500D02*
D03*
X560400Y101700D02*
D03*
X527300Y253700D02*
D03*
X459900Y244900D02*
D03*
X465600Y249800D02*
D03*
X474800Y250300D02*
D03*
X481700Y249300D02*
D03*
X519200Y251000D02*
D03*
X479000Y220100D02*
D03*
X465900Y231400D02*
D03*
X443400Y228400D02*
D03*
X436400Y227900D02*
D03*
X429400Y227800D02*
D03*
X425100Y232100D02*
D03*
X397600Y232700D02*
D03*
X397100Y226800D02*
D03*
X372700Y228400D02*
D03*
X384800Y240000D02*
D03*
X346400Y227500D02*
D03*
X338200Y222100D02*
D03*
X605500Y24200D02*
D03*
X54500Y219900D02*
D03*
X69400Y115800D02*
D03*
X102600Y121900D02*
D03*
X249300Y113800D02*
D03*
X615000Y23900D02*
D03*
X389200Y230100D02*
D03*
X236000Y251000D02*
D03*
X57700Y153300D02*
D03*
X273100Y110800D02*
D03*
X320000Y236300D02*
D03*
X315900Y141900D02*
D03*
X609200Y256000D02*
D03*
X497500Y233600D02*
D03*
X305500Y237300D02*
D03*
X266700Y218900D02*
D03*
X312700Y236800D02*
D03*
X198300Y150900D02*
D03*
Y145000D02*
D03*
X405000Y145900D02*
D03*
X404800Y136800D02*
D03*
X503100Y59300D02*
D03*
X141192Y102525D02*
D03*
X140492Y45400D02*
D03*
X306400Y151350D02*
D03*
X503100Y53000D02*
D03*
X141192Y108425D02*
D03*
X140492Y51300D02*
D03*
X306400Y145450D02*
D03*
X462700Y107400D02*
D03*
X450200Y107300D02*
D03*
D114*
X142200Y198821D02*
D03*
Y138979D02*
D03*
D115*
X505900Y199900D02*
D03*
D116*
X495900D02*
D03*
X485900D02*
D03*
X475900D02*
D03*
X455900D02*
D03*
X445900D02*
D03*
X435900D02*
D03*
X425900D02*
D03*
X505900Y119900D02*
D03*
X490900D02*
D03*
X475900D02*
D03*
X455900D02*
D03*
X440900D02*
D03*
X425900D02*
D03*
D117*
X599100Y279400D02*
D03*
Y269400D02*
D03*
X589100Y279400D02*
D03*
Y269400D02*
D03*
X579100Y279400D02*
D03*
Y269400D02*
D03*
X569100Y279400D02*
D03*
Y269400D02*
D03*
X559100Y279400D02*
D03*
Y269400D02*
D03*
X549100Y279400D02*
D03*
Y269400D02*
D03*
X539100Y279400D02*
D03*
Y269400D02*
D03*
X529100Y279400D02*
D03*
Y269400D02*
D03*
X519100Y279400D02*
D03*
Y269400D02*
D03*
X509100Y279400D02*
D03*
Y269400D02*
D03*
X499100Y279400D02*
D03*
Y269400D02*
D03*
X489100Y279400D02*
D03*
Y269400D02*
D03*
X479100Y279400D02*
D03*
Y269400D02*
D03*
X469100Y279400D02*
D03*
Y269400D02*
D03*
X459100Y279400D02*
D03*
Y269400D02*
D03*
X449100Y279400D02*
D03*
Y269400D02*
D03*
X439100Y279400D02*
D03*
Y269400D02*
D03*
X429100Y279400D02*
D03*
Y269400D02*
D03*
X419100Y279400D02*
D03*
Y269400D02*
D03*
X409100Y279400D02*
D03*
Y269400D02*
D03*
X399100D02*
D03*
X389100Y279400D02*
D03*
X399100D02*
D03*
X32200Y227200D02*
D03*
D118*
X389100Y269400D02*
D03*
D119*
X7000Y211286D02*
D03*
X614000Y222600D02*
D03*
X7400Y229700D02*
D03*
X7700Y54886D02*
D03*
D120*
X7000Y164514D02*
D03*
Y195695D02*
D03*
Y180105D02*
D03*
X524000Y122600D02*
D03*
X539000D02*
D03*
X554000D02*
D03*
X584000D02*
D03*
X599000D02*
D03*
X614000D02*
D03*
X524000Y222600D02*
D03*
X539000D02*
D03*
X554000D02*
D03*
X584000D02*
D03*
X599000D02*
D03*
X7400Y245290D02*
D03*
X498886Y7700D02*
D03*
X467705D02*
D03*
X483295D02*
D03*
X7700Y8114D02*
D03*
Y39295D02*
D03*
Y23705D02*
D03*
D121*
X84448Y260600D02*
D03*
X88779D02*
D03*
X84448Y255482D02*
D03*
X88779D02*
D03*
Y265718D02*
D03*
X84448D02*
D03*
Y250364D02*
D03*
X88779D02*
D03*
D122*
X452114Y7700D02*
D03*
D123*
X409600Y81570D02*
D03*
Y42200D02*
D03*
X231000Y81700D02*
D03*
Y42330D02*
D03*
X321600Y40500D02*
D03*
Y79870D02*
D03*
D124*
X299400Y261400D02*
D03*
X309400D02*
D03*
X319400D02*
D03*
X359400D02*
D03*
X369400D02*
D03*
X349400D02*
D03*
X339400D02*
D03*
D125*
X32200Y217200D02*
D03*
D126*
X20900Y105800D02*
D03*
Y85800D02*
D03*
Y75800D02*
D03*
Y95800D02*
D03*
Y125800D02*
D03*
Y135800D02*
D03*
Y145800D02*
D03*
D127*
X108895Y88700D02*
D03*
X88305Y23700D02*
D03*
D128*
X234900Y188700D02*
D03*
X238440D02*
D03*
X241980D02*
D03*
X245520D02*
D03*
X249060D02*
D03*
X252600D02*
D03*
X234900Y186200D02*
D03*
X238440D02*
D03*
X241980D02*
D03*
X245520D02*
D03*
X249060D02*
D03*
X252600D02*
D03*
X252620Y183500D02*
D03*
X249080D02*
D03*
X245540D02*
D03*
X242000D02*
D03*
X238460D02*
D03*
X234920D02*
D03*
X286420Y224100D02*
D03*
X289960D02*
D03*
X293500D02*
D03*
X297040D02*
D03*
X300580D02*
D03*
X304120D02*
D03*
X304100Y226800D02*
D03*
X300560D02*
D03*
X297020D02*
D03*
X293480D02*
D03*
X289940D02*
D03*
X286400D02*
D03*
X304100Y229300D02*
D03*
X300560D02*
D03*
X297020D02*
D03*
X293480D02*
D03*
X289940D02*
D03*
X286400D02*
D03*
X235520Y208700D02*
D03*
X239060D02*
D03*
X242600D02*
D03*
X246140D02*
D03*
X249680D02*
D03*
X253220D02*
D03*
X253200Y211400D02*
D03*
X249660D02*
D03*
X246120D02*
D03*
X242580D02*
D03*
X239040D02*
D03*
X235500D02*
D03*
X253200Y213900D02*
D03*
X249660D02*
D03*
X246120D02*
D03*
X242580D02*
D03*
X239040D02*
D03*
X235500D02*
D03*
X63400Y166800D02*
D03*
X66940D02*
D03*
X70480D02*
D03*
X74020D02*
D03*
X77560D02*
D03*
X81100D02*
D03*
X63400Y164300D02*
D03*
X66940D02*
D03*
X70480D02*
D03*
X74020D02*
D03*
X77560D02*
D03*
X81100D02*
D03*
X81120Y161600D02*
D03*
X77580D02*
D03*
X74040D02*
D03*
X70500D02*
D03*
X66960D02*
D03*
X63420D02*
D03*
X63500Y191800D02*
D03*
X67040D02*
D03*
X70580D02*
D03*
X74120D02*
D03*
X77660D02*
D03*
X81200D02*
D03*
X63500Y189300D02*
D03*
X67040D02*
D03*
X70580D02*
D03*
X74120D02*
D03*
X77660D02*
D03*
X81200D02*
D03*
X81220Y186600D02*
D03*
X77680D02*
D03*
X74140D02*
D03*
X70600D02*
D03*
X67060D02*
D03*
X63520D02*
D03*
X515980Y74600D02*
D03*
X519520D02*
D03*
X523060D02*
D03*
X526600D02*
D03*
X530140D02*
D03*
X533680D02*
D03*
X515980Y72100D02*
D03*
X519520D02*
D03*
X523060D02*
D03*
X526600D02*
D03*
X530140D02*
D03*
X533680D02*
D03*
X533700Y69400D02*
D03*
X530160D02*
D03*
X526620D02*
D03*
X523080D02*
D03*
X519540D02*
D03*
X516000D02*
D03*
X568940Y39900D02*
D03*
Y37400D02*
D03*
X568960Y34700D02*
D03*
X568940Y45700D02*
D03*
X568960Y43000D02*
D03*
X572260Y42900D02*
D03*
X575800D02*
D03*
X579340D02*
D03*
X582880D02*
D03*
X586420D02*
D03*
X589960D02*
D03*
X589940Y45600D02*
D03*
X586400D02*
D03*
X582860D02*
D03*
X579320D02*
D03*
X575780D02*
D03*
X572240D02*
D03*
X572260Y34600D02*
D03*
X575800D02*
D03*
X579340D02*
D03*
X582880D02*
D03*
X586420D02*
D03*
X589960D02*
D03*
X589940Y37300D02*
D03*
X586400D02*
D03*
X582860D02*
D03*
X579320D02*
D03*
X575780D02*
D03*
X572240D02*
D03*
X586400Y39800D02*
D03*
X582860D02*
D03*
X579320D02*
D03*
X575780D02*
D03*
X572240D02*
D03*
X589940D02*
D03*
X33100Y161500D02*
D03*
X36640D02*
D03*
X40180D02*
D03*
X43720D02*
D03*
X47260D02*
D03*
X50800D02*
D03*
X50780Y164200D02*
D03*
X47240D02*
D03*
X43700D02*
D03*
X40160D02*
D03*
X36620D02*
D03*
X33080D02*
D03*
X50780Y166700D02*
D03*
X47240D02*
D03*
X43700D02*
D03*
X40160D02*
D03*
X36620D02*
D03*
X33080D02*
D03*
X33300Y186600D02*
D03*
X36840D02*
D03*
X40380D02*
D03*
X43920D02*
D03*
X47460D02*
D03*
X51000D02*
D03*
X50980Y189300D02*
D03*
X47440D02*
D03*
X43900D02*
D03*
X40360D02*
D03*
X36820D02*
D03*
X33280D02*
D03*
X50980Y191800D02*
D03*
X47440D02*
D03*
X43900D02*
D03*
X40360D02*
D03*
X36820D02*
D03*
X33280D02*
D03*
X35500Y25600D02*
D03*
X39040D02*
D03*
X42580D02*
D03*
X46120D02*
D03*
X49660D02*
D03*
X53200D02*
D03*
X35500Y23100D02*
D03*
X39040D02*
D03*
X42580D02*
D03*
X46120D02*
D03*
X49660D02*
D03*
X53200D02*
D03*
X53220Y20400D02*
D03*
X49680D02*
D03*
X46140D02*
D03*
X42600D02*
D03*
X39060D02*
D03*
X35520D02*
D03*
X35500Y50900D02*
D03*
X39040D02*
D03*
X42580D02*
D03*
X46120D02*
D03*
X49660D02*
D03*
X53200D02*
D03*
X35500Y48400D02*
D03*
X39040D02*
D03*
X42580D02*
D03*
X46120D02*
D03*
X49660D02*
D03*
X53200D02*
D03*
X53220Y45700D02*
D03*
X49680D02*
D03*
X46140D02*
D03*
X42600D02*
D03*
X39060D02*
D03*
X35520D02*
D03*
X285700Y204500D02*
D03*
X289240D02*
D03*
X292780D02*
D03*
X296320D02*
D03*
X299860D02*
D03*
X303400D02*
D03*
X285700Y202000D02*
D03*
X289240D02*
D03*
X292780D02*
D03*
X296320D02*
D03*
X299860D02*
D03*
X303400D02*
D03*
X303420Y199300D02*
D03*
X299880D02*
D03*
X296340D02*
D03*
X292800D02*
D03*
X289260D02*
D03*
X285720D02*
D03*
X515920Y44300D02*
D03*
X519460D02*
D03*
X523000D02*
D03*
X526540D02*
D03*
X530080D02*
D03*
X533620D02*
D03*
X533600Y47000D02*
D03*
X530060D02*
D03*
X526520D02*
D03*
X522980D02*
D03*
X519440D02*
D03*
X515900D02*
D03*
X533600Y49500D02*
D03*
X530060D02*
D03*
X526520D02*
D03*
X522980D02*
D03*
X519440D02*
D03*
X515900D02*
D03*
X516120Y32300D02*
D03*
X519660D02*
D03*
X523200D02*
D03*
X526740D02*
D03*
X530280D02*
D03*
X533820D02*
D03*
X533800Y35000D02*
D03*
X530260D02*
D03*
X526720D02*
D03*
X523180D02*
D03*
X519640D02*
D03*
X516100D02*
D03*
X533800Y37500D02*
D03*
X530260D02*
D03*
X526720D02*
D03*
X523180D02*
D03*
X519640D02*
D03*
X516100D02*
D03*
X515820Y7300D02*
D03*
X519360D02*
D03*
X522900D02*
D03*
X526440D02*
D03*
X529980D02*
D03*
X533520D02*
D03*
X533500Y10000D02*
D03*
X529960D02*
D03*
X526420D02*
D03*
X522880D02*
D03*
X519340D02*
D03*
X515800D02*
D03*
X533500Y12500D02*
D03*
X529960D02*
D03*
X526420D02*
D03*
X522880D02*
D03*
X519340D02*
D03*
X515800D02*
D03*
D129*
X92884Y219100D02*
D03*
X115916D02*
D03*
D130*
X100561D02*
D03*
X103121D02*
D03*
X105680D02*
D03*
X108239D02*
D03*
X110798D02*
D03*
X98002D02*
D03*
D131*
X96723Y189100D02*
D03*
X112077D02*
D03*
D132*
X552961Y70500D02*
D03*
X555520D02*
D03*
X558079D02*
D03*
X560639D02*
D03*
Y87500D02*
D03*
X558079D02*
D03*
X555520D02*
D03*
X552961D02*
D03*
X582838Y75700D02*
D03*
X580279D02*
D03*
X577720D02*
D03*
X575161D02*
D03*
Y58700D02*
D03*
X577720D02*
D03*
X580279D02*
D03*
X582838D02*
D03*
D133*
X565460Y179225D02*
D03*
X572940D02*
D03*
Y188625D02*
D03*
X569200D02*
D03*
X565460D02*
D03*
D134*
X300300Y274200D02*
D03*
X309300D02*
D03*
M02*
