G04 Layer_Color=16711935*
%FSLAX25Y25*%
%MOIN*%
G70*
G01*
G75*
%ADD82C,0.00500*%
%ADD84C,0.00197*%
%ADD136C,0.00394*%
D82*
X87112Y266041D02*
X84613D01*
X84113Y265541D01*
Y264541D01*
X84613Y264042D01*
X87112D01*
Y261043D02*
Y263042D01*
X85613D01*
X86113Y262042D01*
Y261542D01*
X85613Y261043D01*
X84613D01*
X84113Y261542D01*
Y262542D01*
X84613Y263042D01*
D84*
X233189Y158938D02*
G03*
X233189Y158938I-551J0D01*
G01*
X371213Y153938D02*
G03*
X371213Y153938I-551J0D01*
G01*
X469313Y66938D02*
G03*
X469313Y66938I-551J0D01*
G01*
X176081Y94487D02*
G03*
X176081Y94487I-551J0D01*
G01*
X175381Y37362D02*
G03*
X175381Y37362I-551J0D01*
G01*
X272613Y159388D02*
G03*
X272613Y159388I-551J0D01*
G01*
X202367Y162291D02*
X226186D01*
Y171346D01*
X202367D02*
X226186D01*
X202367Y162291D02*
Y171346D01*
Y148454D02*
X226186D01*
Y157509D01*
X202367D02*
X226186D01*
X202367Y148454D02*
Y157509D01*
X377114Y157290D02*
X400933D01*
X377114D02*
Y166346D01*
X400933D01*
Y157290D02*
Y166346D01*
X377114Y143454D02*
X400933D01*
X377114D02*
Y152509D01*
X400933D01*
Y143454D02*
Y152509D01*
X475214Y70290D02*
X499033D01*
X475214D02*
Y79346D01*
X499033D01*
Y70290D02*
Y79346D01*
X145259Y91134D02*
X169078D01*
Y82079D02*
Y91134D01*
X145259Y82079D02*
X169078D01*
X145259D02*
Y91134D01*
X144559Y34010D02*
X168378D01*
Y24954D02*
Y34010D01*
X144559Y24954D02*
X168378D01*
X144559D02*
Y34010D01*
X278514Y162741D02*
X302333D01*
X278514D02*
Y171796D01*
X302333D01*
Y162741D02*
Y171796D01*
X475214Y56454D02*
X499033D01*
X475214D02*
Y65509D01*
X499033D01*
Y56454D02*
Y65509D01*
X145259Y104971D02*
X169078D01*
Y95915D02*
Y104971D01*
X145259Y95915D02*
X169078D01*
X145259D02*
Y104971D01*
X144559Y47846D02*
X168378D01*
Y38791D02*
Y47846D01*
X144559Y38791D02*
X168378D01*
X144559D02*
Y47846D01*
X278514Y148904D02*
X302333D01*
X278514D02*
Y157959D01*
X302333D01*
Y148904D02*
Y157959D01*
D136*
X93805Y248409D02*
G03*
X94301Y248905I-4J500D01*
G01*
X79447Y267709D02*
G03*
X78951Y267212I4J-500D01*
G01*
X94301D02*
G03*
X93805Y267709I-500J-4D01*
G01*
X84126Y265109D02*
G03*
X84126Y262609I0J-1250D01*
G01*
X78951Y248905D02*
G03*
X79447Y248409I500J4D01*
G01*
X84126Y262609D02*
G03*
X84126Y265109I0J1250D01*
G01*
X231250Y164757D02*
X238750D01*
X231250Y157843D02*
X238750D01*
Y164757D01*
X231250Y157843D02*
Y164757D01*
X364550Y159757D02*
X372050D01*
X364550Y152843D02*
X372050D01*
X364550D02*
Y159757D01*
X372050Y152843D02*
Y159757D01*
X462650Y72757D02*
X470150D01*
X462650Y65843D02*
X470150D01*
X462650D02*
Y72757D01*
X470150Y65843D02*
Y72757D01*
X174142Y88668D02*
X181642D01*
X174142Y95582D02*
X181642D01*
Y88668D02*
Y95582D01*
X174142Y88668D02*
Y95582D01*
X173442Y31543D02*
X180942D01*
X173442Y38457D02*
X180942D01*
Y31543D02*
Y38457D01*
X173442Y31543D02*
Y38457D01*
X265950Y165207D02*
X273450D01*
X265950Y158293D02*
X273450D01*
X265950D02*
Y165207D01*
X273450Y158293D02*
Y165207D01*
X80613Y248409D02*
Y267709D01*
X96930Y266309D02*
X98351D01*
X94301Y264809D02*
X95079D01*
X94301D02*
Y266309D01*
X96374Y264809D02*
X96467D01*
X94301Y266309D02*
X95079D01*
Y264809D02*
X96374D01*
X96467D02*
X96930D01*
X96374Y266309D02*
X96467D01*
X96930D01*
X95079D02*
X96374D01*
X98351Y264809D02*
Y266309D01*
X96930Y264809D02*
X98351D01*
X96930Y261309D02*
X98351D01*
X94301Y259809D02*
X95079D01*
X94301D02*
Y261309D01*
X96374Y259809D02*
X96467D01*
X94301Y261309D02*
X95079D01*
Y259809D02*
X96374D01*
X96467D02*
X96930D01*
X96374Y261309D02*
X96467D01*
X96930D01*
X95079D02*
X96374D01*
X98351Y259809D02*
Y261309D01*
X96930Y259809D02*
X98351D01*
X96930Y256309D02*
X98351D01*
X94301Y254809D02*
X95079D01*
X94301D02*
Y256309D01*
X96374Y254809D02*
X96467D01*
X94301Y256309D02*
X95079D01*
Y254809D02*
X96374D01*
X96467D02*
X96930D01*
X96374Y256309D02*
X96467D01*
X96930D01*
X95079D02*
X96374D01*
X98351Y254809D02*
Y256309D01*
X96930Y254809D02*
X98351D01*
X96930Y251309D02*
X98351D01*
X94301Y249809D02*
X95079D01*
X94301D02*
Y251309D01*
X96374Y249809D02*
X96467D01*
X94301Y251309D02*
X95079D01*
Y249809D02*
X96374D01*
X96467D02*
X96930D01*
X96374Y251309D02*
X96467D01*
X96930D01*
X95079D02*
X96374D01*
X98351Y249809D02*
Y251309D01*
X96930Y249809D02*
X98351D01*
X74901Y264809D02*
X76321D01*
X78172Y266309D02*
X78951D01*
Y264809D02*
Y266309D01*
X76784D02*
X76877D01*
X78172Y264809D02*
X78951D01*
X76877Y266309D02*
X78172D01*
X76321D02*
X76784D01*
Y264809D02*
X76877D01*
X76321D02*
X76784D01*
X76877D02*
X78172D01*
X74901D02*
Y266309D01*
X76321D01*
X74901Y259809D02*
X76321D01*
X78172Y261309D02*
X78951D01*
Y259809D02*
Y261309D01*
X76784D02*
X76877D01*
X78172Y259809D02*
X78951D01*
X76877Y261309D02*
X78172D01*
X76321D02*
X76784D01*
Y259809D02*
X76877D01*
X76321D02*
X76784D01*
X76877D02*
X78172D01*
X74901D02*
Y261309D01*
X76321D01*
X74901Y254809D02*
X76321D01*
X78172Y256309D02*
X78951D01*
Y254809D02*
Y256309D01*
X76784D02*
X76877D01*
X78172Y254809D02*
X78951D01*
X76877Y256309D02*
X78172D01*
X76321D02*
X76784D01*
Y254809D02*
X76877D01*
X76321D02*
X76784D01*
X76877D02*
X78172D01*
X74901D02*
Y256309D01*
X76321D01*
X74901Y249809D02*
X76321D01*
X78172Y251309D02*
X78951D01*
Y249809D02*
Y251309D01*
X76784D02*
X76877D01*
X78172Y249809D02*
X78951D01*
X76877Y251309D02*
X78172D01*
X76321D02*
X76784D01*
Y249809D02*
X76877D01*
X76321D02*
X76784D01*
X76877D02*
X78172D01*
X74901D02*
Y251309D01*
X76321D01*
X94301Y267209D02*
Y267212D01*
X93801Y267709D02*
X93805D01*
X78951Y267209D02*
X78951Y267212D01*
X79451Y267709D02*
X93801D01*
X78951Y248909D02*
Y267209D01*
X79447Y267709D02*
X79451D01*
X93801Y248409D02*
X93805D01*
X79447D02*
X79451D01*
X93801D01*
X78951Y248909D02*
X78951Y248905D01*
X94301Y248909D02*
Y267209D01*
Y248905D02*
Y248909D01*
M02*
