G04 Layer_Color=8388736*
%FSLAX25Y25*%
%MOIN*%
G70*
G01*
G75*
%ADD30R,0.05709X0.02362*%
%ADD69C,0.01400*%
%ADD88O,0.00709X0.02756*%
%ADD89R,0.03400X0.03400*%
%ADD90R,0.03400X0.03400*%
%ADD91O,0.09652X0.05124*%
%ADD92R,0.09652X0.05124*%
%ADD93R,0.28904X0.17132*%
%ADD94R,0.02900X0.02400*%
%ADD95R,0.05400X0.06400*%
%ADD96R,0.02400X0.02900*%
%ADD97C,0.01205*%
%ADD98R,0.10400X0.06400*%
%ADD99R,0.06400X0.10400*%
%ADD100O,0.02008X0.06693*%
%ADD101R,0.02008X0.06693*%
%ADD102R,0.06200X0.02600*%
%ADD103R,0.04337X0.02762*%
%ADD104R,0.10243X0.14179*%
%ADD105R,0.10243X0.05518*%
%ADD106R,0.21660X0.11817*%
%ADD107R,0.06400X0.06400*%
%ADD108R,0.20400X0.07900*%
%ADD109R,0.03550X0.09849*%
%ADD110O,0.03550X0.09849*%
%ADD111O,0.03550X0.09849*%
%ADD112R,0.06400X0.12900*%
%ADD113C,0.03550*%
%ADD114C,0.15361*%
%ADD115R,0.06699X0.06699*%
%ADD116C,0.06699*%
%ADD117C,0.06305*%
%ADD118R,0.06305X0.06305*%
%ADD119R,0.10243X0.10243*%
%ADD120C,0.10243*%
%ADD121C,0.00069*%
%ADD122R,0.10243X0.10243*%
%ADD123C,0.12211*%
%ADD124C,0.07093*%
%ADD125R,0.06305X0.06305*%
%ADD126C,0.05400*%
%ADD127R,0.12211X0.29928*%
%ADD128C,0.01600*%
G36*
X91186Y264140D02*
X91221Y264129D01*
X91254Y264111D01*
X91282Y264088D01*
X91306Y264059D01*
X91323Y264027D01*
X91334Y263991D01*
X91338Y263954D01*
Y252128D01*
X91334Y252091D01*
X91323Y252055D01*
X91306Y252023D01*
X91282Y251994D01*
X91254Y251970D01*
X91221Y251953D01*
X91186Y251942D01*
X91149Y251939D01*
X82078D01*
X82041Y251942D01*
X82006Y251953D01*
X81973Y251970D01*
X81944Y251994D01*
X81921Y252023D01*
X81903Y252055D01*
X81893Y252091D01*
X81889Y252128D01*
Y263954D01*
X81893Y263991D01*
X81903Y264027D01*
X81921Y264059D01*
X81944Y264088D01*
X81973Y264111D01*
X82006Y264129D01*
X82041Y264140D01*
X82078Y264143D01*
X91149D01*
X91186Y264140D01*
D02*
G37*
D30*
X97342Y265541D02*
D03*
Y260541D02*
D03*
Y255541D02*
D03*
Y250541D02*
D03*
X75885D02*
D03*
Y255541D02*
D03*
Y260541D02*
D03*
Y265541D02*
D03*
D69*
X277100Y189700D02*
D03*
X277200Y185500D02*
D03*
X227600Y189200D02*
D03*
Y185000D02*
D03*
X170400Y64200D02*
D03*
Y68300D02*
D03*
X140300Y64100D02*
D03*
X143100D02*
D03*
X140300Y68200D02*
D03*
X143100D02*
D03*
X504500Y97200D02*
D03*
X501300D02*
D03*
Y93100D02*
D03*
X479000D02*
D03*
X476100D02*
D03*
Y97200D02*
D03*
X479000D02*
D03*
X481700Y93100D02*
D03*
Y97200D02*
D03*
X484300D02*
D03*
Y93100D02*
D03*
X487200Y97200D02*
D03*
Y93100D02*
D03*
X492600Y97200D02*
D03*
Y93100D02*
D03*
X495400Y97200D02*
D03*
Y93100D02*
D03*
X504500D02*
D03*
X489900D02*
D03*
Y97200D02*
D03*
X498400D02*
D03*
Y93100D02*
D03*
X168192Y64225D02*
D03*
Y68325D02*
D03*
X165292Y64225D02*
D03*
Y68325D02*
D03*
X159992D02*
D03*
Y64225D02*
D03*
X157092Y68325D02*
D03*
Y64225D02*
D03*
X151692Y68325D02*
D03*
X148892D02*
D03*
X151692Y64225D02*
D03*
X148892D02*
D03*
X162592Y68325D02*
D03*
Y64225D02*
D03*
X154392Y68325D02*
D03*
Y64225D02*
D03*
X145892Y68325D02*
D03*
Y64225D02*
D03*
X167492Y11200D02*
D03*
X164592D02*
D03*
X167492Y7100D02*
D03*
X164592D02*
D03*
X159292Y11200D02*
D03*
Y7100D02*
D03*
X156392Y11200D02*
D03*
Y7100D02*
D03*
X150992D02*
D03*
Y11200D02*
D03*
X148192D02*
D03*
Y7100D02*
D03*
X139092Y11200D02*
D03*
X142292D02*
D03*
X139092Y7100D02*
D03*
X142292D02*
D03*
X161892Y11200D02*
D03*
Y7100D02*
D03*
X153692Y11200D02*
D03*
Y7100D02*
D03*
X145192Y11200D02*
D03*
Y7100D02*
D03*
X378000Y184200D02*
D03*
X386200Y180100D02*
D03*
X389100D02*
D03*
X386200Y184200D02*
D03*
X394500Y180100D02*
D03*
X397300D02*
D03*
X394500Y184200D02*
D03*
X397300D02*
D03*
X403200Y180100D02*
D03*
X406400Y184200D02*
D03*
Y180100D02*
D03*
X403200Y184200D02*
D03*
X279400Y185550D02*
D03*
X282300D02*
D03*
X279400Y189650D02*
D03*
X282300D02*
D03*
X287600Y185550D02*
D03*
Y189650D02*
D03*
X290500Y185550D02*
D03*
Y189650D02*
D03*
X295900D02*
D03*
Y185550D02*
D03*
X298700D02*
D03*
Y189650D02*
D03*
X304600Y185550D02*
D03*
X307800D02*
D03*
X304600Y189650D02*
D03*
X307800D02*
D03*
X285000Y185550D02*
D03*
Y189650D02*
D03*
X293200Y185550D02*
D03*
Y189650D02*
D03*
X301700Y185550D02*
D03*
Y189650D02*
D03*
X225300Y185100D02*
D03*
X222400D02*
D03*
X225300Y189200D02*
D03*
X222400D02*
D03*
X217100Y185100D02*
D03*
Y189200D02*
D03*
X214200Y185100D02*
D03*
Y189200D02*
D03*
X208800Y185100D02*
D03*
X206000D02*
D03*
X208800Y189200D02*
D03*
X206000D02*
D03*
X200100Y185100D02*
D03*
X196900D02*
D03*
X200100Y189200D02*
D03*
X196900D02*
D03*
X219700Y185100D02*
D03*
Y189200D02*
D03*
X211500Y185100D02*
D03*
Y189200D02*
D03*
X203000Y185100D02*
D03*
Y189200D02*
D03*
X380900Y184200D02*
D03*
X378000Y180100D02*
D03*
X389100Y184200D02*
D03*
X380900Y180100D02*
D03*
D88*
X379575Y159200D02*
D03*
X378000D02*
D03*
X381150D02*
D03*
X382724D02*
D03*
X384299D02*
D03*
X385874D02*
D03*
X387449D02*
D03*
X389024D02*
D03*
X390598D02*
D03*
X392173D02*
D03*
X393748D02*
D03*
X395323D02*
D03*
X378000Y164436D02*
D03*
X379575D02*
D03*
X381150D02*
D03*
X382724D02*
D03*
X384299D02*
D03*
X385874D02*
D03*
X387449D02*
D03*
X389024D02*
D03*
X390598D02*
D03*
X392173D02*
D03*
X393748D02*
D03*
X395323D02*
D03*
X396898D02*
D03*
X398472D02*
D03*
X400047D02*
D03*
X396898Y159200D02*
D03*
X398472D02*
D03*
X400047D02*
D03*
X379575Y145364D02*
D03*
X378000D02*
D03*
X381150D02*
D03*
X382724D02*
D03*
X384299D02*
D03*
X385874D02*
D03*
X387449D02*
D03*
X389024D02*
D03*
X390598D02*
D03*
X392173D02*
D03*
X393748D02*
D03*
X395323D02*
D03*
X378000Y150600D02*
D03*
X379575D02*
D03*
X381150D02*
D03*
X382724D02*
D03*
X384299D02*
D03*
X385874D02*
D03*
X387449D02*
D03*
X389024D02*
D03*
X390598D02*
D03*
X392173D02*
D03*
X393748D02*
D03*
X395323D02*
D03*
X396898D02*
D03*
X398472D02*
D03*
X400047D02*
D03*
X396898Y145364D02*
D03*
X398472D02*
D03*
X400047D02*
D03*
X477675Y72200D02*
D03*
X476100D02*
D03*
X479250D02*
D03*
X480824D02*
D03*
X482399D02*
D03*
X483974D02*
D03*
X485549D02*
D03*
X487124D02*
D03*
X488698D02*
D03*
X490273D02*
D03*
X491848D02*
D03*
X493423D02*
D03*
X476100Y77436D02*
D03*
X477675D02*
D03*
X479250D02*
D03*
X480824D02*
D03*
X482399D02*
D03*
X483974D02*
D03*
X485549D02*
D03*
X487124D02*
D03*
X488698D02*
D03*
X490273D02*
D03*
X491848D02*
D03*
X493423D02*
D03*
X494998D02*
D03*
X496572D02*
D03*
X498147D02*
D03*
X494998Y72200D02*
D03*
X496572D02*
D03*
X498147D02*
D03*
X166618Y89225D02*
D03*
X168192D02*
D03*
X165043D02*
D03*
X163468D02*
D03*
X161893D02*
D03*
X160318D02*
D03*
X158744D02*
D03*
X157169D02*
D03*
X155594D02*
D03*
X154019D02*
D03*
X152444D02*
D03*
X150870D02*
D03*
X168192Y83989D02*
D03*
X166618D02*
D03*
X165043D02*
D03*
X163468D02*
D03*
X161893D02*
D03*
X160318D02*
D03*
X158744D02*
D03*
X157169D02*
D03*
X155594D02*
D03*
X154019D02*
D03*
X152444D02*
D03*
X150870D02*
D03*
X149295D02*
D03*
X147720D02*
D03*
X146145D02*
D03*
X149295Y89225D02*
D03*
X147720D02*
D03*
X146145D02*
D03*
X165918Y32100D02*
D03*
X167492D02*
D03*
X164343D02*
D03*
X162768D02*
D03*
X161193D02*
D03*
X159618D02*
D03*
X158044D02*
D03*
X156469D02*
D03*
X154894D02*
D03*
X153319D02*
D03*
X151744D02*
D03*
X150170D02*
D03*
X167492Y26864D02*
D03*
X165918D02*
D03*
X164343D02*
D03*
X162768D02*
D03*
X161193D02*
D03*
X159618D02*
D03*
X158044D02*
D03*
X156469D02*
D03*
X154894D02*
D03*
X153319D02*
D03*
X151744D02*
D03*
X150170D02*
D03*
X148595D02*
D03*
X147020D02*
D03*
X145445D02*
D03*
X148595Y32100D02*
D03*
X147020D02*
D03*
X145445D02*
D03*
X280975Y164650D02*
D03*
X279400D02*
D03*
X282550D02*
D03*
X284124D02*
D03*
X285699D02*
D03*
X287274D02*
D03*
X288849D02*
D03*
X290424D02*
D03*
X291998D02*
D03*
X293573D02*
D03*
X295148D02*
D03*
X296723D02*
D03*
X279400Y169886D02*
D03*
X280975D02*
D03*
X282550D02*
D03*
X284124D02*
D03*
X285699D02*
D03*
X287274D02*
D03*
X288849D02*
D03*
X290424D02*
D03*
X291998D02*
D03*
X293573D02*
D03*
X295148D02*
D03*
X296723D02*
D03*
X298298D02*
D03*
X299872D02*
D03*
X301447D02*
D03*
X298298Y164650D02*
D03*
X299872D02*
D03*
X301447D02*
D03*
X477675Y58364D02*
D03*
X476100D02*
D03*
X479250D02*
D03*
X480824D02*
D03*
X482399D02*
D03*
X483974D02*
D03*
X485549D02*
D03*
X487124D02*
D03*
X488698D02*
D03*
X490273D02*
D03*
X491848D02*
D03*
X493423D02*
D03*
X476100Y63600D02*
D03*
X477675D02*
D03*
X479250D02*
D03*
X480824D02*
D03*
X482399D02*
D03*
X483974D02*
D03*
X485549D02*
D03*
X487124D02*
D03*
X488698D02*
D03*
X490273D02*
D03*
X491848D02*
D03*
X493423D02*
D03*
X494998D02*
D03*
X496572D02*
D03*
X498147D02*
D03*
X494998Y58364D02*
D03*
X496572D02*
D03*
X498147D02*
D03*
X166618Y103061D02*
D03*
X168192D02*
D03*
X165043D02*
D03*
X163468D02*
D03*
X161893D02*
D03*
X160318D02*
D03*
X158744D02*
D03*
X157169D02*
D03*
X155594D02*
D03*
X154019D02*
D03*
X152444D02*
D03*
X150870D02*
D03*
X168192Y97825D02*
D03*
X166618D02*
D03*
X165043D02*
D03*
X163468D02*
D03*
X161893D02*
D03*
X160318D02*
D03*
X158744D02*
D03*
X157169D02*
D03*
X155594D02*
D03*
X154019D02*
D03*
X152444D02*
D03*
X150870D02*
D03*
X149295D02*
D03*
X147720D02*
D03*
X146145D02*
D03*
X149295Y103061D02*
D03*
X147720D02*
D03*
X146145D02*
D03*
X165918Y45936D02*
D03*
X167492D02*
D03*
X164343D02*
D03*
X162768D02*
D03*
X161193D02*
D03*
X159618D02*
D03*
X158044D02*
D03*
X156469D02*
D03*
X154894D02*
D03*
X153319D02*
D03*
X151744D02*
D03*
X150170D02*
D03*
X167492Y40700D02*
D03*
X165918D02*
D03*
X164343D02*
D03*
X162768D02*
D03*
X161193D02*
D03*
X159618D02*
D03*
X158044D02*
D03*
X156469D02*
D03*
X154894D02*
D03*
X153319D02*
D03*
X151744D02*
D03*
X150170D02*
D03*
X148595D02*
D03*
X147020D02*
D03*
X145445D02*
D03*
X148595Y45936D02*
D03*
X147020D02*
D03*
X145445D02*
D03*
X280975Y150814D02*
D03*
X279400D02*
D03*
X282550D02*
D03*
X284124D02*
D03*
X285699D02*
D03*
X287274D02*
D03*
X288849D02*
D03*
X290424D02*
D03*
X291998D02*
D03*
X293573D02*
D03*
X295148D02*
D03*
X296723D02*
D03*
X279400Y156050D02*
D03*
X280975D02*
D03*
X282550D02*
D03*
X284124D02*
D03*
X285699D02*
D03*
X287274D02*
D03*
X288849D02*
D03*
X290424D02*
D03*
X291998D02*
D03*
X293573D02*
D03*
X295148D02*
D03*
X296723D02*
D03*
X298298D02*
D03*
X299872D02*
D03*
X301447D02*
D03*
X298298Y150814D02*
D03*
X299872D02*
D03*
X301447D02*
D03*
D89*
X336200Y130100D02*
D03*
Y135600D02*
D03*
X71048Y242600D02*
D03*
Y237100D02*
D03*
X216500Y272500D02*
D03*
Y267000D02*
D03*
X110148Y237700D02*
D03*
Y232200D02*
D03*
Y253700D02*
D03*
Y248200D02*
D03*
X176048Y264100D02*
D03*
Y269600D02*
D03*
X254500Y259900D02*
D03*
Y254400D02*
D03*
X176148Y247000D02*
D03*
Y252500D02*
D03*
X109848Y270200D02*
D03*
Y264700D02*
D03*
X302900Y108500D02*
D03*
Y114000D02*
D03*
D90*
X362600Y236400D02*
D03*
X368100D02*
D03*
X345900Y236300D02*
D03*
X351400D02*
D03*
X259900Y269500D02*
D03*
X254400D02*
D03*
X222200Y257100D02*
D03*
X216700D02*
D03*
X216800Y216900D02*
D03*
X222300D02*
D03*
X53800Y99200D02*
D03*
X59300D02*
D03*
X93200Y228400D02*
D03*
X98700D02*
D03*
D91*
X544799Y83600D02*
D03*
Y73600D02*
D03*
Y63600D02*
D03*
Y53600D02*
D03*
Y43600D02*
D03*
X616000Y83600D02*
D03*
Y73600D02*
D03*
Y63600D02*
D03*
Y53600D02*
D03*
D92*
Y43600D02*
D03*
D93*
X580400Y41474D02*
D03*
Y85726D02*
D03*
D94*
X365600Y150400D02*
D03*
X360600D02*
D03*
X361500Y162000D02*
D03*
X366500D02*
D03*
X359900Y146600D02*
D03*
X364900D02*
D03*
X360000Y143300D02*
D03*
X365000D02*
D03*
X374700Y146800D02*
D03*
X369700D02*
D03*
X463700Y63400D02*
D03*
X458700D02*
D03*
X180592Y98025D02*
D03*
X185592D02*
D03*
X179892Y40900D02*
D03*
X184892D02*
D03*
X267000Y155850D02*
D03*
X262000D02*
D03*
X459600Y75000D02*
D03*
X464600D02*
D03*
X184692Y86425D02*
D03*
X179692D02*
D03*
X183992Y29300D02*
D03*
X178992D02*
D03*
X262900Y167450D02*
D03*
X267900D02*
D03*
X463000Y59600D02*
D03*
X458000D02*
D03*
X186292Y101825D02*
D03*
X181292D02*
D03*
X180592Y44700D02*
D03*
X185592D02*
D03*
X266300Y152050D02*
D03*
X261300D02*
D03*
X463100Y56300D02*
D03*
X458100D02*
D03*
X186192Y105125D02*
D03*
X181192D02*
D03*
X180492Y48000D02*
D03*
X185492D02*
D03*
X266400Y148750D02*
D03*
X261400D02*
D03*
X467800Y59800D02*
D03*
X472800D02*
D03*
X171492Y101625D02*
D03*
X176492D02*
D03*
X175792Y44500D02*
D03*
X170792D02*
D03*
X271100Y152250D02*
D03*
X276100D02*
D03*
D95*
X404600Y173000D02*
D03*
Y182000D02*
D03*
X395900Y173000D02*
D03*
Y182000D02*
D03*
X387600Y173000D02*
D03*
Y182000D02*
D03*
X379500Y173000D02*
D03*
Y182000D02*
D03*
X502700Y86000D02*
D03*
Y95000D02*
D03*
X141592Y75425D02*
D03*
Y66425D02*
D03*
X140892Y18300D02*
D03*
Y9300D02*
D03*
X306000Y178450D02*
D03*
Y187450D02*
D03*
X494000Y86000D02*
D03*
Y95000D02*
D03*
X150292Y75425D02*
D03*
Y66425D02*
D03*
X149592Y18300D02*
D03*
Y9300D02*
D03*
X297300Y178450D02*
D03*
Y187450D02*
D03*
X485700Y86000D02*
D03*
Y95000D02*
D03*
X158592Y75425D02*
D03*
Y66425D02*
D03*
X157892Y18300D02*
D03*
Y9300D02*
D03*
X289000Y178450D02*
D03*
Y187450D02*
D03*
X477600Y86000D02*
D03*
Y95000D02*
D03*
X166692Y75425D02*
D03*
Y66425D02*
D03*
X165992Y18300D02*
D03*
Y9300D02*
D03*
X280900Y178450D02*
D03*
Y187450D02*
D03*
X54500Y263300D02*
D03*
Y254300D02*
D03*
X259700Y240600D02*
D03*
Y231600D02*
D03*
X189400Y247000D02*
D03*
Y238000D02*
D03*
D96*
X369900Y161700D02*
D03*
Y166700D02*
D03*
X373300Y166600D02*
D03*
Y161600D02*
D03*
X374400Y149700D02*
D03*
Y154700D02*
D03*
X468000Y74700D02*
D03*
Y79700D02*
D03*
X176292Y86725D02*
D03*
Y81725D02*
D03*
X175592Y29600D02*
D03*
Y24600D02*
D03*
X271300Y167150D02*
D03*
Y172150D02*
D03*
X471400Y74600D02*
D03*
Y79600D02*
D03*
X172892Y81825D02*
D03*
Y86825D02*
D03*
X172192Y29700D02*
D03*
Y24700D02*
D03*
X274700Y167050D02*
D03*
Y172050D02*
D03*
X472500Y67700D02*
D03*
Y62700D02*
D03*
X171792Y98725D02*
D03*
Y93725D02*
D03*
X171092Y36600D02*
D03*
Y41600D02*
D03*
X275800Y160150D02*
D03*
Y155150D02*
D03*
X335300Y108900D02*
D03*
Y113900D02*
D03*
D97*
X365938Y158662D02*
D03*
X367513D02*
D03*
X369087Y158662D02*
D03*
X370662D02*
D03*
X365938Y157087D02*
D03*
X370662Y157087D02*
D03*
X365938Y155513D02*
D03*
X370662Y155513D02*
D03*
X365938Y153938D02*
D03*
X367513D02*
D03*
X369087Y153938D02*
D03*
X370662D02*
D03*
X464038Y71662D02*
D03*
X465613D02*
D03*
X467187Y71662D02*
D03*
X468762D02*
D03*
X464038Y70087D02*
D03*
X468762Y70087D02*
D03*
X464038Y68513D02*
D03*
X468762Y68513D02*
D03*
X464038Y66938D02*
D03*
X465613D02*
D03*
X467187Y66938D02*
D03*
X468762D02*
D03*
X180254Y89763D02*
D03*
X178680D02*
D03*
X177105Y89763D02*
D03*
X175530D02*
D03*
X180254Y91337D02*
D03*
X175530Y91337D02*
D03*
X180254Y92912D02*
D03*
X175530Y92912D02*
D03*
X180254Y94487D02*
D03*
X178680D02*
D03*
X177105Y94487D02*
D03*
X175530D02*
D03*
X179554Y32638D02*
D03*
X177980D02*
D03*
X176405Y32638D02*
D03*
X174830D02*
D03*
X179554Y34213D02*
D03*
X174830Y34213D02*
D03*
X179554Y35787D02*
D03*
X174830Y35787D02*
D03*
X179554Y37362D02*
D03*
X177980D02*
D03*
X176405Y37362D02*
D03*
X174830D02*
D03*
X267338Y164112D02*
D03*
X268913D02*
D03*
X270487Y164112D02*
D03*
X272062D02*
D03*
X267338Y162537D02*
D03*
X272062Y162537D02*
D03*
X267338Y160963D02*
D03*
X272062Y160963D02*
D03*
X267338Y159388D02*
D03*
X268913D02*
D03*
X270487Y159388D02*
D03*
X272062D02*
D03*
D98*
X39200Y252400D02*
D03*
Y265900D02*
D03*
D99*
X327500Y156299D02*
D03*
X341000D02*
D03*
X341200Y171500D02*
D03*
X327700D02*
D03*
D100*
X310550Y108870D02*
D03*
X313050D02*
D03*
X315550D02*
D03*
X318050D02*
D03*
X320550D02*
D03*
X323050D02*
D03*
X325550D02*
D03*
X328050D02*
D03*
X310550Y130130D02*
D03*
X313050D02*
D03*
X315550D02*
D03*
X318050D02*
D03*
X320550D02*
D03*
X323050D02*
D03*
X325550D02*
D03*
D101*
X328050D02*
D03*
D102*
X243300Y267640D02*
D03*
Y260160D02*
D03*
X233900D02*
D03*
Y263900D02*
D03*
Y267640D02*
D03*
D103*
X282376Y134980D02*
D03*
Y131240D02*
D03*
Y127500D02*
D03*
X293400Y134980D02*
D03*
Y127500D02*
D03*
D104*
X201900Y235400D02*
D03*
D105*
X226703D02*
D03*
Y244400D02*
D03*
Y226400D02*
D03*
D106*
X142848Y273488D02*
D03*
Y234512D02*
D03*
D107*
X245800Y240500D02*
D03*
Y227000D02*
D03*
D108*
X41700Y189300D02*
D03*
Y164300D02*
D03*
X44000Y48500D02*
D03*
Y23500D02*
D03*
X294900Y201900D02*
D03*
Y226900D02*
D03*
X243900Y186100D02*
D03*
Y211100D02*
D03*
D109*
X44300Y62895D02*
D03*
D110*
X59300D02*
D03*
X54300D02*
D03*
X49300D02*
D03*
X54300Y87305D02*
D03*
X44300Y87305D02*
D03*
D111*
X59300D02*
D03*
X49300D02*
D03*
D112*
X344950Y186600D02*
D03*
X326450D02*
D03*
D113*
X556200Y14800D02*
D03*
X426500Y11600D02*
D03*
X435200Y7600D02*
D03*
X563022Y108500D02*
D03*
X560400Y101700D02*
D03*
X527300Y253700D02*
D03*
X459900Y244900D02*
D03*
X465600Y249800D02*
D03*
X474800Y250300D02*
D03*
X481700Y249300D02*
D03*
X519200Y251000D02*
D03*
X479000Y220100D02*
D03*
X465900Y231400D02*
D03*
X443400Y228400D02*
D03*
X436400Y227900D02*
D03*
X429400Y227800D02*
D03*
X425100Y232100D02*
D03*
X397600Y232700D02*
D03*
X397100Y226800D02*
D03*
X372700Y228400D02*
D03*
X384800Y240000D02*
D03*
X346400Y227500D02*
D03*
X338200Y222100D02*
D03*
X605500Y24200D02*
D03*
X54500Y219900D02*
D03*
X69400Y115800D02*
D03*
X102600Y121900D02*
D03*
X249300Y113800D02*
D03*
X615000Y23900D02*
D03*
X389200Y230100D02*
D03*
X236000Y251000D02*
D03*
X57700Y153300D02*
D03*
X273100Y110800D02*
D03*
X320000Y236300D02*
D03*
X315900Y141900D02*
D03*
X609200Y256000D02*
D03*
X497500Y233600D02*
D03*
X305500Y237300D02*
D03*
X266700Y218900D02*
D03*
X312700Y236800D02*
D03*
X198300Y150900D02*
D03*
Y145000D02*
D03*
X405000Y145900D02*
D03*
X404800Y136800D02*
D03*
X503100Y59300D02*
D03*
X141192Y102525D02*
D03*
X140492Y45400D02*
D03*
X306400Y151350D02*
D03*
X503100Y53000D02*
D03*
X141192Y108425D02*
D03*
X140492Y51300D02*
D03*
X306400Y145450D02*
D03*
X462700Y107400D02*
D03*
X450200Y107300D02*
D03*
D114*
X142200Y198821D02*
D03*
Y138979D02*
D03*
D115*
X505900Y199900D02*
D03*
D116*
X495900D02*
D03*
X485900D02*
D03*
X475900D02*
D03*
X455900D02*
D03*
X445900D02*
D03*
X435900D02*
D03*
X425900D02*
D03*
X505900Y119900D02*
D03*
X490900D02*
D03*
X475900D02*
D03*
X455900D02*
D03*
X440900D02*
D03*
X425900D02*
D03*
D117*
X599100Y279400D02*
D03*
Y269400D02*
D03*
X589100Y279400D02*
D03*
Y269400D02*
D03*
X579100Y279400D02*
D03*
Y269400D02*
D03*
X569100Y279400D02*
D03*
Y269400D02*
D03*
X559100Y279400D02*
D03*
Y269400D02*
D03*
X549100Y279400D02*
D03*
Y269400D02*
D03*
X539100Y279400D02*
D03*
Y269400D02*
D03*
X529100Y279400D02*
D03*
Y269400D02*
D03*
X519100Y279400D02*
D03*
Y269400D02*
D03*
X509100Y279400D02*
D03*
Y269400D02*
D03*
X499100Y279400D02*
D03*
Y269400D02*
D03*
X489100Y279400D02*
D03*
Y269400D02*
D03*
X479100Y279400D02*
D03*
Y269400D02*
D03*
X469100Y279400D02*
D03*
Y269400D02*
D03*
X459100Y279400D02*
D03*
Y269400D02*
D03*
X449100Y279400D02*
D03*
Y269400D02*
D03*
X439100Y279400D02*
D03*
Y269400D02*
D03*
X429100Y279400D02*
D03*
Y269400D02*
D03*
X419100Y279400D02*
D03*
Y269400D02*
D03*
X409100Y279400D02*
D03*
Y269400D02*
D03*
X399100D02*
D03*
X389100Y279400D02*
D03*
X399100D02*
D03*
X32200Y227200D02*
D03*
D118*
X389100Y269400D02*
D03*
D119*
X7000Y211286D02*
D03*
X614000Y222600D02*
D03*
X7400Y229700D02*
D03*
X7700Y54886D02*
D03*
D120*
X7000Y164514D02*
D03*
Y195695D02*
D03*
Y180105D02*
D03*
X524000Y122600D02*
D03*
X539000D02*
D03*
X554000D02*
D03*
X584000D02*
D03*
X599000D02*
D03*
X614000D02*
D03*
X524000Y222600D02*
D03*
X539000D02*
D03*
X554000D02*
D03*
X584000D02*
D03*
X599000D02*
D03*
X7400Y245290D02*
D03*
X498886Y7700D02*
D03*
X467705D02*
D03*
X483295D02*
D03*
X7700Y8114D02*
D03*
Y39295D02*
D03*
Y23705D02*
D03*
D121*
X84448Y260600D02*
D03*
X88779D02*
D03*
X84448Y255482D02*
D03*
X88779D02*
D03*
Y265718D02*
D03*
X84448D02*
D03*
Y250364D02*
D03*
X88779D02*
D03*
D122*
X452114Y7700D02*
D03*
D123*
X409600Y81570D02*
D03*
Y42200D02*
D03*
X231000Y81700D02*
D03*
Y42330D02*
D03*
X321600Y40500D02*
D03*
Y79870D02*
D03*
D124*
X299400Y261400D02*
D03*
X309400D02*
D03*
X319400D02*
D03*
X359400D02*
D03*
X369400D02*
D03*
X349400D02*
D03*
X339400D02*
D03*
D125*
X32200Y217200D02*
D03*
D126*
X20900Y105800D02*
D03*
Y85800D02*
D03*
Y75800D02*
D03*
Y95800D02*
D03*
Y125800D02*
D03*
Y135800D02*
D03*
Y145800D02*
D03*
D127*
X108895Y88700D02*
D03*
X88305Y23700D02*
D03*
D128*
X234900Y188700D02*
D03*
X238440D02*
D03*
X241980D02*
D03*
X245520D02*
D03*
X249060D02*
D03*
X252600D02*
D03*
X234900Y186200D02*
D03*
X238440D02*
D03*
X241980D02*
D03*
X245520D02*
D03*
X249060D02*
D03*
X252600D02*
D03*
X252620Y183500D02*
D03*
X249080D02*
D03*
X245540D02*
D03*
X242000D02*
D03*
X238460D02*
D03*
X234920D02*
D03*
X286420Y224100D02*
D03*
X289960D02*
D03*
X293500D02*
D03*
X297040D02*
D03*
X300580D02*
D03*
X304120D02*
D03*
X304100Y226800D02*
D03*
X300560D02*
D03*
X297020D02*
D03*
X293480D02*
D03*
X289940D02*
D03*
X286400D02*
D03*
X304100Y229300D02*
D03*
X300560D02*
D03*
X297020D02*
D03*
X293480D02*
D03*
X289940D02*
D03*
X286400D02*
D03*
X235520Y208700D02*
D03*
X239060D02*
D03*
X242600D02*
D03*
X246140D02*
D03*
X249680D02*
D03*
X253220D02*
D03*
X253200Y211400D02*
D03*
X249660D02*
D03*
X246120D02*
D03*
X242580D02*
D03*
X239040D02*
D03*
X235500D02*
D03*
X253200Y213900D02*
D03*
X249660D02*
D03*
X246120D02*
D03*
X242580D02*
D03*
X239040D02*
D03*
X235500D02*
D03*
X63400Y166800D02*
D03*
X66940D02*
D03*
X70480D02*
D03*
X74020D02*
D03*
X77560D02*
D03*
X81100D02*
D03*
X63400Y164300D02*
D03*
X66940D02*
D03*
X70480D02*
D03*
X74020D02*
D03*
X77560D02*
D03*
X81100D02*
D03*
X81120Y161600D02*
D03*
X77580D02*
D03*
X74040D02*
D03*
X70500D02*
D03*
X66960D02*
D03*
X63420D02*
D03*
X63500Y191800D02*
D03*
X67040D02*
D03*
X70580D02*
D03*
X74120D02*
D03*
X77660D02*
D03*
X81200D02*
D03*
X63500Y189300D02*
D03*
X67040D02*
D03*
X70580D02*
D03*
X74120D02*
D03*
X77660D02*
D03*
X81200D02*
D03*
X81220Y186600D02*
D03*
X77680D02*
D03*
X74140D02*
D03*
X70600D02*
D03*
X67060D02*
D03*
X63520D02*
D03*
X515980Y74600D02*
D03*
X519520D02*
D03*
X523060D02*
D03*
X526600D02*
D03*
X530140D02*
D03*
X533680D02*
D03*
X515980Y72100D02*
D03*
X519520D02*
D03*
X523060D02*
D03*
X526600D02*
D03*
X530140D02*
D03*
X533680D02*
D03*
X533700Y69400D02*
D03*
X530160D02*
D03*
X526620D02*
D03*
X523080D02*
D03*
X519540D02*
D03*
X516000D02*
D03*
X568940Y39900D02*
D03*
Y37400D02*
D03*
X568960Y34700D02*
D03*
X568940Y45700D02*
D03*
X568960Y43000D02*
D03*
X572260Y42900D02*
D03*
X575800D02*
D03*
X579340D02*
D03*
X582880D02*
D03*
X586420D02*
D03*
X589960D02*
D03*
X589940Y45600D02*
D03*
X586400D02*
D03*
X582860D02*
D03*
X579320D02*
D03*
X575780D02*
D03*
X572240D02*
D03*
X572260Y34600D02*
D03*
X575800D02*
D03*
X579340D02*
D03*
X582880D02*
D03*
X586420D02*
D03*
X589960D02*
D03*
X589940Y37300D02*
D03*
X586400D02*
D03*
X582860D02*
D03*
X579320D02*
D03*
X575780D02*
D03*
X572240D02*
D03*
X586400Y39800D02*
D03*
X582860D02*
D03*
X579320D02*
D03*
X575780D02*
D03*
X572240D02*
D03*
X589940D02*
D03*
X33100Y161500D02*
D03*
X36640D02*
D03*
X40180D02*
D03*
X43720D02*
D03*
X47260D02*
D03*
X50800D02*
D03*
X50780Y164200D02*
D03*
X47240D02*
D03*
X43700D02*
D03*
X40160D02*
D03*
X36620D02*
D03*
X33080D02*
D03*
X50780Y166700D02*
D03*
X47240D02*
D03*
X43700D02*
D03*
X40160D02*
D03*
X36620D02*
D03*
X33080D02*
D03*
X33300Y186600D02*
D03*
X36840D02*
D03*
X40380D02*
D03*
X43920D02*
D03*
X47460D02*
D03*
X51000D02*
D03*
X50980Y189300D02*
D03*
X47440D02*
D03*
X43900D02*
D03*
X40360D02*
D03*
X36820D02*
D03*
X33280D02*
D03*
X50980Y191800D02*
D03*
X47440D02*
D03*
X43900D02*
D03*
X40360D02*
D03*
X36820D02*
D03*
X33280D02*
D03*
X35500Y25600D02*
D03*
X39040D02*
D03*
X42580D02*
D03*
X46120D02*
D03*
X49660D02*
D03*
X53200D02*
D03*
X35500Y23100D02*
D03*
X39040D02*
D03*
X42580D02*
D03*
X46120D02*
D03*
X49660D02*
D03*
X53200D02*
D03*
X53220Y20400D02*
D03*
X49680D02*
D03*
X46140D02*
D03*
X42600D02*
D03*
X39060D02*
D03*
X35520D02*
D03*
X35500Y50900D02*
D03*
X39040D02*
D03*
X42580D02*
D03*
X46120D02*
D03*
X49660D02*
D03*
X53200D02*
D03*
X35500Y48400D02*
D03*
X39040D02*
D03*
X42580D02*
D03*
X46120D02*
D03*
X49660D02*
D03*
X53200D02*
D03*
X53220Y45700D02*
D03*
X49680D02*
D03*
X46140D02*
D03*
X42600D02*
D03*
X39060D02*
D03*
X35520D02*
D03*
X285700Y204500D02*
D03*
X289240D02*
D03*
X292780D02*
D03*
X296320D02*
D03*
X299860D02*
D03*
X303400D02*
D03*
X285700Y202000D02*
D03*
X289240D02*
D03*
X292780D02*
D03*
X296320D02*
D03*
X299860D02*
D03*
X303400D02*
D03*
X303420Y199300D02*
D03*
X299880D02*
D03*
X296340D02*
D03*
X292800D02*
D03*
X289260D02*
D03*
X285720D02*
D03*
X515920Y44300D02*
D03*
X519460D02*
D03*
X523000D02*
D03*
X526540D02*
D03*
X530080D02*
D03*
X533620D02*
D03*
X533600Y47000D02*
D03*
X530060D02*
D03*
X526520D02*
D03*
X522980D02*
D03*
X519440D02*
D03*
X515900D02*
D03*
X533600Y49500D02*
D03*
X530060D02*
D03*
X526520D02*
D03*
X522980D02*
D03*
X519440D02*
D03*
X515900D02*
D03*
X516120Y32300D02*
D03*
X519660D02*
D03*
X523200D02*
D03*
X526740D02*
D03*
X530280D02*
D03*
X533820D02*
D03*
X533800Y35000D02*
D03*
X530260D02*
D03*
X526720D02*
D03*
X523180D02*
D03*
X519640D02*
D03*
X516100D02*
D03*
X533800Y37500D02*
D03*
X530260D02*
D03*
X526720D02*
D03*
X523180D02*
D03*
X519640D02*
D03*
X516100D02*
D03*
X515820Y7300D02*
D03*
X519360D02*
D03*
X522900D02*
D03*
X526440D02*
D03*
X529980D02*
D03*
X533520D02*
D03*
X533500Y10000D02*
D03*
X529960D02*
D03*
X526420D02*
D03*
X522880D02*
D03*
X519340D02*
D03*
X515800D02*
D03*
X533500Y12500D02*
D03*
X529960D02*
D03*
X526420D02*
D03*
X522880D02*
D03*
X519340D02*
D03*
X515800D02*
D03*
M02*
