G04 Layer_Physical_Order=3*
G04 Layer_Color=16440176*
%FSLAX25Y25*%
%MOIN*%
G70*
G01*
G75*
%ADD39C,0.00800*%
%ADD40C,0.01050*%
%ADD41C,0.01000*%
%ADD43C,0.01500*%
%ADD45C,0.02500*%
%ADD51C,0.03150*%
%ADD52C,0.14961*%
%ADD55C,0.05905*%
%ADD58C,0.09842*%
%ADD62C,0.06693*%
%ADD64C,0.05000*%
%ADD66C,0.01000*%
%ADD68C,0.03000*%
%ADD69C,0.01400*%
%ADD70C,0.01200*%
G36*
X509000Y123300D02*
X509200D01*
Y122701D01*
X508727Y122540D01*
X508646Y122646D01*
X507841Y123263D01*
X506905Y123651D01*
X505900Y123783D01*
X504895Y123651D01*
X503959Y123263D01*
X503154Y122646D01*
X502537Y121841D01*
X502149Y120905D01*
X502017Y119900D01*
X502149Y118895D01*
X502537Y117959D01*
X503154Y117154D01*
X503959Y116537D01*
X504895Y116149D01*
X505900Y116017D01*
X506905Y116149D01*
X507841Y116537D01*
X508646Y117154D01*
X508727Y117260D01*
X509200Y117099D01*
Y107514D01*
X493900D01*
X493627Y107459D01*
X493395Y107305D01*
X485217Y99126D01*
X485140Y99011D01*
X485063Y98896D01*
X485063Y98895D01*
X485062Y98895D01*
X485036Y98761D01*
X485008Y98623D01*
X484958Y98553D01*
X484733Y98345D01*
X484568Y98268D01*
X484300Y98322D01*
X483871Y98236D01*
X483766Y98166D01*
X482227Y98171D01*
X482129Y98236D01*
X481700Y98322D01*
X481271Y98236D01*
X481177Y98174D01*
X479515Y98179D01*
X479429Y98236D01*
X479000Y98322D01*
X478571Y98236D01*
X478489Y98182D01*
X476602Y98187D01*
X476529Y98236D01*
X476100Y98322D01*
X475671Y98236D01*
X475602Y98190D01*
X474033Y98195D01*
X473900Y98222D01*
X473771Y98196D01*
X472400Y98200D01*
X472300Y98100D01*
X472300Y97741D01*
Y91900D01*
X477337D01*
X477529Y91438D01*
X474895Y88805D01*
X474741Y88573D01*
X474686Y88300D01*
Y80998D01*
X474672Y80982D01*
X474595Y80905D01*
X474441Y80673D01*
X474386Y80400D01*
X474386Y74320D01*
X473886Y73984D01*
X473700Y74022D01*
X473271Y73936D01*
X472907Y73693D01*
X472664Y73329D01*
X472578Y72900D01*
X472664Y72471D01*
X472682Y72444D01*
X472879Y72050D01*
X472682Y71656D01*
X472664Y71629D01*
X472618Y71398D01*
X472500Y71422D01*
X472071Y71336D01*
X471707Y71093D01*
X471464Y70729D01*
X471378Y70300D01*
X471464Y69871D01*
X471707Y69507D01*
X472071Y69264D01*
X472500Y69178D01*
X472929Y69264D01*
X473293Y69507D01*
X473515Y69839D01*
X473612Y69888D01*
X473964Y69968D01*
X474386Y69650D01*
X474386Y58732D01*
X473956Y58453D01*
X473886Y58445D01*
X473500Y58522D01*
X473071Y58436D01*
X472707Y58193D01*
X472464Y57829D01*
X472378Y57400D01*
X472464Y56971D01*
X472482Y56944D01*
X472679Y56550D01*
X472482Y56156D01*
X472464Y56129D01*
X472378Y55700D01*
X472464Y55271D01*
X472482Y55244D01*
X472679Y54850D01*
X472482Y54456D01*
X472464Y54429D01*
X472378Y54000D01*
X472464Y53571D01*
X472707Y53207D01*
X473071Y52964D01*
X473500Y52878D01*
X473929Y52964D01*
X474293Y53207D01*
X474535Y53568D01*
X474546Y53571D01*
X475045Y53566D01*
X475064Y53471D01*
X475307Y53107D01*
X475671Y52864D01*
X476100Y52778D01*
X476529Y52864D01*
X476893Y53107D01*
X477136Y53471D01*
X477222Y53900D01*
X477598Y54248D01*
X477751D01*
X478128Y53900D01*
X478213Y53471D01*
X478456Y53107D01*
X478820Y52864D01*
X479250Y52778D01*
X479679Y52864D01*
X480043Y53107D01*
X480286Y53471D01*
X480371Y53900D01*
X480747Y54249D01*
X480902D01*
X481278Y53900D01*
X481364Y53471D01*
X481607Y53107D01*
X481971Y52864D01*
X482400Y52778D01*
X482829Y52864D01*
X483193Y53107D01*
X483436Y53471D01*
X483522Y53900D01*
X483898Y54247D01*
X484050D01*
X484427Y53900D01*
X484513Y53471D01*
X484756Y53107D01*
X485120Y52864D01*
X485549Y52778D01*
X485978Y52864D01*
X486342Y53107D01*
X486585Y53471D01*
X486670Y53900D01*
X487047Y54248D01*
X487200D01*
X487577Y53900D01*
X487662Y53471D01*
X487905Y53107D01*
X488269Y52864D01*
X488698Y52778D01*
X489128Y52864D01*
X489492Y53107D01*
X489735Y53471D01*
X489820Y53900D01*
X490197Y54248D01*
X490350D01*
X490727Y53900D01*
X490812Y53471D01*
X491055Y53107D01*
X491419Y52864D01*
X491848Y52778D01*
X492277Y52864D01*
X492641Y53107D01*
X492884Y53471D01*
X492970Y53900D01*
X493346Y54248D01*
X493499Y54248D01*
X493876Y53900D01*
X493961Y53471D01*
X494205Y53107D01*
X494568Y52864D01*
X494998Y52778D01*
X495427Y52864D01*
X495791Y53107D01*
X496034Y53471D01*
X496119Y53900D01*
X496495Y54248D01*
X496649Y54248D01*
X497026Y53900D01*
X497111Y53471D01*
X497354Y53107D01*
X497718Y52864D01*
X498147Y52778D01*
X498576Y52864D01*
X498940Y53107D01*
X499183Y53471D01*
X499269Y53900D01*
X499246Y54014D01*
X499268Y54102D01*
X499634Y54486D01*
X500756D01*
X501023Y53986D01*
X500957Y53888D01*
X500781Y53000D01*
X500957Y52112D01*
X501460Y51360D01*
X502212Y50857D01*
X503100Y50681D01*
X503988Y50857D01*
X504740Y51360D01*
X505243Y52112D01*
X505419Y53000D01*
X505243Y53888D01*
X504740Y54640D01*
X503988Y55143D01*
X503130Y55313D01*
X502985Y55534D01*
X502866Y55757D01*
X508738Y61629D01*
X509200Y61437D01*
Y1223D01*
X368512D01*
X368333Y1723D01*
X369071Y2329D01*
X370033Y3501D01*
X370748Y4839D01*
X371189Y6290D01*
X371337Y7800D01*
X371189Y9309D01*
X370748Y10761D01*
X370033Y12099D01*
X369071Y13271D01*
X367899Y14233D01*
X366561Y14948D01*
X365109Y15389D01*
X363600Y15537D01*
X362090Y15389D01*
X360639Y14948D01*
X359301Y14233D01*
X358129Y13271D01*
X357167Y12099D01*
X356452Y10761D01*
X356011Y9309D01*
X355863Y7800D01*
X356011Y6290D01*
X356452Y4839D01*
X357167Y3501D01*
X358129Y2329D01*
X358867Y1723D01*
X358688Y1223D01*
X234112D01*
X233933Y1723D01*
X234671Y2329D01*
X235633Y3501D01*
X236348Y4839D01*
X236789Y6290D01*
X236937Y7800D01*
X236789Y9309D01*
X236348Y10761D01*
X235633Y12099D01*
X234671Y13271D01*
X233499Y14233D01*
X232161Y14948D01*
X230710Y15389D01*
X229200Y15537D01*
X227691Y15389D01*
X226239Y14948D01*
X224901Y14233D01*
X223729Y13271D01*
X222767Y12099D01*
X222052Y10761D01*
X221611Y9309D01*
X221463Y7800D01*
X221611Y6290D01*
X222052Y4839D01*
X222767Y3501D01*
X223729Y2329D01*
X224467Y1723D01*
X224288Y1223D01*
X84086D01*
X83895Y1685D01*
X89465Y7256D01*
X89620Y7487D01*
X89674Y7761D01*
X89991Y8186D01*
X90049Y8223D01*
X94210D01*
X94483Y8277D01*
X94715Y8432D01*
X94870Y8663D01*
X94924Y8936D01*
Y13097D01*
X95386Y13472D01*
X95659Y13526D01*
X95890Y13681D01*
X144343Y62133D01*
X144343Y62133D01*
X144343Y62134D01*
X144497Y62365D01*
X144498Y62365D01*
X144498Y62365D01*
X144529Y62522D01*
X144552Y62638D01*
X144552Y62638D01*
X144814Y63023D01*
X144893Y63073D01*
X144959Y63100D01*
X170292D01*
X170400Y63078D01*
X170508Y63100D01*
X171600D01*
Y68983D01*
X171600Y69400D01*
X171500Y69500D01*
X171400Y69400D01*
X171100Y69400D01*
X170508D01*
X170400Y69422D01*
X170292Y69400D01*
X168425D01*
X168192Y69446D01*
X167959Y69400D01*
X165525D01*
X165292Y69446D01*
X165059Y69400D01*
X162825D01*
X162592Y69446D01*
X162359Y69400D01*
X160225D01*
X159992Y69446D01*
X159759Y69400D01*
X157325D01*
X157092Y69446D01*
X156859Y69400D01*
X154625D01*
X154392Y69446D01*
X154159Y69400D01*
X152316D01*
X152109Y69900D01*
X161220Y79011D01*
X168092D01*
X168124Y79018D01*
X168157Y79014D01*
X168260Y79044D01*
X168365Y79065D01*
X168393Y79084D01*
X168424Y79093D01*
X168508Y79160D01*
X168597Y79220D01*
X168615Y79247D01*
X168641Y79268D01*
X169620Y80443D01*
X169697Y80520D01*
X169852Y80752D01*
X169906Y81025D01*
Y87105D01*
X170406Y87440D01*
X170592Y87403D01*
X171021Y87489D01*
X171385Y87732D01*
X171628Y88096D01*
X171714Y88525D01*
X171628Y88954D01*
X171610Y88981D01*
X171414Y89375D01*
X171610Y89769D01*
X171628Y89796D01*
X171693Y90120D01*
X171900Y90078D01*
X172329Y90164D01*
X172693Y90407D01*
X172936Y90771D01*
X173022Y91200D01*
X172936Y91629D01*
X172693Y91993D01*
X172329Y92236D01*
X171900Y92322D01*
X171471Y92236D01*
X171107Y91993D01*
X170864Y91629D01*
X170837Y91495D01*
X170316Y91370D01*
X169906Y91645D01*
Y102693D01*
X170337Y102972D01*
X170406Y102980D01*
X170792Y102903D01*
X171221Y102989D01*
X171585Y103232D01*
X171828Y103596D01*
X171914Y104025D01*
X171828Y104454D01*
X171810Y104481D01*
X171614Y104875D01*
X171810Y105269D01*
X171828Y105296D01*
X171914Y105725D01*
X171828Y106154D01*
X171810Y106181D01*
X171614Y106575D01*
X171810Y106969D01*
X171828Y106996D01*
X171914Y107425D01*
X171828Y107854D01*
X171585Y108218D01*
X171221Y108461D01*
X170792Y108546D01*
X170363Y108461D01*
X169999Y108218D01*
X169758Y107856D01*
X169746Y107854D01*
X169247Y107859D01*
X169228Y107954D01*
X168985Y108318D01*
X168622Y108561D01*
X168623Y109070D01*
X168630Y109101D01*
X168621Y109142D01*
X168625Y109185D01*
X168595Y109278D01*
X168575Y109374D01*
X168552Y109409D01*
X168539Y109449D01*
X168475Y109524D01*
X168421Y109606D01*
X167822Y110205D01*
X167822Y110205D01*
X167590Y110359D01*
X167317Y110414D01*
X146467D01*
X146194Y110359D01*
X145963Y110205D01*
X145596Y109838D01*
X143766Y109835D01*
X143731Y109828D01*
X143696Y109831D01*
X143596Y109801D01*
X143493Y109780D01*
X143201Y109821D01*
X143023Y109876D01*
X142929Y109932D01*
X142901Y109962D01*
X142832Y110065D01*
X142080Y110568D01*
X141192Y110744D01*
X140305Y110568D01*
X139552Y110065D01*
X139479Y109955D01*
X139441Y109914D01*
X139410Y109886D01*
X138951Y109741D01*
X138917Y109752D01*
X138887Y109772D01*
X138785Y109792D01*
X138684Y109822D01*
X138649Y109819D01*
X138614Y109826D01*
X96836Y109751D01*
X96700Y109724D01*
X96564Y109697D01*
X96564Y109696D01*
X96563Y109696D01*
X96447Y109619D01*
X96333Y109542D01*
X39857Y53067D01*
X39703Y52835D01*
X39648Y52562D01*
X39275Y52103D01*
X39269Y52100D01*
X39158D01*
X39040Y52123D01*
X38922Y52100D01*
X35618D01*
X35500Y52123D01*
X35382Y52100D01*
X34200D01*
Y47027D01*
X33738Y46652D01*
X33465Y46597D01*
X33233Y46443D01*
X16804Y30014D01*
X3300Y30014D01*
X3027Y29959D01*
X2795Y29805D01*
X1285Y28295D01*
X824Y28486D01*
Y118923D01*
X1200Y119300D01*
X405100D01*
X405200Y119200D01*
X422100Y136100D01*
X496200D01*
X509000Y123300D01*
D02*
G37*
G36*
X167916Y109101D02*
X167763Y108561D01*
X167755Y108555D01*
X167399Y108318D01*
X167156Y107954D01*
X167071Y107525D01*
X167156Y107096D01*
X167370Y106775D01*
X167156Y106454D01*
X167071Y106025D01*
X167156Y105596D01*
X167399Y105232D01*
X167763Y104989D01*
X168192Y104903D01*
X168622Y104989D01*
X168692Y105036D01*
X169192Y104769D01*
Y81025D01*
X169092Y80925D01*
X168092Y79725D01*
X160925D01*
X150600Y69400D01*
X149125D01*
X148892Y69446D01*
X148659Y69400D01*
X146125D01*
X145892Y69446D01*
X145659Y69400D01*
X139100D01*
X139000Y63000D01*
X139100Y63100D01*
X139817Y63100D01*
X139871Y63064D01*
X140300Y62978D01*
X140729Y63064D01*
X140783Y63100D01*
X142617D01*
X142671Y63064D01*
X143100Y62978D01*
X143529Y63064D01*
X143828Y62662D01*
X143838Y62638D01*
X95386Y14186D01*
X94924Y14377D01*
Y38464D01*
X94870Y38737D01*
X94715Y38969D01*
X94483Y39123D01*
X94210Y39178D01*
X82399D01*
X82126Y39123D01*
X81894Y38969D01*
X81740Y38737D01*
X81686Y38464D01*
Y8936D01*
X81740Y8663D01*
X81894Y8432D01*
X82126Y8277D01*
X82399Y8223D01*
X88769D01*
X88961Y7761D01*
X82600Y1400D01*
X53381Y1400D01*
X53213Y1871D01*
X53771Y2329D01*
X54733Y3501D01*
X55448Y4839D01*
X55889Y6290D01*
X56037Y7800D01*
X55889Y9309D01*
X55448Y10761D01*
X54733Y12099D01*
X53771Y13271D01*
X52599Y14233D01*
X51261Y14948D01*
X49810Y15389D01*
X48300Y15537D01*
X46791Y15389D01*
X45339Y14948D01*
X44001Y14233D01*
X42829Y13271D01*
X41867Y12099D01*
X41152Y10761D01*
X40711Y9309D01*
X40563Y7800D01*
X40711Y6290D01*
X41152Y4839D01*
X41867Y3501D01*
X42829Y2329D01*
X43387Y1871D01*
X43219Y1400D01*
X16700Y1400D01*
X16523Y1223D01*
X16276D01*
X16100Y1400D01*
X2300D01*
X824Y2877D01*
Y26823D01*
X3300Y29300D01*
X17100Y29300D01*
X33738Y45938D01*
X34200Y45747D01*
Y44400D01*
X54300D01*
X54600Y44700D01*
Y52100D01*
X53318D01*
X53200Y52123D01*
X53082Y52100D01*
X49778D01*
X49660Y52123D01*
X49542Y52100D01*
X46238D01*
X46120Y52123D01*
X46002Y52100D01*
X42698D01*
X42580Y52123D01*
X42462Y52100D01*
X40553D01*
X40362Y52562D01*
X96837Y109037D01*
X138615Y109112D01*
X138933Y108726D01*
X138873Y108425D01*
X139049Y107537D01*
X139552Y106785D01*
X140305Y106282D01*
X141192Y106105D01*
X142080Y106282D01*
X142832Y106785D01*
X143335Y107537D01*
X143512Y108425D01*
X143450Y108734D01*
X143767Y109121D01*
X145892Y109125D01*
X146467Y109700D01*
X167317D01*
X167916Y109101D01*
D02*
G37*
G36*
X563900Y227100D02*
X563900Y148900D01*
X552900Y137900D01*
X406801D01*
X406440Y138440D01*
X405688Y138943D01*
X404800Y139119D01*
X403912Y138943D01*
X403160Y138440D01*
X402800Y137901D01*
Y137900D01*
X377000Y137900D01*
Y139524D01*
X377500Y139791D01*
X377532Y139770D01*
X378000Y139676D01*
X378468Y139770D01*
X378865Y140035D01*
X379130Y140432D01*
X379223Y140900D01*
X379130Y141368D01*
X378942Y141650D01*
X379130Y141932D01*
X379223Y142400D01*
X379130Y142868D01*
X378865Y143265D01*
X378468Y143530D01*
X378000Y143623D01*
X377532Y143530D01*
X377500Y143509D01*
X377000Y143776D01*
Y167400D01*
X377100Y167500D01*
X378100Y168700D01*
X400200D01*
X401350Y167550D01*
X417100Y183300D01*
X501400Y183300D01*
X516000Y197900D01*
Y228700D01*
X562300D01*
X563900Y227100D01*
D02*
G37*
G36*
X611120Y281414D02*
X611118Y281371D01*
X609916Y280384D01*
X608916Y279166D01*
X608173Y277776D01*
X607716Y276268D01*
X607561Y274700D01*
X607716Y273132D01*
X608173Y271624D01*
X608916Y270234D01*
X609916Y269016D01*
X611134Y268016D01*
X612524Y267273D01*
X614032Y266816D01*
X615600Y266661D01*
X617168Y266816D01*
X618676Y267273D01*
X620066Y268016D01*
X621284Y269016D01*
X621600Y269400D01*
X622071Y269232D01*
Y262600D01*
X380600Y262600D01*
X380600Y281871D01*
X385448D01*
X385669Y281422D01*
X385647Y281393D01*
X385249Y280432D01*
X385113Y279400D01*
X385249Y278368D01*
X385647Y277407D01*
X386281Y276581D01*
X387107Y275947D01*
X388068Y275549D01*
X389100Y275413D01*
X390132Y275549D01*
X391093Y275947D01*
X391919Y276581D01*
X392553Y277407D01*
X392951Y278368D01*
X393087Y279400D01*
X392951Y280432D01*
X392553Y281393D01*
X392531Y281422D01*
X392752Y281871D01*
X395448D01*
X395669Y281422D01*
X395647Y281393D01*
X395249Y280432D01*
X395113Y279400D01*
X395249Y278368D01*
X395647Y277407D01*
X396281Y276581D01*
X397107Y275947D01*
X398068Y275549D01*
X399100Y275413D01*
X400132Y275549D01*
X401093Y275947D01*
X401919Y276581D01*
X402553Y277407D01*
X402951Y278368D01*
X403087Y279400D01*
X402951Y280432D01*
X402553Y281393D01*
X402531Y281422D01*
X402752Y281871D01*
X405448D01*
X405669Y281422D01*
X405647Y281393D01*
X405249Y280432D01*
X405113Y279400D01*
X405249Y278368D01*
X405647Y277407D01*
X406281Y276581D01*
X407107Y275947D01*
X408068Y275549D01*
X409100Y275413D01*
X410132Y275549D01*
X411093Y275947D01*
X411919Y276581D01*
X412553Y277407D01*
X412951Y278368D01*
X413087Y279400D01*
X412951Y280432D01*
X412553Y281393D01*
X412531Y281422D01*
X412752Y281871D01*
X415448D01*
X415669Y281422D01*
X415647Y281393D01*
X415249Y280432D01*
X415113Y279400D01*
X415249Y278368D01*
X415647Y277407D01*
X416281Y276581D01*
X417107Y275947D01*
X418068Y275549D01*
X419100Y275413D01*
X420132Y275549D01*
X421093Y275947D01*
X421919Y276581D01*
X422553Y277407D01*
X422951Y278368D01*
X423087Y279400D01*
X422951Y280432D01*
X422553Y281393D01*
X422531Y281422D01*
X422752Y281871D01*
X425448D01*
X425669Y281422D01*
X425647Y281393D01*
X425249Y280432D01*
X425113Y279400D01*
X425249Y278368D01*
X425647Y277407D01*
X426281Y276581D01*
X427107Y275947D01*
X428068Y275549D01*
X429100Y275413D01*
X430132Y275549D01*
X431093Y275947D01*
X431919Y276581D01*
X432553Y277407D01*
X432951Y278368D01*
X433087Y279400D01*
X432951Y280432D01*
X432553Y281393D01*
X432531Y281422D01*
X432752Y281871D01*
X435448D01*
X435669Y281422D01*
X435647Y281393D01*
X435249Y280432D01*
X435113Y279400D01*
X435249Y278368D01*
X435647Y277407D01*
X436281Y276581D01*
X437107Y275947D01*
X438068Y275549D01*
X439100Y275413D01*
X440132Y275549D01*
X441093Y275947D01*
X441919Y276581D01*
X442553Y277407D01*
X442951Y278368D01*
X443087Y279400D01*
X442951Y280432D01*
X442553Y281393D01*
X442531Y281422D01*
X442752Y281871D01*
X445448D01*
X445669Y281422D01*
X445647Y281393D01*
X445249Y280432D01*
X445113Y279400D01*
X445249Y278368D01*
X445647Y277407D01*
X446281Y276581D01*
X447107Y275947D01*
X448068Y275549D01*
X449100Y275413D01*
X450132Y275549D01*
X451093Y275947D01*
X451919Y276581D01*
X452553Y277407D01*
X452951Y278368D01*
X453087Y279400D01*
X452951Y280432D01*
X452553Y281393D01*
X452531Y281422D01*
X452752Y281871D01*
X455448D01*
X455669Y281422D01*
X455647Y281393D01*
X455249Y280432D01*
X455113Y279400D01*
X455249Y278368D01*
X455647Y277407D01*
X456281Y276581D01*
X457107Y275947D01*
X458068Y275549D01*
X459100Y275413D01*
X460132Y275549D01*
X461093Y275947D01*
X461919Y276581D01*
X462553Y277407D01*
X462951Y278368D01*
X463087Y279400D01*
X462951Y280432D01*
X462553Y281393D01*
X462531Y281422D01*
X462752Y281871D01*
X465448D01*
X465669Y281422D01*
X465647Y281393D01*
X465249Y280432D01*
X465113Y279400D01*
X465249Y278368D01*
X465647Y277407D01*
X466281Y276581D01*
X467107Y275947D01*
X468068Y275549D01*
X469100Y275413D01*
X470132Y275549D01*
X471093Y275947D01*
X471919Y276581D01*
X472553Y277407D01*
X472951Y278368D01*
X473087Y279400D01*
X472951Y280432D01*
X472553Y281393D01*
X472531Y281422D01*
X472752Y281871D01*
X475448D01*
X475669Y281422D01*
X475647Y281393D01*
X475249Y280432D01*
X475113Y279400D01*
X475249Y278368D01*
X475647Y277407D01*
X476281Y276581D01*
X477107Y275947D01*
X478068Y275549D01*
X479100Y275413D01*
X480132Y275549D01*
X481093Y275947D01*
X481919Y276581D01*
X482553Y277407D01*
X482951Y278368D01*
X483087Y279400D01*
X482951Y280432D01*
X482553Y281393D01*
X482531Y281422D01*
X482752Y281871D01*
X485448D01*
X485669Y281422D01*
X485647Y281393D01*
X485249Y280432D01*
X485113Y279400D01*
X485249Y278368D01*
X485647Y277407D01*
X486281Y276581D01*
X487107Y275947D01*
X488068Y275549D01*
X489100Y275413D01*
X490132Y275549D01*
X491093Y275947D01*
X491919Y276581D01*
X492553Y277407D01*
X492951Y278368D01*
X493087Y279400D01*
X492951Y280432D01*
X492553Y281393D01*
X492531Y281422D01*
X492752Y281871D01*
X495448D01*
X495669Y281422D01*
X495647Y281393D01*
X495249Y280432D01*
X495113Y279400D01*
X495249Y278368D01*
X495647Y277407D01*
X496281Y276581D01*
X497107Y275947D01*
X498068Y275549D01*
X499100Y275413D01*
X500132Y275549D01*
X501093Y275947D01*
X501919Y276581D01*
X502553Y277407D01*
X502951Y278368D01*
X503087Y279400D01*
X502951Y280432D01*
X502553Y281393D01*
X502531Y281422D01*
X502752Y281871D01*
X505448D01*
X505669Y281422D01*
X505647Y281393D01*
X505249Y280432D01*
X505113Y279400D01*
X505249Y278368D01*
X505647Y277407D01*
X506281Y276581D01*
X507107Y275947D01*
X508068Y275549D01*
X509100Y275413D01*
X510132Y275549D01*
X511093Y275947D01*
X511919Y276581D01*
X512553Y277407D01*
X512951Y278368D01*
X513087Y279400D01*
X512951Y280432D01*
X512553Y281393D01*
X512531Y281422D01*
X512752Y281871D01*
X515448D01*
X515669Y281422D01*
X515647Y281393D01*
X515249Y280432D01*
X515113Y279400D01*
X515249Y278368D01*
X515647Y277407D01*
X516281Y276581D01*
X517107Y275947D01*
X518068Y275549D01*
X519100Y275413D01*
X520132Y275549D01*
X521093Y275947D01*
X521919Y276581D01*
X522553Y277407D01*
X522951Y278368D01*
X523087Y279400D01*
X522951Y280432D01*
X522553Y281393D01*
X522531Y281422D01*
X522752Y281871D01*
X565448D01*
X565669Y281422D01*
X565647Y281393D01*
X565249Y280432D01*
X565113Y279400D01*
X565249Y278368D01*
X565647Y277407D01*
X566281Y276581D01*
X567107Y275947D01*
X568068Y275549D01*
X569100Y275413D01*
X570132Y275549D01*
X571093Y275947D01*
X571919Y276581D01*
X572553Y277407D01*
X572951Y278368D01*
X573087Y279400D01*
X572951Y280432D01*
X572553Y281393D01*
X572531Y281422D01*
X572752Y281871D01*
X575448D01*
X575669Y281422D01*
X575647Y281393D01*
X575249Y280432D01*
X575113Y279400D01*
X575249Y278368D01*
X575647Y277407D01*
X576281Y276581D01*
X577107Y275947D01*
X578068Y275549D01*
X579100Y275413D01*
X580132Y275549D01*
X581093Y275947D01*
X581919Y276581D01*
X582553Y277407D01*
X582951Y278368D01*
X583087Y279400D01*
X582951Y280432D01*
X582553Y281393D01*
X582531Y281422D01*
X582752Y281871D01*
X585448D01*
X585669Y281422D01*
X585647Y281393D01*
X585249Y280432D01*
X585113Y279400D01*
X585249Y278368D01*
X585647Y277407D01*
X586281Y276581D01*
X587107Y275947D01*
X588068Y275549D01*
X589100Y275413D01*
X590132Y275549D01*
X591093Y275947D01*
X591919Y276581D01*
X592553Y277407D01*
X592951Y278368D01*
X593087Y279400D01*
X592951Y280432D01*
X592553Y281393D01*
X592531Y281422D01*
X592752Y281871D01*
X595448D01*
X595669Y281422D01*
X595647Y281393D01*
X595249Y280432D01*
X595113Y279400D01*
X595249Y278368D01*
X595647Y277407D01*
X596281Y276581D01*
X597107Y275947D01*
X598068Y275549D01*
X599100Y275413D01*
X600132Y275549D01*
X601093Y275947D01*
X601919Y276581D01*
X602553Y277407D01*
X602951Y278368D01*
X603087Y279400D01*
X602951Y280432D01*
X602553Y281393D01*
X602531Y281422D01*
X602752Y281871D01*
X610939D01*
X611120Y281414D01*
D02*
G37*
G36*
X560945Y128455D02*
X560945Y112045D01*
X536178Y87278D01*
X535570Y87377D01*
X535493Y87493D01*
X535129Y87736D01*
X534700Y87822D01*
X534271Y87736D01*
X533907Y87493D01*
X533664Y87129D01*
X533578Y86700D01*
X533664Y86271D01*
X533907Y85907D01*
X534023Y85830D01*
X534122Y85222D01*
X528200Y79300D01*
X511790D01*
X509300Y76810D01*
Y63200D01*
X501300Y55200D01*
X499433D01*
X499269Y55400D01*
X499183Y55829D01*
X498940Y56193D01*
X498576Y56436D01*
X498147Y56522D01*
X497718Y56436D01*
X497354Y56193D01*
X497111Y55829D01*
X497026Y55400D01*
X496862Y55200D01*
X496286D01*
X496122Y55400D01*
X496036Y55829D01*
X495793Y56193D01*
X495429Y56436D01*
X495000Y56522D01*
X494571Y56436D01*
X494207Y56193D01*
X493964Y55829D01*
X493878Y55400D01*
X493714Y55200D01*
X493134D01*
X492970Y55400D01*
X492884Y55829D01*
X492641Y56193D01*
X492277Y56436D01*
X491848Y56522D01*
X491419Y56436D01*
X491055Y56193D01*
X490812Y55829D01*
X490727Y55400D01*
X490562Y55200D01*
X489984D01*
X489820Y55400D01*
X489735Y55829D01*
X489492Y56193D01*
X489128Y56436D01*
X488698Y56522D01*
X488269Y56436D01*
X487905Y56193D01*
X487662Y55829D01*
X487577Y55400D01*
X487413Y55200D01*
X486834D01*
X486670Y55400D01*
X486585Y55829D01*
X486342Y56193D01*
X485978Y56436D01*
X485549Y56522D01*
X485120Y56436D01*
X484756Y56193D01*
X484513Y55829D01*
X484427Y55400D01*
X484263Y55200D01*
X483686D01*
X483522Y55400D01*
X483436Y55829D01*
X483193Y56193D01*
X482829Y56436D01*
X482400Y56522D01*
X481971Y56436D01*
X481607Y56193D01*
X481364Y55829D01*
X481278Y55400D01*
X481114Y55200D01*
X480535D01*
X480371Y55400D01*
X480286Y55829D01*
X480043Y56193D01*
X479679Y56436D01*
X479250Y56522D01*
X478820Y56436D01*
X478456Y56193D01*
X478213Y55829D01*
X478128Y55400D01*
X477964Y55200D01*
X477386D01*
X477222Y55400D01*
X477136Y55829D01*
X476893Y56193D01*
X476529Y56436D01*
X476100Y56522D01*
X475671Y56436D01*
X475600Y56389D01*
X475100Y56656D01*
X475100Y80400D01*
X475200Y80500D01*
X475400Y80740D01*
Y88300D01*
X479000Y91900D01*
X505600D01*
X505800Y92100D01*
Y98100D01*
X505130Y98102D01*
X504929Y98236D01*
X504500Y98322D01*
X504071Y98236D01*
X503876Y98106D01*
X501916Y98112D01*
X501729Y98236D01*
X501300Y98322D01*
X500871Y98236D01*
X500690Y98115D01*
X499003Y98120D01*
X498829Y98236D01*
X498400Y98322D01*
X497971Y98236D01*
X497803Y98124D01*
X495989Y98129D01*
X495829Y98236D01*
X495400Y98322D01*
X494971Y98236D01*
X494816Y98133D01*
X493177Y98138D01*
X493029Y98236D01*
X492600Y98322D01*
X492171Y98236D01*
X492029Y98141D01*
X490464Y98146D01*
X490329Y98236D01*
X489900Y98322D01*
X489471Y98236D01*
X489341Y98149D01*
X487752Y98154D01*
X487629Y98236D01*
X487200Y98322D01*
X486771Y98236D01*
X486653Y98157D01*
X485912Y98159D01*
X485722Y98622D01*
X493900Y106800D01*
X512400D01*
X516700Y111100D01*
Y128100D01*
X519900Y131300D01*
X558100D01*
X560945Y128455D01*
D02*
G37*
G36*
X378300Y273988D02*
X291300D01*
X290539Y273837D01*
X289894Y273406D01*
X254208Y237720D01*
X237944D01*
X237175Y237873D01*
X236356Y237710D01*
X235661Y237246D01*
X235197Y236551D01*
X235034Y235732D01*
X235197Y234913D01*
X235661Y234218D01*
X236356Y233754D01*
X237175Y233591D01*
X237944Y233744D01*
X255032D01*
X255793Y233895D01*
X256438Y234326D01*
X292124Y270012D01*
X378300D01*
Y259400D01*
X563988D01*
X564363Y258900D01*
X564324Y258700D01*
X564428Y258173D01*
X564727Y257727D01*
X565173Y257428D01*
X565700Y257324D01*
X566227Y257428D01*
X566673Y257727D01*
X566972Y258173D01*
X567076Y258700D01*
X567037Y258900D01*
X567412Y259400D01*
X607722D01*
Y257748D01*
X607560Y257640D01*
X607057Y256888D01*
X606881Y256000D01*
X607057Y255112D01*
X607560Y254360D01*
X608312Y253857D01*
X609200Y253681D01*
X610088Y253857D01*
X610840Y254360D01*
X611343Y255112D01*
X611519Y256000D01*
X611343Y256888D01*
X610840Y257640D01*
X610678Y257748D01*
Y259400D01*
X622376D01*
Y13397D01*
X621906Y13229D01*
X621871Y13271D01*
X620699Y14233D01*
X619361Y14948D01*
X617909Y15389D01*
X616400Y15537D01*
X614890Y15389D01*
X613439Y14948D01*
X612101Y14233D01*
X610929Y13271D01*
X609967Y12099D01*
X609252Y10761D01*
X608811Y9309D01*
X608663Y7800D01*
X608811Y6290D01*
X609252Y4839D01*
X609967Y3501D01*
X610929Y2329D01*
X611487Y1871D01*
X611319Y1400D01*
X541100Y1400D01*
Y89200D01*
X560227Y108327D01*
X560769Y108162D01*
X560879Y107612D01*
X561381Y106860D01*
X562134Y106357D01*
X563022Y106181D01*
X563909Y106357D01*
X564662Y106860D01*
X565164Y107612D01*
X565341Y108500D01*
X565164Y109388D01*
X564662Y110140D01*
X563909Y110643D01*
X563359Y110752D01*
X563195Y111295D01*
X568000Y116100D01*
Y173415D01*
X568500Y173567D01*
X568607Y173407D01*
X568971Y173164D01*
X569400Y173078D01*
X569829Y173164D01*
X570193Y173407D01*
X570436Y173771D01*
X570522Y174200D01*
X570436Y174629D01*
X570193Y174993D01*
X569829Y175236D01*
X569400Y175322D01*
X568971Y175236D01*
X568607Y174993D01*
X568500Y174833D01*
X568000Y174985D01*
Y185942D01*
X568462Y186133D01*
X576235Y178360D01*
X576632Y178094D01*
X577100Y178001D01*
X577569Y178094D01*
X577965Y178360D01*
X578231Y178756D01*
X578324Y179225D01*
X578231Y179693D01*
X577965Y180090D01*
X569724Y188332D01*
Y228300D01*
X569630Y228768D01*
X569365Y229165D01*
X557565Y240965D01*
X557168Y241230D01*
X556700Y241323D01*
X460200D01*
X459732Y241230D01*
X459335Y240965D01*
X459070Y240568D01*
X458977Y240100D01*
X459070Y239632D01*
X459335Y239235D01*
X459732Y238970D01*
X460200Y238877D01*
X556193D01*
X560308Y234762D01*
X560116Y234300D01*
X516600D01*
X512000Y229700D01*
Y202400D01*
X510225Y200625D01*
X509763Y200817D01*
Y203050D01*
X509709Y203323D01*
X509554Y203554D01*
X509323Y203709D01*
X509050Y203763D01*
X502750D01*
X502477Y203709D01*
X502246Y203554D01*
X502091Y203323D01*
X502037Y203050D01*
Y196750D01*
X502091Y196477D01*
X502246Y196246D01*
X502477Y196091D01*
X502750Y196037D01*
X504983D01*
X505175Y195575D01*
X497600Y188000D01*
X372637D01*
X372430Y188500D01*
X409965Y226035D01*
X410230Y226432D01*
X410323Y226900D01*
X410230Y227368D01*
X409965Y227765D01*
X409568Y228030D01*
X409100Y228123D01*
X408632Y228030D01*
X408235Y227765D01*
X357435Y176965D01*
X357170Y176568D01*
X357077Y176100D01*
Y158900D01*
X357170Y158432D01*
X357435Y158035D01*
X357832Y157770D01*
X358300Y157676D01*
X358768Y157770D01*
X359165Y158035D01*
X359430Y158432D01*
X359524Y158900D01*
Y159352D01*
X359773Y159749D01*
X359773Y159749D01*
Y159749D01*
X360023Y159773D01*
X360029Y159746D01*
X360064Y159571D01*
X360307Y159207D01*
X360671Y158964D01*
X361100Y158878D01*
X361529Y158964D01*
X361864Y159188D01*
X361893Y159207D01*
X362407Y159207D01*
X362436Y159188D01*
X362771Y158964D01*
X363021Y158914D01*
X362979Y158700D01*
X363064Y158271D01*
X363307Y157907D01*
X363671Y157664D01*
X364100Y157578D01*
X364529Y157664D01*
X364893Y157907D01*
X365136Y158271D01*
X365222Y158700D01*
X365136Y159129D01*
X364893Y159493D01*
X364529Y159736D01*
X364279Y159786D01*
X364321Y160000D01*
X364236Y160429D01*
X363993Y160793D01*
X363629Y161036D01*
X363200Y161122D01*
X362771Y161036D01*
X362436Y160812D01*
X362407Y160793D01*
X361893Y160793D01*
X361864Y160812D01*
X361529Y161036D01*
X361100Y161122D01*
X360671Y161036D01*
X360307Y160793D01*
X360064Y160429D01*
X360029Y160255D01*
X360023Y160227D01*
X359773Y160251D01*
Y160251D01*
X359773Y160251D01*
X359524Y160648D01*
Y169820D01*
X360023Y170113D01*
X360300Y170058D01*
X360729Y170144D01*
X361093Y170387D01*
X361139Y170456D01*
X361707Y170507D01*
X361722Y170497D01*
X362071Y170264D01*
X362500Y170178D01*
X362929Y170264D01*
X363163Y170420D01*
X363500Y170474D01*
X363837Y170420D01*
X364071Y170264D01*
X364500Y170178D01*
X364929Y170264D01*
X365293Y170507D01*
X365807Y170407D01*
X366171Y170164D01*
X366600Y170078D01*
X367029Y170164D01*
X367264Y170320D01*
X367600Y170374D01*
X367936Y170320D01*
X368171Y170164D01*
X368600Y170078D01*
X369029Y170164D01*
X369393Y170407D01*
X369522Y170600D01*
X369536Y170606D01*
X370064D01*
X370078Y170600D01*
X370207Y170407D01*
X370571Y170164D01*
X371000Y170078D01*
X371429Y170164D01*
X371700Y170345D01*
X372037Y170237D01*
X372200Y170123D01*
Y122400D01*
X104820D01*
X104743Y122788D01*
X104240Y123540D01*
X103488Y124043D01*
X102600Y124219D01*
X101712Y124043D01*
X100960Y123540D01*
X100457Y122788D01*
X100380Y122400D01*
X22360D01*
X22261Y122900D01*
X22514Y123005D01*
X23182Y123518D01*
X23695Y124186D01*
X24018Y124965D01*
X24128Y125800D01*
X24018Y126635D01*
X23695Y127414D01*
X23182Y128082D01*
X22514Y128595D01*
X21735Y128918D01*
X20900Y129028D01*
X20065Y128918D01*
X19286Y128595D01*
X18618Y128082D01*
X18105Y127414D01*
X17782Y126635D01*
X17672Y125800D01*
X17782Y124965D01*
X18105Y124186D01*
X18618Y123518D01*
X19286Y123005D01*
X19539Y122900D01*
X19440Y122400D01*
X824D01*
Y282176D01*
X7792D01*
X7918Y281677D01*
X6901Y281133D01*
X5729Y280171D01*
X4767Y278999D01*
X4052Y277661D01*
X3611Y276209D01*
X3463Y274700D01*
X3611Y273190D01*
X4052Y271739D01*
X4767Y270401D01*
X5729Y269229D01*
X6901Y268267D01*
X8239Y267552D01*
X9691Y267111D01*
X11200Y266963D01*
X12709Y267111D01*
X14161Y267552D01*
X15499Y268267D01*
X16671Y269229D01*
X17633Y270401D01*
X18348Y271739D01*
X18789Y273190D01*
X18937Y274700D01*
X18789Y276209D01*
X18348Y277661D01*
X17633Y278999D01*
X16671Y280171D01*
X15499Y281133D01*
X14482Y281677D01*
X14608Y282176D01*
X187231D01*
X187410Y281677D01*
X186429Y280871D01*
X185467Y279699D01*
X184752Y278361D01*
X184311Y276909D01*
X184163Y275400D01*
X184311Y273890D01*
X184752Y272439D01*
X185467Y271101D01*
X186429Y269929D01*
X187601Y268967D01*
X188939Y268252D01*
X190391Y267811D01*
X191900Y267663D01*
X193410Y267811D01*
X194861Y268252D01*
X196199Y268967D01*
X197371Y269929D01*
X198333Y271101D01*
X199048Y272439D01*
X199489Y273890D01*
X199637Y275400D01*
X199489Y276909D01*
X199048Y278361D01*
X198333Y279699D01*
X197371Y280871D01*
X196390Y281677D01*
X196569Y282176D01*
X378300D01*
Y273988D01*
D02*
G37*
%LPC*%
G36*
X490900Y123783D02*
X489895Y123651D01*
X488959Y123263D01*
X488154Y122646D01*
X487537Y121841D01*
X487149Y120905D01*
X487017Y119900D01*
X487149Y118895D01*
X487537Y117959D01*
X488154Y117154D01*
X488959Y116537D01*
X489895Y116149D01*
X490900Y116017D01*
X491905Y116149D01*
X492841Y116537D01*
X493646Y117154D01*
X494263Y117959D01*
X494651Y118895D01*
X494783Y119900D01*
X494651Y120905D01*
X494263Y121841D01*
X493646Y122646D01*
X492841Y123263D01*
X491905Y123651D01*
X490900Y123783D01*
D02*
G37*
G36*
X475900D02*
X474895Y123651D01*
X473959Y123263D01*
X473154Y122646D01*
X472537Y121841D01*
X472150Y120905D01*
X472017Y119900D01*
X472150Y118895D01*
X472537Y117959D01*
X473154Y117154D01*
X473959Y116537D01*
X474895Y116149D01*
X475900Y116017D01*
X476905Y116149D01*
X477841Y116537D01*
X478646Y117154D01*
X479263Y117959D01*
X479650Y118895D01*
X479783Y119900D01*
X479650Y120905D01*
X479263Y121841D01*
X478646Y122646D01*
X477841Y123263D01*
X476905Y123651D01*
X475900Y123783D01*
D02*
G37*
G36*
X425900D02*
X424895Y123651D01*
X423959Y123263D01*
X423154Y122646D01*
X422537Y121841D01*
X422150Y120905D01*
X422017Y119900D01*
X422150Y118895D01*
X422537Y117959D01*
X423154Y117154D01*
X423959Y116537D01*
X424895Y116149D01*
X425900Y116017D01*
X426905Y116149D01*
X427841Y116537D01*
X428646Y117154D01*
X429263Y117959D01*
X429650Y118895D01*
X429783Y119900D01*
X429650Y120905D01*
X429263Y121841D01*
X428646Y122646D01*
X427841Y123263D01*
X426905Y123651D01*
X425900Y123783D01*
D02*
G37*
G36*
X327400Y116622D02*
X326971Y116536D01*
X326607Y116293D01*
X326364Y115929D01*
X326278Y115500D01*
X326364Y115071D01*
X326607Y114707D01*
X326971Y114464D01*
X327400Y114378D01*
X327829Y114464D01*
X328193Y114707D01*
X328436Y115071D01*
X328521Y115500D01*
X328436Y115929D01*
X328193Y116293D01*
X327829Y116536D01*
X327400Y116622D01*
D02*
G37*
G36*
X455900Y123783D02*
X454895Y123651D01*
X453959Y123263D01*
X453154Y122646D01*
X452537Y121841D01*
X452149Y120905D01*
X452017Y119900D01*
X452149Y118895D01*
X452537Y117959D01*
X453154Y117154D01*
X453959Y116537D01*
X454895Y116149D01*
X455900Y116017D01*
X456905Y116149D01*
X457841Y116537D01*
X458646Y117154D01*
X459263Y117959D01*
X459651Y118895D01*
X459783Y119900D01*
X459651Y120905D01*
X459263Y121841D01*
X458646Y122646D01*
X457841Y123263D01*
X456905Y123651D01*
X455900Y123783D01*
D02*
G37*
G36*
X440900D02*
X439895Y123651D01*
X438959Y123263D01*
X438154Y122646D01*
X437537Y121841D01*
X437149Y120905D01*
X437017Y119900D01*
X437149Y118895D01*
X437537Y117959D01*
X438154Y117154D01*
X438959Y116537D01*
X439895Y116149D01*
X440900Y116017D01*
X441905Y116149D01*
X442841Y116537D01*
X443646Y117154D01*
X444263Y117959D01*
X444651Y118895D01*
X444783Y119900D01*
X444651Y120905D01*
X444263Y121841D01*
X443646Y122646D01*
X442841Y123263D01*
X441905Y123651D01*
X440900Y123783D01*
D02*
G37*
G36*
X455350Y128876D02*
X454843Y128775D01*
X454413Y128487D01*
X454125Y128057D01*
X454025Y127550D01*
X454125Y127043D01*
X454413Y126613D01*
X454843Y126325D01*
X455350Y126225D01*
X455857Y126325D01*
X456287Y126613D01*
X456575Y127043D01*
X456675Y127550D01*
X456575Y128057D01*
X456287Y128487D01*
X455857Y128775D01*
X455350Y128876D01*
D02*
G37*
G36*
X470350Y127975D02*
X469843Y127875D01*
X469413Y127587D01*
X469125Y127157D01*
X469025Y126650D01*
X469125Y126143D01*
X469413Y125713D01*
X469843Y125425D01*
X470350Y125324D01*
X470857Y125425D01*
X471287Y125713D01*
X471575Y126143D01*
X471675Y126650D01*
X471575Y127157D01*
X471287Y127587D01*
X470857Y127875D01*
X470350Y127975D01*
D02*
G37*
G36*
X180892Y38422D02*
X180463Y38336D01*
X180099Y38093D01*
X179856Y37729D01*
X179771Y37300D01*
X179856Y36871D01*
X180070Y36550D01*
X179856Y36229D01*
X179771Y35800D01*
X179856Y35371D01*
X180099Y35007D01*
X180463Y34764D01*
X180892Y34678D01*
X181322Y34764D01*
X181685Y35007D01*
X181929Y35371D01*
X182014Y35800D01*
X181929Y36229D01*
X181714Y36550D01*
X181929Y36871D01*
X182014Y37300D01*
X181929Y37729D01*
X181685Y38093D01*
X181322Y38336D01*
X180892Y38422D01*
D02*
G37*
G36*
X321600Y47137D02*
X320305Y47010D01*
X319060Y46632D01*
X317912Y46019D01*
X316907Y45193D01*
X316081Y44188D01*
X315468Y43040D01*
X315090Y41795D01*
X314963Y40500D01*
X315090Y39205D01*
X315468Y37960D01*
X316081Y36812D01*
X316907Y35807D01*
X317912Y34981D01*
X319060Y34368D01*
X320305Y33990D01*
X321600Y33863D01*
X322895Y33990D01*
X324140Y34368D01*
X325288Y34981D01*
X326293Y35807D01*
X327119Y36812D01*
X327732Y37960D01*
X328110Y39205D01*
X328238Y40500D01*
X328110Y41795D01*
X327732Y43040D01*
X327119Y44188D01*
X326293Y45193D01*
X325288Y46019D01*
X324140Y46632D01*
X322895Y47010D01*
X321600Y47137D01*
D02*
G37*
G36*
X7700Y44965D02*
X6233Y44772D01*
X4865Y44205D01*
X3691Y43304D01*
X2790Y42130D01*
X2223Y40763D01*
X2030Y39295D01*
X2223Y37828D01*
X2790Y36460D01*
X3691Y35286D01*
X4865Y34385D01*
X6233Y33819D01*
X7700Y33626D01*
X9167Y33819D01*
X10535Y34385D01*
X11709Y35286D01*
X12610Y36460D01*
X13177Y37828D01*
X13370Y39295D01*
X13177Y40763D01*
X12610Y42130D01*
X11709Y43304D01*
X10535Y44205D01*
X9167Y44772D01*
X7700Y44965D01*
D02*
G37*
G36*
X167492Y12322D02*
X167384Y12300D01*
X164701D01*
X164592Y12322D01*
X164484Y12300D01*
X162001D01*
X161892Y12322D01*
X161784Y12300D01*
X159401D01*
X159292Y12322D01*
X159184Y12300D01*
X156501D01*
X156392Y12322D01*
X156284Y12300D01*
X153801D01*
X153692Y12322D01*
X153584Y12300D01*
X151101D01*
X150992Y12322D01*
X150884Y12300D01*
X148301D01*
X148192Y12322D01*
X148084Y12300D01*
X145301D01*
X145192Y12322D01*
X145084Y12300D01*
X142401D01*
X142292Y12322D01*
X142184Y12300D01*
X139201D01*
X139092Y12322D01*
X138984Y12300D01*
X138000D01*
Y11347D01*
X137971Y11200D01*
X138000Y11053D01*
Y7247D01*
X137971Y7100D01*
X138000Y6953D01*
Y5900D01*
X168500D01*
X168600Y6000D01*
Y7030D01*
X168614Y7100D01*
X168600Y7170D01*
Y11130D01*
X168614Y11200D01*
X168600Y11270D01*
Y12300D01*
X167601D01*
X167492Y12322D01*
D02*
G37*
G36*
X435200Y9919D02*
X434312Y9743D01*
X433560Y9240D01*
X433057Y8488D01*
X432881Y7600D01*
X433057Y6712D01*
X433560Y5960D01*
X434312Y5457D01*
X435200Y5281D01*
X436088Y5457D01*
X436840Y5960D01*
X437343Y6712D01*
X437519Y7600D01*
X437343Y8488D01*
X436840Y9240D01*
X436088Y9743D01*
X435200Y9919D01*
D02*
G37*
G36*
X426500Y13919D02*
X425612Y13743D01*
X424860Y13240D01*
X424357Y12488D01*
X424181Y11600D01*
X424357Y10712D01*
X424860Y9960D01*
X425612Y9457D01*
X426500Y9281D01*
X427388Y9457D01*
X428140Y9960D01*
X428643Y10712D01*
X428819Y11600D01*
X428643Y12488D01*
X428140Y13240D01*
X427388Y13743D01*
X426500Y13919D01*
D02*
G37*
G36*
X181392Y33722D02*
X180963Y33636D01*
X180599Y33393D01*
X180356Y33029D01*
X180271Y32600D01*
X180356Y32171D01*
X180599Y31807D01*
X180963Y31564D01*
X181213Y31514D01*
X181171Y31300D01*
X181256Y30871D01*
X181499Y30507D01*
X181863Y30264D01*
X182292Y30178D01*
X182721Y30264D01*
X183056Y30488D01*
X183085Y30507D01*
X183599Y30507D01*
X183628Y30488D01*
X183963Y30264D01*
X184392Y30178D01*
X184821Y30264D01*
X185185Y30507D01*
X185429Y30871D01*
X185514Y31300D01*
X185429Y31729D01*
X185185Y32093D01*
X184821Y32336D01*
X184392Y32422D01*
X183963Y32336D01*
X183628Y32112D01*
X183599Y32093D01*
X183085Y32093D01*
X183056Y32112D01*
X182721Y32336D01*
X182471Y32386D01*
X182514Y32600D01*
X182429Y33029D01*
X182185Y33393D01*
X181822Y33636D01*
X181392Y33722D01*
D02*
G37*
G36*
X310550Y116272D02*
X310121Y116186D01*
X309757Y115943D01*
X309514Y115579D01*
X309429Y115150D01*
X309514Y114721D01*
X309757Y114357D01*
X310121Y114114D01*
X310550Y114028D01*
X310979Y114114D01*
X311343Y114357D01*
X311586Y114721D01*
X311671Y115150D01*
X311586Y115579D01*
X311343Y115943D01*
X310979Y116186D01*
X310550Y116272D01*
D02*
G37*
G36*
X456900Y80122D02*
X456471Y80036D01*
X456107Y79793D01*
X455864Y79429D01*
X455778Y79000D01*
Y77358D01*
X455278Y77066D01*
X455000Y77122D01*
X454571Y77036D01*
X454207Y76793D01*
X453964Y76429D01*
X453878Y76000D01*
X453964Y75571D01*
X454207Y75207D01*
X454571Y74964D01*
X455000Y74878D01*
X455278Y74934D01*
X455778Y74642D01*
Y67900D01*
X455778Y67900D01*
X455864Y67471D01*
X456107Y67107D01*
X457007Y66207D01*
X457007Y66207D01*
X457371Y65964D01*
X457800Y65878D01*
X462500D01*
X462929Y65964D01*
X463293Y66207D01*
X463536Y66571D01*
X463622Y67000D01*
X463536Y67429D01*
X463293Y67793D01*
X463278Y67803D01*
X463490Y68121D01*
X463576Y68550D01*
X463490Y68979D01*
X463247Y69343D01*
X462883Y69586D01*
X462454Y69672D01*
X462025Y69586D01*
X461661Y69343D01*
X461418Y68979D01*
X461333Y68550D01*
X461341Y68508D01*
X461024Y68122D01*
X458265D01*
X458022Y68365D01*
Y71909D01*
X458125Y71989D01*
X458522Y72130D01*
X458771Y71964D01*
X459200Y71878D01*
X459629Y71964D01*
X459964Y72188D01*
X459993Y72207D01*
X460507Y72207D01*
X460536Y72188D01*
X460871Y71964D01*
X461121Y71914D01*
X461078Y71700D01*
X461164Y71271D01*
X461407Y70907D01*
X461771Y70664D01*
X462200Y70578D01*
X462629Y70664D01*
X462993Y70907D01*
X463236Y71271D01*
X463322Y71700D01*
X463236Y72129D01*
X462993Y72493D01*
X462629Y72736D01*
X462379Y72786D01*
X462422Y73000D01*
X462336Y73429D01*
X462093Y73793D01*
X461729Y74036D01*
X461300Y74122D01*
X460871Y74036D01*
X460536Y73812D01*
X460507Y73793D01*
X459993Y73793D01*
X459964Y73812D01*
X459629Y74036D01*
X459200Y74122D01*
X458771Y74036D01*
X458522Y73870D01*
X458125Y74011D01*
X458022Y74091D01*
Y79000D01*
X457936Y79429D01*
X457693Y79793D01*
X457329Y80036D01*
X456900Y80122D01*
D02*
G37*
G36*
X44300Y81622D02*
X43871Y81536D01*
X43507Y81293D01*
X43264Y80929D01*
X43178Y80500D01*
X43264Y80071D01*
X43507Y79707D01*
X43871Y79464D01*
X44300Y79378D01*
X44729Y79464D01*
X45093Y79707D01*
X45336Y80071D01*
X45422Y80500D01*
X45336Y80929D01*
X45093Y81293D01*
X44729Y81536D01*
X44300Y81622D01*
D02*
G37*
G36*
X59500Y81022D02*
X59071Y80936D01*
X58707Y80693D01*
X58464Y80329D01*
X58378Y79900D01*
X58464Y79471D01*
X58707Y79107D01*
X59071Y78864D01*
X59500Y78778D01*
X59929Y78864D01*
X60293Y79107D01*
X60536Y79471D01*
X60622Y79900D01*
X60536Y80329D01*
X60293Y80693D01*
X59929Y80936D01*
X59500Y81022D01*
D02*
G37*
G36*
X20900Y79028D02*
X20065Y78918D01*
X19286Y78595D01*
X18618Y78082D01*
X18105Y77414D01*
X17782Y76635D01*
X17672Y75800D01*
X17782Y74965D01*
X18105Y74186D01*
X18618Y73518D01*
X19286Y73005D01*
X20065Y72682D01*
X20900Y72572D01*
X21735Y72682D01*
X22514Y73005D01*
X23182Y73518D01*
X23695Y74186D01*
X24018Y74965D01*
X24128Y75800D01*
X24018Y76635D01*
X23695Y77414D01*
X23182Y78082D01*
X22514Y78595D01*
X21735Y78918D01*
X20900Y79028D01*
D02*
G37*
G36*
X231000Y88337D02*
X229705Y88210D01*
X228460Y87832D01*
X227312Y87219D01*
X226307Y86393D01*
X225481Y85388D01*
X224868Y84240D01*
X224490Y82995D01*
X224362Y81700D01*
X224490Y80405D01*
X224868Y79160D01*
X225481Y78012D01*
X226307Y77007D01*
X227312Y76181D01*
X228460Y75568D01*
X229705Y75190D01*
X231000Y75063D01*
X232295Y75190D01*
X233540Y75568D01*
X234688Y76181D01*
X235693Y77007D01*
X236519Y78012D01*
X237132Y79160D01*
X237510Y80405D01*
X237637Y81700D01*
X237510Y82995D01*
X237132Y84240D01*
X236519Y85388D01*
X235693Y86393D01*
X234688Y87219D01*
X233540Y87832D01*
X232295Y88210D01*
X231000Y88337D01*
D02*
G37*
G36*
X321600Y86508D02*
X320305Y86380D01*
X319060Y86002D01*
X317912Y85389D01*
X316907Y84563D01*
X316081Y83558D01*
X315468Y82410D01*
X315090Y81165D01*
X314963Y79870D01*
X315090Y78575D01*
X315468Y77330D01*
X316081Y76183D01*
X316907Y75177D01*
X317912Y74351D01*
X319060Y73738D01*
X320305Y73360D01*
X321600Y73233D01*
X322895Y73360D01*
X324140Y73738D01*
X325288Y74351D01*
X326293Y75177D01*
X327119Y76183D01*
X327732Y77330D01*
X328110Y78575D01*
X328238Y79870D01*
X328110Y81165D01*
X327732Y82410D01*
X327119Y83558D01*
X326293Y84563D01*
X325288Y85389D01*
X324140Y86002D01*
X322895Y86380D01*
X321600Y86508D01*
D02*
G37*
G36*
X140492Y53415D02*
X139683Y53254D01*
X138997Y52796D01*
X138538Y52110D01*
X138377Y51300D01*
X138538Y50490D01*
X138997Y49804D01*
X139683Y49346D01*
X140492Y49185D01*
X141302Y49346D01*
X141988Y49804D01*
X142447Y50490D01*
X142608Y51300D01*
X142447Y52110D01*
X141988Y52796D01*
X141302Y53254D01*
X140492Y53415D01*
D02*
G37*
G36*
X188000Y49122D02*
X187571Y49036D01*
X187207Y48793D01*
X186964Y48429D01*
X186878Y48000D01*
X186964Y47571D01*
X187207Y47207D01*
X187571Y46964D01*
X188000Y46878D01*
X188429Y46964D01*
X188793Y47207D01*
X189036Y47571D01*
X189122Y48000D01*
X189036Y48429D01*
X188793Y48793D01*
X188429Y49036D01*
X188000Y49122D01*
D02*
G37*
G36*
X12621Y60521D02*
X2779D01*
X2506Y60466D01*
X2274Y60312D01*
X2119Y60080D01*
X2065Y59807D01*
Y49965D01*
X2119Y49691D01*
X2274Y49460D01*
X2506Y49305D01*
X2779Y49251D01*
X12621D01*
X12894Y49305D01*
X13126Y49460D01*
X13281Y49691D01*
X13335Y49965D01*
Y59807D01*
X13281Y60080D01*
X13126Y60312D01*
X12894Y60466D01*
X12621Y60521D01*
D02*
G37*
G36*
X409600Y48838D02*
X408305Y48710D01*
X407060Y48332D01*
X405912Y47719D01*
X404907Y46893D01*
X404081Y45888D01*
X403468Y44740D01*
X403090Y43495D01*
X402962Y42200D01*
X403090Y40905D01*
X403468Y39660D01*
X404081Y38512D01*
X404907Y37507D01*
X405912Y36681D01*
X407060Y36068D01*
X408305Y35690D01*
X409600Y35563D01*
X410895Y35690D01*
X412140Y36068D01*
X413288Y36681D01*
X414293Y37507D01*
X415119Y38512D01*
X415732Y39660D01*
X416110Y40905D01*
X416237Y42200D01*
X416110Y43495D01*
X415732Y44740D01*
X415119Y45888D01*
X414293Y46893D01*
X413288Y47719D01*
X412140Y48332D01*
X410895Y48710D01*
X409600Y48838D01*
D02*
G37*
G36*
X231000Y48967D02*
X229705Y48840D01*
X228460Y48462D01*
X227312Y47849D01*
X226307Y47023D01*
X225481Y46018D01*
X224868Y44870D01*
X224490Y43625D01*
X224362Y42330D01*
X224490Y41035D01*
X224868Y39790D01*
X225481Y38642D01*
X226307Y37637D01*
X227312Y36811D01*
X228460Y36198D01*
X229705Y35820D01*
X231000Y35693D01*
X232295Y35820D01*
X233540Y36198D01*
X234688Y36811D01*
X235693Y37637D01*
X236519Y38642D01*
X237132Y39790D01*
X237510Y41035D01*
X237637Y42330D01*
X237510Y43625D01*
X237132Y44870D01*
X236519Y46018D01*
X235693Y47023D01*
X234688Y47849D01*
X233540Y48462D01*
X232295Y48840D01*
X231000Y48967D01*
D02*
G37*
G36*
X178392Y48322D02*
X177963Y48236D01*
X177599Y47993D01*
X177356Y47629D01*
X177271Y47200D01*
X177356Y46771D01*
X177374Y46744D01*
X177571Y46350D01*
X177374Y45956D01*
X177356Y45929D01*
X177271Y45500D01*
X177356Y45071D01*
X177374Y45044D01*
X177571Y44650D01*
X177374Y44256D01*
X177356Y44229D01*
X177271Y43800D01*
X177356Y43371D01*
X177599Y43007D01*
X177963Y42764D01*
X178392Y42678D01*
X178822Y42764D01*
X179185Y43007D01*
X179429Y43371D01*
X179514Y43800D01*
X179429Y44229D01*
X179411Y44256D01*
X179214Y44650D01*
X179411Y45044D01*
X179429Y45071D01*
X179514Y45500D01*
X179429Y45929D01*
X179411Y45956D01*
X179214Y46350D01*
X179411Y46744D01*
X179429Y46771D01*
X179514Y47200D01*
X179429Y47629D01*
X179185Y47993D01*
X178822Y48236D01*
X178392Y48322D01*
D02*
G37*
G36*
X185392Y44122D02*
X184963Y44036D01*
X184599Y43793D01*
X184356Y43429D01*
X184271Y43000D01*
X184356Y42571D01*
X184599Y42207D01*
X184963Y41964D01*
X185392Y41878D01*
X185821Y41964D01*
X186185Y42207D01*
X186428Y42571D01*
X186514Y43000D01*
X186428Y43429D01*
X186185Y43793D01*
X185821Y44036D01*
X185392Y44122D01*
D02*
G37*
G36*
X458200Y62422D02*
X457771Y62336D01*
X457407Y62093D01*
X457164Y61729D01*
X457078Y61300D01*
X457164Y60871D01*
X457407Y60507D01*
X457771Y60264D01*
X458200Y60178D01*
X458629Y60264D01*
X458993Y60507D01*
X459236Y60871D01*
X459322Y61300D01*
X459236Y61729D01*
X458993Y62093D01*
X458629Y62336D01*
X458200Y62422D01*
D02*
G37*
G36*
X166648Y52714D02*
X165187D01*
X165129Y52702D01*
X165070Y52704D01*
X164994Y52675D01*
X164913Y52659D01*
X164865Y52627D01*
X164810Y52606D01*
X164750Y52550D01*
X164682Y52505D01*
X164649Y52456D01*
X164637Y52444D01*
X164536Y52403D01*
X164528Y52402D01*
X164158D01*
X164149Y52403D01*
X164049Y52444D01*
X164036Y52456D01*
X164004Y52505D01*
X163935Y52550D01*
X163876Y52606D01*
X163821Y52627D01*
X163772Y52659D01*
X163692Y52675D01*
X163615Y52704D01*
X163556Y52702D01*
X163499Y52714D01*
X162036D01*
X161979Y52702D01*
X161920Y52704D01*
X161843Y52675D01*
X161763Y52659D01*
X161714Y52627D01*
X161660Y52606D01*
X161600Y52550D01*
X161531Y52505D01*
X161499Y52456D01*
X161486Y52444D01*
X161386Y52403D01*
X161377Y52402D01*
X161007D01*
X160999Y52403D01*
X160898Y52444D01*
X160886Y52456D01*
X160853Y52505D01*
X160785Y52550D01*
X160725Y52606D01*
X160670Y52627D01*
X160622Y52659D01*
X160541Y52675D01*
X160465Y52704D01*
X160406Y52702D01*
X160348Y52714D01*
X158887D01*
X158830Y52702D01*
X158771Y52704D01*
X158695Y52675D01*
X158614Y52659D01*
X158566Y52627D01*
X158511Y52606D01*
X158451Y52550D01*
X158383Y52505D01*
X158350Y52456D01*
X158338Y52444D01*
X158237Y52403D01*
X158228Y52402D01*
X157859D01*
X157850Y52403D01*
X157749Y52444D01*
X157737Y52456D01*
X157704Y52505D01*
X157636Y52550D01*
X157576Y52606D01*
X157521Y52627D01*
X157473Y52659D01*
X157392Y52675D01*
X157316Y52704D01*
X157257Y52702D01*
X157200Y52714D01*
X155738D01*
X155680Y52702D01*
X155622Y52704D01*
X155545Y52675D01*
X155465Y52659D01*
X155416Y52627D01*
X155361Y52606D01*
X155301Y52550D01*
X155233Y52505D01*
X155201Y52456D01*
X155188Y52444D01*
X155087Y52403D01*
X155079Y52402D01*
X154709D01*
X154700Y52403D01*
X154600Y52444D01*
X154587Y52456D01*
X154555Y52505D01*
X154487Y52550D01*
X154427Y52606D01*
X154372Y52627D01*
X154323Y52659D01*
X154243Y52675D01*
X154166Y52704D01*
X154107Y52702D01*
X154050Y52714D01*
X152526D01*
X152492Y52707D01*
X152457Y52710D01*
X152356Y52680D01*
X152253Y52659D01*
X152224Y52640D01*
X152190Y52629D01*
X152109Y52563D01*
X152022Y52505D01*
X152022Y52505D01*
X151969Y52488D01*
X151773Y52465D01*
X151744Y52463D01*
X151716Y52465D01*
X151520Y52488D01*
X151467Y52505D01*
X151466Y52505D01*
X151380Y52563D01*
X151298Y52629D01*
X151265Y52640D01*
X151235Y52659D01*
X151132Y52680D01*
X151032Y52710D01*
X150997Y52707D01*
X150962Y52714D01*
X149439D01*
X149381Y52702D01*
X149322Y52704D01*
X149246Y52675D01*
X149165Y52659D01*
X149117Y52627D01*
X149062Y52606D01*
X149002Y52550D01*
X148934Y52505D01*
X148901Y52456D01*
X148889Y52444D01*
X148788Y52403D01*
X148779Y52402D01*
X148410D01*
X148401Y52403D01*
X148301Y52444D01*
X148288Y52456D01*
X148255Y52505D01*
X148187Y52550D01*
X148127Y52606D01*
X148073Y52627D01*
X148024Y52659D01*
X147944Y52675D01*
X147867Y52704D01*
X147808Y52702D01*
X147751Y52714D01*
X146289D01*
X146231Y52702D01*
X146173Y52704D01*
X146096Y52675D01*
X146016Y52659D01*
X145967Y52627D01*
X145912Y52606D01*
X145852Y52550D01*
X145784Y52505D01*
X145752Y52456D01*
X145709Y52416D01*
X145650Y52333D01*
X145598Y52219D01*
X145542Y52107D01*
X145541Y52093D01*
X145535Y52079D01*
X145532Y52010D01*
X145445Y51522D01*
X145016Y51436D01*
X144652Y51193D01*
X144409Y50829D01*
X144324Y50400D01*
X144409Y49971D01*
X144623Y49650D01*
X144409Y49329D01*
X144392Y49244D01*
X144327D01*
X144222Y49255D01*
X143722Y49205D01*
X143622Y49175D01*
X143519Y49154D01*
X143490Y49135D01*
X143456Y49125D01*
X143375Y49058D01*
X143288Y49000D01*
X143268Y48970D01*
X143241Y48948D01*
X143191Y48855D01*
X143133Y48768D01*
X143126Y48733D01*
X143109Y48702D01*
X143099Y48598D01*
X143079Y48495D01*
Y45596D01*
X142579Y45547D01*
X142543Y45725D01*
X142447Y46210D01*
X141988Y46896D01*
X141302Y47354D01*
X140492Y47515D01*
X139683Y47354D01*
X138997Y46896D01*
X138538Y46210D01*
X138377Y45400D01*
X138538Y44590D01*
X138997Y43904D01*
X139683Y43446D01*
X140492Y43285D01*
X141302Y43446D01*
X141988Y43904D01*
X142447Y44590D01*
X142543Y45075D01*
X142579Y45253D01*
X143079Y45204D01*
Y37805D01*
X143099Y37702D01*
X143109Y37598D01*
X143126Y37567D01*
X143133Y37532D01*
X143191Y37445D01*
X143215Y37400D01*
X143191Y37355D01*
X143133Y37268D01*
X143126Y37233D01*
X143109Y37202D01*
X143099Y37098D01*
X143079Y36995D01*
Y23900D01*
X143133Y23627D01*
X143288Y23395D01*
X143519Y23241D01*
X143673Y23210D01*
X144788Y22095D01*
X145019Y21941D01*
X145292Y21886D01*
X167392D01*
X167424Y21893D01*
X167457Y21889D01*
X167560Y21920D01*
X167665Y21941D01*
X167693Y21959D01*
X167724Y21968D01*
X167808Y22036D01*
X167897Y22095D01*
X167915Y22122D01*
X167941Y22143D01*
X168748Y23112D01*
X168800Y23207D01*
X168859Y23296D01*
X168866Y23328D01*
X168881Y23357D01*
X168893Y23464D01*
X168914Y23569D01*
Y30130D01*
X169414Y30397D01*
X169463Y30364D01*
X169892Y30278D01*
X170322Y30364D01*
X170685Y30607D01*
X170929Y30971D01*
X171014Y31400D01*
X170929Y31829D01*
X170911Y31856D01*
X170714Y32250D01*
X170911Y32644D01*
X170929Y32671D01*
X170978Y32923D01*
X171200Y32878D01*
X171629Y32964D01*
X171993Y33207D01*
X172236Y33571D01*
X172322Y34000D01*
X172236Y34429D01*
X171993Y34793D01*
X171629Y35036D01*
X171200Y35122D01*
X170771Y35036D01*
X170407Y34793D01*
X170164Y34429D01*
X170114Y34178D01*
X169892Y34222D01*
X169463Y34136D01*
X169414Y34103D01*
X168914Y34370D01*
Y45809D01*
X169018Y45890D01*
X169414Y46031D01*
X169663Y45864D01*
X170092Y45778D01*
X170521Y45864D01*
X170885Y46107D01*
X171128Y46471D01*
X171214Y46900D01*
X171128Y47329D01*
X171110Y47356D01*
X170914Y47750D01*
X171110Y48144D01*
X171128Y48171D01*
X171214Y48600D01*
X171128Y49029D01*
X171110Y49056D01*
X170914Y49450D01*
X171110Y49844D01*
X171128Y49871D01*
X171214Y50300D01*
X171128Y50729D01*
X170885Y51093D01*
X170521Y51336D01*
X170092Y51422D01*
X169663Y51336D01*
X169299Y51093D01*
X169058Y50732D01*
X169046Y50729D01*
X168547Y50734D01*
X168528Y50829D01*
X168285Y51193D01*
X167921Y51436D01*
X167492Y51522D01*
X167405Y52010D01*
X167403Y52079D01*
X167397Y52093D01*
X167396Y52107D01*
X167340Y52219D01*
X167288Y52333D01*
X167228Y52416D01*
X167186Y52456D01*
X167153Y52505D01*
X167085Y52550D01*
X167025Y52606D01*
X166970Y52627D01*
X166921Y52659D01*
X166841Y52675D01*
X166764Y52704D01*
X166706Y52702D01*
X166648Y52714D01*
D02*
G37*
G36*
X465200Y61622D02*
X464771Y61536D01*
X464407Y61293D01*
X464164Y60929D01*
X464078Y60500D01*
X464164Y60071D01*
X464182Y60044D01*
X464378Y59650D01*
X464182Y59256D01*
X464164Y59229D01*
X464078Y58800D01*
X464164Y58371D01*
X464182Y58344D01*
X464378Y57950D01*
X464182Y57556D01*
X464164Y57529D01*
X464078Y57100D01*
X464164Y56671D01*
X464407Y56307D01*
X464771Y56064D01*
X465200Y55978D01*
X465629Y56064D01*
X465993Y56307D01*
X466236Y56671D01*
X466322Y57100D01*
X466236Y57529D01*
X466218Y57556D01*
X466021Y57950D01*
X466218Y58344D01*
X466236Y58371D01*
X466322Y58800D01*
X466236Y59229D01*
X466218Y59256D01*
X466021Y59650D01*
X466218Y60044D01*
X466236Y60071D01*
X466322Y60500D01*
X466236Y60929D01*
X465993Y61293D01*
X465629Y61536D01*
X465200Y61622D01*
D02*
G37*
G36*
X455800Y57422D02*
X455371Y57336D01*
X455007Y57093D01*
X454764Y56729D01*
X454678Y56300D01*
X454764Y55871D01*
X455007Y55507D01*
X455371Y55264D01*
X455800Y55178D01*
X456229Y55264D01*
X456593Y55507D01*
X456836Y55871D01*
X456922Y56300D01*
X456836Y56729D01*
X456593Y57093D01*
X456229Y57336D01*
X455800Y57422D01*
D02*
G37*
G36*
X188492Y106246D02*
X188063Y106161D01*
X187699Y105918D01*
X187456Y105554D01*
X187371Y105125D01*
X187456Y104696D01*
X187699Y104332D01*
X188063Y104089D01*
X188492Y104003D01*
X188921Y104089D01*
X189285Y104332D01*
X189529Y104696D01*
X189614Y105125D01*
X189529Y105554D01*
X189285Y105918D01*
X188921Y106161D01*
X188492Y106246D01*
D02*
G37*
G36*
X20900Y109028D02*
X20065Y108918D01*
X19286Y108595D01*
X18618Y108082D01*
X18105Y107414D01*
X17782Y106635D01*
X17672Y105800D01*
X17782Y104965D01*
X18105Y104186D01*
X18618Y103518D01*
X19286Y103005D01*
X20065Y102682D01*
X20900Y102572D01*
X21735Y102682D01*
X22514Y103005D01*
X23182Y103518D01*
X23695Y104186D01*
X24018Y104965D01*
X24128Y105800D01*
X24018Y106635D01*
X23695Y107414D01*
X23182Y108082D01*
X22514Y108595D01*
X21735Y108918D01*
X20900Y109028D01*
D02*
G37*
G36*
X320500Y102022D02*
X320071Y101936D01*
X319707Y101693D01*
X319464Y101329D01*
X319378Y100900D01*
X319464Y100471D01*
X319707Y100107D01*
X320071Y99864D01*
X320500Y99778D01*
X320929Y99864D01*
X321293Y100107D01*
X321536Y100471D01*
X321621Y100900D01*
X321536Y101329D01*
X321293Y101693D01*
X320929Y101936D01*
X320500Y102022D01*
D02*
G37*
G36*
X323050Y104472D02*
X322621Y104386D01*
X322257Y104143D01*
X322014Y103779D01*
X321929Y103350D01*
X322014Y102921D01*
X322257Y102557D01*
X322621Y102314D01*
X323050Y102228D01*
X323479Y102314D01*
X323843Y102557D01*
X324086Y102921D01*
X324171Y103350D01*
X324086Y103779D01*
X323843Y104143D01*
X323479Y104386D01*
X323050Y104472D01*
D02*
G37*
G36*
X179092Y105446D02*
X178663Y105361D01*
X178299Y105118D01*
X178056Y104754D01*
X177971Y104325D01*
X178056Y103896D01*
X178074Y103869D01*
X178271Y103475D01*
X178074Y103081D01*
X178056Y103054D01*
X177971Y102625D01*
X178056Y102196D01*
X178074Y102169D01*
X178271Y101775D01*
X178074Y101381D01*
X178056Y101354D01*
X177971Y100925D01*
X178056Y100496D01*
X178299Y100132D01*
X178663Y99889D01*
X179092Y99803D01*
X179522Y99889D01*
X179885Y100132D01*
X180129Y100496D01*
X180214Y100925D01*
X180129Y101354D01*
X180111Y101381D01*
X179914Y101775D01*
X180111Y102169D01*
X180129Y102196D01*
X180214Y102625D01*
X180129Y103054D01*
X180111Y103081D01*
X179914Y103475D01*
X180111Y103869D01*
X180129Y103896D01*
X180214Y104325D01*
X180129Y104754D01*
X179885Y105118D01*
X179522Y105361D01*
X179092Y105446D01*
D02*
G37*
G36*
X462700Y109719D02*
X461812Y109543D01*
X461060Y109040D01*
X460557Y108288D01*
X460381Y107400D01*
X460557Y106512D01*
X461060Y105760D01*
X461812Y105257D01*
X462700Y105081D01*
X463588Y105257D01*
X464340Y105760D01*
X464843Y106512D01*
X465019Y107400D01*
X464843Y108288D01*
X464340Y109040D01*
X463588Y109543D01*
X462700Y109719D01*
D02*
G37*
G36*
X450200Y109619D02*
X449312Y109443D01*
X448560Y108940D01*
X448057Y108188D01*
X447881Y107300D01*
X448057Y106412D01*
X448560Y105660D01*
X449312Y105157D01*
X450200Y104981D01*
X451088Y105157D01*
X451840Y105660D01*
X452343Y106412D01*
X452519Y107300D01*
X452343Y108188D01*
X451840Y108940D01*
X451088Y109443D01*
X450200Y109619D01*
D02*
G37*
G36*
X69400Y118119D02*
X68512Y117943D01*
X67760Y117440D01*
X67257Y116688D01*
X67081Y115800D01*
X67257Y114912D01*
X67760Y114160D01*
X68512Y113657D01*
X69400Y113481D01*
X70288Y113657D01*
X71040Y114160D01*
X71543Y114912D01*
X71719Y115800D01*
X71543Y116688D01*
X71040Y117440D01*
X70288Y117943D01*
X69400Y118119D01*
D02*
G37*
G36*
X249300Y116119D02*
X248412Y115943D01*
X247660Y115440D01*
X247157Y114688D01*
X246981Y113800D01*
X247157Y112912D01*
X247660Y112160D01*
X248412Y111657D01*
X249300Y111481D01*
X250188Y111657D01*
X250940Y112160D01*
X251443Y112912D01*
X251619Y113800D01*
X251443Y114688D01*
X250940Y115440D01*
X250188Y115943D01*
X249300Y116119D01*
D02*
G37*
G36*
X186092Y101246D02*
X185663Y101161D01*
X185299Y100918D01*
X185056Y100554D01*
X184971Y100125D01*
X185056Y99696D01*
X185299Y99332D01*
X185663Y99089D01*
X186092Y99003D01*
X186521Y99089D01*
X186885Y99332D01*
X187128Y99696D01*
X187214Y100125D01*
X187128Y100554D01*
X186885Y100918D01*
X186521Y101161D01*
X186092Y101246D01*
D02*
G37*
G36*
X265900Y91800D02*
X265682Y91798D01*
X246218Y91650D01*
X246200Y91653D01*
X246180Y91650D01*
X243521Y91629D01*
X243500Y91633D01*
X243477Y91629D01*
X241114Y91611D01*
X241000Y91633D01*
X240877Y91609D01*
X239700Y91600D01*
Y87228D01*
X239676Y87110D01*
X239700Y86992D01*
Y84324D01*
X239670Y84278D01*
X239577Y83810D01*
X239670Y83342D01*
X239700Y83296D01*
Y82600D01*
X239600Y82500D01*
X266100D01*
Y87012D01*
X266124Y87130D01*
X266100Y87248D01*
Y89916D01*
X266130Y89962D01*
X266224Y90430D01*
X266130Y90898D01*
X266100Y90944D01*
X266100Y91600D01*
X265900Y91800D01*
D02*
G37*
G36*
X181592Y95546D02*
X181163Y95461D01*
X180799Y95218D01*
X180556Y94854D01*
X180471Y94425D01*
X180556Y93996D01*
X180771Y93675D01*
X180556Y93354D01*
X180471Y92925D01*
X180556Y92496D01*
X180799Y92132D01*
X181163Y91889D01*
X181592Y91803D01*
X182021Y91889D01*
X182385Y92132D01*
X182629Y92496D01*
X182714Y92925D01*
X182629Y93354D01*
X182414Y93675D01*
X182629Y93996D01*
X182714Y94425D01*
X182629Y94854D01*
X182385Y95218D01*
X182021Y95461D01*
X181592Y95546D01*
D02*
G37*
G36*
X20900Y89028D02*
X20065Y88918D01*
X19286Y88595D01*
X18618Y88082D01*
X18105Y87414D01*
X17782Y86635D01*
X17672Y85800D01*
X17782Y84965D01*
X18105Y84186D01*
X18618Y83518D01*
X19286Y83005D01*
X20065Y82682D01*
X20900Y82572D01*
X21735Y82682D01*
X22514Y83005D01*
X23182Y83518D01*
X23695Y84186D01*
X24018Y84965D01*
X24128Y85800D01*
X24018Y86635D01*
X23695Y87414D01*
X23182Y88082D01*
X22514Y88595D01*
X21735Y88918D01*
X20900Y89028D01*
D02*
G37*
G36*
X442000Y90824D02*
X441882Y90800D01*
X439318D01*
X439300Y90803D01*
X439282Y90800D01*
X436918D01*
X436800Y90824D01*
X436682Y90800D01*
X434118D01*
X434100Y90803D01*
X434082Y90800D01*
X431618D01*
X431500Y90824D01*
X431382Y90800D01*
X428818D01*
X428800Y90803D01*
X428782Y90800D01*
X426318D01*
X426300Y90803D01*
X426282Y90800D01*
X423318D01*
X423200Y90824D01*
X423082Y90800D01*
X420518D01*
X420500Y90803D01*
X420482Y90800D01*
X418018D01*
X418000Y90803D01*
X417982Y90800D01*
X416800D01*
X416700Y90700D01*
Y86398D01*
X416677Y86280D01*
X416700Y86162D01*
Y83494D01*
X416670Y83448D01*
X416596Y83076D01*
X416514Y82972D01*
X416142Y82925D01*
X416046Y83079D01*
X416044Y83082D01*
X416027Y83139D01*
X415732Y84110D01*
X415119Y85258D01*
X414293Y86264D01*
X413288Y87089D01*
X412140Y87702D01*
X410895Y88080D01*
X409600Y88208D01*
X408305Y88080D01*
X407060Y87702D01*
X405912Y87089D01*
X404907Y86264D01*
X404081Y85258D01*
X403468Y84110D01*
X403090Y82865D01*
X402962Y81570D01*
X403090Y80275D01*
X403468Y79030D01*
X404081Y77882D01*
X404907Y76877D01*
X405912Y76051D01*
X407060Y75438D01*
X408305Y75060D01*
X409600Y74933D01*
X410895Y75060D01*
X412140Y75438D01*
X413288Y76051D01*
X414293Y76877D01*
X415119Y77882D01*
X415732Y79030D01*
X416110Y80275D01*
X416230Y81499D01*
X416251Y81586D01*
X416288Y81631D01*
X416727Y81700D01*
X417086Y81700D01*
X442900D01*
X443000Y81800D01*
Y82882D01*
X443023Y83000D01*
X443000Y83118D01*
Y85786D01*
X443030Y85832D01*
X443123Y86300D01*
X443030Y86768D01*
X443000Y86814D01*
Y88937D01*
X443130Y89132D01*
X443223Y89600D01*
X443130Y90068D01*
X443000Y90263D01*
Y90800D01*
X442118D01*
X442000Y90824D01*
D02*
G37*
G36*
X182092Y90846D02*
X181663Y90761D01*
X181299Y90518D01*
X181056Y90154D01*
X180971Y89725D01*
X181056Y89296D01*
X181299Y88932D01*
X181663Y88689D01*
X181913Y88639D01*
X181871Y88425D01*
X181956Y87996D01*
X182199Y87632D01*
X182563Y87389D01*
X182992Y87303D01*
X183422Y87389D01*
X183756Y87612D01*
X183785Y87632D01*
X184299Y87632D01*
X184328Y87612D01*
X184663Y87389D01*
X185092Y87303D01*
X185521Y87389D01*
X185885Y87632D01*
X186128Y87996D01*
X186214Y88425D01*
X186128Y88854D01*
X185885Y89218D01*
X185521Y89461D01*
X185092Y89546D01*
X184663Y89461D01*
X184328Y89237D01*
X184299Y89218D01*
X183785Y89218D01*
X183756Y89237D01*
X183422Y89461D01*
X183171Y89511D01*
X183214Y89725D01*
X183128Y90154D01*
X182885Y90518D01*
X182521Y90761D01*
X182092Y90846D01*
D02*
G37*
G36*
X59300Y96076D02*
X58773Y95972D01*
X58327Y95673D01*
X58028Y95227D01*
X57924Y94700D01*
X58028Y94173D01*
X58327Y93727D01*
X58773Y93428D01*
X59300Y93324D01*
X59827Y93428D01*
X60273Y93727D01*
X60572Y94173D01*
X60676Y94700D01*
X60572Y95227D01*
X60273Y95673D01*
X59827Y95972D01*
X59300Y96076D01*
D02*
G37*
G36*
X457035Y13335D02*
X447193D01*
X446920Y13281D01*
X446688Y13126D01*
X446533Y12894D01*
X446479Y12621D01*
Y2779D01*
X446533Y2506D01*
X446688Y2274D01*
X446920Y2119D01*
X447193Y2065D01*
X457035D01*
X457309Y2119D01*
X457540Y2274D01*
X457695Y2506D01*
X457749Y2779D01*
Y12621D01*
X457695Y12894D01*
X457540Y13126D01*
X457309Y13281D01*
X457035Y13335D01*
D02*
G37*
G36*
X483295Y13370D02*
X481828Y13177D01*
X480460Y12610D01*
X479286Y11709D01*
X478385Y10535D01*
X477819Y9167D01*
X477626Y7700D01*
X477819Y6233D01*
X478385Y4865D01*
X479286Y3691D01*
X480460Y2790D01*
X481828Y2223D01*
X483295Y2030D01*
X484763Y2223D01*
X486130Y2790D01*
X487304Y3691D01*
X488205Y4865D01*
X488772Y6233D01*
X488965Y7700D01*
X488772Y9167D01*
X488205Y10535D01*
X487304Y11709D01*
X486130Y12610D01*
X484763Y13177D01*
X483295Y13370D01*
D02*
G37*
G36*
X498886D02*
X497418Y13177D01*
X496051Y12610D01*
X494877Y11709D01*
X493976Y10535D01*
X493409Y9167D01*
X493216Y7700D01*
X493409Y6233D01*
X493976Y4865D01*
X494877Y3691D01*
X496051Y2790D01*
X497418Y2223D01*
X498886Y2030D01*
X500353Y2223D01*
X501721Y2790D01*
X502895Y3691D01*
X503796Y4865D01*
X504362Y6233D01*
X504556Y7700D01*
X504362Y9167D01*
X503796Y10535D01*
X502895Y11709D01*
X501721Y12610D01*
X500353Y13177D01*
X498886Y13370D01*
D02*
G37*
G36*
X467705D02*
X466237Y13177D01*
X464870Y12610D01*
X463696Y11709D01*
X462795Y10535D01*
X462228Y9167D01*
X462035Y7700D01*
X462228Y6233D01*
X462795Y4865D01*
X463696Y3691D01*
X464870Y2790D01*
X466237Y2223D01*
X467705Y2030D01*
X469172Y2223D01*
X470540Y2790D01*
X471714Y3691D01*
X472615Y4865D01*
X473181Y6233D01*
X473375Y7700D01*
X473181Y9167D01*
X472615Y10535D01*
X471714Y11709D01*
X470540Y12610D01*
X469172Y13177D01*
X467705Y13370D01*
D02*
G37*
%LPD*%
G36*
X166708Y51917D02*
X166627Y51265D01*
X166362Y50868D01*
X166269Y50400D01*
X166362Y49932D01*
X166550Y49650D01*
X166362Y49368D01*
X166269Y48900D01*
X166362Y48432D01*
X166627Y48035D01*
X167024Y47770D01*
X167492Y47677D01*
X167700Y47718D01*
X168200Y47374D01*
Y23569D01*
X167392Y22600D01*
X145292D01*
X143992Y23900D01*
X143792D01*
Y36995D01*
X144292Y37044D01*
X144315Y36932D01*
X144580Y36535D01*
X144977Y36270D01*
X145445Y36176D01*
X145913Y36270D01*
X146310Y36535D01*
X146575Y36932D01*
X146669Y37400D01*
X146575Y37868D01*
X146310Y38265D01*
X145913Y38530D01*
X145445Y38623D01*
X144977Y38530D01*
X144580Y38265D01*
X144315Y37868D01*
X144292Y37756D01*
X143792Y37805D01*
Y48495D01*
X144292Y48544D01*
X144315Y48432D01*
X144580Y48035D01*
X144977Y47770D01*
X145445Y47677D01*
X145913Y47770D01*
X146310Y48035D01*
X146575Y48432D01*
X146669Y48900D01*
X146575Y49368D01*
X146387Y49650D01*
X146575Y49932D01*
X146669Y50400D01*
X146575Y50868D01*
X146310Y51265D01*
X146230Y51917D01*
X146289Y52000D01*
X147751D01*
X147810Y51917D01*
X147730Y51265D01*
X147464Y50868D01*
X147371Y50400D01*
X147464Y49932D01*
X147651Y49652D01*
X147462Y49368D01*
X147369Y48900D01*
X147462Y48432D01*
X147727Y48035D01*
X148124Y47770D01*
X148592Y47677D01*
X149060Y47770D01*
X149458Y48035D01*
X149723Y48432D01*
X149816Y48900D01*
X149723Y49368D01*
X149536Y49648D01*
X149725Y49932D01*
X149818Y50400D01*
X149725Y50868D01*
X149460Y51265D01*
X149379Y51917D01*
X149439Y52000D01*
X150962D01*
X151114Y51500D01*
X150861Y51331D01*
X150590Y50926D01*
X150495Y50448D01*
Y50400D01*
X150590Y49922D01*
X150787Y49628D01*
X150614Y49368D01*
X150521Y48900D01*
X150614Y48432D01*
X150879Y48035D01*
X151276Y47770D01*
X151744Y47677D01*
X152213Y47770D01*
X152609Y48035D01*
X152875Y48432D01*
X152968Y48900D01*
X152875Y49368D01*
X152701Y49628D01*
X152898Y49922D01*
X152993Y50400D01*
Y50448D01*
X152898Y50926D01*
X152628Y51331D01*
X152375Y51500D01*
X152526Y52000D01*
X154050D01*
X154109Y51917D01*
X154029Y51265D01*
X153763Y50868D01*
X153670Y50400D01*
X153763Y49932D01*
X153952Y49650D01*
X153763Y49368D01*
X153670Y48900D01*
X153763Y48432D01*
X154029Y48035D01*
X154426Y47770D01*
X154894Y47677D01*
X155362Y47770D01*
X155759Y48035D01*
X156024Y48432D01*
X156117Y48900D01*
X156024Y49368D01*
X155836Y49650D01*
X156024Y49932D01*
X156117Y50400D01*
X156024Y50868D01*
X155759Y51265D01*
X155678Y51917D01*
X155738Y52000D01*
X157200D01*
X157259Y51917D01*
X157178Y51265D01*
X156913Y50868D01*
X156820Y50400D01*
X156913Y49932D01*
X157101Y49650D01*
X156913Y49368D01*
X156820Y48900D01*
X156913Y48432D01*
X157178Y48035D01*
X157575Y47770D01*
X158044Y47677D01*
X158512Y47770D01*
X158909Y48035D01*
X159174Y48432D01*
X159267Y48900D01*
X159174Y49368D01*
X158986Y49650D01*
X159174Y49932D01*
X159267Y50400D01*
X159174Y50868D01*
X158909Y51265D01*
X158828Y51917D01*
X158887Y52000D01*
X160348D01*
X160408Y51917D01*
X160327Y51265D01*
X160062Y50868D01*
X159969Y50400D01*
X160062Y49932D01*
X160250Y49650D01*
X160062Y49368D01*
X159969Y48900D01*
X160062Y48432D01*
X160327Y48035D01*
X160724Y47770D01*
X161192Y47677D01*
X161661Y47770D01*
X162057Y48035D01*
X162323Y48432D01*
X162416Y48900D01*
X162323Y49368D01*
X162134Y49650D01*
X162323Y49932D01*
X162416Y50400D01*
X162323Y50868D01*
X162057Y51265D01*
X161977Y51917D01*
X162036Y52000D01*
X163499D01*
X163558Y51917D01*
X163478Y51265D01*
X163212Y50868D01*
X163119Y50400D01*
X163212Y49932D01*
X163401Y49650D01*
X163212Y49368D01*
X163119Y48900D01*
X163212Y48432D01*
X163478Y48035D01*
X163874Y47770D01*
X164343Y47677D01*
X164811Y47770D01*
X165208Y48035D01*
X165473Y48432D01*
X165566Y48900D01*
X165473Y49368D01*
X165285Y49650D01*
X165473Y49932D01*
X165566Y50400D01*
X165473Y50868D01*
X165208Y51265D01*
X165127Y51917D01*
X165187Y52000D01*
X166648D01*
X166708Y51917D01*
D02*
G37*
%LPC*%
G36*
X151744Y38623D02*
X151276Y38530D01*
X150879Y38265D01*
X150614Y37868D01*
X150521Y37400D01*
X150614Y36932D01*
X150879Y36535D01*
X151276Y36270D01*
X151744Y36176D01*
X152213Y36270D01*
X152609Y36535D01*
X152875Y36932D01*
X152968Y37400D01*
X152875Y37868D01*
X152609Y38265D01*
X152213Y38530D01*
X151744Y38623D01*
D02*
G37*
G36*
X148592D02*
X148124Y38530D01*
X147727Y38265D01*
X147462Y37868D01*
X147369Y37400D01*
X147462Y36932D01*
X147727Y36535D01*
X148124Y36270D01*
X148592Y36176D01*
X149060Y36270D01*
X149458Y36535D01*
X149723Y36932D01*
X149816Y37400D01*
X149723Y37868D01*
X149458Y38265D01*
X149060Y38530D01*
X148592Y38623D01*
D02*
G37*
G36*
X161192D02*
X160724Y38530D01*
X160327Y38265D01*
X160062Y37868D01*
X159969Y37400D01*
X160062Y36932D01*
X160327Y36535D01*
X160724Y36270D01*
X161192Y36176D01*
X161661Y36270D01*
X162057Y36535D01*
X162323Y36932D01*
X162416Y37400D01*
X162323Y37868D01*
X162057Y38265D01*
X161661Y38530D01*
X161192Y38623D01*
D02*
G37*
G36*
X164343D02*
X163874Y38530D01*
X163478Y38265D01*
X163212Y37868D01*
X163119Y37400D01*
X163212Y36932D01*
X163478Y36535D01*
X163874Y36270D01*
X164343Y36176D01*
X164811Y36270D01*
X165208Y36535D01*
X165473Y36932D01*
X165566Y37400D01*
X165473Y37868D01*
X165208Y38265D01*
X164811Y38530D01*
X164343Y38623D01*
D02*
G37*
G36*
X154892D02*
X154424Y38530D01*
X154027Y38265D01*
X153762Y37868D01*
X153669Y37400D01*
X153762Y36932D01*
X154027Y36535D01*
X154424Y36270D01*
X154892Y36176D01*
X155360Y36270D01*
X155757Y36535D01*
X156023Y36932D01*
X156116Y37400D01*
X156023Y37868D01*
X155757Y38265D01*
X155360Y38530D01*
X154892Y38623D01*
D02*
G37*
G36*
X158044D02*
X157575Y38530D01*
X157178Y38265D01*
X156913Y37868D01*
X156820Y37400D01*
X156913Y36932D01*
X157178Y36535D01*
X157575Y36270D01*
X158044Y36176D01*
X158512Y36270D01*
X158909Y36535D01*
X159174Y36932D01*
X159267Y37400D01*
X159174Y37868D01*
X158909Y38265D01*
X158512Y38530D01*
X158044Y38623D01*
D02*
G37*
G36*
X114801Y104177D02*
X102990D01*
X102717Y104123D01*
X102485Y103969D01*
X102330Y103737D01*
X102276Y103464D01*
Y73936D01*
X102330Y73663D01*
X102485Y73432D01*
X102717Y73277D01*
X102990Y73223D01*
X114801D01*
X115074Y73277D01*
X115305Y73432D01*
X115460Y73663D01*
X115515Y73936D01*
Y103464D01*
X115460Y103737D01*
X115305Y103969D01*
X115074Y104123D01*
X114801Y104177D01*
D02*
G37*
G36*
X149295Y108646D02*
X148865Y108561D01*
X148502Y108318D01*
X148258Y107954D01*
X148173Y107525D01*
X148258Y107096D01*
X148472Y106777D01*
X148256Y106454D01*
X148171Y106025D01*
X148256Y105596D01*
X148499Y105232D01*
X148863Y104989D01*
X149292Y104903D01*
X149722Y104989D01*
X150085Y105232D01*
X150329Y105596D01*
X150414Y106025D01*
X150329Y106454D01*
X150115Y106773D01*
X150331Y107096D01*
X150416Y107525D01*
X150331Y107954D01*
X150088Y108318D01*
X149724Y108561D01*
X149295Y108646D01*
D02*
G37*
G36*
X146019Y108821D02*
X146038Y108625D01*
X145716Y108561D01*
X145352Y108318D01*
X145109Y107954D01*
X145024Y107525D01*
X145109Y107096D01*
X145323Y106775D01*
X145109Y106454D01*
X145024Y106025D01*
X145109Y105596D01*
X145352Y105232D01*
X145716Y104989D01*
X146145Y104903D01*
X146574Y104989D01*
X146938Y105232D01*
X147181Y105596D01*
X147267Y106025D01*
X147181Y106454D01*
X146967Y106775D01*
X147181Y107096D01*
X147267Y107525D01*
X147181Y107954D01*
X146938Y108318D01*
X146574Y108561D01*
X146145Y108646D01*
X146115Y108640D01*
X146019Y108821D01*
D02*
G37*
G36*
X152444Y108822D02*
X151966Y108727D01*
X151830Y108635D01*
D01*
X151561Y108456D01*
X151290Y108051D01*
X151195Y107573D01*
Y107525D01*
X151290Y107047D01*
X151547Y106662D01*
X151408Y106454D01*
X151323Y106025D01*
X151408Y105596D01*
X151651Y105232D01*
X152015Y104989D01*
X152444Y104903D01*
X152874Y104989D01*
X153237Y105232D01*
X153481Y105596D01*
X153566Y106025D01*
X153481Y106454D01*
X153341Y106662D01*
X153598Y107047D01*
X153693Y107525D01*
Y107573D01*
X153598Y108051D01*
X153328Y108456D01*
X152922Y108727D01*
X152444Y108822D01*
D02*
G37*
G36*
X158744Y108646D02*
X158314Y108561D01*
X157950Y108318D01*
X157707Y107954D01*
X157622Y107525D01*
X157707Y107096D01*
X157922Y106775D01*
X157707Y106454D01*
X157622Y106025D01*
X157707Y105596D01*
X157950Y105232D01*
X158314Y104989D01*
X158744Y104903D01*
X159173Y104989D01*
X159537Y105232D01*
X159780Y105596D01*
X159865Y106025D01*
X159780Y106454D01*
X159565Y106775D01*
X159780Y107096D01*
X159865Y107525D01*
X159780Y107954D01*
X159537Y108318D01*
X159173Y108561D01*
X158744Y108646D01*
D02*
G37*
G36*
X155594D02*
X155165Y108561D01*
X154801Y108318D01*
X154558Y107954D01*
X154472Y107525D01*
X154558Y107096D01*
X154772Y106775D01*
X154558Y106454D01*
X154472Y106025D01*
X154558Y105596D01*
X154801Y105232D01*
X155165Y104989D01*
X155594Y104903D01*
X156023Y104989D01*
X156387Y105232D01*
X156630Y105596D01*
X156715Y106025D01*
X156630Y106454D01*
X156416Y106775D01*
X156630Y107096D01*
X156715Y107525D01*
X156630Y107954D01*
X156387Y108318D01*
X156023Y108561D01*
X155594Y108646D01*
D02*
G37*
G36*
X165043D02*
X164613Y108561D01*
X164250Y108318D01*
X164006Y107954D01*
X163921Y107525D01*
X164006Y107096D01*
X164221Y106775D01*
X164006Y106454D01*
X163921Y106025D01*
X164006Y105596D01*
X164250Y105232D01*
X164613Y104989D01*
X165043Y104903D01*
X165472Y104989D01*
X165836Y105232D01*
X166079Y105596D01*
X166164Y106025D01*
X166079Y106454D01*
X165865Y106775D01*
X166079Y107096D01*
X166164Y107525D01*
X166079Y107954D01*
X165836Y108318D01*
X165472Y108561D01*
X165043Y108646D01*
D02*
G37*
G36*
X161892D02*
X161463Y108561D01*
X161099Y108318D01*
X160856Y107954D01*
X160771Y107525D01*
X160856Y107096D01*
X161071Y106775D01*
X160856Y106454D01*
X160771Y106025D01*
X160856Y105596D01*
X161099Y105232D01*
X161463Y104989D01*
X161892Y104903D01*
X162321Y104989D01*
X162685Y105232D01*
X162928Y105596D01*
X163014Y106025D01*
X162928Y106454D01*
X162714Y106775D01*
X162928Y107096D01*
X163014Y107525D01*
X162928Y107954D01*
X162685Y108318D01*
X162321Y108561D01*
X161892Y108646D01*
D02*
G37*
G36*
Y95646D02*
X161463Y95561D01*
X161099Y95318D01*
X160856Y94954D01*
X160771Y94525D01*
X160856Y94096D01*
X161099Y93732D01*
X161463Y93489D01*
X161892Y93403D01*
X162321Y93489D01*
X162685Y93732D01*
X162928Y94096D01*
X163014Y94525D01*
X162928Y94954D01*
X162685Y95318D01*
X162321Y95561D01*
X161892Y95646D01*
D02*
G37*
G36*
X158744D02*
X158314Y95561D01*
X157950Y95318D01*
X157707Y94954D01*
X157622Y94525D01*
X157707Y94096D01*
X157950Y93732D01*
X158314Y93489D01*
X158744Y93403D01*
X159173Y93489D01*
X159239Y93533D01*
D01*
X159537Y93732D01*
X159780Y94096D01*
X159865Y94525D01*
X159780Y94954D01*
X159537Y95318D01*
X159173Y95561D01*
X158744Y95646D01*
D02*
G37*
G36*
X165043D02*
X164613Y95561D01*
X164250Y95318D01*
X164006Y94954D01*
X163921Y94525D01*
X164006Y94096D01*
X164250Y93732D01*
X164613Y93489D01*
X165043Y93403D01*
X165472Y93489D01*
X165836Y93732D01*
X166079Y94096D01*
X166164Y94525D01*
X166079Y94954D01*
X165836Y95318D01*
X165472Y95561D01*
X165043Y95646D01*
D02*
G37*
G36*
X149292D02*
X148863Y95561D01*
X148499Y95318D01*
X148256Y94954D01*
X148171Y94525D01*
X148256Y94096D01*
X148499Y93732D01*
X148863Y93489D01*
X149292Y93403D01*
X149722Y93489D01*
X150085Y93732D01*
X150329Y94096D01*
X150414Y94525D01*
X150329Y94954D01*
X150085Y95318D01*
X149722Y95561D01*
X149292Y95646D01*
D02*
G37*
G36*
X146145D02*
X145716Y95561D01*
X145352Y95318D01*
X145109Y94954D01*
X145024Y94525D01*
X145109Y94096D01*
X145352Y93732D01*
X145716Y93489D01*
X146145Y93403D01*
X146574Y93489D01*
X146938Y93732D01*
X147181Y94096D01*
X147267Y94525D01*
X147181Y94954D01*
X146938Y95318D01*
X146574Y95561D01*
X146145Y95646D01*
D02*
G37*
G36*
X155592D02*
X155163Y95561D01*
X154799Y95318D01*
X154556Y94954D01*
X154471Y94525D01*
X154556Y94096D01*
X154799Y93732D01*
X155163Y93489D01*
X155592Y93403D01*
X156021Y93489D01*
X156385Y93732D01*
X156629Y94096D01*
X156714Y94525D01*
X156629Y94954D01*
X156385Y95318D01*
X156021Y95561D01*
X155592Y95646D01*
D02*
G37*
G36*
X152444D02*
X152015Y95561D01*
X151651Y95318D01*
X151408Y94954D01*
X151323Y94525D01*
X151408Y94096D01*
X151651Y93732D01*
X152015Y93489D01*
X152444Y93403D01*
X152874Y93489D01*
X153237Y93732D01*
X153481Y94096D01*
X153566Y94525D01*
X153481Y94954D01*
X153237Y95318D01*
X152874Y95561D01*
X152444Y95646D01*
D02*
G37*
G36*
X384300Y143623D02*
X383832Y143530D01*
X383435Y143265D01*
X383170Y142868D01*
X383077Y142400D01*
X383170Y141932D01*
X383358Y141650D01*
X383170Y141368D01*
X383077Y140900D01*
X383170Y140432D01*
X383435Y140035D01*
X383832Y139770D01*
X384300Y139676D01*
X384768Y139770D01*
X385165Y140035D01*
X385430Y140432D01*
X385524Y140900D01*
X385430Y141368D01*
X385242Y141650D01*
X385430Y141932D01*
X385524Y142400D01*
X385430Y142868D01*
X385165Y143265D01*
X384768Y143530D01*
X384300Y143623D01*
D02*
G37*
G36*
X381150D02*
X380681Y143530D01*
X380284Y143265D01*
X380019Y142868D01*
X379926Y142400D01*
X380019Y141932D01*
X380207Y141650D01*
X380019Y141368D01*
X379926Y140900D01*
X380019Y140432D01*
X380284Y140035D01*
X380681Y139770D01*
X381150Y139676D01*
X381618Y139770D01*
X382015Y140035D01*
X382280Y140432D01*
X382373Y140900D01*
X382280Y141368D01*
X382092Y141650D01*
X382280Y141932D01*
X382373Y142400D01*
X382280Y142868D01*
X382015Y143265D01*
X381618Y143530D01*
X381150Y143623D01*
D02*
G37*
G36*
X400047Y143522D02*
X399618Y143436D01*
X399254Y143193D01*
X399011Y142829D01*
X398926Y142400D01*
X399011Y141971D01*
X399225Y141650D01*
X399011Y141329D01*
X398926Y140900D01*
X399011Y140471D01*
X399254Y140107D01*
X399618Y139864D01*
X400047Y139778D01*
X400476Y139864D01*
X400840Y140107D01*
X401083Y140471D01*
X401169Y140900D01*
X401083Y141329D01*
X400869Y141650D01*
X401083Y141971D01*
X401169Y142400D01*
X401083Y142829D01*
X400840Y143193D01*
X400476Y143436D01*
X400047Y143522D01*
D02*
G37*
G36*
X390598Y143623D02*
X390130Y143530D01*
X389733Y143265D01*
X389468Y142868D01*
X389375Y142400D01*
X389468Y141932D01*
X389656Y141650D01*
X389468Y141368D01*
X389375Y140900D01*
X389468Y140432D01*
X389733Y140035D01*
X390130Y139770D01*
X390598Y139676D01*
X391067Y139770D01*
X391464Y140035D01*
X391729Y140432D01*
X391822Y140900D01*
X391729Y141368D01*
X391541Y141650D01*
X391729Y141932D01*
X391822Y142400D01*
X391729Y142868D01*
X391464Y143265D01*
X391067Y143530D01*
X390598Y143623D01*
D02*
G37*
G36*
X387449D02*
X386981Y143530D01*
X386584Y143265D01*
X386318Y142868D01*
X386225Y142400D01*
X386318Y141932D01*
X386507Y141650D01*
X386318Y141368D01*
X386225Y140900D01*
X386318Y140432D01*
X386584Y140035D01*
X386981Y139770D01*
X387449Y139676D01*
X387917Y139770D01*
X388314Y140035D01*
X388579Y140432D01*
X388672Y140900D01*
X388579Y141368D01*
X388391Y141650D01*
X388579Y141932D01*
X388672Y142400D01*
X388579Y142868D01*
X388314Y143265D01*
X387917Y143530D01*
X387449Y143623D01*
D02*
G37*
G36*
X396900D02*
X396432Y143530D01*
X396035Y143265D01*
X395770Y142868D01*
X395676Y142400D01*
X395770Y141932D01*
X395957Y141652D01*
X395767Y141368D01*
X395674Y140900D01*
X395767Y140432D01*
X396033Y140035D01*
X396429Y139770D01*
X396898Y139676D01*
X397109Y139718D01*
Y139820D01*
X397327Y139864D01*
X397691Y140107D01*
X397934Y140471D01*
X398019Y140900D01*
X397934Y141329D01*
X397721Y141648D01*
X397936Y141971D01*
X398022Y142400D01*
X397936Y142829D01*
X397693Y143193D01*
X397329Y143436D01*
X397109Y143480D01*
Y143582D01*
X396900Y143623D01*
D02*
G37*
G36*
X393748D02*
X393280Y143530D01*
X392883Y143265D01*
X392618Y142868D01*
X392525Y142400D01*
X392618Y141932D01*
X392806Y141650D01*
X392618Y141368D01*
X392525Y140900D01*
X392618Y140432D01*
X392883Y140035D01*
X393280Y139770D01*
X393748Y139676D01*
X394216Y139770D01*
X394613Y140035D01*
X394878Y140432D01*
X394971Y140900D01*
X394878Y141368D01*
X394690Y141650D01*
X394878Y141932D01*
X394971Y142400D01*
X394878Y142868D01*
X394613Y143265D01*
X394216Y143530D01*
X393748Y143623D01*
D02*
G37*
G36*
X449000Y155122D02*
X448571Y155036D01*
X448207Y154793D01*
X447964Y154429D01*
X447878Y154000D01*
X447964Y153571D01*
X448207Y153207D01*
X448571Y152964D01*
X449000Y152878D01*
X449429Y152964D01*
X449793Y153207D01*
X450036Y153571D01*
X450122Y154000D01*
X450036Y154429D01*
X449793Y154793D01*
X449429Y155036D01*
X449000Y155122D01*
D02*
G37*
G36*
X393748Y155123D02*
X393280Y155030D01*
X392883Y154765D01*
X392618Y154368D01*
X392525Y153900D01*
X392618Y153432D01*
X392883Y153035D01*
X393280Y152770D01*
X393748Y152676D01*
X394216Y152770D01*
X394613Y153035D01*
X394878Y153432D01*
X394971Y153900D01*
X394878Y154368D01*
X394613Y154765D01*
X394216Y155030D01*
X393748Y155123D01*
D02*
G37*
G36*
X390600D02*
X390132Y155030D01*
X389735Y154765D01*
X389470Y154368D01*
X389376Y153900D01*
X389470Y153432D01*
X389735Y153035D01*
X390132Y152770D01*
X390600Y152676D01*
X391068Y152770D01*
X391465Y153035D01*
X391730Y153432D01*
X391824Y153900D01*
X391730Y154368D01*
X391465Y154765D01*
X391068Y155030D01*
X390600Y155123D01*
D02*
G37*
G36*
X400047Y155022D02*
X399618Y154936D01*
X399254Y154693D01*
X399011Y154329D01*
X398926Y153900D01*
X399011Y153471D01*
X399254Y153107D01*
X399618Y152864D01*
X400047Y152778D01*
X400476Y152864D01*
X400840Y153107D01*
X401083Y153471D01*
X401169Y153900D01*
X401083Y154329D01*
X400840Y154693D01*
X400476Y154936D01*
X400047Y155022D01*
D02*
G37*
G36*
X396900Y155123D02*
X396432Y155030D01*
X396035Y154765D01*
X395770Y154368D01*
X395676Y153900D01*
X395770Y153432D01*
X396035Y153035D01*
X396432Y152770D01*
X396900Y152676D01*
X397109Y152718D01*
Y152820D01*
X397329Y152864D01*
X397693Y153107D01*
X397936Y153471D01*
X398022Y153900D01*
X397936Y154329D01*
X397693Y154693D01*
X397329Y154936D01*
X397109Y154980D01*
Y155082D01*
X396900Y155123D01*
D02*
G37*
G36*
X387449D02*
X386981Y155030D01*
X386584Y154765D01*
X386318Y154368D01*
X386225Y153900D01*
X386318Y153432D01*
X386584Y153035D01*
X386981Y152770D01*
X387449Y152676D01*
X387917Y152770D01*
X388314Y153035D01*
X388579Y153432D01*
X388672Y153900D01*
X388579Y154368D01*
X388314Y154765D01*
X387917Y155030D01*
X387449Y155123D01*
D02*
G37*
G36*
X457900Y149222D02*
X457471Y149136D01*
X457107Y148893D01*
X456864Y148529D01*
X456778Y148100D01*
X456864Y147671D01*
X457107Y147307D01*
X457471Y147064D01*
X457900Y146978D01*
X458329Y147064D01*
X458693Y147307D01*
X458936Y147671D01*
X459022Y148100D01*
X458936Y148529D01*
X458693Y148893D01*
X458329Y149136D01*
X457900Y149222D01*
D02*
G37*
G36*
X467200Y149823D02*
X466732Y149730D01*
X466335Y149465D01*
X466070Y149068D01*
X465976Y148600D01*
X466070Y148132D01*
X466335Y147735D01*
X466732Y147470D01*
X467200Y147377D01*
X467668Y147470D01*
X468065Y147735D01*
X468330Y148132D01*
X468424Y148600D01*
X468330Y149068D01*
X468065Y149465D01*
X467668Y149730D01*
X467200Y149823D01*
D02*
G37*
G36*
X535200Y145122D02*
X534771Y145036D01*
X534407Y144793D01*
X534164Y144429D01*
X534078Y144000D01*
X534164Y143571D01*
X534407Y143207D01*
X534771Y142964D01*
X535200Y142878D01*
X535629Y142964D01*
X535993Y143207D01*
X536236Y143571D01*
X536322Y144000D01*
X536236Y144429D01*
X535993Y144793D01*
X535629Y145036D01*
X535200Y145122D01*
D02*
G37*
G36*
X460400Y147222D02*
X459971Y147136D01*
X459607Y146893D01*
X459364Y146529D01*
X459278Y146100D01*
X459364Y145671D01*
X459607Y145307D01*
X459971Y145064D01*
X460400Y144978D01*
X460829Y145064D01*
X461193Y145307D01*
X461436Y145671D01*
X461522Y146100D01*
X461436Y146529D01*
X461193Y146893D01*
X460829Y147136D01*
X460400Y147222D01*
D02*
G37*
G36*
X384300Y155123D02*
X383832Y155030D01*
X383435Y154765D01*
X383170Y154368D01*
X383077Y153900D01*
X383170Y153432D01*
X383435Y153035D01*
X383832Y152770D01*
X384300Y152676D01*
X384768Y152770D01*
X385165Y153035D01*
X385430Y153432D01*
X385524Y153900D01*
X385430Y154368D01*
X385165Y154765D01*
X384768Y155030D01*
X384300Y155123D01*
D02*
G37*
G36*
X381150D02*
X380681Y155030D01*
X380284Y154765D01*
X380019Y154368D01*
X379926Y153900D01*
X380019Y153432D01*
X380284Y153035D01*
X380681Y152770D01*
X381150Y152676D01*
X381618Y152770D01*
X382015Y153035D01*
X382280Y153432D01*
X382373Y153900D01*
X382280Y154368D01*
X382015Y154765D01*
X381618Y155030D01*
X381150Y155123D01*
D02*
G37*
G36*
X448600Y150376D02*
X448073Y150272D01*
X447627Y149973D01*
X447328Y149527D01*
X447224Y149000D01*
X447328Y148473D01*
X447627Y148027D01*
X448073Y147728D01*
X448600Y147624D01*
X449127Y147728D01*
X449573Y148027D01*
X449872Y148473D01*
X449976Y149000D01*
X449872Y149527D01*
X449573Y149973D01*
X449127Y150272D01*
X448600Y150376D01*
D02*
G37*
G36*
X543500Y175322D02*
X543071Y175236D01*
X542707Y174993D01*
X542464Y174629D01*
X542378Y174200D01*
X542464Y173771D01*
X542707Y173407D01*
X543071Y173164D01*
X543500Y173078D01*
X543929Y173164D01*
X544293Y173407D01*
X544536Y173771D01*
X544622Y174200D01*
X544536Y174629D01*
X544293Y174993D01*
X543929Y175236D01*
X543500Y175322D01*
D02*
G37*
G36*
X476400Y179822D02*
X475971Y179736D01*
X475607Y179493D01*
X475364Y179129D01*
X475278Y178700D01*
X475364Y178271D01*
X475607Y177907D01*
X475971Y177664D01*
X476400Y177578D01*
X476829Y177664D01*
X477193Y177907D01*
X477436Y178271D01*
X477522Y178700D01*
X477436Y179129D01*
X477193Y179493D01*
X476829Y179736D01*
X476400Y179822D01*
D02*
G37*
G36*
X457200Y170923D02*
X456732Y170830D01*
X456335Y170565D01*
X456070Y170168D01*
X455976Y169700D01*
X456070Y169232D01*
X456335Y168835D01*
X456732Y168570D01*
X457200Y168476D01*
X457668Y168570D01*
X458065Y168835D01*
X458330Y169232D01*
X458424Y169700D01*
X458330Y170168D01*
X458065Y170565D01*
X457668Y170830D01*
X457200Y170923D01*
D02*
G37*
G36*
X529100Y273387D02*
X528068Y273251D01*
X527107Y272853D01*
X526281Y272219D01*
X525647Y271393D01*
X525249Y270432D01*
X525113Y269400D01*
X525249Y268368D01*
X525647Y267407D01*
X526281Y266581D01*
X527107Y265947D01*
X528068Y265549D01*
X529100Y265413D01*
X530132Y265549D01*
X531093Y265947D01*
X531919Y266581D01*
X532553Y267407D01*
X532951Y268368D01*
X533087Y269400D01*
X532951Y270432D01*
X532553Y271393D01*
X531919Y272219D01*
X531093Y272853D01*
X530132Y273251D01*
X529100Y273387D01*
D02*
G37*
G36*
X519100D02*
X518068Y273251D01*
X517107Y272853D01*
X516281Y272219D01*
X515647Y271393D01*
X515249Y270432D01*
X515113Y269400D01*
X515249Y268368D01*
X515647Y267407D01*
X516281Y266581D01*
X517107Y265947D01*
X518068Y265549D01*
X519100Y265413D01*
X520132Y265549D01*
X521093Y265947D01*
X521919Y266581D01*
X522553Y267407D01*
X522951Y268368D01*
X523087Y269400D01*
X522951Y270432D01*
X522553Y271393D01*
X521919Y272219D01*
X521093Y272853D01*
X520132Y273251D01*
X519100Y273387D01*
D02*
G37*
G36*
X549100D02*
X548068Y273251D01*
X547107Y272853D01*
X546281Y272219D01*
X545647Y271393D01*
X545249Y270432D01*
X545113Y269400D01*
X545249Y268368D01*
X545647Y267407D01*
X546281Y266581D01*
X547107Y265947D01*
X548068Y265549D01*
X549100Y265413D01*
X550132Y265549D01*
X551093Y265947D01*
X551919Y266581D01*
X552553Y267407D01*
X552951Y268368D01*
X553087Y269400D01*
X552951Y270432D01*
X552553Y271393D01*
X551919Y272219D01*
X551093Y272853D01*
X550132Y273251D01*
X549100Y273387D01*
D02*
G37*
G36*
X539100D02*
X538068Y273251D01*
X537107Y272853D01*
X536281Y272219D01*
X535647Y271393D01*
X535249Y270432D01*
X535113Y269400D01*
X535249Y268368D01*
X535647Y267407D01*
X536281Y266581D01*
X537107Y265947D01*
X538068Y265549D01*
X539100Y265413D01*
X540132Y265549D01*
X541093Y265947D01*
X541919Y266581D01*
X542553Y267407D01*
X542951Y268368D01*
X543087Y269400D01*
X542951Y270432D01*
X542553Y271393D01*
X541919Y272219D01*
X541093Y272853D01*
X540132Y273251D01*
X539100Y273387D01*
D02*
G37*
G36*
X489100D02*
X488068Y273251D01*
X487107Y272853D01*
X486281Y272219D01*
X485647Y271393D01*
X485249Y270432D01*
X485113Y269400D01*
X485249Y268368D01*
X485647Y267407D01*
X486281Y266581D01*
X487107Y265947D01*
X488068Y265549D01*
X489100Y265413D01*
X490132Y265549D01*
X491093Y265947D01*
X491919Y266581D01*
X492553Y267407D01*
X492951Y268368D01*
X493087Y269400D01*
X492951Y270432D01*
X492553Y271393D01*
X491919Y272219D01*
X491093Y272853D01*
X490132Y273251D01*
X489100Y273387D01*
D02*
G37*
G36*
X479100D02*
X478068Y273251D01*
X477107Y272853D01*
X476281Y272219D01*
X475647Y271393D01*
X475249Y270432D01*
X475113Y269400D01*
X475249Y268368D01*
X475647Y267407D01*
X476281Y266581D01*
X477107Y265947D01*
X478068Y265549D01*
X479100Y265413D01*
X480132Y265549D01*
X481093Y265947D01*
X481919Y266581D01*
X482553Y267407D01*
X482951Y268368D01*
X483087Y269400D01*
X482951Y270432D01*
X482553Y271393D01*
X481919Y272219D01*
X481093Y272853D01*
X480132Y273251D01*
X479100Y273387D01*
D02*
G37*
G36*
X509100D02*
X508068Y273251D01*
X507107Y272853D01*
X506281Y272219D01*
X505647Y271393D01*
X505249Y270432D01*
X505113Y269400D01*
X505249Y268368D01*
X505647Y267407D01*
X506281Y266581D01*
X507107Y265947D01*
X508068Y265549D01*
X509100Y265413D01*
X510132Y265549D01*
X511093Y265947D01*
X511919Y266581D01*
X512553Y267407D01*
X512951Y268368D01*
X513087Y269400D01*
X512951Y270432D01*
X512553Y271393D01*
X511919Y272219D01*
X511093Y272853D01*
X510132Y273251D01*
X509100Y273387D01*
D02*
G37*
G36*
X499100D02*
X498068Y273251D01*
X497107Y272853D01*
X496281Y272219D01*
X495647Y271393D01*
X495249Y270432D01*
X495113Y269400D01*
X495249Y268368D01*
X495647Y267407D01*
X496281Y266581D01*
X497107Y265947D01*
X498068Y265549D01*
X499100Y265413D01*
X500132Y265549D01*
X501093Y265947D01*
X501919Y266581D01*
X502553Y267407D01*
X502951Y268368D01*
X503087Y269400D01*
X502951Y270432D01*
X502553Y271393D01*
X501919Y272219D01*
X501093Y272853D01*
X500132Y273251D01*
X499100Y273387D01*
D02*
G37*
G36*
X559100D02*
X558068Y273251D01*
X557107Y272853D01*
X556281Y272219D01*
X555647Y271393D01*
X555249Y270432D01*
X555113Y269400D01*
X555249Y268368D01*
X555647Y267407D01*
X556281Y266581D01*
X557107Y265947D01*
X558068Y265549D01*
X559100Y265413D01*
X560132Y265549D01*
X561093Y265947D01*
X561919Y266581D01*
X562553Y267407D01*
X562951Y268368D01*
X563087Y269400D01*
X562951Y270432D01*
X562553Y271393D01*
X561919Y272219D01*
X561093Y272853D01*
X560132Y273251D01*
X559100Y273387D01*
D02*
G37*
G36*
X392053Y273372D02*
X386147D01*
X385757Y273295D01*
X385426Y273074D01*
X385205Y272743D01*
X385128Y272353D01*
Y266447D01*
X385205Y266057D01*
X385426Y265726D01*
X385757Y265505D01*
X386147Y265428D01*
X392053D01*
X392443Y265505D01*
X392774Y265726D01*
X392995Y266057D01*
X393072Y266447D01*
Y272353D01*
X392995Y272743D01*
X392774Y273074D01*
X392443Y273295D01*
X392053Y273372D01*
D02*
G37*
G36*
X579100Y273387D02*
X578068Y273251D01*
X577107Y272853D01*
X576281Y272219D01*
X575647Y271393D01*
X575249Y270432D01*
X575113Y269400D01*
X575249Y268368D01*
X575647Y267407D01*
X576281Y266581D01*
X577107Y265947D01*
X578068Y265549D01*
X579100Y265413D01*
X580132Y265549D01*
X581093Y265947D01*
X581919Y266581D01*
X582553Y267407D01*
X582951Y268368D01*
X583087Y269400D01*
X582951Y270432D01*
X582553Y271393D01*
X581919Y272219D01*
X581093Y272853D01*
X580132Y273251D01*
X579100Y273387D01*
D02*
G37*
G36*
X569100D02*
X568068Y273251D01*
X567107Y272853D01*
X566281Y272219D01*
X565647Y271393D01*
X565249Y270432D01*
X565113Y269400D01*
X565249Y268368D01*
X565647Y267407D01*
X566281Y266581D01*
X567107Y265947D01*
X568068Y265549D01*
X569100Y265413D01*
X570132Y265549D01*
X571093Y265947D01*
X571919Y266581D01*
X572553Y267407D01*
X572951Y268368D01*
X573087Y269400D01*
X572951Y270432D01*
X572553Y271393D01*
X571919Y272219D01*
X571093Y272853D01*
X570132Y273251D01*
X569100Y273387D01*
D02*
G37*
G36*
X599100D02*
X598068Y273251D01*
X597107Y272853D01*
X596281Y272219D01*
X595647Y271393D01*
X595249Y270432D01*
X595113Y269400D01*
X595249Y268368D01*
X595647Y267407D01*
X596281Y266581D01*
X597107Y265947D01*
X598068Y265549D01*
X599100Y265413D01*
X600132Y265549D01*
X601093Y265947D01*
X601919Y266581D01*
X602553Y267407D01*
X602951Y268368D01*
X603087Y269400D01*
X602951Y270432D01*
X602553Y271393D01*
X601919Y272219D01*
X601093Y272853D01*
X600132Y273251D01*
X599100Y273387D01*
D02*
G37*
G36*
X589100D02*
X588068Y273251D01*
X587107Y272853D01*
X586281Y272219D01*
X585647Y271393D01*
X585249Y270432D01*
X585113Y269400D01*
X585249Y268368D01*
X585647Y267407D01*
X586281Y266581D01*
X587107Y265947D01*
X588068Y265549D01*
X589100Y265413D01*
X590132Y265549D01*
X591093Y265947D01*
X591919Y266581D01*
X592553Y267407D01*
X592951Y268368D01*
X593087Y269400D01*
X592951Y270432D01*
X592553Y271393D01*
X591919Y272219D01*
X591093Y272853D01*
X590132Y273251D01*
X589100Y273387D01*
D02*
G37*
G36*
X469100D02*
X468068Y273251D01*
X467107Y272853D01*
X466281Y272219D01*
X465647Y271393D01*
X465249Y270432D01*
X465113Y269400D01*
X465249Y268368D01*
X465647Y267407D01*
X466281Y266581D01*
X467107Y265947D01*
X468068Y265549D01*
X469100Y265413D01*
X470132Y265549D01*
X471093Y265947D01*
X471919Y266581D01*
X472553Y267407D01*
X472951Y268368D01*
X473087Y269400D01*
X472951Y270432D01*
X472553Y271393D01*
X471919Y272219D01*
X471093Y272853D01*
X470132Y273251D01*
X469100Y273387D01*
D02*
G37*
G36*
X439100D02*
X438068Y273251D01*
X437107Y272853D01*
X436281Y272219D01*
X435647Y271393D01*
X435249Y270432D01*
X435113Y269400D01*
X435249Y268368D01*
X435647Y267407D01*
X436281Y266581D01*
X437107Y265947D01*
X438068Y265549D01*
X439100Y265413D01*
X440132Y265549D01*
X441093Y265947D01*
X441919Y266581D01*
X442553Y267407D01*
X442951Y268368D01*
X443087Y269400D01*
X442951Y270432D01*
X442553Y271393D01*
X441919Y272219D01*
X441093Y272853D01*
X440132Y273251D01*
X439100Y273387D01*
D02*
G37*
G36*
X429100D02*
X428068Y273251D01*
X427107Y272853D01*
X426281Y272219D01*
X425647Y271393D01*
X425249Y270432D01*
X425113Y269400D01*
X425249Y268368D01*
X425647Y267407D01*
X426281Y266581D01*
X427107Y265947D01*
X428068Y265549D01*
X429100Y265413D01*
X430132Y265549D01*
X431093Y265947D01*
X431919Y266581D01*
X432553Y267407D01*
X432951Y268368D01*
X433087Y269400D01*
X432951Y270432D01*
X432553Y271393D01*
X431919Y272219D01*
X431093Y272853D01*
X430132Y273251D01*
X429100Y273387D01*
D02*
G37*
G36*
X459100D02*
X458068Y273251D01*
X457107Y272853D01*
X456281Y272219D01*
X455647Y271393D01*
X455249Y270432D01*
X455113Y269400D01*
X455249Y268368D01*
X455647Y267407D01*
X456281Y266581D01*
X457107Y265947D01*
X458068Y265549D01*
X459100Y265413D01*
X460132Y265549D01*
X461093Y265947D01*
X461919Y266581D01*
X462553Y267407D01*
X462951Y268368D01*
X463087Y269400D01*
X462951Y270432D01*
X462553Y271393D01*
X461919Y272219D01*
X461093Y272853D01*
X460132Y273251D01*
X459100Y273387D01*
D02*
G37*
G36*
X449100D02*
X448068Y273251D01*
X447107Y272853D01*
X446281Y272219D01*
X445647Y271393D01*
X445249Y270432D01*
X445113Y269400D01*
X445249Y268368D01*
X445647Y267407D01*
X446281Y266581D01*
X447107Y265947D01*
X448068Y265549D01*
X449100Y265413D01*
X450132Y265549D01*
X451093Y265947D01*
X451919Y266581D01*
X452553Y267407D01*
X452951Y268368D01*
X453087Y269400D01*
X452951Y270432D01*
X452553Y271393D01*
X451919Y272219D01*
X451093Y272853D01*
X450132Y273251D01*
X449100Y273387D01*
D02*
G37*
G36*
X399100D02*
X398068Y273251D01*
X397107Y272853D01*
X396281Y272219D01*
X395647Y271393D01*
X395249Y270432D01*
X395113Y269400D01*
X395249Y268368D01*
X395647Y267407D01*
X396281Y266581D01*
X397107Y265947D01*
X398068Y265549D01*
X399100Y265413D01*
X400132Y265549D01*
X401093Y265947D01*
X401919Y266581D01*
X402553Y267407D01*
X402951Y268368D01*
X403087Y269400D01*
X402951Y270432D01*
X402553Y271393D01*
X401919Y272219D01*
X401093Y272853D01*
X400132Y273251D01*
X399100Y273387D01*
D02*
G37*
G36*
X419100D02*
X418068Y273251D01*
X417107Y272853D01*
X416281Y272219D01*
X415647Y271393D01*
X415249Y270432D01*
X415113Y269400D01*
X415249Y268368D01*
X415647Y267407D01*
X416281Y266581D01*
X417107Y265947D01*
X418068Y265549D01*
X419100Y265413D01*
X420132Y265549D01*
X421093Y265947D01*
X421919Y266581D01*
X422553Y267407D01*
X422951Y268368D01*
X423087Y269400D01*
X422951Y270432D01*
X422553Y271393D01*
X421919Y272219D01*
X421093Y272853D01*
X420132Y273251D01*
X419100Y273387D01*
D02*
G37*
G36*
X409100D02*
X408068Y273251D01*
X407107Y272853D01*
X406281Y272219D01*
X405647Y271393D01*
X405249Y270432D01*
X405113Y269400D01*
X405249Y268368D01*
X405647Y267407D01*
X406281Y266581D01*
X407107Y265947D01*
X408068Y265549D01*
X409100Y265413D01*
X410132Y265549D01*
X411093Y265947D01*
X411919Y266581D01*
X412553Y267407D01*
X412951Y268368D01*
X413087Y269400D01*
X412951Y270432D01*
X412553Y271393D01*
X411919Y272219D01*
X411093Y272853D01*
X410132Y273251D01*
X409100Y273387D01*
D02*
G37*
G36*
X498147Y68022D02*
X497718Y67936D01*
X497354Y67693D01*
X497111Y67329D01*
X497026Y66900D01*
X497111Y66471D01*
X497354Y66107D01*
X497718Y65864D01*
X498147Y65778D01*
X498576Y65864D01*
X498940Y66107D01*
X499183Y66471D01*
X499269Y66900D01*
X499183Y67329D01*
X498940Y67693D01*
X498576Y67936D01*
X498147Y68022D01*
D02*
G37*
G36*
X495000D02*
X494571Y67936D01*
X494207Y67693D01*
X493964Y67329D01*
X493878Y66900D01*
X493964Y66471D01*
X494207Y66107D01*
X494571Y65864D01*
X495000Y65778D01*
X495429Y65864D01*
X495793Y66107D01*
X496036Y66471D01*
X496122Y66900D01*
X496036Y67329D01*
X495793Y67693D01*
X495429Y67936D01*
X495000Y68022D01*
D02*
G37*
G36*
X485549D02*
X485120Y67936D01*
X484756Y67693D01*
X484513Y67329D01*
X484427Y66900D01*
X484513Y66471D01*
X484756Y66107D01*
X485120Y65864D01*
X485549Y65778D01*
X485978Y65864D01*
X486342Y66107D01*
X486585Y66471D01*
X486670Y66900D01*
X486585Y67329D01*
X486342Y67693D01*
X485978Y67936D01*
X485549Y68022D01*
D02*
G37*
G36*
X482400D02*
X481971Y67936D01*
X481607Y67693D01*
X481364Y67329D01*
X481278Y66900D01*
X481364Y66471D01*
X481607Y66107D01*
X481971Y65864D01*
X482400Y65778D01*
X482829Y65864D01*
X483193Y66107D01*
X483436Y66471D01*
X483522Y66900D01*
X483436Y67329D01*
X483193Y67693D01*
X482829Y67936D01*
X482400Y68022D01*
D02*
G37*
G36*
X491848D02*
X491419Y67936D01*
X491055Y67693D01*
X490812Y67329D01*
X490727Y66900D01*
X490812Y66471D01*
X491055Y66107D01*
X491419Y65864D01*
X491848Y65778D01*
X492277Y65864D01*
X492641Y66107D01*
X492884Y66471D01*
X492970Y66900D01*
X492884Y67329D01*
X492641Y67693D01*
X492277Y67936D01*
X491848Y68022D01*
D02*
G37*
G36*
X488700D02*
X488271Y67936D01*
X487907Y67693D01*
X487664Y67329D01*
X487578Y66900D01*
X487664Y66471D01*
X487907Y66107D01*
X488271Y65864D01*
X488700Y65778D01*
X489129Y65864D01*
X489493Y66107D01*
X489736Y66471D01*
X489822Y66900D01*
X489736Y67329D01*
X489493Y67693D01*
X489129Y67936D01*
X488700Y68022D01*
D02*
G37*
G36*
X479250D02*
X478820Y67936D01*
X478456Y67693D01*
X478213Y67329D01*
X478128Y66900D01*
X478213Y66471D01*
X478456Y66107D01*
X478820Y65864D01*
X479250Y65778D01*
X479679Y65864D01*
X480043Y66107D01*
X480286Y66471D01*
X480371Y66900D01*
X480286Y67329D01*
X480043Y67693D01*
X479679Y67936D01*
X479250Y68022D01*
D02*
G37*
G36*
X315900Y144219D02*
X315012Y144043D01*
X314260Y143540D01*
X313757Y142788D01*
X313581Y141900D01*
X313757Y141012D01*
X314260Y140260D01*
X315012Y139757D01*
X315900Y139581D01*
X316788Y139757D01*
X317540Y140260D01*
X318043Y141012D01*
X318219Y141900D01*
X318043Y142788D01*
X317540Y143540D01*
X316788Y144043D01*
X315900Y144219D01*
D02*
G37*
G36*
X330600Y136976D02*
X330073Y136872D01*
X329627Y136573D01*
X329328Y136127D01*
X329223Y135600D01*
X329328Y135073D01*
X329627Y134627D01*
X330073Y134328D01*
X330600Y134224D01*
X331127Y134328D01*
X331573Y134627D01*
X331872Y135073D01*
X331977Y135600D01*
X331872Y136127D01*
X331573Y136573D01*
X331127Y136872D01*
X330600Y136976D01*
D02*
G37*
G36*
X303720Y137121D02*
X302900Y136959D01*
X302206Y136494D01*
X301742Y135800D01*
X301578Y134980D01*
X301742Y134161D01*
X302206Y133466D01*
X302900Y133002D01*
X303720Y132839D01*
X304539Y133002D01*
X305234Y133466D01*
X305698Y134161D01*
X305861Y134980D01*
X305698Y135800D01*
X305234Y136494D01*
X304539Y136959D01*
X303720Y137121D01*
D02*
G37*
G36*
X323050Y139272D02*
X322621Y139186D01*
X322257Y138943D01*
X322014Y138579D01*
X321929Y138150D01*
X322014Y137721D01*
X322257Y137357D01*
X322621Y137114D01*
X323050Y137028D01*
X323479Y137114D01*
X323843Y137357D01*
X324086Y137721D01*
X324171Y138150D01*
X324086Y138579D01*
X323843Y138943D01*
X323479Y139186D01*
X323050Y139272D01*
D02*
G37*
G36*
X310600Y139241D02*
X309781Y139078D01*
X309086Y138614D01*
X308622Y137919D01*
X308459Y137100D01*
X308622Y136281D01*
X309086Y135586D01*
X309781Y135122D01*
X310600Y134959D01*
X311419Y135122D01*
X312114Y135586D01*
X312578Y136281D01*
X312741Y137100D01*
X312578Y137919D01*
X312114Y138614D01*
X311419Y139078D01*
X310600Y139241D01*
D02*
G37*
G36*
X321800Y142022D02*
X321371Y141936D01*
X321007Y141693D01*
X320764Y141329D01*
X320678Y140900D01*
X320764Y140471D01*
X321007Y140107D01*
X321371Y139864D01*
X321800Y139778D01*
X322229Y139864D01*
X322593Y140107D01*
X322836Y140471D01*
X322921Y140900D01*
X322836Y141329D01*
X322593Y141693D01*
X322229Y141936D01*
X321800Y142022D01*
D02*
G37*
G36*
X20900Y149028D02*
X20065Y148918D01*
X19286Y148595D01*
X18618Y148082D01*
X18105Y147414D01*
X17782Y146635D01*
X17672Y145800D01*
X17782Y144965D01*
X18105Y144186D01*
X18618Y143518D01*
X19286Y143005D01*
X20065Y142682D01*
X20900Y142572D01*
X21735Y142682D01*
X22514Y143005D01*
X23182Y143518D01*
X23695Y144186D01*
X24018Y144965D01*
X24128Y145800D01*
X24018Y146635D01*
X23695Y147414D01*
X23182Y148082D01*
X22514Y148595D01*
X21735Y148918D01*
X20900Y149028D01*
D02*
G37*
G36*
X404100Y228024D02*
X403632Y227930D01*
X403235Y227665D01*
X352035Y176465D01*
X351770Y176068D01*
X351677Y175600D01*
Y147300D01*
X351770Y146832D01*
X352035Y146435D01*
X356035Y142435D01*
X356432Y142170D01*
X356900Y142077D01*
X357368Y142170D01*
X357765Y142435D01*
X358030Y142832D01*
X358123Y143300D01*
X358030Y143768D01*
X357765Y144165D01*
X354123Y147807D01*
Y175093D01*
X404965Y225935D01*
X405230Y226332D01*
X405324Y226800D01*
X405230Y227268D01*
X404965Y227665D01*
X404568Y227930D01*
X404100Y228024D01*
D02*
G37*
G36*
X599000Y128270D02*
X597533Y128077D01*
X596165Y127510D01*
X594991Y126609D01*
X594090Y125435D01*
X593523Y124067D01*
X593330Y122600D01*
X593523Y121133D01*
X594090Y119765D01*
X594991Y118591D01*
X596165Y117690D01*
X597533Y117123D01*
X599000Y116930D01*
X600467Y117123D01*
X601835Y117690D01*
X603009Y118591D01*
X603910Y119765D01*
X604477Y121133D01*
X604670Y122600D01*
X604477Y124067D01*
X603910Y125435D01*
X603009Y126609D01*
X601835Y127510D01*
X600467Y128077D01*
X599000Y128270D01*
D02*
G37*
G36*
X584000D02*
X582533Y128077D01*
X581165Y127510D01*
X579991Y126609D01*
X579090Y125435D01*
X578523Y124067D01*
X578330Y122600D01*
X578523Y121133D01*
X579090Y119765D01*
X579991Y118591D01*
X581165Y117690D01*
X582533Y117123D01*
X584000Y116930D01*
X585467Y117123D01*
X586835Y117690D01*
X588009Y118591D01*
X588910Y119765D01*
X589477Y121133D01*
X589670Y122600D01*
X589477Y124067D01*
X588910Y125435D01*
X588009Y126609D01*
X586835Y127510D01*
X585467Y128077D01*
X584000Y128270D01*
D02*
G37*
G36*
X614000D02*
X612533Y128077D01*
X611165Y127510D01*
X609991Y126609D01*
X609090Y125435D01*
X608523Y124067D01*
X608330Y122600D01*
X608523Y121133D01*
X609090Y119765D01*
X609991Y118591D01*
X611165Y117690D01*
X612533Y117123D01*
X614000Y116930D01*
X615467Y117123D01*
X616835Y117690D01*
X618009Y118591D01*
X618910Y119765D01*
X619477Y121133D01*
X619670Y122600D01*
X619477Y124067D01*
X618910Y125435D01*
X618009Y126609D01*
X616835Y127510D01*
X615467Y128077D01*
X614000Y128270D01*
D02*
G37*
G36*
X331300Y132271D02*
X330481Y132108D01*
X329786Y131644D01*
X329322Y130949D01*
X329159Y130130D01*
X329322Y129311D01*
X329786Y128616D01*
X330481Y128152D01*
X331300Y127989D01*
X332119Y128152D01*
X332814Y128616D01*
X333278Y129311D01*
X333441Y130130D01*
X333278Y130949D01*
X332814Y131644D01*
X332119Y132108D01*
X331300Y132271D01*
D02*
G37*
G36*
X303100Y131441D02*
X302281Y131278D01*
X301586Y130814D01*
X301122Y130119D01*
X300959Y129300D01*
X301122Y128481D01*
X301586Y127786D01*
X302281Y127322D01*
X303100Y127159D01*
X303919Y127322D01*
X304614Y127786D01*
X305078Y128481D01*
X305241Y129300D01*
X305078Y130119D01*
X304614Y130814D01*
X303919Y131278D01*
X303100Y131441D01*
D02*
G37*
G36*
X20900Y139028D02*
X20065Y138918D01*
X19286Y138595D01*
X18618Y138082D01*
X18105Y137414D01*
X17782Y136635D01*
X17672Y135800D01*
X17782Y134965D01*
X18105Y134186D01*
X18618Y133518D01*
X19286Y133005D01*
X20065Y132682D01*
X20900Y132572D01*
X21735Y132682D01*
X22514Y133005D01*
X23182Y133518D01*
X23695Y134186D01*
X24018Y134965D01*
X24128Y135800D01*
X24018Y136635D01*
X23695Y137414D01*
X23182Y138082D01*
X22514Y138595D01*
X21735Y138918D01*
X20900Y139028D01*
D02*
G37*
G36*
X275740Y133381D02*
X274921Y133218D01*
X274226Y132754D01*
X273762Y132060D01*
X273599Y131240D01*
X273762Y130421D01*
X274226Y129726D01*
X274921Y129262D01*
X275740Y129099D01*
X276559Y129262D01*
X277254Y129726D01*
X277718Y130421D01*
X277881Y131240D01*
X277718Y132060D01*
X277254Y132754D01*
X276559Y133218D01*
X275740Y133381D01*
D02*
G37*
G36*
X59300Y129541D02*
X58481Y129378D01*
X57786Y128914D01*
X57322Y128219D01*
X57159Y127400D01*
X57322Y126581D01*
X57786Y125886D01*
X58481Y125422D01*
X59300Y125259D01*
X60119Y125422D01*
X60814Y125886D01*
X61278Y126581D01*
X61441Y127400D01*
X61278Y128219D01*
X60814Y128914D01*
X60119Y129378D01*
X59300Y129541D01*
D02*
G37*
G36*
X315500Y125822D02*
X315071Y125736D01*
X314707Y125493D01*
X314464Y125129D01*
X314378Y124700D01*
X314464Y124271D01*
X314707Y123907D01*
X315071Y123664D01*
X315500Y123578D01*
X315929Y123664D01*
X316293Y123907D01*
X316536Y124271D01*
X316621Y124700D01*
X316536Y125129D01*
X316293Y125493D01*
X315929Y125736D01*
X315500Y125822D01*
D02*
G37*
G36*
X364600Y156622D02*
X364171Y156536D01*
X363807Y156293D01*
X363564Y155929D01*
X363478Y155500D01*
X363564Y155071D01*
X363778Y154750D01*
X363564Y154429D01*
X363478Y154000D01*
X363564Y153571D01*
X363807Y153207D01*
X364171Y152964D01*
X364600Y152878D01*
X365029Y152964D01*
X365393Y153207D01*
X365636Y153571D01*
X365722Y154000D01*
X365636Y154429D01*
X365422Y154750D01*
X365636Y155071D01*
X365722Y155500D01*
X365636Y155929D01*
X365393Y156293D01*
X365029Y156536D01*
X364600Y156622D01*
D02*
G37*
G36*
X247300Y159743D02*
X246871Y159658D01*
X246507Y159414D01*
X246264Y159051D01*
X246179Y158621D01*
X246264Y158192D01*
X246507Y157828D01*
X246871Y157585D01*
X247300Y157500D01*
X247729Y157585D01*
X248093Y157828D01*
X248336Y158192D01*
X248422Y158621D01*
X248336Y159051D01*
X248093Y159414D01*
X247729Y159658D01*
X247300Y159743D01*
D02*
G37*
G36*
X238700Y161622D02*
X238271Y161536D01*
X237907Y161293D01*
X237664Y160929D01*
X237579Y160500D01*
X237664Y160071D01*
X237878Y159750D01*
X237664Y159429D01*
X237579Y159000D01*
X237664Y158571D01*
X237907Y158207D01*
X238271Y157964D01*
X238700Y157878D01*
X239129Y157964D01*
X239493Y158207D01*
X239736Y158571D01*
X239822Y159000D01*
X239736Y159429D01*
X239522Y159750D01*
X239736Y160071D01*
X239822Y160500D01*
X239736Y160929D01*
X239493Y161293D01*
X239129Y161536D01*
X238700Y161622D01*
D02*
G37*
G36*
X605500Y26519D02*
X604612Y26343D01*
X603860Y25840D01*
X603357Y25088D01*
X603181Y24200D01*
X603357Y23312D01*
X603860Y22560D01*
X604612Y22057D01*
X605500Y21881D01*
X606388Y22057D01*
X607140Y22560D01*
X607643Y23312D01*
X607819Y24200D01*
X607643Y25088D01*
X607140Y25840D01*
X606388Y26343D01*
X605500Y26519D01*
D02*
G37*
G36*
X556200Y17119D02*
X555312Y16943D01*
X554560Y16440D01*
X554057Y15688D01*
X553881Y14800D01*
X554057Y13912D01*
X554560Y13160D01*
X555312Y12657D01*
X556200Y12481D01*
X557088Y12657D01*
X557840Y13160D01*
X558343Y13912D01*
X558519Y14800D01*
X558343Y15688D01*
X557840Y16440D01*
X557088Y16943D01*
X556200Y17119D01*
D02*
G37*
G36*
X615000Y26219D02*
X614112Y26043D01*
X613360Y25540D01*
X612857Y24788D01*
X612681Y23900D01*
X612857Y23012D01*
X613360Y22260D01*
X614112Y21757D01*
X615000Y21581D01*
X615888Y21757D01*
X616640Y22260D01*
X617143Y23012D01*
X617319Y23900D01*
X617143Y24788D01*
X616640Y25540D01*
X615888Y26043D01*
X615000Y26219D01*
D02*
G37*
G36*
X245600Y149422D02*
X245171Y149336D01*
X244807Y149093D01*
X244564Y148729D01*
X244479Y148300D01*
X244564Y147871D01*
X244807Y147507D01*
X245171Y147264D01*
X245600Y147178D01*
X246029Y147264D01*
X246393Y147507D01*
X246636Y147871D01*
X246722Y148300D01*
X246636Y148729D01*
X246393Y149093D01*
X246029Y149336D01*
X245600Y149422D01*
D02*
G37*
G36*
X360100D02*
X359671Y149336D01*
X359307Y149093D01*
X359064Y148729D01*
X358979Y148300D01*
X359064Y147871D01*
X359307Y147507D01*
X359671Y147264D01*
X360100Y147178D01*
X360529Y147264D01*
X360893Y147507D01*
X361136Y147871D01*
X361222Y148300D01*
X361136Y148729D01*
X360893Y149093D01*
X360529Y149336D01*
X360100Y149422D01*
D02*
G37*
G36*
X367100Y148622D02*
X366671Y148536D01*
X366307Y148293D01*
X366064Y147929D01*
X365979Y147500D01*
X366064Y147071D01*
X366082Y147044D01*
X366279Y146650D01*
X366082Y146256D01*
X366064Y146229D01*
X365979Y145800D01*
X366064Y145371D01*
X366082Y145344D01*
X366279Y144950D01*
X366082Y144556D01*
X366064Y144529D01*
X365979Y144100D01*
X366064Y143671D01*
X366307Y143307D01*
X366671Y143064D01*
X367100Y142978D01*
X367529Y143064D01*
X367893Y143307D01*
X368136Y143671D01*
X368221Y144100D01*
X368136Y144529D01*
X368118Y144556D01*
X367921Y144950D01*
X368118Y145344D01*
X368136Y145371D01*
X368221Y145800D01*
X368136Y146229D01*
X368118Y146256D01*
X367921Y146650D01*
X368118Y147044D01*
X368136Y147071D01*
X368221Y147500D01*
X368136Y147929D01*
X367893Y148293D01*
X367529Y148536D01*
X367100Y148622D01*
D02*
G37*
G36*
X306400Y147769D02*
X305512Y147593D01*
X304760Y147090D01*
X304257Y146338D01*
X304081Y145450D01*
X304257Y144562D01*
X304760Y143810D01*
X305512Y143307D01*
X306400Y143131D01*
X307288Y143307D01*
X308040Y143810D01*
X308543Y144562D01*
X308719Y145450D01*
X308543Y146338D01*
X308040Y147090D01*
X307288Y147593D01*
X306400Y147769D01*
D02*
G37*
G36*
X258800Y149822D02*
X258371Y149736D01*
X258007Y149493D01*
X257764Y149129D01*
X257679Y148700D01*
X257764Y148271D01*
X258007Y147907D01*
X258371Y147664D01*
X258800Y147578D01*
X259229Y147664D01*
X259593Y147907D01*
X259836Y148271D01*
X259922Y148700D01*
X259836Y149129D01*
X259593Y149493D01*
X259229Y149736D01*
X258800Y149822D01*
D02*
G37*
G36*
X261500Y154872D02*
X261071Y154786D01*
X260707Y154543D01*
X260464Y154179D01*
X260379Y153750D01*
X260464Y153321D01*
X260707Y152957D01*
X261071Y152714D01*
X261500Y152628D01*
X261929Y152714D01*
X262293Y152957D01*
X262536Y153321D01*
X262621Y153750D01*
X262536Y154179D01*
X262293Y154543D01*
X261929Y154786D01*
X261500Y154872D01*
D02*
G37*
G36*
X243200Y154422D02*
X242771Y154336D01*
X242407Y154093D01*
X242164Y153729D01*
X242078Y153300D01*
X242164Y152871D01*
X242407Y152507D01*
X242771Y152264D01*
X243200Y152178D01*
X243629Y152264D01*
X243993Y152507D01*
X244236Y152871D01*
X244321Y153300D01*
X244236Y153729D01*
X243993Y154093D01*
X243629Y154336D01*
X243200Y154422D01*
D02*
G37*
G36*
X236200Y153622D02*
X235771Y153536D01*
X235407Y153293D01*
X235164Y152929D01*
X235079Y152500D01*
X235164Y152071D01*
X235182Y152044D01*
X235379Y151650D01*
X235182Y151256D01*
X235164Y151229D01*
X235079Y150800D01*
X235164Y150371D01*
X235182Y150344D01*
X235379Y149950D01*
X235182Y149556D01*
X235164Y149529D01*
X235079Y149100D01*
X235164Y148671D01*
X235407Y148307D01*
X235771Y148064D01*
X236200Y147978D01*
X236629Y148064D01*
X236993Y148307D01*
X237236Y148671D01*
X237321Y149100D01*
X237236Y149529D01*
X237218Y149556D01*
X237021Y149950D01*
X237218Y150344D01*
X237236Y150371D01*
X237321Y150800D01*
X237236Y151229D01*
X237218Y151256D01*
X237021Y151650D01*
X237218Y152044D01*
X237236Y152071D01*
X237321Y152500D01*
X237236Y152929D01*
X236993Y153293D01*
X236629Y153536D01*
X236200Y153622D01*
D02*
G37*
G36*
X57700Y155619D02*
X56812Y155443D01*
X56060Y154940D01*
X55557Y154188D01*
X55381Y153300D01*
X55557Y152412D01*
X56060Y151660D01*
X56812Y151157D01*
X57700Y150981D01*
X58588Y151157D01*
X59340Y151660D01*
X59843Y152412D01*
X60019Y153300D01*
X59843Y154188D01*
X59340Y154940D01*
X58588Y155443D01*
X57700Y155619D01*
D02*
G37*
G36*
X268500Y154072D02*
X268071Y153986D01*
X267707Y153743D01*
X267464Y153379D01*
X267378Y152950D01*
X267464Y152521D01*
X267482Y152494D01*
X267678Y152100D01*
X267482Y151706D01*
X267464Y151679D01*
X267378Y151250D01*
X267464Y150821D01*
X267482Y150794D01*
X267678Y150400D01*
X267482Y150006D01*
X267464Y149979D01*
X267378Y149550D01*
X267464Y149121D01*
X267707Y148757D01*
X268071Y148514D01*
X268500Y148428D01*
X268929Y148514D01*
X269293Y148757D01*
X269536Y149121D01*
X269621Y149550D01*
X269536Y149979D01*
X269518Y150006D01*
X269321Y150400D01*
X269518Y150794D01*
X269536Y150821D01*
X269621Y151250D01*
X269536Y151679D01*
X269518Y151706D01*
X269321Y152100D01*
X269518Y152494D01*
X269536Y152521D01*
X269621Y152950D01*
X269536Y153379D01*
X269293Y153743D01*
X268929Y153986D01*
X268500Y154072D01*
D02*
G37*
G36*
X593700Y74421D02*
X593270Y74336D01*
X592907Y74093D01*
X592663Y73729D01*
X592578Y73300D01*
X592663Y72870D01*
X592907Y72506D01*
X593270Y72263D01*
X593700Y72178D01*
X594129Y72263D01*
X594493Y72506D01*
X594736Y72870D01*
X594821Y73300D01*
X594736Y73729D01*
X594493Y74093D01*
X594129Y74336D01*
X593700Y74421D01*
D02*
G37*
G36*
X582838Y71360D02*
X582409Y71274D01*
X582045Y71031D01*
X581802Y70667D01*
X581717Y70238D01*
X581802Y69809D01*
X582045Y69445D01*
X582409Y69202D01*
X582838Y69117D01*
X583267Y69202D01*
X583631Y69445D01*
X583874Y69809D01*
X583960Y70238D01*
X583874Y70667D01*
X583631Y71031D01*
X583267Y71274D01*
X582838Y71360D01*
D02*
G37*
G36*
X605500Y74722D02*
X605071Y74636D01*
X604707Y74393D01*
X604464Y74029D01*
X604378Y73600D01*
X604464Y73171D01*
X604707Y72807D01*
X605071Y72564D01*
X605500Y72478D01*
X605929Y72564D01*
X606293Y72807D01*
X606536Y73171D01*
X606622Y73600D01*
X606536Y74029D01*
X606293Y74393D01*
X605929Y74636D01*
X605500Y74722D01*
D02*
G37*
G36*
X553900Y78222D02*
X553471Y78136D01*
X553107Y77893D01*
X552864Y77529D01*
X552778Y77100D01*
X552864Y76671D01*
X553107Y76307D01*
X553471Y76064D01*
X553900Y75978D01*
X554329Y76064D01*
X554693Y76307D01*
X554936Y76671D01*
X555022Y77100D01*
X554936Y77529D01*
X554693Y77893D01*
X554329Y78136D01*
X553900Y78222D01*
D02*
G37*
G36*
X554400Y49624D02*
X554268Y49597D01*
X553200Y49600D01*
Y48518D01*
X553176Y48400D01*
X553200Y48282D01*
Y46018D01*
X553176Y45900D01*
X553200Y45782D01*
Y43218D01*
X553196Y43200D01*
X553200Y43182D01*
Y40218D01*
X553176Y40100D01*
X553200Y39982D01*
Y37718D01*
X553176Y37600D01*
X553200Y37482D01*
Y34918D01*
X553196Y34900D01*
X553200Y34882D01*
Y33859D01*
X553200Y33700D01*
X553100Y33600D01*
X553300Y33400D01*
X553576Y33400D01*
X564202D01*
X564320Y33377D01*
X564438Y33400D01*
X572142D01*
X572260Y33377D01*
X572378Y33400D01*
X575682D01*
X575800Y33377D01*
X575918Y33400D01*
X579222D01*
X579340Y33377D01*
X579458Y33400D01*
X582762D01*
X582880Y33377D01*
X582998Y33400D01*
X586302D01*
X586420Y33377D01*
X586538Y33400D01*
X589842D01*
X589960Y33377D01*
X590078Y33400D01*
X591300D01*
Y49500D01*
X554536Y49597D01*
X554400Y49624D01*
D02*
G37*
G36*
X605500Y54722D02*
X605071Y54636D01*
X604707Y54393D01*
X604464Y54029D01*
X604378Y53600D01*
X604464Y53171D01*
X604707Y52807D01*
X605071Y52564D01*
X605500Y52478D01*
X605929Y52564D01*
X606293Y52807D01*
X606536Y53171D01*
X606622Y53600D01*
X606536Y54029D01*
X606293Y54393D01*
X605929Y54636D01*
X605500Y54722D01*
D02*
G37*
G36*
X571700Y60025D02*
X571193Y59924D01*
X570763Y59637D01*
X570475Y59207D01*
X570374Y58700D01*
X570475Y58192D01*
X570763Y57762D01*
X571193Y57475D01*
X571700Y57374D01*
X572207Y57475D01*
X572637Y57762D01*
X572925Y58192D01*
X573026Y58700D01*
X572925Y59207D01*
X572637Y59637D01*
X572207Y59924D01*
X571700Y60025D01*
D02*
G37*
G36*
X577700Y67896D02*
X577192Y67795D01*
X576762Y67508D01*
X576475Y67077D01*
X576374Y66570D01*
X576475Y66063D01*
X576762Y65633D01*
X577192Y65346D01*
X577700Y65245D01*
X578207Y65346D01*
X578637Y65633D01*
X578720Y65757D01*
X579191Y65562D01*
X579178Y65500D01*
X579264Y65071D01*
X579507Y64707D01*
X579871Y64464D01*
X580300Y64378D01*
X580729Y64464D01*
X581093Y64707D01*
X581336Y65071D01*
X581422Y65500D01*
X581336Y65929D01*
X581093Y66293D01*
X580729Y66536D01*
X580300Y66622D01*
X579871Y66536D01*
X579507Y66293D01*
X579468Y66235D01*
X578997Y66430D01*
X579025Y66570D01*
X578924Y67077D01*
X578637Y67508D01*
X578207Y67795D01*
X577700Y67896D01*
D02*
G37*
G36*
X560700Y66422D02*
X560271Y66336D01*
X559907Y66093D01*
X559664Y65729D01*
X559578Y65300D01*
X559664Y64871D01*
X559907Y64507D01*
X560271Y64264D01*
X560700Y64178D01*
X561129Y64264D01*
X561493Y64507D01*
X561736Y64871D01*
X561822Y65300D01*
X561736Y65729D01*
X561493Y66093D01*
X561129Y66336D01*
X560700Y66422D01*
D02*
G37*
G36*
X557700Y56425D02*
X557193Y56325D01*
X556763Y56037D01*
X556475Y55607D01*
X556375Y55100D01*
X556475Y54593D01*
X556763Y54163D01*
X557193Y53875D01*
X557700Y53774D01*
X558207Y53875D01*
X558637Y54163D01*
X558925Y54593D01*
X559025Y55100D01*
X558925Y55607D01*
X558637Y56037D01*
X558207Y56325D01*
X557700Y56425D01*
D02*
G37*
G36*
X560400Y104019D02*
X559512Y103843D01*
X558760Y103340D01*
X558257Y102588D01*
X558081Y101700D01*
X558257Y100812D01*
X558760Y100060D01*
X559512Y99557D01*
X560400Y99381D01*
X561288Y99557D01*
X562040Y100060D01*
X562543Y100812D01*
X562719Y101700D01*
X562543Y102588D01*
X562040Y103340D01*
X561288Y103843D01*
X560400Y104019D01*
D02*
G37*
G36*
X548200Y93676D02*
X547673Y93572D01*
X547227Y93273D01*
X546928Y92827D01*
X546824Y92300D01*
X546928Y91773D01*
X547227Y91327D01*
X547673Y91028D01*
X548200Y90924D01*
X548727Y91028D01*
X549173Y91327D01*
X549472Y91773D01*
X549577Y92300D01*
X549472Y92827D01*
X549173Y93273D01*
X548727Y93572D01*
X548200Y93676D01*
D02*
G37*
G36*
X553000Y94922D02*
X552571Y94836D01*
X552207Y94593D01*
X551964Y94229D01*
X551878Y93800D01*
X551964Y93371D01*
X552207Y93007D01*
X552571Y92764D01*
X553000Y92678D01*
X553429Y92764D01*
X553793Y93007D01*
X554036Y93371D01*
X554122Y93800D01*
X554036Y94229D01*
X553793Y94593D01*
X553429Y94836D01*
X553000Y94922D01*
D02*
G37*
G36*
X560639Y82364D02*
X560131Y82263D01*
X559701Y81976D01*
X559414Y81546D01*
X559313Y81039D01*
X559414Y80531D01*
X559701Y80101D01*
X560131Y79814D01*
X560639Y79713D01*
X561146Y79814D01*
X561576Y80101D01*
X561863Y80531D01*
X561964Y81039D01*
X561863Y81546D01*
X561576Y81976D01*
X561146Y82263D01*
X560639Y82364D01*
D02*
G37*
G36*
X558079Y96342D02*
X557650Y96257D01*
X557287Y96013D01*
X557043Y95650D01*
X556958Y95221D01*
X557043Y94791D01*
X557287Y94427D01*
X557650Y94184D01*
X558079Y94099D01*
X558509Y94184D01*
X558873Y94427D01*
X559116Y94791D01*
X559201Y95221D01*
X559116Y95650D01*
X558873Y96013D01*
X558509Y96257D01*
X558079Y96342D01*
D02*
G37*
G36*
X88779Y252081D02*
X88122Y251950D01*
X87564Y251578D01*
X87192Y251021D01*
X87062Y250364D01*
X87192Y249707D01*
X87564Y249149D01*
X88122Y248777D01*
X88779Y248646D01*
X89436Y248777D01*
X89993Y249149D01*
X90365Y249707D01*
X90496Y250364D01*
X90365Y251021D01*
X89993Y251578D01*
X89436Y251950D01*
X88779Y252081D01*
D02*
G37*
G36*
X84448D02*
X83791Y251950D01*
X83234Y251578D01*
X82862Y251021D01*
X82731Y250364D01*
X82862Y249707D01*
X83234Y249149D01*
X83791Y248777D01*
X84448Y248646D01*
X85105Y248777D01*
X85662Y249149D01*
X86035Y249707D01*
X86165Y250364D01*
X86035Y251021D01*
X85662Y251578D01*
X85105Y251950D01*
X84448Y252081D01*
D02*
G37*
G36*
X519200Y253319D02*
X518312Y253143D01*
X517560Y252640D01*
X517057Y251888D01*
X516881Y251000D01*
X517057Y250112D01*
X517560Y249360D01*
X518312Y248857D01*
X519200Y248681D01*
X520088Y248857D01*
X520840Y249360D01*
X521343Y250112D01*
X521519Y251000D01*
X521343Y251888D01*
X520840Y252640D01*
X520088Y253143D01*
X519200Y253319D01*
D02*
G37*
G36*
X236000D02*
X235112Y253143D01*
X234360Y252640D01*
X233857Y251888D01*
X233681Y251000D01*
X233857Y250112D01*
X234360Y249360D01*
X235112Y248857D01*
X236000Y248681D01*
X236888Y248857D01*
X237640Y249360D01*
X238143Y250112D01*
X238319Y251000D01*
X238143Y251888D01*
X237640Y252640D01*
X236888Y253143D01*
X236000Y253319D01*
D02*
G37*
G36*
X465600Y252119D02*
X464712Y251943D01*
X463960Y251440D01*
X463457Y250688D01*
X463281Y249800D01*
X463457Y248912D01*
X463960Y248160D01*
X464712Y247657D01*
X465600Y247481D01*
X466488Y247657D01*
X467240Y248160D01*
X467743Y248912D01*
X467919Y249800D01*
X467743Y250688D01*
X467240Y251440D01*
X466488Y251943D01*
X465600Y252119D01*
D02*
G37*
G36*
X481700Y251619D02*
X480812Y251443D01*
X480060Y250940D01*
X479557Y250188D01*
X479381Y249300D01*
X479557Y248412D01*
X480060Y247660D01*
X480812Y247157D01*
X481700Y246981D01*
X482588Y247157D01*
X483340Y247660D01*
X483843Y248412D01*
X484019Y249300D01*
X483843Y250188D01*
X483340Y250940D01*
X482588Y251443D01*
X481700Y251619D01*
D02*
G37*
G36*
X474800Y252619D02*
X473912Y252443D01*
X473160Y251940D01*
X472657Y251188D01*
X472481Y250300D01*
X472657Y249412D01*
X473160Y248660D01*
X473912Y248157D01*
X474800Y247981D01*
X475688Y248157D01*
X476440Y248660D01*
X476943Y249412D01*
X477119Y250300D01*
X476943Y251188D01*
X476440Y251940D01*
X475688Y252443D01*
X474800Y252619D01*
D02*
G37*
G36*
X451000Y250377D02*
X450473Y250272D01*
X450027Y249973D01*
X449728Y249527D01*
X449623Y249000D01*
X449728Y248473D01*
X450027Y248027D01*
X450473Y247728D01*
X451000Y247623D01*
X451527Y247728D01*
X451973Y248027D01*
X452272Y248473D01*
X452377Y249000D01*
X452272Y249527D01*
X451973Y249973D01*
X451527Y250272D01*
X451000Y250377D01*
D02*
G37*
G36*
X555300Y255541D02*
X554481Y255378D01*
X553786Y254914D01*
X553322Y254219D01*
X553159Y253400D01*
X553322Y252581D01*
X553786Y251886D01*
X554481Y251422D01*
X555300Y251259D01*
X556119Y251422D01*
X556814Y251886D01*
X557278Y252581D01*
X557441Y253400D01*
X557278Y254219D01*
X556814Y254914D01*
X556119Y255378D01*
X555300Y255541D01*
D02*
G37*
G36*
X210400Y258324D02*
X209932Y258230D01*
X209535Y257965D01*
X209270Y257568D01*
X209176Y257100D01*
X209270Y256632D01*
X209535Y256235D01*
X209932Y255970D01*
X210400Y255876D01*
X210868Y255970D01*
X211265Y256235D01*
X211530Y256632D01*
X211624Y257100D01*
X211530Y257568D01*
X211265Y257965D01*
X210868Y258230D01*
X210400Y258324D01*
D02*
G37*
G36*
X88779Y257199D02*
X88122Y257068D01*
X87564Y256696D01*
X87192Y256139D01*
X87062Y255482D01*
X87192Y254825D01*
X87564Y254268D01*
X88122Y253895D01*
X88779Y253765D01*
X89436Y253895D01*
X89993Y254268D01*
X90365Y254825D01*
X90496Y255482D01*
X90365Y256139D01*
X89993Y256696D01*
X89436Y257068D01*
X88779Y257199D01*
D02*
G37*
G36*
X299400Y265481D02*
X298344Y265342D01*
X297359Y264935D01*
X296514Y264286D01*
X295865Y263441D01*
X295458Y262456D01*
X295319Y261400D01*
X295458Y260344D01*
X295865Y259359D01*
X296514Y258514D01*
X297359Y257865D01*
X298344Y257458D01*
X299400Y257319D01*
X300456Y257458D01*
X301441Y257865D01*
X302286Y258514D01*
X302935Y259359D01*
X303342Y260344D01*
X303481Y261400D01*
X303342Y262456D01*
X302935Y263441D01*
X302286Y264286D01*
X301441Y264935D01*
X300456Y265342D01*
X299400Y265481D01*
D02*
G37*
G36*
X176048Y260441D02*
X175229Y260278D01*
X174534Y259814D01*
X174070Y259119D01*
X173907Y258300D01*
X174070Y257481D01*
X174534Y256786D01*
X175229Y256322D01*
X176048Y256159D01*
X176867Y256322D01*
X177562Y256786D01*
X178026Y257481D01*
X178189Y258300D01*
X178026Y259119D01*
X177562Y259814D01*
X176867Y260278D01*
X176048Y260441D01*
D02*
G37*
G36*
X249600Y256541D02*
X248781Y256378D01*
X248086Y255914D01*
X247622Y255219D01*
X247459Y254400D01*
X247622Y253581D01*
X248086Y252886D01*
X248781Y252422D01*
X249600Y252259D01*
X250419Y252422D01*
X251114Y252886D01*
X251578Y253581D01*
X251741Y254400D01*
X251578Y255219D01*
X251114Y255914D01*
X250419Y256378D01*
X249600Y256541D01*
D02*
G37*
G36*
X527300Y256019D02*
X526412Y255843D01*
X525660Y255340D01*
X525157Y254588D01*
X524981Y253700D01*
X525157Y252812D01*
X525660Y252060D01*
X526412Y251557D01*
X527300Y251381D01*
X528188Y251557D01*
X528940Y252060D01*
X529443Y252812D01*
X529619Y253700D01*
X529443Y254588D01*
X528940Y255340D01*
X528188Y255843D01*
X527300Y256019D01*
D02*
G37*
G36*
X84448Y257199D02*
X83791Y257068D01*
X83234Y256696D01*
X82862Y256139D01*
X82731Y255482D01*
X82862Y254825D01*
X83234Y254268D01*
X83791Y253895D01*
X84448Y253765D01*
X85105Y253895D01*
X85662Y254268D01*
X86035Y254825D01*
X86165Y255482D01*
X86035Y256139D01*
X85662Y256696D01*
X85105Y257068D01*
X84448Y257199D01*
D02*
G37*
G36*
X448900Y255622D02*
X448471Y255536D01*
X448107Y255293D01*
X447864Y254929D01*
X447778Y254500D01*
X447864Y254071D01*
X448107Y253707D01*
X448471Y253464D01*
X448900Y253379D01*
X449329Y253464D01*
X449693Y253707D01*
X449936Y254071D01*
X450022Y254500D01*
X449936Y254929D01*
X449693Y255293D01*
X449329Y255536D01*
X448900Y255622D01*
D02*
G37*
G36*
X491800Y247722D02*
X491371Y247636D01*
X491007Y247393D01*
X490764Y247029D01*
X490678Y246600D01*
X490764Y246171D01*
X491007Y245807D01*
X491371Y245564D01*
X491800Y245479D01*
X492229Y245564D01*
X492593Y245807D01*
X492836Y246171D01*
X492922Y246600D01*
X492836Y247029D01*
X492593Y247393D01*
X492229Y247636D01*
X491800Y247722D01*
D02*
G37*
G36*
X397600Y235019D02*
X396712Y234843D01*
X395960Y234340D01*
X395457Y233588D01*
X395281Y232700D01*
X395457Y231812D01*
X395960Y231060D01*
X396712Y230557D01*
X397600Y230381D01*
X398488Y230557D01*
X399240Y231060D01*
X399743Y231812D01*
X399919Y232700D01*
X399743Y233588D01*
X399240Y234340D01*
X398488Y234843D01*
X397600Y235019D01*
D02*
G37*
G36*
X104800Y234341D02*
X103981Y234178D01*
X103286Y233714D01*
X102822Y233019D01*
X102659Y232200D01*
X102822Y231381D01*
X103286Y230686D01*
X103981Y230222D01*
X104800Y230059D01*
X105619Y230222D01*
X106314Y230686D01*
X106778Y231381D01*
X106941Y232200D01*
X106778Y233019D01*
X106314Y233714D01*
X105619Y234178D01*
X104800Y234341D01*
D02*
G37*
G36*
X497500Y235919D02*
X496612Y235743D01*
X495860Y235240D01*
X495357Y234488D01*
X495181Y233600D01*
X495357Y232712D01*
X495860Y231960D01*
X496612Y231457D01*
X497500Y231281D01*
X498388Y231457D01*
X499140Y231960D01*
X499643Y232712D01*
X499819Y233600D01*
X499643Y234488D01*
X499140Y235240D01*
X498388Y235743D01*
X497500Y235919D01*
D02*
G37*
G36*
X304100Y230523D02*
X303982Y230500D01*
X300678D01*
X300560Y230523D01*
X300442Y230500D01*
X297138D01*
X297020Y230523D01*
X296902Y230500D01*
X293598D01*
X293480Y230523D01*
X293362Y230500D01*
X290058D01*
X289940Y230523D01*
X289822Y230500D01*
X286518D01*
X286400Y230523D01*
X286282Y230500D01*
X285100D01*
Y222900D01*
X286302D01*
X286420Y222877D01*
X286538Y222900D01*
X289842D01*
X289960Y222877D01*
X290078Y222900D01*
X293382D01*
X293500Y222877D01*
X293618Y222900D01*
X296922D01*
X297040Y222877D01*
X297158Y222900D01*
X300462D01*
X300580Y222877D01*
X300698Y222900D01*
X304002D01*
X304120Y222877D01*
X304238Y222900D01*
X305400D01*
Y230500D01*
X304218D01*
X304100Y230523D01*
D02*
G37*
G36*
X363050Y232226D02*
X362523Y232122D01*
X362077Y231823D01*
X361778Y231377D01*
X361673Y230850D01*
X361778Y230323D01*
X362077Y229877D01*
X362523Y229578D01*
X363050Y229473D01*
X363577Y229578D01*
X364023Y229877D01*
X364322Y230323D01*
X364426Y230850D01*
X364322Y231377D01*
X364023Y231823D01*
X363577Y232122D01*
X363050Y232226D01*
D02*
G37*
G36*
X267000Y233741D02*
X266181Y233578D01*
X265486Y233114D01*
X265022Y232419D01*
X264859Y231600D01*
X265022Y230781D01*
X265486Y230086D01*
X266181Y229622D01*
X267000Y229459D01*
X267819Y229622D01*
X268514Y230086D01*
X268978Y230781D01*
X269141Y231600D01*
X268978Y232419D01*
X268514Y233114D01*
X267819Y233578D01*
X267000Y233741D01*
D02*
G37*
G36*
X451100Y232776D02*
X450573Y232672D01*
X450127Y232373D01*
X449828Y231927D01*
X449723Y231400D01*
X449828Y230873D01*
X450127Y230427D01*
X450573Y230128D01*
X451100Y230024D01*
X451627Y230128D01*
X452073Y230427D01*
X452372Y230873D01*
X452477Y231400D01*
X452372Y231927D01*
X452073Y232373D01*
X451627Y232672D01*
X451100Y232776D01*
D02*
G37*
G36*
X425100Y234419D02*
X424212Y234243D01*
X423460Y233740D01*
X422957Y232988D01*
X422781Y232100D01*
X422957Y231212D01*
X423460Y230460D01*
X424212Y229957D01*
X425100Y229781D01*
X425988Y229957D01*
X426740Y230460D01*
X427243Y231212D01*
X427419Y232100D01*
X427243Y232988D01*
X426740Y233740D01*
X425988Y234243D01*
X425100Y234419D01*
D02*
G37*
G36*
X320000Y238619D02*
X319112Y238443D01*
X318360Y237940D01*
X317857Y237188D01*
X317681Y236300D01*
X317857Y235412D01*
X318360Y234660D01*
X319112Y234157D01*
X320000Y233981D01*
X320888Y234157D01*
X321640Y234660D01*
X322143Y235412D01*
X322319Y236300D01*
X322143Y237188D01*
X321640Y237940D01*
X320888Y238443D01*
X320000Y238619D01*
D02*
G37*
G36*
X39200Y246441D02*
X38381Y246278D01*
X37686Y245814D01*
X37222Y245119D01*
X37059Y244300D01*
X37222Y243481D01*
X37686Y242786D01*
X38381Y242322D01*
X39200Y242159D01*
X40019Y242322D01*
X40714Y242786D01*
X41178Y243481D01*
X41341Y244300D01*
X41178Y245119D01*
X40714Y245814D01*
X40019Y246278D01*
X39200Y246441D01*
D02*
G37*
G36*
X110100Y244076D02*
X109573Y243972D01*
X109127Y243673D01*
X108828Y243227D01*
X108724Y242700D01*
X108828Y242173D01*
X109127Y241727D01*
X109573Y241428D01*
X110100Y241323D01*
X110627Y241428D01*
X111073Y241727D01*
X111372Y242173D01*
X111476Y242700D01*
X111372Y243227D01*
X111073Y243673D01*
X110627Y243972D01*
X110100Y244076D01*
D02*
G37*
G36*
X54500Y248641D02*
X53681Y248478D01*
X52986Y248014D01*
X52522Y247319D01*
X52359Y246500D01*
X52522Y245681D01*
X52986Y244986D01*
X53681Y244522D01*
X54500Y244359D01*
X55319Y244522D01*
X56014Y244986D01*
X56478Y245681D01*
X56641Y246500D01*
X56478Y247319D01*
X56014Y248014D01*
X55319Y248478D01*
X54500Y248641D01*
D02*
G37*
G36*
X459900Y247219D02*
X459012Y247043D01*
X458260Y246540D01*
X457757Y245788D01*
X457581Y244900D01*
X457757Y244012D01*
X458260Y243260D01*
X459012Y242757D01*
X459900Y242581D01*
X460788Y242757D01*
X461540Y243260D01*
X462043Y244012D01*
X462219Y244900D01*
X462043Y245788D01*
X461540Y246540D01*
X460788Y247043D01*
X459900Y247219D01*
D02*
G37*
G36*
X66000Y239241D02*
X65181Y239078D01*
X64486Y238614D01*
X64022Y237919D01*
X63859Y237100D01*
X64022Y236281D01*
X64486Y235586D01*
X65181Y235122D01*
X66000Y234959D01*
X66819Y235122D01*
X67514Y235586D01*
X67978Y236281D01*
X68141Y237100D01*
X67978Y237919D01*
X67514Y238614D01*
X66819Y239078D01*
X66000Y239241D01*
D02*
G37*
G36*
X312700Y239119D02*
X311812Y238943D01*
X311060Y238440D01*
X310557Y237688D01*
X310381Y236800D01*
X310557Y235912D01*
X311060Y235160D01*
X311812Y234657D01*
X312700Y234481D01*
X313588Y234657D01*
X314340Y235160D01*
X314843Y235912D01*
X315019Y236800D01*
X314843Y237688D01*
X314340Y238440D01*
X313588Y238943D01*
X312700Y239119D01*
D02*
G37*
G36*
X7400Y250960D02*
X5933Y250767D01*
X4565Y250201D01*
X3391Y249300D01*
X2490Y248125D01*
X1923Y246758D01*
X1730Y245290D01*
X1923Y243823D01*
X2490Y242456D01*
X3391Y241281D01*
X4565Y240380D01*
X5933Y239814D01*
X7400Y239621D01*
X8867Y239814D01*
X10235Y240380D01*
X11409Y241281D01*
X12310Y242456D01*
X12877Y243823D01*
X13070Y245290D01*
X12877Y246758D01*
X12310Y248125D01*
X11409Y249300D01*
X10235Y250201D01*
X8867Y250767D01*
X7400Y250960D01*
D02*
G37*
G36*
X384800Y242319D02*
X383912Y242143D01*
X383160Y241640D01*
X382657Y240888D01*
X382481Y240000D01*
X382657Y239112D01*
X383160Y238360D01*
X383912Y237857D01*
X384800Y237681D01*
X385688Y237857D01*
X386440Y238360D01*
X386943Y239112D01*
X387119Y240000D01*
X386943Y240888D01*
X386440Y241640D01*
X385688Y242143D01*
X384800Y242319D01*
D02*
G37*
G36*
X309400Y265481D02*
X308344Y265342D01*
X307359Y264935D01*
X306514Y264286D01*
X305865Y263441D01*
X305458Y262456D01*
X305319Y261400D01*
X305458Y260344D01*
X305865Y259359D01*
X306514Y258514D01*
X307359Y257865D01*
X308344Y257458D01*
X309400Y257319D01*
X310456Y257458D01*
X311441Y257865D01*
X312286Y258514D01*
X312935Y259359D01*
X313342Y260344D01*
X313481Y261400D01*
X313342Y262456D01*
X312935Y263441D01*
X312286Y264286D01*
X311441Y264935D01*
X310456Y265342D01*
X309400Y265481D01*
D02*
G37*
G36*
X68300Y270523D02*
X67481Y270360D01*
X66786Y269896D01*
X66322Y269201D01*
X66159Y268382D01*
X66322Y267563D01*
X66786Y266868D01*
X67481Y266404D01*
X68300Y266241D01*
X69119Y266404D01*
X69814Y266868D01*
X70278Y267563D01*
X70441Y268382D01*
X70278Y269201D01*
X69814Y269896D01*
X69119Y270360D01*
X68300Y270523D01*
D02*
G37*
G36*
X266400Y270621D02*
X265971Y270536D01*
X265607Y270293D01*
X265364Y269929D01*
X265279Y269500D01*
X265364Y269071D01*
X265607Y268707D01*
X265971Y268464D01*
X266400Y268378D01*
X266829Y268464D01*
X267193Y268707D01*
X267436Y269071D01*
X267522Y269500D01*
X267436Y269929D01*
X267193Y270293D01*
X266829Y270536D01*
X266400Y270621D01*
D02*
G37*
G36*
X248440Y268762D02*
X248011Y268676D01*
X247647Y268433D01*
X247404Y268069D01*
X247319Y267640D01*
X247404Y267211D01*
X247647Y266847D01*
X248011Y266604D01*
X248440Y266519D01*
X248869Y266604D01*
X249233Y266847D01*
X249476Y267211D01*
X249562Y267640D01*
X249476Y268069D01*
X249233Y268433D01*
X248869Y268676D01*
X248440Y268762D01*
D02*
G37*
G36*
X88779Y262317D02*
X88122Y262187D01*
X87564Y261814D01*
X87192Y261257D01*
X87062Y260600D01*
X87192Y259943D01*
X87564Y259386D01*
X88122Y259014D01*
X88779Y258883D01*
X89436Y259014D01*
X89993Y259386D01*
X90365Y259943D01*
X90496Y260600D01*
X90365Y261257D01*
X89993Y261814D01*
X89436Y262187D01*
X88779Y262317D01*
D02*
G37*
G36*
X84448D02*
X83791Y262187D01*
X83234Y261814D01*
X82862Y261257D01*
X82731Y260600D01*
X82862Y259943D01*
X83234Y259386D01*
X83791Y259014D01*
X84448Y258883D01*
X85105Y259014D01*
X85662Y259386D01*
X86035Y259943D01*
X86165Y260600D01*
X86035Y261257D01*
X85662Y261814D01*
X85105Y262187D01*
X84448Y262317D01*
D02*
G37*
G36*
Y267435D02*
X83791Y267305D01*
X83234Y266932D01*
X82862Y266375D01*
X82731Y265718D01*
X82862Y265061D01*
X83234Y264504D01*
X83791Y264132D01*
X84448Y264001D01*
X85105Y264132D01*
X85662Y264504D01*
X86035Y265061D01*
X86165Y265718D01*
X86035Y266375D01*
X85662Y266932D01*
X85105Y267305D01*
X84448Y267435D01*
D02*
G37*
G36*
X203545Y265621D02*
X203116Y265536D01*
X202752Y265293D01*
X202509Y264929D01*
X202423Y264500D01*
X202509Y264071D01*
X202752Y263707D01*
X203116Y263464D01*
X203545Y263379D01*
X203974Y263464D01*
X204338Y263707D01*
X204581Y264071D01*
X204666Y264500D01*
X204581Y264929D01*
X204338Y265293D01*
X203974Y265536D01*
X203545Y265621D01*
D02*
G37*
G36*
X339400Y265481D02*
X338344Y265342D01*
X337359Y264935D01*
X336514Y264286D01*
X335865Y263441D01*
X335458Y262456D01*
X335319Y261400D01*
X335458Y260344D01*
X335865Y259359D01*
X336514Y258514D01*
X337359Y257865D01*
X338344Y257458D01*
X339400Y257319D01*
X340456Y257458D01*
X341441Y257865D01*
X342286Y258514D01*
X342935Y259359D01*
X343342Y260344D01*
X343481Y261400D01*
X343342Y262456D01*
X342935Y263441D01*
X342286Y264286D01*
X341441Y264935D01*
X340456Y265342D01*
X339400Y265481D01*
D02*
G37*
G36*
X319400D02*
X318344Y265342D01*
X317359Y264935D01*
X316514Y264286D01*
X315865Y263441D01*
X315458Y262456D01*
X315319Y261400D01*
X315458Y260344D01*
X315865Y259359D01*
X316514Y258514D01*
X317359Y257865D01*
X318344Y257458D01*
X319400Y257319D01*
X320456Y257458D01*
X321441Y257865D01*
X322286Y258514D01*
X322935Y259359D01*
X323342Y260344D01*
X323481Y261400D01*
X323342Y262456D01*
X322935Y263441D01*
X322286Y264286D01*
X321441Y264935D01*
X320456Y265342D01*
X319400Y265481D01*
D02*
G37*
G36*
X369400D02*
X368344Y265342D01*
X367359Y264935D01*
X366514Y264286D01*
X365865Y263441D01*
X365458Y262456D01*
X365319Y261400D01*
X365458Y260344D01*
X365865Y259359D01*
X366514Y258514D01*
X367359Y257865D01*
X368344Y257458D01*
X369400Y257319D01*
X370456Y257458D01*
X371441Y257865D01*
X372286Y258514D01*
X372935Y259359D01*
X373342Y260344D01*
X373481Y261400D01*
X373342Y262456D01*
X372935Y263441D01*
X372286Y264286D01*
X371441Y264935D01*
X370456Y265342D01*
X369400Y265481D01*
D02*
G37*
G36*
X359400D02*
X358344Y265342D01*
X357359Y264935D01*
X356514Y264286D01*
X355865Y263441D01*
X355458Y262456D01*
X355319Y261400D01*
X355458Y260344D01*
X355865Y259359D01*
X356514Y258514D01*
X357359Y257865D01*
X358344Y257458D01*
X359400Y257319D01*
X360456Y257458D01*
X361441Y257865D01*
X362286Y258514D01*
X362935Y259359D01*
X363342Y260344D01*
X363481Y261400D01*
X363342Y262456D01*
X362935Y263441D01*
X362286Y264286D01*
X361441Y264935D01*
X360456Y265342D01*
X359400Y265481D01*
D02*
G37*
G36*
X88779Y267435D02*
X88122Y267305D01*
X87564Y266932D01*
X87192Y266375D01*
X87062Y265718D01*
X87192Y265061D01*
X87564Y264504D01*
X88122Y264132D01*
X88779Y264001D01*
X89436Y264132D01*
X89993Y264504D01*
X90365Y265061D01*
X90496Y265718D01*
X90365Y266375D01*
X89993Y266932D01*
X89436Y267305D01*
X88779Y267435D01*
D02*
G37*
G36*
X27900Y268441D02*
X27081Y268278D01*
X26386Y267814D01*
X25922Y267119D01*
X25759Y266300D01*
X25922Y265481D01*
X26386Y264786D01*
X27081Y264322D01*
X27900Y264159D01*
X28719Y264322D01*
X29414Y264786D01*
X29878Y265481D01*
X30041Y266300D01*
X29878Y267119D01*
X29414Y267814D01*
X28719Y268278D01*
X27900Y268441D01*
D02*
G37*
G36*
X465900Y233719D02*
X465012Y233543D01*
X464260Y233040D01*
X463757Y232288D01*
X463581Y231400D01*
X463757Y230512D01*
X464260Y229760D01*
X465012Y229257D01*
X465900Y229081D01*
X466788Y229257D01*
X467540Y229760D01*
X468043Y230512D01*
X468219Y231400D01*
X468043Y232288D01*
X467540Y233040D01*
X466788Y233543D01*
X465900Y233719D01*
D02*
G37*
G36*
X228800Y190400D02*
X195900D01*
X195800Y190300D01*
Y189308D01*
X195778Y189200D01*
X195800Y189092D01*
Y185208D01*
X195778Y185100D01*
X195800Y184992D01*
Y183800D01*
X228800D01*
Y190400D01*
D02*
G37*
G36*
X586700Y186641D02*
X585881Y186478D01*
X585186Y186014D01*
X584722Y185319D01*
X584559Y184500D01*
X584722Y183681D01*
X585186Y182986D01*
X585881Y182522D01*
X586700Y182359D01*
X587520Y182522D01*
X588214Y182986D01*
X588679Y183681D01*
X588841Y184500D01*
X588679Y185319D01*
X588214Y186014D01*
X587520Y186478D01*
X586700Y186641D01*
D02*
G37*
G36*
X52300Y193200D02*
X31900D01*
Y185400D01*
X33182D01*
X33300Y185377D01*
X33418Y185400D01*
X36722D01*
X36840Y185377D01*
X36958Y185400D01*
X40262D01*
X40380Y185377D01*
X40498Y185400D01*
X43802D01*
X43920Y185377D01*
X44038Y185400D01*
X47342D01*
X47460Y185377D01*
X47578Y185400D01*
X50882D01*
X51000Y185377D01*
X51118Y185400D01*
X52300D01*
Y193200D01*
D02*
G37*
G36*
X273620Y185023D02*
X273152Y184930D01*
X272755Y184665D01*
X272504Y184290D01*
X272341Y184248D01*
X271976Y184249D01*
X271765Y184565D01*
X271368Y184830D01*
X270900Y184924D01*
X270432Y184830D01*
X270035Y184565D01*
X269770Y184168D01*
X269676Y183700D01*
X269770Y183232D01*
X270035Y182835D01*
X270432Y182570D01*
X270506Y182555D01*
Y182045D01*
X270432Y182030D01*
X270035Y181765D01*
X269770Y181368D01*
X269676Y180900D01*
X269770Y180432D01*
X270035Y180035D01*
X270432Y179770D01*
X270900Y179676D01*
X271368Y179770D01*
X271765Y180035D01*
X272016Y180410D01*
X272179Y180452D01*
X272544Y180450D01*
X272755Y180135D01*
X273152Y179870D01*
X273620Y179777D01*
X274088Y179870D01*
X274485Y180135D01*
X274750Y180532D01*
X274844Y181000D01*
X274750Y181468D01*
X274485Y181865D01*
X274088Y182130D01*
X274014Y182145D01*
Y182655D01*
X274088Y182670D01*
X274485Y182935D01*
X274750Y183332D01*
X274844Y183800D01*
X274750Y184268D01*
X274485Y184665D01*
X274088Y184930D01*
X273620Y185023D01*
D02*
G37*
G36*
X225200Y174414D02*
X160883D01*
X160818Y174401D01*
X160751Y174401D01*
X160682Y174374D01*
X160610Y174359D01*
X160554Y174322D01*
X160492Y174297D01*
X129009Y153696D01*
X128957Y153644D01*
X128895Y153603D01*
X128858Y153548D01*
X128810Y153501D01*
X128781Y153433D01*
X128741Y153372D01*
X128728Y153306D01*
X128701Y153244D01*
X128701Y153171D01*
X128686Y153098D01*
Y131000D01*
X128741Y130727D01*
X128895Y130495D01*
X133135Y126256D01*
X133141Y126227D01*
X133295Y125995D01*
X133527Y125841D01*
X133800Y125786D01*
X185400D01*
X185673Y125841D01*
X185905Y125995D01*
X203496Y143586D01*
X206245D01*
X206348Y143607D01*
X206402Y143612D01*
X206457Y143607D01*
X206560Y143586D01*
X208770D01*
X208804Y143593D01*
X208840Y143590D01*
X208940Y143620D01*
X209043Y143641D01*
X209072Y143660D01*
X209106Y143671D01*
X209187Y143737D01*
X209274Y143795D01*
X209275Y143795D01*
X209328Y143812D01*
X209523Y143835D01*
X209552Y143837D01*
X209580Y143835D01*
X209776Y143812D01*
X209781Y143810D01*
X209851Y143781D01*
X209917Y143737D01*
X209998Y143671D01*
X210032Y143660D01*
X210061Y143641D01*
X210164Y143620D01*
X210264Y143590D01*
X210299Y143593D01*
X210334Y143586D01*
X212544D01*
X212647Y143607D01*
X212702Y143612D01*
X212756Y143607D01*
X212859Y143586D01*
X215694D01*
X215796Y143607D01*
X215851Y143612D01*
X215906Y143607D01*
X216009Y143586D01*
X218842D01*
X218945Y143607D01*
X219000Y143612D01*
X219055Y143607D01*
X219158Y143586D01*
X221993D01*
X222096Y143607D01*
X222150Y143612D01*
X222205Y143607D01*
X222308Y143586D01*
X224511D01*
X224559Y143596D01*
X224609Y143593D01*
X224695Y143623D01*
X224784Y143641D01*
X224825Y143668D01*
X224872Y143684D01*
X224940Y143745D01*
X225015Y143795D01*
X225043Y143836D01*
X225080Y143869D01*
X225188Y144013D01*
X225195Y144027D01*
X225205Y144036D01*
X225218Y144065D01*
X225239Y144090D01*
X225242Y144094D01*
X225272Y144185D01*
X225310Y144264D01*
X225310Y144274D01*
X225318Y144291D01*
X225319Y144325D01*
X225329Y144358D01*
X225322Y144465D01*
X225322Y144475D01*
X225326Y144542D01*
X225671Y144852D01*
X225729Y144864D01*
X226093Y145107D01*
X226336Y145471D01*
X226355Y145566D01*
X226854Y145571D01*
X226865Y145568D01*
X227107Y145207D01*
X227471Y144964D01*
X227900Y144878D01*
X228329Y144964D01*
X228693Y145207D01*
X228936Y145571D01*
X229022Y146000D01*
X228936Y146429D01*
X228918Y146456D01*
X228721Y146850D01*
X228918Y147244D01*
X228936Y147271D01*
X229022Y147700D01*
X228936Y148129D01*
X228918Y148156D01*
X228721Y148550D01*
X228918Y148944D01*
X228936Y148971D01*
X229022Y149400D01*
X228936Y149829D01*
X228693Y150193D01*
X228329Y150436D01*
X227900Y150522D01*
X227514Y150445D01*
X227445Y150453D01*
X227014Y150732D01*
Y161780D01*
X227431Y162060D01*
X227951Y161938D01*
X227964Y161871D01*
X228207Y161507D01*
X228571Y161264D01*
X229000Y161178D01*
X229429Y161264D01*
X229793Y161507D01*
X230036Y161871D01*
X230121Y162300D01*
X230036Y162729D01*
X229793Y163093D01*
X229429Y163336D01*
X229000Y163422D01*
X228786Y163379D01*
X228736Y163629D01*
X228718Y163656D01*
X228521Y164050D01*
X228718Y164444D01*
X228736Y164471D01*
X228821Y164900D01*
X228736Y165329D01*
X228493Y165693D01*
X228129Y165936D01*
X227700Y166022D01*
X227514Y165984D01*
X227014Y166320D01*
Y172400D01*
X226959Y172673D01*
X226805Y172905D01*
X226728Y172982D01*
X225748Y174157D01*
X225723Y174178D01*
X225705Y174205D01*
X225615Y174264D01*
X225532Y174332D01*
X225500Y174341D01*
X225473Y174359D01*
X225368Y174380D01*
X225265Y174411D01*
X225232Y174407D01*
X225200Y174414D01*
D02*
G37*
G36*
X7000Y185775D02*
X5533Y185581D01*
X4165Y185015D01*
X2991Y184114D01*
X2090Y182940D01*
X1523Y181572D01*
X1330Y180105D01*
X1523Y178637D01*
X2090Y177270D01*
X2991Y176096D01*
X4165Y175195D01*
X5533Y174628D01*
X7000Y174435D01*
X8467Y174628D01*
X9835Y175195D01*
X11009Y176096D01*
X11910Y177270D01*
X12477Y178637D01*
X12670Y180105D01*
X12477Y181572D01*
X11910Y182940D01*
X11009Y184114D01*
X9835Y185015D01*
X8467Y185581D01*
X7000Y185775D01*
D02*
G37*
G36*
X252600Y189924D02*
X252482Y189900D01*
X249178D01*
X249060Y189924D01*
X248942Y189900D01*
X245638D01*
X245520Y189924D01*
X245402Y189900D01*
X242098D01*
X241980Y189924D01*
X241862Y189900D01*
X238558D01*
X238440Y189924D01*
X238322Y189900D01*
X235018D01*
X234900Y189924D01*
X234782Y189900D01*
X233600D01*
Y182300D01*
X233700Y182200D01*
X253900D01*
Y189900D01*
X252718D01*
X252600Y189924D01*
D02*
G37*
G36*
X435900Y203783D02*
X434895Y203650D01*
X433959Y203263D01*
X433154Y202646D01*
X432537Y201841D01*
X432150Y200905D01*
X432017Y199900D01*
X432150Y198895D01*
X432537Y197959D01*
X433154Y197154D01*
X433959Y196537D01*
X434895Y196150D01*
X435900Y196017D01*
X436905Y196150D01*
X437841Y196537D01*
X438646Y197154D01*
X439263Y197959D01*
X439650Y198895D01*
X439783Y199900D01*
X439650Y200905D01*
X439263Y201841D01*
X438646Y202646D01*
X437841Y203263D01*
X436905Y203650D01*
X435900Y203783D01*
D02*
G37*
G36*
X425900D02*
X424895Y203650D01*
X423959Y203263D01*
X423154Y202646D01*
X422537Y201841D01*
X422150Y200905D01*
X422017Y199900D01*
X422150Y198895D01*
X422537Y197959D01*
X423154Y197154D01*
X423959Y196537D01*
X424895Y196150D01*
X425900Y196017D01*
X426905Y196150D01*
X427841Y196537D01*
X428646Y197154D01*
X429263Y197959D01*
X429650Y198895D01*
X429783Y199900D01*
X429650Y200905D01*
X429263Y201841D01*
X428646Y202646D01*
X427841Y203263D01*
X426905Y203650D01*
X425900Y203783D01*
D02*
G37*
G36*
X455900D02*
X454895Y203650D01*
X453959Y203263D01*
X453154Y202646D01*
X452537Y201841D01*
X452149Y200905D01*
X452017Y199900D01*
X452149Y198895D01*
X452537Y197959D01*
X453154Y197154D01*
X453959Y196537D01*
X454895Y196150D01*
X455900Y196017D01*
X456905Y196150D01*
X457841Y196537D01*
X458646Y197154D01*
X459263Y197959D01*
X459651Y198895D01*
X459783Y199900D01*
X459651Y200905D01*
X459263Y201841D01*
X458646Y202646D01*
X457841Y203263D01*
X456905Y203650D01*
X455900Y203783D01*
D02*
G37*
G36*
X445900D02*
X444895Y203650D01*
X443959Y203263D01*
X443154Y202646D01*
X442537Y201841D01*
X442149Y200905D01*
X442017Y199900D01*
X442149Y198895D01*
X442537Y197959D01*
X443154Y197154D01*
X443959Y196537D01*
X444895Y196150D01*
X445900Y196017D01*
X446905Y196150D01*
X447841Y196537D01*
X448646Y197154D01*
X449263Y197959D01*
X449650Y198895D01*
X449783Y199900D01*
X449650Y200905D01*
X449263Y201841D01*
X448646Y202646D01*
X447841Y203263D01*
X446905Y203650D01*
X445900Y203783D01*
D02*
G37*
G36*
X142200Y207041D02*
X140596Y206883D01*
X139054Y206416D01*
X137633Y205656D01*
X136388Y204634D01*
X135365Y203388D01*
X134606Y201967D01*
X134138Y200425D01*
X133980Y198821D01*
X134138Y197218D01*
X134606Y195676D01*
X135365Y194255D01*
X136388Y193009D01*
X137633Y191987D01*
X139054Y191227D01*
X140596Y190759D01*
X142200Y190601D01*
X143804Y190759D01*
X145346Y191227D01*
X146767Y191987D01*
X148012Y193009D01*
X149035Y194255D01*
X149794Y195676D01*
X150262Y197218D01*
X150420Y198821D01*
X150262Y200425D01*
X149794Y201967D01*
X149035Y203388D01*
X148012Y204634D01*
X146767Y205656D01*
X145346Y206416D01*
X143804Y206883D01*
X142200Y207041D01*
D02*
G37*
G36*
X7000Y201365D02*
X5533Y201172D01*
X4165Y200605D01*
X2991Y199704D01*
X2090Y198530D01*
X1523Y197163D01*
X1330Y195695D01*
X1523Y194228D01*
X2090Y192860D01*
X2991Y191686D01*
X4165Y190785D01*
X5533Y190219D01*
X7000Y190025D01*
X8467Y190219D01*
X9835Y190785D01*
X11009Y191686D01*
X11910Y192860D01*
X12477Y194228D01*
X12670Y195695D01*
X12477Y197163D01*
X11910Y198530D01*
X11009Y199704D01*
X9835Y200605D01*
X8467Y201172D01*
X7000Y201365D01*
D02*
G37*
G36*
X81200Y193024D02*
X81082Y193000D01*
X77778D01*
X77660Y193024D01*
X77542Y193000D01*
X74238D01*
X74120Y193024D01*
X74002Y193000D01*
X70698D01*
X70580Y193024D01*
X70462Y193000D01*
X67158D01*
X67040Y193024D01*
X66922Y193000D01*
X63618D01*
X63500Y193024D01*
X63382Y193000D01*
X62300D01*
Y191918D01*
X62277Y191800D01*
X62300Y191682D01*
Y189418D01*
X62277Y189300D01*
X62300Y189182D01*
Y186618D01*
X62296Y186600D01*
X62300Y186582D01*
Y185200D01*
X82700D01*
Y193000D01*
X81318D01*
X81200Y193024D01*
D02*
G37*
G36*
X273500Y193324D02*
X273032Y193230D01*
X272635Y192965D01*
X272384Y192590D01*
X272221Y192548D01*
X271856Y192550D01*
X271645Y192865D01*
X271248Y193130D01*
X270780Y193224D01*
X270312Y193130D01*
X269915Y192865D01*
X269650Y192468D01*
X269556Y192000D01*
X269650Y191532D01*
X269915Y191135D01*
X270044Y191048D01*
Y190452D01*
X269915Y190365D01*
X269650Y189968D01*
X269556Y189500D01*
X269650Y189032D01*
X269915Y188635D01*
X270235Y188421D01*
X270285Y188169D01*
X270285Y188166D01*
X270246Y187873D01*
X269935Y187665D01*
X269670Y187268D01*
X269577Y186800D01*
X269670Y186332D01*
X269935Y185935D01*
X270332Y185670D01*
X270800Y185576D01*
X271268Y185670D01*
X271665Y185935D01*
X271916Y186310D01*
X272079Y186352D01*
X272444Y186351D01*
X272655Y186035D01*
X273052Y185770D01*
X273520Y185677D01*
X273988Y185770D01*
X274385Y186035D01*
X274650Y186432D01*
X274744Y186900D01*
X274650Y187368D01*
X274385Y187765D01*
X274065Y187979D01*
X274015Y188231D01*
X274015Y188234D01*
X274054Y188527D01*
X274365Y188735D01*
X274630Y189132D01*
X274724Y189600D01*
X274630Y190068D01*
X274365Y190465D01*
X274236Y190552D01*
Y191148D01*
X274365Y191235D01*
X274630Y191632D01*
X274724Y192100D01*
X274630Y192568D01*
X274365Y192965D01*
X273968Y193230D01*
X273500Y193324D01*
D02*
G37*
G36*
X51700Y168400D02*
X31300D01*
Y160600D01*
X32287D01*
X32632Y160370D01*
X33100Y160276D01*
X33568Y160370D01*
X33913Y160600D01*
X35827D01*
X36172Y160370D01*
X36640Y160276D01*
X37108Y160370D01*
X37453Y160600D01*
X39367D01*
X39712Y160370D01*
X40180Y160276D01*
X40648Y160370D01*
X40993Y160600D01*
X42907D01*
X43252Y160370D01*
X43720Y160276D01*
X44188Y160370D01*
X44533Y160600D01*
X46447D01*
X46792Y160370D01*
X47260Y160276D01*
X47728Y160370D01*
X48073Y160600D01*
X49987D01*
X50332Y160370D01*
X50800Y160276D01*
X51268Y160370D01*
X51613Y160600D01*
X51700D01*
Y160687D01*
X51930Y161032D01*
X52024Y161500D01*
X51930Y161968D01*
X51700Y162313D01*
Y163417D01*
X51910Y163732D01*
X52004Y164200D01*
X51910Y164668D01*
X51700Y164983D01*
Y165917D01*
X51910Y166232D01*
X52004Y166700D01*
X51910Y167168D01*
X51700Y167483D01*
Y168400D01*
D02*
G37*
G36*
X7000Y170184D02*
X5533Y169991D01*
X4165Y169424D01*
X2991Y168523D01*
X2090Y167349D01*
X1523Y165982D01*
X1330Y164514D01*
X1523Y163047D01*
X2090Y161679D01*
X2991Y160505D01*
X4165Y159604D01*
X5533Y159038D01*
X7000Y158844D01*
X8467Y159038D01*
X9835Y159604D01*
X11009Y160505D01*
X11910Y161679D01*
X12477Y163047D01*
X12670Y164514D01*
X12477Y165982D01*
X11910Y167349D01*
X11009Y168523D01*
X9835Y169424D01*
X8467Y169991D01*
X7000Y170184D01*
D02*
G37*
G36*
X571700Y163225D02*
X571193Y163125D01*
X570763Y162837D01*
X570475Y162407D01*
X570374Y161900D01*
X570475Y161393D01*
X570763Y160963D01*
X571193Y160675D01*
X571700Y160574D01*
X572207Y160675D01*
X572637Y160963D01*
X572925Y161393D01*
X573026Y161900D01*
X572925Y162407D01*
X572637Y162837D01*
X572207Y163125D01*
X571700Y163225D01*
D02*
G37*
G36*
X82100Y168100D02*
X61700D01*
Y160300D01*
X82100D01*
Y160907D01*
X82250Y161132D01*
X82344Y161600D01*
X82250Y162068D01*
X82100Y162293D01*
Y163637D01*
X82230Y163832D01*
X82323Y164300D01*
X82230Y164768D01*
X82100Y164963D01*
Y166137D01*
X82230Y166332D01*
X82323Y166800D01*
X82230Y167268D01*
X82100Y167463D01*
Y168100D01*
D02*
G37*
G36*
X266000Y162072D02*
X265571Y161986D01*
X265207Y161743D01*
X264964Y161379D01*
X264879Y160950D01*
X264964Y160521D01*
X265178Y160200D01*
X264964Y159879D01*
X264879Y159450D01*
X264964Y159021D01*
X265207Y158657D01*
X265571Y158414D01*
X266000Y158328D01*
X266429Y158414D01*
X266793Y158657D01*
X267036Y159021D01*
X267122Y159450D01*
X267036Y159879D01*
X266822Y160200D01*
X267036Y160521D01*
X267122Y160950D01*
X267036Y161379D01*
X266793Y161743D01*
X266429Y161986D01*
X266000Y162072D01*
D02*
G37*
G36*
X250200Y165122D02*
X249771Y165036D01*
X249407Y164793D01*
X249164Y164429D01*
X249078Y164000D01*
X249164Y163571D01*
X249407Y163207D01*
X249771Y162964D01*
X250200Y162878D01*
X250629Y162964D01*
X250993Y163207D01*
X251236Y163571D01*
X251322Y164000D01*
X251236Y164429D01*
X250993Y164793D01*
X250629Y165036D01*
X250200Y165122D01*
D02*
G37*
G36*
X268100Y172722D02*
X267671Y172636D01*
X267307Y172393D01*
X267064Y172029D01*
X266979Y171600D01*
X267064Y171171D01*
X267307Y170807D01*
X267671Y170564D01*
X268100Y170478D01*
X268529Y170564D01*
X268893Y170807D01*
X269136Y171171D01*
X269221Y171600D01*
X269136Y172029D01*
X268893Y172393D01*
X268529Y172636D01*
X268100Y172722D01*
D02*
G37*
G36*
X572900Y174826D02*
X572393Y174725D01*
X571963Y174437D01*
X571675Y174007D01*
X571574Y173500D01*
X571675Y172993D01*
X571963Y172563D01*
X572393Y172275D01*
X572900Y172175D01*
X573407Y172275D01*
X573837Y172563D01*
X574125Y172993D01*
X574226Y173500D01*
X574125Y174007D01*
X573837Y174437D01*
X573407Y174725D01*
X572900Y174826D01*
D02*
G37*
G36*
X262400Y173022D02*
X261971Y172936D01*
X261607Y172693D01*
X261364Y172329D01*
X261279Y171900D01*
X261364Y171471D01*
X261607Y171107D01*
X261971Y170864D01*
X262400Y170778D01*
X262829Y170864D01*
X263193Y171107D01*
X263436Y171471D01*
X263522Y171900D01*
X263436Y172329D01*
X263193Y172693D01*
X262829Y172936D01*
X262400Y173022D01*
D02*
G37*
G36*
X242200Y166122D02*
X241771Y166036D01*
X241436Y165812D01*
X241407Y165793D01*
X240893Y165793D01*
X240864Y165812D01*
X240529Y166036D01*
X240100Y166122D01*
X239671Y166036D01*
X239307Y165793D01*
X239064Y165429D01*
X238979Y165000D01*
X239021Y164786D01*
X238771Y164736D01*
X238407Y164493D01*
X238164Y164129D01*
X238078Y163700D01*
X238164Y163271D01*
X238407Y162907D01*
X238771Y162664D01*
X239200Y162578D01*
X239629Y162664D01*
X239993Y162907D01*
X240236Y163271D01*
X240321Y163700D01*
X240279Y163914D01*
X240529Y163964D01*
X240864Y164188D01*
X240893Y164207D01*
X241407Y164207D01*
X241436Y164188D01*
X241771Y163964D01*
X242200Y163878D01*
X242629Y163964D01*
X242993Y164207D01*
X243236Y164571D01*
X243321Y165000D01*
X243236Y165429D01*
X242993Y165793D01*
X242629Y166036D01*
X242200Y166122D01*
D02*
G37*
G36*
X581000Y169841D02*
X580181Y169678D01*
X579486Y169214D01*
X579022Y168519D01*
X578859Y167700D01*
X579022Y166881D01*
X579486Y166186D01*
X580181Y165722D01*
X581000Y165559D01*
X581819Y165722D01*
X582514Y166186D01*
X582978Y166881D01*
X583141Y167700D01*
X582978Y168519D01*
X582514Y169214D01*
X581819Y169678D01*
X581000Y169841D01*
D02*
G37*
G36*
X310500Y192450D02*
X276400D01*
Y190555D01*
X276307Y190493D01*
X276064Y190129D01*
X275978Y189700D01*
X276064Y189271D01*
X276307Y188907D01*
X276400Y188845D01*
Y186283D01*
X276164Y185929D01*
X276079Y185500D01*
X276164Y185071D01*
X276400Y184717D01*
Y174200D01*
X278023D01*
X278235Y173747D01*
X277972Y173432D01*
X277895Y173355D01*
X277741Y173123D01*
X277686Y172850D01*
Y166770D01*
X277186Y166435D01*
X277000Y166472D01*
X276571Y166386D01*
X276207Y166143D01*
X275964Y165779D01*
X275879Y165350D01*
X275964Y164921D01*
X275982Y164894D01*
X276179Y164500D01*
X275982Y164106D01*
X275964Y164079D01*
X275920Y163858D01*
X275600Y163922D01*
X275171Y163836D01*
X274807Y163593D01*
X274564Y163229D01*
X274479Y162800D01*
X274564Y162371D01*
X274807Y162007D01*
X275171Y161764D01*
X275600Y161678D01*
X276029Y161764D01*
X276393Y162007D01*
X276636Y162371D01*
X276680Y162592D01*
X277000Y162528D01*
X277186Y162566D01*
X277686Y162230D01*
Y151182D01*
X277256Y150903D01*
X277186Y150895D01*
X276800Y150972D01*
X276371Y150886D01*
X276007Y150643D01*
X275764Y150279D01*
X275678Y149850D01*
X275764Y149421D01*
X275782Y149394D01*
X275978Y149000D01*
X275782Y148606D01*
X275764Y148579D01*
X275678Y148150D01*
X275764Y147721D01*
X275782Y147694D01*
X275978Y147300D01*
X275782Y146906D01*
X275764Y146879D01*
X275678Y146450D01*
X275764Y146021D01*
X276007Y145657D01*
X276371Y145414D01*
X276800Y145328D01*
X277229Y145414D01*
X277593Y145657D01*
X277835Y146018D01*
X277846Y146021D01*
X278345Y146016D01*
X278364Y145921D01*
X278607Y145557D01*
X278971Y145314D01*
X279400Y145228D01*
X279487Y144740D01*
X279489Y144671D01*
X279496Y144657D01*
X279497Y144643D01*
X279553Y144531D01*
X279604Y144417D01*
X279664Y144334D01*
X279707Y144294D01*
X279739Y144245D01*
X279807Y144200D01*
X279867Y144144D01*
X279922Y144123D01*
X279971Y144091D01*
X280051Y144075D01*
X280128Y144046D01*
X280186Y144048D01*
X280244Y144036D01*
X281706D01*
X281763Y144048D01*
X281822Y144046D01*
X281898Y144075D01*
X281979Y144091D01*
X282028Y144123D01*
X282082Y144144D01*
X282142Y144200D01*
X282210Y144245D01*
X282243Y144294D01*
X282256Y144306D01*
X282356Y144347D01*
X282365Y144348D01*
X282734D01*
X282743Y144347D01*
X282844Y144306D01*
X282856Y144294D01*
X282889Y144245D01*
X282957Y144200D01*
X283017Y144144D01*
X283072Y144123D01*
X283120Y144091D01*
X283201Y144075D01*
X283277Y144046D01*
X283336Y144048D01*
X283394Y144036D01*
X284856D01*
X284914Y144048D01*
X284972Y144046D01*
X285049Y144075D01*
X285129Y144091D01*
X285178Y144123D01*
X285233Y144144D01*
X285293Y144200D01*
X285361Y144245D01*
X285393Y144294D01*
X285406Y144306D01*
X285506Y144347D01*
X285515Y144348D01*
X285885D01*
X285894Y144347D01*
X285994Y144306D01*
X286007Y144294D01*
X286039Y144245D01*
X286107Y144200D01*
X286167Y144144D01*
X286222Y144123D01*
X286271Y144091D01*
X286351Y144075D01*
X286428Y144046D01*
X286486Y144048D01*
X286544Y144036D01*
X288005D01*
X288062Y144048D01*
X288121Y144046D01*
X288198Y144075D01*
X288278Y144091D01*
X288327Y144123D01*
X288382Y144144D01*
X288441Y144200D01*
X288510Y144245D01*
X288542Y144294D01*
X288555Y144306D01*
X288655Y144347D01*
X288664Y144348D01*
X289034D01*
X289042Y144347D01*
X289143Y144306D01*
X289156Y144294D01*
X289188Y144245D01*
X289256Y144200D01*
X289316Y144144D01*
X289371Y144123D01*
X289420Y144091D01*
X289500Y144075D01*
X289577Y144046D01*
X289635Y144048D01*
X289693Y144036D01*
X291155D01*
X291212Y144048D01*
X291271Y144046D01*
X291347Y144075D01*
X291428Y144091D01*
X291476Y144123D01*
X291531Y144144D01*
X291591Y144200D01*
X291659Y144245D01*
X291692Y144294D01*
X291704Y144306D01*
X291805Y144347D01*
X291814Y144348D01*
X292183D01*
X292192Y144347D01*
X292293Y144306D01*
X292305Y144294D01*
X292338Y144245D01*
X292406Y144200D01*
X292466Y144144D01*
X292520Y144123D01*
X292569Y144091D01*
X292650Y144075D01*
X292726Y144046D01*
X292785Y144048D01*
X292842Y144036D01*
X294366D01*
X294401Y144043D01*
X294436Y144040D01*
X294536Y144070D01*
X294639Y144091D01*
X294668Y144110D01*
X294702Y144121D01*
X294783Y144187D01*
X294849Y144231D01*
X294919Y144261D01*
X294924Y144262D01*
X295119Y144285D01*
X295148Y144287D01*
X295176Y144285D01*
X295372Y144262D01*
X295426Y144245D01*
X295426Y144245D01*
X295513Y144187D01*
X295594Y144121D01*
X295628Y144110D01*
X295657Y144091D01*
X295760Y144070D01*
X295860Y144040D01*
X295896Y144043D01*
X295930Y144036D01*
X297454D01*
X297511Y144048D01*
X297570Y144046D01*
X297646Y144075D01*
X297727Y144091D01*
X297776Y144123D01*
X297831Y144144D01*
X297890Y144200D01*
X297958Y144245D01*
X297991Y144294D01*
X298004Y144306D01*
X298104Y144347D01*
X298113Y144348D01*
X298482D01*
X298491Y144347D01*
X298592Y144306D01*
X298604Y144294D01*
X298637Y144245D01*
X298705Y144200D01*
X298765Y144144D01*
X298820Y144123D01*
X298868Y144091D01*
X298949Y144075D01*
X299025Y144046D01*
X299084Y144048D01*
X299142Y144036D01*
X300603D01*
X300661Y144048D01*
X300719Y144046D01*
X300796Y144075D01*
X300876Y144091D01*
X300925Y144123D01*
X300980Y144144D01*
X301040Y144200D01*
X301108Y144245D01*
X301141Y144294D01*
X301183Y144334D01*
X301243Y144417D01*
X301294Y144531D01*
X301351Y144643D01*
X301352Y144657D01*
X301358Y144671D01*
X301360Y144740D01*
X301447Y145228D01*
X301876Y145314D01*
X302240Y145557D01*
X302483Y145921D01*
X302569Y146350D01*
X302483Y146779D01*
X302269Y147100D01*
X302483Y147421D01*
X302500Y147506D01*
X302566D01*
X302670Y147495D01*
X303170Y147545D01*
X303270Y147575D01*
X303373Y147596D01*
X303403Y147615D01*
X303436Y147626D01*
X303518Y147692D01*
X303605Y147750D01*
X303624Y147780D01*
X303652Y147802D01*
X303701Y147895D01*
X303759Y147982D01*
X303766Y148017D01*
X303783Y148048D01*
X303793Y148152D01*
X303814Y148255D01*
Y150295D01*
X303922Y150336D01*
X304314Y150378D01*
X304760Y149710D01*
X305512Y149207D01*
X306400Y149031D01*
X307288Y149207D01*
X308040Y149710D01*
X308543Y150462D01*
X308719Y151350D01*
X308543Y152238D01*
X308040Y152990D01*
X307288Y153493D01*
X306400Y153669D01*
X305512Y153493D01*
X304760Y152990D01*
X304314Y152322D01*
X303922Y152364D01*
X303814Y152405D01*
Y158945D01*
X303793Y159048D01*
X303783Y159152D01*
X303766Y159184D01*
X303759Y159218D01*
X303701Y159305D01*
X303677Y159350D01*
X303701Y159395D01*
X303759Y159482D01*
X303766Y159517D01*
X303783Y159548D01*
X303793Y159652D01*
X303814Y159755D01*
Y172850D01*
X303759Y173123D01*
X303605Y173355D01*
X303373Y173509D01*
X303276Y173700D01*
X303582Y174200D01*
X310600D01*
Y192350D01*
X310500Y192450D01*
D02*
G37*
G36*
X264600Y166572D02*
X264171Y166486D01*
X263836Y166262D01*
X263807Y166243D01*
X263293Y166243D01*
X263264Y166262D01*
X262929Y166486D01*
X262500Y166572D01*
X262071Y166486D01*
X261707Y166243D01*
X261464Y165879D01*
X261379Y165450D01*
X261464Y165021D01*
X261707Y164657D01*
X262071Y164414D01*
X262500Y164328D01*
X262929Y164414D01*
X263264Y164638D01*
X263293Y164657D01*
X263807Y164657D01*
X263836Y164638D01*
X264171Y164414D01*
X264421Y164364D01*
X264378Y164150D01*
X264464Y163721D01*
X264707Y163357D01*
X265071Y163114D01*
X265500Y163028D01*
X265929Y163114D01*
X266293Y163357D01*
X266536Y163721D01*
X266621Y164150D01*
X266536Y164579D01*
X266293Y164943D01*
X265929Y165186D01*
X265679Y165236D01*
X265722Y165450D01*
X265636Y165879D01*
X265393Y166243D01*
X265029Y166486D01*
X264600Y166572D01*
D02*
G37*
G36*
X475900Y203783D02*
X474895Y203650D01*
X473959Y203263D01*
X473154Y202646D01*
X472537Y201841D01*
X472150Y200905D01*
X472017Y199900D01*
X472150Y198895D01*
X472537Y197959D01*
X473154Y197154D01*
X473959Y196537D01*
X474895Y196150D01*
X475900Y196017D01*
X476905Y196150D01*
X477841Y196537D01*
X478646Y197154D01*
X479263Y197959D01*
X479650Y198895D01*
X479783Y199900D01*
X479650Y200905D01*
X479263Y201841D01*
X478646Y202646D01*
X477841Y203263D01*
X476905Y203650D01*
X475900Y203783D01*
D02*
G37*
G36*
X12321Y235335D02*
X2479D01*
X2206Y235281D01*
X1974Y235126D01*
X1819Y234894D01*
X1765Y234621D01*
Y224779D01*
X1819Y224506D01*
X1974Y224274D01*
X2206Y224119D01*
X2479Y224065D01*
X12321D01*
X12594Y224119D01*
X12826Y224274D01*
X12981Y224506D01*
X13035Y224779D01*
Y234621D01*
X12981Y234894D01*
X12826Y235126D01*
X12594Y235281D01*
X12321Y235335D01*
D02*
G37*
G36*
X92884Y225806D02*
X92455Y225720D01*
X92091Y225477D01*
X91848Y225114D01*
X91763Y224684D01*
X91848Y224255D01*
X92091Y223891D01*
X92455Y223648D01*
X92884Y223563D01*
X93313Y223648D01*
X93677Y223891D01*
X93920Y224255D01*
X94006Y224684D01*
X93920Y225114D01*
X93677Y225477D01*
X93313Y225720D01*
X92884Y225806D01*
D02*
G37*
G36*
X235400Y229141D02*
X234581Y228978D01*
X233886Y228514D01*
X233422Y227819D01*
X233259Y227000D01*
X233422Y226181D01*
X233886Y225486D01*
X234581Y225022D01*
X235400Y224859D01*
X236219Y225022D01*
X236914Y225486D01*
X237378Y226181D01*
X237541Y227000D01*
X237378Y227819D01*
X236914Y228514D01*
X236219Y228978D01*
X235400Y229141D01*
D02*
G37*
G36*
X397100Y229119D02*
X396212Y228943D01*
X395460Y228440D01*
X394957Y227688D01*
X394781Y226800D01*
X394957Y225912D01*
X395460Y225160D01*
X396212Y224657D01*
X397100Y224481D01*
X397988Y224657D01*
X398740Y225160D01*
X399243Y225912D01*
X399419Y226800D01*
X399243Y227688D01*
X398740Y228440D01*
X397988Y228943D01*
X397100Y229119D01*
D02*
G37*
G36*
X110798Y224519D02*
X110369Y224434D01*
X110005Y224191D01*
X109762Y223827D01*
X109676Y223398D01*
X109762Y222968D01*
X110005Y222605D01*
X110369Y222361D01*
X110798Y222276D01*
X111227Y222361D01*
X111591Y222605D01*
X111834Y222968D01*
X111919Y223398D01*
X111834Y223827D01*
X111591Y224191D01*
X111227Y224434D01*
X110798Y224519D01*
D02*
G37*
G36*
X115916Y224337D02*
X115487Y224252D01*
X115123Y224009D01*
X114880Y223645D01*
X114794Y223216D01*
X114880Y222786D01*
X115123Y222423D01*
X115487Y222180D01*
X115916Y222094D01*
X116345Y222180D01*
X116709Y222423D01*
X116952Y222786D01*
X117037Y223216D01*
X116952Y223645D01*
X116709Y224009D01*
X116345Y224252D01*
X115916Y224337D01*
D02*
G37*
G36*
X32200Y230884D02*
X31246Y230759D01*
X30358Y230391D01*
X29595Y229805D01*
X29009Y229042D01*
X28641Y228154D01*
X28516Y227200D01*
X28641Y226246D01*
X29009Y225358D01*
X29595Y224595D01*
X30358Y224009D01*
X31246Y223641D01*
X32200Y223516D01*
X33154Y223641D01*
X34042Y224009D01*
X34805Y224595D01*
X35391Y225358D01*
X35759Y226246D01*
X35884Y227200D01*
X35759Y228154D01*
X35391Y229042D01*
X34805Y229805D01*
X34042Y230391D01*
X33154Y230759D01*
X32200Y230884D01*
D02*
G37*
G36*
X105680Y225601D02*
X105250Y225516D01*
X104886Y225273D01*
X104643Y224909D01*
X104558Y224480D01*
X104643Y224050D01*
X104886Y223687D01*
X105250Y223443D01*
X105680Y223358D01*
X106109Y223443D01*
X106473Y223687D01*
X106716Y224050D01*
X106801Y224480D01*
X106716Y224909D01*
X106473Y225273D01*
X106109Y225516D01*
X105680Y225601D01*
D02*
G37*
G36*
X346400Y229819D02*
X345512Y229643D01*
X344760Y229140D01*
X344257Y228388D01*
X344081Y227500D01*
X344257Y226612D01*
X344760Y225860D01*
X345512Y225357D01*
X346400Y225181D01*
X347288Y225357D01*
X348040Y225860D01*
X348543Y226612D01*
X348719Y227500D01*
X348543Y228388D01*
X348040Y229140D01*
X347288Y229643D01*
X346400Y229819D01*
D02*
G37*
G36*
X389200Y232419D02*
X388312Y232243D01*
X387560Y231740D01*
X387057Y230988D01*
X386881Y230100D01*
X387057Y229212D01*
X387560Y228460D01*
X388312Y227957D01*
X389200Y227781D01*
X390088Y227957D01*
X390840Y228460D01*
X391343Y229212D01*
X391519Y230100D01*
X391343Y230988D01*
X390840Y231740D01*
X390088Y232243D01*
X389200Y232419D01*
D02*
G37*
G36*
X443400Y230719D02*
X442512Y230543D01*
X441760Y230040D01*
X441257Y229288D01*
X441081Y228400D01*
X441257Y227512D01*
X441760Y226760D01*
X442512Y226257D01*
X443400Y226081D01*
X444288Y226257D01*
X445040Y226760D01*
X445543Y227512D01*
X445719Y228400D01*
X445543Y229288D01*
X445040Y230040D01*
X444288Y230543D01*
X443400Y230719D01*
D02*
G37*
G36*
X414000Y230322D02*
X413571Y230236D01*
X413207Y229993D01*
X412964Y229629D01*
X412878Y229200D01*
X412964Y228771D01*
X413207Y228407D01*
X413571Y228164D01*
X414000Y228079D01*
X414429Y228164D01*
X414793Y228407D01*
X415036Y228771D01*
X415122Y229200D01*
X415036Y229629D01*
X414793Y229993D01*
X414429Y230236D01*
X414000Y230322D01*
D02*
G37*
G36*
X189400Y232241D02*
X188581Y232078D01*
X187886Y231614D01*
X187422Y230919D01*
X187259Y230100D01*
X187422Y229281D01*
X187886Y228586D01*
X188581Y228122D01*
X189400Y227959D01*
X190219Y228122D01*
X190914Y228586D01*
X191378Y229281D01*
X191541Y230100D01*
X191378Y230919D01*
X190914Y231614D01*
X190219Y232078D01*
X189400Y232241D01*
D02*
G37*
G36*
X436400Y230219D02*
X435512Y230043D01*
X434760Y229540D01*
X434257Y228788D01*
X434081Y227900D01*
X434257Y227012D01*
X434760Y226260D01*
X435512Y225757D01*
X436400Y225581D01*
X437288Y225757D01*
X438040Y226260D01*
X438543Y227012D01*
X438719Y227900D01*
X438543Y228788D01*
X438040Y229540D01*
X437288Y230043D01*
X436400Y230219D01*
D02*
G37*
G36*
X429400Y230119D02*
X428512Y229943D01*
X427760Y229440D01*
X427257Y228688D01*
X427081Y227800D01*
X427257Y226912D01*
X427760Y226160D01*
X428512Y225657D01*
X429400Y225481D01*
X430288Y225657D01*
X431040Y226160D01*
X431543Y226912D01*
X431719Y227800D01*
X431543Y228688D01*
X431040Y229440D01*
X430288Y229943D01*
X429400Y230119D01*
D02*
G37*
G36*
X372700Y230719D02*
X371812Y230543D01*
X371060Y230040D01*
X370557Y229288D01*
X370381Y228400D01*
X370557Y227512D01*
X371060Y226760D01*
X371812Y226257D01*
X372700Y226081D01*
X373588Y226257D01*
X374340Y226760D01*
X374843Y227512D01*
X375019Y228400D01*
X374843Y229288D01*
X374340Y230040D01*
X373588Y230543D01*
X372700Y230719D01*
D02*
G37*
G36*
X416200Y228121D02*
X415771Y228036D01*
X415407Y227793D01*
X415164Y227429D01*
X415078Y227000D01*
X415164Y226571D01*
X415407Y226207D01*
X415771Y225964D01*
X416200Y225879D01*
X416629Y225964D01*
X416993Y226207D01*
X417236Y226571D01*
X417322Y227000D01*
X417236Y227429D01*
X416993Y227793D01*
X416629Y228036D01*
X416200Y228121D01*
D02*
G37*
G36*
X350856Y224321D02*
X350329Y224216D01*
X349883Y223917D01*
X349584Y223471D01*
X349480Y222944D01*
X349584Y222417D01*
X349883Y221971D01*
X350329Y221672D01*
X350856Y221568D01*
X351383Y221672D01*
X351829Y221971D01*
X352128Y222417D01*
X352232Y222944D01*
X352128Y223471D01*
X351829Y223917D01*
X351383Y224216D01*
X350856Y224321D01*
D02*
G37*
G36*
X254600Y215200D02*
X234200D01*
Y207400D01*
X254600D01*
Y215200D01*
D02*
G37*
G36*
X11921Y216921D02*
X2079D01*
X1806Y216866D01*
X1574Y216712D01*
X1419Y216480D01*
X1365Y216207D01*
Y206365D01*
X1419Y206091D01*
X1574Y205860D01*
X1806Y205705D01*
X2079Y205651D01*
X11921D01*
X12194Y205705D01*
X12426Y205860D01*
X12581Y206091D01*
X12635Y206365D01*
Y216207D01*
X12581Y216480D01*
X12426Y216712D01*
X12194Y216866D01*
X11921Y216921D01*
D02*
G37*
G36*
X35153Y220866D02*
X29247D01*
X28974Y220812D01*
X28743Y220657D01*
X28588Y220426D01*
X28534Y220153D01*
Y214247D01*
X28588Y213974D01*
X28743Y213743D01*
X28974Y213588D01*
X29247Y213533D01*
X35153D01*
X35426Y213588D01*
X35657Y213743D01*
X35812Y213974D01*
X35866Y214247D01*
Y220153D01*
X35812Y220426D01*
X35657Y220657D01*
X35426Y220812D01*
X35153Y220866D01*
D02*
G37*
G36*
X163400Y213422D02*
X162971Y213336D01*
X162607Y213093D01*
X162364Y212729D01*
X162278Y212300D01*
X162364Y211871D01*
X162607Y211507D01*
X162971Y211264D01*
X163400Y211178D01*
X163829Y211264D01*
X164193Y211507D01*
X164436Y211871D01*
X164522Y212300D01*
X164436Y212729D01*
X164193Y213093D01*
X163829Y213336D01*
X163400Y213422D01*
D02*
G37*
G36*
X495900Y203783D02*
X494895Y203650D01*
X493959Y203263D01*
X493154Y202646D01*
X492537Y201841D01*
X492149Y200905D01*
X492017Y199900D01*
X492149Y198895D01*
X492537Y197959D01*
X493154Y197154D01*
X493959Y196537D01*
X494895Y196150D01*
X495900Y196017D01*
X496905Y196150D01*
X497841Y196537D01*
X498646Y197154D01*
X499263Y197959D01*
X499650Y198895D01*
X499783Y199900D01*
X499650Y200905D01*
X499263Y201841D01*
X498646Y202646D01*
X497841Y203263D01*
X496905Y203650D01*
X495900Y203783D01*
D02*
G37*
G36*
X485900D02*
X484895Y203650D01*
X483959Y203263D01*
X483154Y202646D01*
X482537Y201841D01*
X482150Y200905D01*
X482017Y199900D01*
X482150Y198895D01*
X482537Y197959D01*
X483154Y197154D01*
X483959Y196537D01*
X484895Y196150D01*
X485900Y196017D01*
X486905Y196150D01*
X487841Y196537D01*
X488646Y197154D01*
X489263Y197959D01*
X489650Y198895D01*
X489783Y199900D01*
X489650Y200905D01*
X489263Y201841D01*
X488646Y202646D01*
X487841Y203263D01*
X486905Y203650D01*
X485900Y203783D01*
D02*
G37*
G36*
X185200Y205241D02*
X184381Y205078D01*
X183686Y204614D01*
X183222Y203919D01*
X183059Y203100D01*
X183222Y202281D01*
X183686Y201586D01*
X184381Y201122D01*
X185200Y200959D01*
X186019Y201122D01*
X186714Y201586D01*
X187178Y202281D01*
X187341Y203100D01*
X187178Y203919D01*
X186714Y204614D01*
X186019Y205078D01*
X185200Y205241D01*
D02*
G37*
G36*
X304700Y205800D02*
X284500D01*
X284400Y205700D01*
Y198100D01*
X285602D01*
X285720Y198076D01*
X285838Y198100D01*
X289142D01*
X289260Y198076D01*
X289378Y198100D01*
X292682D01*
X292800Y198076D01*
X292918Y198100D01*
X296222D01*
X296340Y198076D01*
X296458Y198100D01*
X299762D01*
X299880Y198076D01*
X299998Y198100D01*
X303302D01*
X303420Y198076D01*
X303538Y198100D01*
X304700D01*
Y205800D01*
D02*
G37*
G36*
X266700Y221219D02*
X265812Y221043D01*
X265060Y220540D01*
X264557Y219788D01*
X264381Y218900D01*
X264557Y218012D01*
X265060Y217260D01*
X265812Y216757D01*
X266700Y216581D01*
X267588Y216757D01*
X268340Y217260D01*
X268843Y218012D01*
X269019Y218900D01*
X268843Y219788D01*
X268340Y220540D01*
X267588Y221043D01*
X266700Y221219D01*
D02*
G37*
G36*
X54500Y222219D02*
X53612Y222043D01*
X52860Y221540D01*
X52357Y220788D01*
X52181Y219900D01*
X52357Y219012D01*
X52860Y218260D01*
X53612Y217757D01*
X54500Y217581D01*
X55388Y217757D01*
X56140Y218260D01*
X56643Y219012D01*
X56819Y219900D01*
X56643Y220788D01*
X56140Y221540D01*
X55388Y222043D01*
X54500Y222219D01*
D02*
G37*
G36*
X618921Y228235D02*
X609079D01*
X608806Y228181D01*
X608574Y228026D01*
X608419Y227794D01*
X608365Y227521D01*
Y217679D01*
X608419Y217406D01*
X608574Y217174D01*
X608806Y217019D01*
X609079Y216965D01*
X618921D01*
X619194Y217019D01*
X619426Y217174D01*
X619581Y217406D01*
X619635Y217679D01*
Y227521D01*
X619581Y227794D01*
X619426Y228026D01*
X619194Y228181D01*
X618921Y228235D01*
D02*
G37*
G36*
X479000Y222419D02*
X478112Y222243D01*
X477360Y221740D01*
X476857Y220988D01*
X476681Y220100D01*
X476857Y219212D01*
X477360Y218460D01*
X478112Y217957D01*
X479000Y217781D01*
X479888Y217957D01*
X480640Y218460D01*
X481143Y219212D01*
X481319Y220100D01*
X481143Y220988D01*
X480640Y221740D01*
X479888Y222243D01*
X479000Y222419D01*
D02*
G37*
G36*
X338200Y224419D02*
X337312Y224243D01*
X336560Y223740D01*
X336057Y222988D01*
X335881Y222100D01*
X336057Y221212D01*
X336560Y220460D01*
X337312Y219957D01*
X338200Y219781D01*
X339088Y219957D01*
X339840Y220460D01*
X340343Y221212D01*
X340519Y222100D01*
X340343Y222988D01*
X339840Y223740D01*
X339088Y224243D01*
X338200Y224419D01*
D02*
G37*
G36*
X153200Y220722D02*
X152771Y220636D01*
X152407Y220393D01*
X152164Y220029D01*
X152078Y219600D01*
X152164Y219171D01*
X152407Y218807D01*
X152771Y218564D01*
X153200Y218478D01*
X153629Y218564D01*
X153993Y218807D01*
X154236Y219171D01*
X154322Y219600D01*
X154236Y220029D01*
X153993Y220393D01*
X153629Y220636D01*
X153200Y220722D01*
D02*
G37*
G36*
X599000Y228270D02*
X597533Y228077D01*
X596165Y227510D01*
X594991Y226609D01*
X594090Y225435D01*
X593523Y224067D01*
X593330Y222600D01*
X593523Y221133D01*
X594090Y219765D01*
X594991Y218591D01*
X596165Y217690D01*
X597533Y217123D01*
X599000Y216930D01*
X600467Y217123D01*
X601835Y217690D01*
X603009Y218591D01*
X603910Y219765D01*
X604477Y221133D01*
X604670Y222600D01*
X604477Y224067D01*
X603910Y225435D01*
X603009Y226609D01*
X601835Y227510D01*
X600467Y228077D01*
X599000Y228270D01*
D02*
G37*
G36*
X584000D02*
X582533Y228077D01*
X581165Y227510D01*
X579991Y226609D01*
X579090Y225435D01*
X578523Y224067D01*
X578330Y222600D01*
X578523Y221133D01*
X579090Y219765D01*
X579991Y218591D01*
X581165Y217690D01*
X582533Y217123D01*
X584000Y216930D01*
X585467Y217123D01*
X586835Y217690D01*
X588009Y218591D01*
X588910Y219765D01*
X589477Y221133D01*
X589670Y222600D01*
X589477Y224067D01*
X588910Y225435D01*
X588009Y226609D01*
X586835Y227510D01*
X585467Y228077D01*
X584000Y228270D01*
D02*
G37*
%LPD*%
G36*
X226200Y172500D02*
X226300Y172400D01*
Y148656D01*
X225800Y148389D01*
X225729Y148436D01*
X225300Y148522D01*
X224871Y148436D01*
X224507Y148193D01*
X224264Y147829D01*
X224179Y147400D01*
X224264Y146971D01*
X224478Y146650D01*
X224264Y146329D01*
X224179Y145900D01*
X224264Y145471D01*
X224507Y145107D01*
X224621Y144447D01*
X224619Y144443D01*
X224511Y144300D01*
X222308D01*
X222259Y144800D01*
X222580Y144864D01*
X222943Y145107D01*
X223187Y145471D01*
X223272Y145900D01*
X223187Y146329D01*
X222972Y146650D01*
X223187Y146971D01*
X223272Y147400D01*
X223187Y147829D01*
X222943Y148193D01*
X222580Y148436D01*
X222150Y148522D01*
X221721Y148436D01*
X221357Y148193D01*
X221114Y147829D01*
X221029Y147400D01*
X221114Y146971D01*
X221329Y146650D01*
X221114Y146329D01*
X221029Y145900D01*
X221114Y145471D01*
X221357Y145107D01*
X221721Y144864D01*
X222042Y144800D01*
X221993Y144300D01*
X219158D01*
X219108Y144800D01*
X219429Y144864D01*
X219793Y145107D01*
X220036Y145471D01*
X220122Y145900D01*
X220036Y146329D01*
X219822Y146650D01*
X220036Y146971D01*
X220122Y147400D01*
X220036Y147829D01*
X219793Y148193D01*
X219429Y148436D01*
X219000Y148522D01*
X218571Y148436D01*
X218207Y148193D01*
X217964Y147829D01*
X217879Y147400D01*
X217964Y146971D01*
X218178Y146650D01*
X217964Y146329D01*
X217879Y145900D01*
X217964Y145471D01*
X218207Y145107D01*
X218571Y144864D01*
X218892Y144800D01*
X218842Y144300D01*
X216009D01*
X215960Y144800D01*
X216280Y144864D01*
X216644Y145107D01*
X216887Y145471D01*
X216973Y145900D01*
X216887Y146329D01*
X216673Y146650D01*
X216887Y146971D01*
X216973Y147400D01*
X216887Y147829D01*
X216644Y148193D01*
X216280Y148436D01*
X215851Y148522D01*
X215422Y148436D01*
X215058Y148193D01*
X214815Y147829D01*
X214730Y147400D01*
X214815Y146971D01*
X215029Y146650D01*
X214815Y146329D01*
X214730Y145900D01*
X214815Y145471D01*
X215058Y145107D01*
X215422Y144864D01*
X215743Y144800D01*
X215694Y144300D01*
X212859D01*
X212810Y144800D01*
X213131Y144864D01*
X213495Y145107D01*
X213738Y145471D01*
X213823Y145900D01*
X213738Y146329D01*
X213523Y146650D01*
X213738Y146971D01*
X213823Y147400D01*
X213738Y147829D01*
X213495Y148193D01*
X213131Y148436D01*
X212702Y148522D01*
X212272Y148436D01*
X211909Y148193D01*
X211665Y147829D01*
X211580Y147400D01*
X211665Y146971D01*
X211880Y146650D01*
X211665Y146329D01*
X211580Y145900D01*
X211665Y145471D01*
X211909Y145107D01*
X212272Y144864D01*
X212593Y144800D01*
X212544Y144300D01*
X210334D01*
X210182Y144800D01*
X210435Y144969D01*
X210706Y145374D01*
X210801Y145852D01*
Y145900D01*
X210706Y146378D01*
X210449Y146763D01*
X210588Y146971D01*
X210673Y147400D01*
X210588Y147829D01*
X210345Y148193D01*
X209981Y148436D01*
X209552Y148522D01*
X209123Y148436D01*
X208759Y148193D01*
X208516Y147829D01*
X208430Y147400D01*
X208516Y146971D01*
X208655Y146763D01*
X208398Y146378D01*
X208303Y145900D01*
Y145852D01*
X208398Y145374D01*
X208669Y144969D01*
X208921Y144800D01*
X208770Y144300D01*
X206560D01*
X206511Y144800D01*
X206832Y144864D01*
X207195Y145107D01*
X207438Y145471D01*
X207524Y145900D01*
X207438Y146329D01*
X207223Y146652D01*
X207436Y146971D01*
X207522Y147400D01*
X207436Y147829D01*
X207193Y148193D01*
X206829Y148436D01*
X206400Y148522D01*
X205971Y148436D01*
X205607Y148193D01*
X205364Y147829D01*
X205278Y147400D01*
X205364Y146971D01*
X205579Y146648D01*
X205366Y146329D01*
X205281Y145900D01*
X205366Y145471D01*
X205609Y145107D01*
X205973Y144864D01*
X206294Y144800D01*
X206245Y144300D01*
X203410D01*
X203361Y144800D01*
X203682Y144864D01*
X204046Y145107D01*
X204289Y145471D01*
X204374Y145900D01*
X204289Y146329D01*
X204075Y146650D01*
X204289Y146971D01*
X204374Y147400D01*
X204289Y147829D01*
X204046Y148193D01*
X203682Y148436D01*
X203253Y148522D01*
X202824Y148436D01*
X202460Y148193D01*
X202217Y147829D01*
X202131Y147400D01*
X202217Y146971D01*
X202431Y146650D01*
X202217Y146329D01*
D01*
Y146329D01*
X202131Y145900D01*
X202217Y145471D01*
X202460Y145107D01*
X202824Y144864D01*
X203018Y144825D01*
X203196Y144296D01*
X185400Y126500D01*
X133800D01*
Y126600D01*
X129400Y131000D01*
Y153098D01*
X160883Y173700D01*
X225200D01*
X226200Y172500D01*
D02*
G37*
%LPC*%
G36*
X222150Y160022D02*
X221721Y159936D01*
X221357Y159693D01*
X221114Y159329D01*
X221029Y158900D01*
X221114Y158471D01*
X221357Y158107D01*
X221721Y157864D01*
X222150Y157778D01*
X222580Y157864D01*
X222943Y158107D01*
X223187Y158471D01*
X223272Y158900D01*
X223187Y159329D01*
X222943Y159693D01*
X222580Y159936D01*
X222150Y160022D01*
D02*
G37*
G36*
X215851D02*
X215422Y159936D01*
X215058Y159693D01*
X214815Y159329D01*
X214730Y158900D01*
X214815Y158471D01*
X215058Y158107D01*
X215422Y157864D01*
X215851Y157778D01*
X216280Y157864D01*
X216644Y158107D01*
X216887Y158471D01*
X216973Y158900D01*
X216887Y159329D01*
X216644Y159693D01*
X216280Y159936D01*
X215851Y160022D01*
D02*
G37*
G36*
X219000D02*
X218571Y159936D01*
X218207Y159693D01*
X217964Y159329D01*
X217879Y158900D01*
X217964Y158471D01*
X218207Y158107D01*
X218571Y157864D01*
X219000Y157778D01*
X219429Y157864D01*
X219793Y158107D01*
X220036Y158471D01*
X220122Y158900D01*
X220036Y159329D01*
X219793Y159693D01*
X219429Y159936D01*
X219000Y160022D01*
D02*
G37*
G36*
X198300Y147319D02*
X197412Y147143D01*
X196660Y146640D01*
X196157Y145888D01*
X195981Y145000D01*
X196157Y144112D01*
X196660Y143360D01*
X197412Y142857D01*
X198300Y142681D01*
X199188Y142857D01*
X199940Y143360D01*
X200443Y144112D01*
X200619Y145000D01*
X200443Y145888D01*
X199940Y146640D01*
X199188Y147143D01*
X198300Y147319D01*
D02*
G37*
G36*
X209552Y160022D02*
X209123Y159936D01*
X208759Y159693D01*
X208516Y159329D01*
X208430Y158900D01*
X208516Y158471D01*
X208759Y158107D01*
X209123Y157864D01*
X209552Y157778D01*
X209981Y157864D01*
X210345Y158107D01*
X210588Y158471D01*
X210673Y158900D01*
X210588Y159329D01*
X210345Y159693D01*
X209981Y159936D01*
X209552Y160022D01*
D02*
G37*
G36*
X212700D02*
X212271Y159936D01*
X211907Y159693D01*
X211664Y159329D01*
X211578Y158900D01*
X211664Y158471D01*
X211907Y158107D01*
X212271Y157864D01*
X212700Y157778D01*
X213129Y157864D01*
X213493Y158107D01*
X213736Y158471D01*
X213822Y158900D01*
X213736Y159329D01*
X213493Y159693D01*
X213129Y159936D01*
X212700Y160022D01*
D02*
G37*
G36*
X203253D02*
X203235Y160018D01*
X202824Y159936D01*
X202460Y159693D01*
X202217Y159329D01*
X202131Y158900D01*
X202217Y158471D01*
X202460Y158107D01*
X202824Y157864D01*
X203253Y157778D01*
D01*
X203253D01*
X203682Y157864D01*
X204046Y158107D01*
X204289Y158471D01*
X204374Y158900D01*
X204289Y159329D01*
X204046Y159693D01*
X203682Y159936D01*
X203253Y160022D01*
D02*
G37*
G36*
X206400D02*
X205971Y159936D01*
X205607Y159693D01*
X205364Y159329D01*
X205278Y158900D01*
X205364Y158471D01*
X205607Y158107D01*
X205971Y157864D01*
X206400Y157778D01*
X206829Y157864D01*
X207193Y158107D01*
X207436Y158471D01*
X207522Y158900D01*
X207436Y159329D01*
X207193Y159693D01*
X206829Y159936D01*
X206400Y160022D01*
D02*
G37*
%LPD*%
G36*
X302900Y172850D02*
X303100D01*
Y159755D01*
X302600Y159706D01*
X302578Y159818D01*
X302312Y160215D01*
X301916Y160480D01*
X301447Y160573D01*
X300979Y160480D01*
X300582Y160215D01*
X300317Y159818D01*
X300224Y159350D01*
X300317Y158882D01*
X300582Y158485D01*
X300979Y158220D01*
X301447Y158126D01*
X301916Y158220D01*
X302312Y158485D01*
X302578Y158882D01*
X302600Y158994D01*
X303100Y158945D01*
Y148255D01*
X302600Y148206D01*
X302578Y148318D01*
X302312Y148715D01*
X301916Y148980D01*
X301447Y149074D01*
X300979Y148980D01*
X300582Y148715D01*
X300317Y148318D01*
X300224Y147850D01*
X300317Y147382D01*
X300505Y147100D01*
X300317Y146818D01*
X300224Y146350D01*
X300317Y145882D01*
X300582Y145485D01*
X300663Y144833D01*
X300603Y144750D01*
X299142D01*
X299082Y144833D01*
X299163Y145485D01*
X299428Y145882D01*
X299521Y146350D01*
X299428Y146818D01*
X299241Y147098D01*
X299430Y147382D01*
X299523Y147850D01*
X299430Y148318D01*
X299165Y148715D01*
X298768Y148980D01*
X298300Y149074D01*
X297832Y148980D01*
X297435Y148715D01*
X297170Y148318D01*
X297077Y147850D01*
X297170Y147382D01*
X297357Y147102D01*
X297167Y146818D01*
X297074Y146350D01*
X297167Y145882D01*
X297432Y145485D01*
X297513Y144833D01*
X297454Y144750D01*
X295930D01*
X295779Y145250D01*
X296031Y145419D01*
X296302Y145824D01*
X296397Y146302D01*
Y146350D01*
X296302Y146828D01*
X296105Y147123D01*
X296278Y147382D01*
X296372Y147850D01*
X296278Y148318D01*
X296013Y148715D01*
X295616Y148980D01*
X295148Y149074D01*
X294680Y148980D01*
X294283Y148715D01*
X294018Y148318D01*
X293924Y147850D01*
X294018Y147382D01*
X294191Y147123D01*
X293994Y146828D01*
X293899Y146350D01*
Y146302D01*
X293994Y145824D01*
X294265Y145419D01*
X294517Y145250D01*
X294366Y144750D01*
X292842D01*
X292783Y144833D01*
X292864Y145485D01*
X293129Y145882D01*
X293222Y146350D01*
X293129Y146818D01*
X292940Y147100D01*
X293129Y147382D01*
X293222Y147850D01*
X293129Y148318D01*
X292864Y148715D01*
X292467Y148980D01*
X291998Y149074D01*
X291530Y148980D01*
X291133Y148715D01*
X290868Y148318D01*
X290775Y147850D01*
X290868Y147382D01*
X291056Y147100D01*
X290868Y146818D01*
X290775Y146350D01*
X290868Y145882D01*
X291133Y145485D01*
X291214Y144833D01*
X291155Y144750D01*
X289693D01*
X289633Y144833D01*
X289714Y145485D01*
X289979Y145882D01*
X290072Y146350D01*
X289979Y146818D01*
X289791Y147100D01*
X289979Y147382D01*
X290072Y147850D01*
X289979Y148318D01*
X289714Y148715D01*
X289317Y148980D01*
X288849Y149074D01*
X288381Y148980D01*
X287984Y148715D01*
X287718Y148318D01*
X287625Y147850D01*
X287718Y147382D01*
X287907Y147100D01*
X287718Y146818D01*
X287625Y146350D01*
X287718Y145882D01*
X287984Y145485D01*
X288064Y144833D01*
X288005Y144750D01*
X286544D01*
X286485Y144833D01*
X286565Y145485D01*
X286830Y145882D01*
X286924Y146350D01*
X286830Y146818D01*
X286642Y147100D01*
X286830Y147382D01*
X286924Y147850D01*
X286830Y148318D01*
X286565Y148715D01*
X286168Y148980D01*
X285700Y149074D01*
X285232Y148980D01*
X284835Y148715D01*
X284570Y148318D01*
X284476Y147850D01*
X284570Y147382D01*
X284758Y147100D01*
X284570Y146818D01*
X284476Y146350D01*
X284570Y145882D01*
X284835Y145485D01*
X284915Y144833D01*
X284856Y144750D01*
X283394D01*
X283334Y144833D01*
X283415Y145485D01*
X283680Y145882D01*
X283773Y146350D01*
X283680Y146818D01*
X283492Y147100D01*
X283680Y147382D01*
X283773Y147850D01*
X283680Y148318D01*
X283415Y148715D01*
X283018Y148980D01*
X282550Y149074D01*
X282081Y148980D01*
X281684Y148715D01*
X281419Y148318D01*
X281326Y147850D01*
X281419Y147382D01*
X281608Y147100D01*
X281419Y146818D01*
X281326Y146350D01*
X281419Y145882D01*
X281684Y145485D01*
X281765Y144833D01*
X281706Y144750D01*
X280244D01*
X280185Y144833D01*
X280265Y145485D01*
X280530Y145882D01*
X280624Y146350D01*
X280530Y146818D01*
X280342Y147100D01*
X280530Y147382D01*
X280624Y147850D01*
X280530Y148318D01*
X280265Y148715D01*
X279868Y148980D01*
X279400Y149074D01*
X278932Y148980D01*
X278900Y148959D01*
X278400Y149226D01*
Y172850D01*
X278500Y172950D01*
X279500Y174150D01*
X301600D01*
X302900Y172850D01*
D02*
G37*
%LPC*%
G36*
X282550Y160573D02*
X282081Y160480D01*
X281684Y160215D01*
X281419Y159818D01*
X281326Y159350D01*
X281419Y158882D01*
X281684Y158485D01*
X282081Y158220D01*
X282550Y158126D01*
X283018Y158220D01*
X283415Y158485D01*
X283680Y158882D01*
X283773Y159350D01*
X283680Y159818D01*
X283415Y160215D01*
X283018Y160480D01*
X282550Y160573D01*
D02*
G37*
G36*
X285700D02*
X285232Y160480D01*
X284835Y160215D01*
X284570Y159818D01*
X284476Y159350D01*
X284570Y158882D01*
X284835Y158485D01*
X285232Y158220D01*
X285700Y158126D01*
X286168Y158220D01*
X286565Y158485D01*
X286830Y158882D01*
X286924Y159350D01*
X286830Y159818D01*
X286565Y160215D01*
X286168Y160480D01*
X285700Y160573D01*
D02*
G37*
G36*
X295148D02*
X294680Y160480D01*
X294283Y160215D01*
X294018Y159818D01*
X293924Y159350D01*
X294018Y158882D01*
X294283Y158485D01*
X294680Y158220D01*
X295148Y158126D01*
X295616Y158220D01*
X296013Y158485D01*
X296278Y158882D01*
X296372Y159350D01*
X296278Y159818D01*
X296013Y160215D01*
X295616Y160480D01*
X295148Y160573D01*
D02*
G37*
G36*
X298300D02*
X297832Y160480D01*
X297435Y160215D01*
X297170Y159818D01*
X297077Y159350D01*
X297170Y158882D01*
X297435Y158485D01*
X297832Y158220D01*
X298300Y158126D01*
X298768Y158220D01*
X299165Y158485D01*
X299430Y158882D01*
X299523Y159350D01*
X299430Y159818D01*
X299165Y160215D01*
X298768Y160480D01*
X298300Y160573D01*
D02*
G37*
G36*
X288849D02*
X288381Y160480D01*
X287984Y160215D01*
X287718Y159818D01*
X287625Y159350D01*
X287718Y158882D01*
X287984Y158485D01*
X288381Y158220D01*
X288849Y158126D01*
X289317Y158220D01*
X289714Y158485D01*
X289979Y158882D01*
X290072Y159350D01*
X289979Y159818D01*
X289714Y160215D01*
X289317Y160480D01*
X288849Y160573D01*
D02*
G37*
G36*
X292000D02*
X291532Y160480D01*
X291135Y160215D01*
X290870Y159818D01*
X290776Y159350D01*
X290870Y158882D01*
X291135Y158485D01*
X291532Y158220D01*
X292000Y158126D01*
X292468Y158220D01*
X292865Y158485D01*
X293130Y158882D01*
X293224Y159350D01*
X293130Y159818D01*
X292865Y160215D01*
X292468Y160480D01*
X292000Y160573D01*
D02*
G37*
%LPD*%
D39*
X457800Y67000D02*
X462500D01*
X456900Y67900D02*
X457800Y67000D01*
X456900Y67900D02*
Y79000D01*
D40*
X164300Y24300D02*
Y34192D01*
X164292Y34200D02*
X164300Y34192D01*
X485549Y70100D02*
Y80151D01*
X491848Y70100D02*
Y80150D01*
X494998Y70100D02*
Y80150D01*
X498147Y70100D02*
Y80150D01*
X488698Y70000D02*
Y80150D01*
X482399Y70100D02*
Y80150D01*
X477675Y56200D02*
Y65950D01*
X483974Y56174D02*
Y65950D01*
X487124Y56124D02*
Y65950D01*
X490273Y56173D02*
Y65950D01*
X493423Y56123D02*
Y65950D01*
X496572Y56123D02*
Y65950D01*
X480824Y56200D02*
Y65950D01*
X479300Y70100D02*
Y80000D01*
X166618Y95475D02*
Y105225D01*
X163468Y95475D02*
Y105225D01*
X157169Y95475D02*
Y105301D01*
X160318Y95475D02*
Y105251D01*
X150870Y95475D02*
Y105302D01*
X154019Y95475D02*
Y105252D01*
X147720Y95475D02*
Y105302D01*
X152444Y107525D02*
Y107573D01*
X164992Y81425D02*
Y91325D01*
X161893Y81275D02*
Y91325D01*
X155594Y81275D02*
Y91425D01*
X158744Y81274D02*
Y91325D01*
X149295Y81275D02*
Y91325D01*
X152444Y81275D02*
Y91325D01*
X146145Y81275D02*
Y91325D01*
X165918Y38350D02*
Y48100D01*
X162768Y38350D02*
Y48100D01*
X156469Y38350D02*
Y48176D01*
X159618Y38350D02*
Y48126D01*
X150170Y38350D02*
Y48177D01*
X153319Y38350D02*
Y48127D01*
X147020Y38350D02*
Y48177D01*
X151744Y50400D02*
Y50448D01*
X161193Y24150D02*
Y34200D01*
X154894Y24150D02*
Y34300D01*
X158044Y24149D02*
Y34200D01*
X148595Y24150D02*
Y34200D01*
X151744Y24150D02*
Y34200D01*
X145445Y24150D02*
Y34200D01*
X379575Y143200D02*
Y152950D01*
X382724Y143200D02*
Y152950D01*
X389024Y143124D02*
Y152950D01*
X385874Y143174D02*
Y152950D01*
X395323Y143123D02*
Y152950D01*
X392173Y143173D02*
Y152950D01*
X398472Y143123D02*
Y152950D01*
X381200Y157100D02*
Y167000D01*
X384299Y157100D02*
Y167150D01*
X390598Y157000D02*
Y167150D01*
X387449Y157100D02*
Y167151D01*
X396898Y157100D02*
Y167150D01*
X393748Y157100D02*
Y167150D01*
X400047Y157100D02*
Y167150D01*
X280975Y148650D02*
Y158400D01*
X284124Y148650D02*
Y158400D01*
X290424Y148574D02*
Y158400D01*
X287274Y148624D02*
Y158400D01*
X296723Y148573D02*
Y158400D01*
X293573Y148623D02*
Y158400D01*
X299872Y148573D02*
Y158400D01*
X295148Y146302D02*
Y146350D01*
X282600Y162550D02*
Y172450D01*
X285699Y162550D02*
Y172600D01*
X291998Y162450D02*
Y172600D01*
X288849Y162550D02*
Y172601D01*
X298298Y162550D02*
Y172600D01*
X295148Y162550D02*
Y172600D01*
X301447Y162550D02*
Y172600D01*
X223725Y148200D02*
Y157950D01*
X220576Y148200D02*
Y157950D01*
X214276Y148124D02*
Y157950D01*
X217426Y148174D02*
Y157950D01*
X207977Y148123D02*
Y157950D01*
X211127Y148173D02*
Y157950D01*
X204828Y148123D02*
Y157950D01*
X209552Y145852D02*
Y145900D01*
X222100Y162100D02*
Y172000D01*
X219001Y162100D02*
Y172150D01*
X212702Y162000D02*
Y172150D01*
X215851Y162100D02*
Y172151D01*
X206402Y162100D02*
Y172150D01*
X209552Y162100D02*
Y172150D01*
X203253Y162100D02*
Y172150D01*
D41*
X352900Y175600D02*
X404100Y226800D01*
X556700Y240100D02*
X568500Y228300D01*
Y187825D02*
Y228300D01*
Y187825D02*
X577100Y179225D01*
X352900Y147300D02*
X356900Y143300D01*
X352900Y147300D02*
Y175600D01*
X460200Y240100D02*
X556700D01*
X358300Y158900D02*
Y176100D01*
X409100Y226900D01*
D43*
X609200Y256000D02*
Y265000D01*
D45*
X237175Y235732D02*
X255032D01*
X291300Y272000D01*
X383197D01*
D51*
X273100Y110800D02*
D03*
X609200Y256000D02*
D03*
X305500Y237300D02*
D03*
X198300Y150900D02*
D03*
X405000Y145900D02*
D03*
X503100Y59300D02*
D03*
X141192Y102525D02*
D03*
D52*
X142200Y138979D02*
D03*
D55*
X559100Y279400D02*
D03*
X549100D02*
D03*
X539100D02*
D03*
X529100D02*
D03*
D58*
X524000Y122600D02*
D03*
X539000D02*
D03*
X554000D02*
D03*
X524000Y222600D02*
D03*
X539000D02*
D03*
X554000D02*
D03*
X7700Y8114D02*
D03*
Y23705D02*
D03*
D62*
X349400Y261400D02*
D03*
D64*
X20900Y95800D02*
D03*
D66*
X462500Y67000D02*
D03*
X404100Y226800D02*
D03*
X408200Y165900D02*
D03*
X408300Y146600D02*
D03*
Y152898D02*
D03*
Y149749D02*
D03*
Y159198D02*
D03*
Y156048D02*
D03*
Y162347D02*
D03*
X356900Y143300D02*
D03*
X164300Y24300D02*
D03*
X103100Y224200D02*
D03*
X100539Y224261D02*
D03*
X331600Y108870D02*
D03*
X297200Y108500D02*
D03*
X577100Y179225D02*
D03*
X460200Y240100D02*
D03*
X358300Y158900D02*
D03*
X456900Y79000D02*
D03*
X482399Y80150D02*
D03*
X488698D02*
D03*
X491848D02*
D03*
X498147Y70100D02*
D03*
X494998D02*
D03*
X491848D02*
D03*
X485549D02*
D03*
X494998Y80150D02*
D03*
X498147D02*
D03*
X485549Y80151D02*
D03*
X482400Y70100D02*
D03*
X477675Y65950D02*
D03*
X483974D02*
D03*
X487124D02*
D03*
X490273D02*
D03*
X493423D02*
D03*
X496572D02*
D03*
X477675Y56123D02*
D03*
X480824D02*
D03*
X483974D02*
D03*
X487124D02*
D03*
X490273D02*
D03*
X493423D02*
D03*
X496572D02*
D03*
X479300Y70100D02*
D03*
X488698Y70000D02*
D03*
X480824Y65950D02*
D03*
X479300Y80000D02*
D03*
X166618Y105302D02*
D03*
X166618Y95475D02*
D03*
X163468Y105302D02*
D03*
Y95475D02*
D03*
X157169Y105302D02*
D03*
Y95475D02*
D03*
X160318Y105302D02*
D03*
Y95475D02*
D03*
X150870Y105302D02*
D03*
Y95475D02*
D03*
X154019Y105302D02*
D03*
Y95475D02*
D03*
X147720Y105302D02*
D03*
Y95475D02*
D03*
X152444Y107525D02*
D03*
X164992Y91325D02*
D03*
Y81425D02*
D03*
X161892Y91325D02*
D03*
X161893Y81275D02*
D03*
X155594Y91425D02*
D03*
Y81275D02*
D03*
X158744Y91325D02*
D03*
Y81274D02*
D03*
X149295Y91325D02*
D03*
Y81275D02*
D03*
X152444Y91325D02*
D03*
Y81275D02*
D03*
X146145Y91325D02*
D03*
Y81275D02*
D03*
X165918Y48177D02*
D03*
X165918Y38350D02*
D03*
X162768Y48177D02*
D03*
Y38350D02*
D03*
X156469Y48177D02*
D03*
Y38350D02*
D03*
X159618Y48177D02*
D03*
Y38350D02*
D03*
X150170Y48177D02*
D03*
Y38350D02*
D03*
X153319Y48177D02*
D03*
Y38350D02*
D03*
X147020Y48177D02*
D03*
Y38350D02*
D03*
X151744Y50400D02*
D03*
X164292Y34200D02*
D03*
X161193Y24150D02*
D03*
X161192Y34200D02*
D03*
X154894Y34300D02*
D03*
Y24150D02*
D03*
X158044Y34200D02*
D03*
Y24149D02*
D03*
X148595Y34200D02*
D03*
Y24150D02*
D03*
X151744Y34200D02*
D03*
Y24150D02*
D03*
X145445Y34200D02*
D03*
Y24150D02*
D03*
X379575Y143123D02*
D03*
X379575Y152950D02*
D03*
X382724Y143123D02*
D03*
Y152950D02*
D03*
X389024Y143123D02*
D03*
Y152950D02*
D03*
X385874Y143123D02*
D03*
Y152950D02*
D03*
X395323Y143123D02*
D03*
Y152950D02*
D03*
X392173Y143123D02*
D03*
Y152950D02*
D03*
X398472Y143123D02*
D03*
Y152950D02*
D03*
X381200Y157100D02*
D03*
Y167000D02*
D03*
X384300Y157100D02*
D03*
X384299Y167150D02*
D03*
X390598Y157000D02*
D03*
Y167150D02*
D03*
X387449Y157100D02*
D03*
Y167151D02*
D03*
X396898Y157100D02*
D03*
Y167150D02*
D03*
X393748Y157100D02*
D03*
Y167150D02*
D03*
X400047Y157100D02*
D03*
Y167150D02*
D03*
X280975Y148573D02*
D03*
X280975Y158400D02*
D03*
X284124Y148573D02*
D03*
Y158400D02*
D03*
X290424Y148573D02*
D03*
Y158400D02*
D03*
X287274Y148573D02*
D03*
Y158400D02*
D03*
X296723Y148573D02*
D03*
Y158400D02*
D03*
X293573Y148573D02*
D03*
Y158400D02*
D03*
X299872Y148573D02*
D03*
Y158400D02*
D03*
X295148Y146350D02*
D03*
X282600Y162550D02*
D03*
Y172450D02*
D03*
X285700Y162550D02*
D03*
X285699Y172600D02*
D03*
X291998Y162450D02*
D03*
Y172600D02*
D03*
X288849Y162550D02*
D03*
Y172601D02*
D03*
X298298Y162550D02*
D03*
Y172600D02*
D03*
X295148Y162550D02*
D03*
Y172600D02*
D03*
X301447Y162550D02*
D03*
Y172600D02*
D03*
X223725Y157950D02*
D03*
X223725Y148123D02*
D03*
X220576D02*
D03*
Y157950D02*
D03*
X214276Y148123D02*
D03*
Y157950D02*
D03*
X217426Y148123D02*
D03*
Y157950D02*
D03*
X207977D02*
D03*
Y148123D02*
D03*
X211127D02*
D03*
Y157950D02*
D03*
X204828Y148123D02*
D03*
Y157950D02*
D03*
X209552Y145900D02*
D03*
X222100Y162100D02*
D03*
Y172000D02*
D03*
X219000Y162100D02*
D03*
X219001Y172150D02*
D03*
X212702Y162000D02*
D03*
Y172150D02*
D03*
X215851Y162100D02*
D03*
Y172151D02*
D03*
X206402Y162100D02*
D03*
Y172150D02*
D03*
X209552Y162100D02*
D03*
Y172150D02*
D03*
X203253Y162100D02*
D03*
Y172150D02*
D03*
X409100Y226900D02*
D03*
X258300Y161700D02*
D03*
D68*
X237175Y235732D02*
D03*
X189700Y36800D02*
D03*
X190000Y96000D02*
D03*
X596700Y172825D02*
D03*
X270100Y135300D02*
D03*
X44300Y126400D02*
D03*
D69*
X606200Y80500D02*
D03*
X552961Y64861D02*
D03*
X585900Y63800D02*
D03*
X485000Y130400D02*
D03*
X455200Y65900D02*
D03*
X449500Y133000D02*
D03*
X463000Y189600D02*
D03*
X356800Y151800D02*
D03*
D70*
X246400Y163200D02*
D03*
X222200Y252500D02*
D03*
X35500Y25600D02*
D03*
X39040D02*
D03*
X42580D02*
D03*
X46120D02*
D03*
X49660D02*
D03*
X53200D02*
D03*
X35500Y23100D02*
D03*
X39040D02*
D03*
X42580D02*
D03*
X46120D02*
D03*
X49660D02*
D03*
X53200D02*
D03*
X53220Y20400D02*
D03*
X49680D02*
D03*
X46140D02*
D03*
X42600D02*
D03*
X39060D02*
D03*
X35520D02*
D03*
M02*
