G04 Layer_Color=32896*
%FSLAX25Y25*%
%MOIN*%
G70*
G01*
G75*
%ADD38C,0.00600*%
%ADD42C,0.01200*%
%ADD80C,0.00787*%
%ADD81C,0.00450*%
%ADD82C,0.00500*%
D38*
X550500Y77800D02*
G03*
X550500Y80200I0J1200D01*
G01*
X564295Y183433D02*
G03*
X564295Y184416I-1095J492D01*
G01*
X585300Y68400D02*
G03*
X585300Y66000I0J-1200D01*
G01*
X550500Y72700D02*
Y84500D01*
X562804Y72699D02*
Y85299D01*
X563200Y182734D02*
Y185116D01*
X567870Y180475D02*
X570531D01*
X575200Y182734D02*
Y185116D01*
X585300Y61700D02*
Y73500D01*
X572996Y60900D02*
Y73501D01*
D42*
X51000Y203800D02*
X55500D01*
X51000Y210800D02*
X55500D01*
X58500D02*
X63500D01*
X58500Y203800D02*
X63500D01*
X51000D02*
Y210800D01*
X63500Y203800D02*
Y210800D01*
X67600Y203800D02*
X72100D01*
X67600Y210800D02*
X72100D01*
X75100D02*
X80100D01*
X75100Y203800D02*
X80100D01*
X67600D02*
Y210800D01*
X80100Y203800D02*
Y210800D01*
X81950Y129199D02*
Y133699D01*
X74950Y129199D02*
Y133699D01*
Y136699D02*
Y141699D01*
X81950Y136699D02*
Y141699D01*
X74950Y129199D02*
X81950D01*
X74950Y141699D02*
X81950D01*
X82126Y112550D02*
Y117050D01*
X75125Y112550D02*
Y117050D01*
Y120050D02*
Y125050D01*
X82126Y120050D02*
Y125050D01*
X75125Y112550D02*
X82126D01*
X75125Y125050D02*
X82126D01*
X53100Y79200D02*
X57600D01*
X53100Y72200D02*
X57600D01*
X45100D02*
X50100D01*
X45100Y79200D02*
X50100D01*
X57600Y72200D02*
Y79200D01*
X45100Y72200D02*
Y79200D01*
X566100Y140800D02*
Y145300D01*
X559100Y140800D02*
Y145300D01*
Y148300D02*
Y153300D01*
X566100Y148300D02*
Y153300D01*
X559100Y140800D02*
X566100D01*
X559100Y153300D02*
X566100D01*
X566300Y156100D02*
Y160600D01*
X559300Y156100D02*
Y160600D01*
Y163600D02*
Y168600D01*
X566300Y163600D02*
Y168600D01*
X559300Y156100D02*
X566300D01*
X559300Y168600D02*
X566300D01*
X590200Y72800D02*
X597200D01*
X590200Y60300D02*
X597200D01*
Y67800D02*
Y72800D01*
X590200Y67800D02*
Y72800D01*
Y60300D02*
Y64800D01*
X597200Y60300D02*
Y64800D01*
X194200Y173000D02*
X203200D01*
X194200Y192000D02*
X203200D01*
X194200Y173000D02*
Y180500D01*
X203200Y173000D02*
Y180500D01*
Y184500D02*
Y192000D01*
X194200Y184500D02*
Y192000D01*
X202900Y173000D02*
X211900D01*
X202900Y192000D02*
X211900D01*
X202900Y173000D02*
Y180500D01*
X211900Y173000D02*
Y180500D01*
Y184500D02*
Y192000D01*
X202900Y184500D02*
Y192000D01*
X211200Y173000D02*
X220200D01*
X211200Y192000D02*
X220200D01*
X211200Y173000D02*
Y180500D01*
X220200Y173000D02*
Y180500D01*
Y184500D02*
Y192000D01*
X211200Y184500D02*
Y192000D01*
X219300Y173000D02*
X228300D01*
X219300Y192000D02*
X228300D01*
X219300Y173000D02*
Y180500D01*
X228300Y173000D02*
Y180500D01*
Y184500D02*
Y192000D01*
X219300Y184500D02*
Y192000D01*
X181600Y174300D02*
X188600D01*
X181600Y186800D02*
X188600D01*
X181600Y174300D02*
Y179300D01*
X188600Y174300D02*
Y179300D01*
Y182300D02*
Y186800D01*
X181600Y182300D02*
Y186800D01*
X537300Y148700D02*
Y153200D01*
X544300Y148700D02*
Y153200D01*
Y140700D02*
Y145700D01*
X537300Y140700D02*
Y145700D01*
Y153200D02*
X544300D01*
X537300Y140700D02*
X544300D01*
X537300Y164400D02*
Y168900D01*
X544300Y164400D02*
Y168900D01*
Y156400D02*
Y161400D01*
X537300Y156400D02*
Y161400D01*
Y168900D02*
X544300D01*
X537300Y156400D02*
X544300D01*
X562200Y197825D02*
Y204825D01*
X574700Y197825D02*
Y204825D01*
X562200D02*
X567200D01*
X562200Y197825D02*
X567200D01*
X570200D02*
X574700D01*
X570200Y204825D02*
X574700D01*
X579400Y164325D02*
Y171325D01*
X566900Y164325D02*
Y171325D01*
X574400Y164325D02*
X579400D01*
X574400Y171325D02*
X579400D01*
X566900D02*
X571400D01*
X566900Y164325D02*
X571400D01*
X475600Y126900D02*
X482600D01*
X475600Y139400D02*
X482600D01*
X475600Y126900D02*
Y131900D01*
X482600Y126900D02*
Y131900D01*
Y134900D02*
Y139400D01*
X475600Y134900D02*
Y139400D01*
X449900Y172800D02*
X455900D01*
X449900Y161100D02*
X455900D01*
Y168600D02*
Y172800D01*
X449900Y168600D02*
Y172800D01*
Y161100D02*
Y165600D01*
X455900Y161100D02*
Y165600D01*
X441800Y172900D02*
X447800D01*
X441800Y161200D02*
X447800D01*
Y168700D02*
Y172900D01*
X441800Y168700D02*
Y172900D01*
Y161200D02*
Y165700D01*
X447800Y161200D02*
Y165700D01*
X472900Y165400D02*
X479900D01*
X472900Y177900D02*
X479900D01*
X472900Y165400D02*
Y170400D01*
X479900Y165400D02*
Y170400D01*
Y173400D02*
Y177900D01*
X472900Y173400D02*
Y177900D01*
X463000Y165600D02*
X470000D01*
X463000Y178100D02*
X470000D01*
X463000Y165600D02*
Y170600D01*
X470000Y165600D02*
Y170600D01*
Y173600D02*
Y178100D01*
X463000Y173600D02*
Y178100D01*
X577700Y185425D02*
Y192425D01*
X590200Y185425D02*
Y192425D01*
X577700D02*
X582700D01*
X577700Y185425D02*
X582700D01*
X585700D02*
X590200D01*
X585700Y192425D02*
X590200D01*
X577700Y175425D02*
Y182425D01*
X590200Y175425D02*
Y182425D01*
X577700D02*
X582700D01*
X577700Y175425D02*
X582700D01*
X585700D02*
X590200D01*
X585700Y182425D02*
X590200D01*
X447500Y150500D02*
Y157500D01*
X435000Y150500D02*
Y157500D01*
X442500Y150500D02*
X447500D01*
X442500Y157500D02*
X447500D01*
X435000D02*
X439500D01*
X435000Y150500D02*
X439500D01*
X356500Y269500D02*
Y276500D01*
X344000Y269500D02*
Y276500D01*
X351500Y269500D02*
X356500D01*
X351500Y276500D02*
X356500D01*
X344000D02*
X348500D01*
X344000Y269500D02*
X348500D01*
X282000Y138000D02*
X289000D01*
X282000Y125500D02*
X289000D01*
Y133000D02*
Y138000D01*
X282000Y133000D02*
Y138000D01*
Y125500D02*
Y130000D01*
X289000Y125500D02*
Y130000D01*
X295300Y269700D02*
Y278700D01*
X314300Y269700D02*
Y278700D01*
X295300D02*
X302800D01*
X295300Y269700D02*
X302800D01*
X306800D02*
X314300D01*
X306800Y278700D02*
X314300D01*
X292800Y138300D02*
X299800D01*
X292800Y125800D02*
X299800D01*
Y133300D02*
Y138300D01*
X292800Y133300D02*
Y138300D01*
Y125800D02*
Y130300D01*
X299800Y125800D02*
Y130300D01*
X372200Y269500D02*
Y276500D01*
X359700Y269500D02*
Y276500D01*
X367200Y269500D02*
X372200D01*
X367200Y276500D02*
X372200D01*
X359700D02*
X364200D01*
X359700Y269500D02*
X364200D01*
X6800Y96100D02*
X13800D01*
X6800Y83600D02*
X13800D01*
Y91100D02*
Y96100D01*
X6800Y91100D02*
Y96100D01*
Y83600D02*
Y88100D01*
X13800Y83600D02*
Y88100D01*
X4100Y130200D02*
X13100D01*
X4100Y149200D02*
X13100D01*
X4100Y130200D02*
Y137700D01*
X13100Y130200D02*
Y137700D01*
Y141700D02*
Y149200D01*
X4100Y141700D02*
Y149200D01*
X571400Y51600D02*
Y58600D01*
X558900Y51600D02*
Y58600D01*
X566400Y51600D02*
X571400D01*
X566400Y58600D02*
X571400D01*
X558900D02*
X563400D01*
X558900Y51600D02*
X563400D01*
X120948Y239200D02*
X127948D01*
X120948Y251700D02*
X127948D01*
X120948Y239200D02*
Y244200D01*
X127948Y239200D02*
Y244200D01*
Y247200D02*
Y251700D01*
X120948Y247200D02*
Y251700D01*
X597200Y82300D02*
Y89300D01*
X609700Y82300D02*
Y89300D01*
X597200D02*
X602200D01*
X597200Y82300D02*
X602200D01*
X605200D02*
X609700D01*
X605200Y89300D02*
X609700D01*
X512100Y40900D02*
X536600D01*
X512100Y3900D02*
X536600D01*
Y31400D02*
Y40900D01*
X512100Y31400D02*
Y40900D01*
Y3900D02*
Y13400D01*
X536600Y3900D02*
Y13400D01*
X29500Y195200D02*
X54000D01*
X29500Y158200D02*
X54000D01*
Y185700D02*
Y195200D01*
X29500Y185700D02*
Y195200D01*
Y158200D02*
Y167700D01*
X54000Y158200D02*
Y167700D01*
X59500Y195000D02*
X84000D01*
X59500Y158000D02*
X84000D01*
Y185500D02*
Y195000D01*
X59500Y185500D02*
Y195000D01*
Y158000D02*
Y167500D01*
X84000Y158000D02*
Y167500D01*
X421600Y81100D02*
X446100D01*
X421600Y44100D02*
X446100D01*
Y71600D02*
Y81100D01*
X421600Y71600D02*
Y81100D01*
Y44100D02*
Y53600D01*
X446100Y44100D02*
Y53600D01*
X31800Y54300D02*
X56300D01*
X31800Y17300D02*
X56300D01*
Y44800D02*
Y54300D01*
X31800Y44800D02*
Y54300D01*
Y17300D02*
Y26800D01*
X56300Y17300D02*
Y26800D01*
X512300Y77900D02*
X536800D01*
X512300Y40900D02*
X536800D01*
Y68400D02*
Y77900D01*
X512300Y68400D02*
Y77900D01*
Y40900D02*
Y50400D01*
X536800Y40900D02*
Y50400D01*
X441500Y130900D02*
X447500D01*
X441500Y142600D02*
X447500D01*
X441500Y130900D02*
Y135100D01*
X447500Y130900D02*
Y135100D01*
Y138100D02*
Y142600D01*
X441500Y138100D02*
Y142600D01*
X94125Y171775D02*
Y176275D01*
X87125Y171775D02*
Y176275D01*
Y179275D02*
Y184275D01*
X94125Y179275D02*
Y184275D01*
X87125Y171775D02*
X94125D01*
X87125Y184275D02*
X94125D01*
Y157475D02*
Y161975D01*
X87125Y157475D02*
Y161975D01*
Y164975D02*
Y169975D01*
X94125Y164975D02*
Y169975D01*
X87125Y157475D02*
X94125D01*
X87125Y169975D02*
X94125D01*
X89925Y137150D02*
Y141650D01*
X96925Y137150D02*
Y141650D01*
Y129150D02*
Y134150D01*
X89925Y129150D02*
Y134150D01*
Y141650D02*
X96925D01*
X89925Y129150D02*
X96925D01*
X89925Y121050D02*
Y125550D01*
X96925Y121050D02*
Y125550D01*
Y113050D02*
Y118050D01*
X89925Y113050D02*
Y118050D01*
Y125550D02*
X96925D01*
X89925Y113050D02*
X96925D01*
X391600Y57000D02*
Y61500D01*
X384600Y57000D02*
Y61500D01*
Y64500D02*
Y69500D01*
X391600Y64500D02*
Y69500D01*
X384600Y57000D02*
X391600D01*
X384600Y69500D02*
X391600D01*
X391800Y71200D02*
Y75700D01*
X384800Y71200D02*
Y75700D01*
Y78700D02*
Y83700D01*
X391800Y78700D02*
Y83700D01*
X384800Y71200D02*
X391800D01*
X384800Y83700D02*
X391800D01*
X533600Y255300D02*
X538100D01*
X533600Y262300D02*
X538100D01*
X541100D02*
X546100D01*
X541100Y255300D02*
X546100D01*
X533600D02*
Y262300D01*
X546100Y255300D02*
Y262300D01*
X551800Y255100D02*
X556300D01*
X551800Y262100D02*
X556300D01*
X559300D02*
X564300D01*
X559300Y255100D02*
X564300D01*
X551800D02*
Y262100D01*
X564300Y255100D02*
Y262100D01*
X574300Y262200D02*
X578800D01*
X574300Y255200D02*
X578800D01*
X566300D02*
X571300D01*
X566300Y262200D02*
X571300D01*
X578800Y255200D02*
Y262200D01*
X566300Y255200D02*
Y262200D01*
X600900Y54700D02*
X609900D01*
X600900Y73700D02*
X609900D01*
X600900Y54700D02*
Y62200D01*
X609900Y54700D02*
Y62200D01*
Y66200D02*
Y73700D01*
X600900Y66200D02*
Y73700D01*
X245700Y82100D02*
X270200D01*
X245700Y45100D02*
X270200D01*
Y72600D02*
Y82100D01*
X245700Y72600D02*
Y82100D01*
Y45100D02*
Y54600D01*
X270200Y45100D02*
Y54600D01*
X181700Y196300D02*
Y200800D01*
X188700Y196300D02*
Y200800D01*
Y188300D02*
Y193300D01*
X181700Y188300D02*
Y193300D01*
Y200800D02*
X188700D01*
X181700Y188300D02*
X188700D01*
D80*
X88455Y203116D02*
G03*
X88455Y205084I0J984D01*
G01*
X451600Y142519D02*
G03*
X451600Y144881I0J1181D01*
G01*
X88258Y192978D02*
X120739D01*
Y214632D01*
X88357D02*
X120739D01*
X88258Y192879D02*
Y203116D01*
X88357Y205222D02*
Y214533D01*
X230866Y157461D02*
Y159332D01*
Y157461D02*
X232736D01*
X238248D02*
X239134D01*
Y158347D01*
Y164351D02*
Y165139D01*
X238445D02*
X239134D01*
X230866Y164351D02*
Y165139D01*
X231555D01*
X451600Y149507D02*
X471600D01*
Y137007D02*
Y149507D01*
X451600Y137007D02*
X471600D01*
X451600D02*
Y142519D01*
Y144881D02*
Y149507D01*
D81*
X238800Y157100D02*
X241600D01*
X238800Y153700D02*
X241600D01*
X237900Y165300D02*
X240700D01*
X237900Y168700D02*
X240700D01*
X239500Y149900D02*
X242300D01*
X239500Y153300D02*
X242300D01*
X239400Y146600D02*
X242200D01*
X239400Y150000D02*
X242200D01*
X231700Y167800D02*
Y170600D01*
X235100Y167800D02*
Y170600D01*
X231700Y167700D02*
Y170500D01*
X228300Y167700D02*
Y170500D01*
X227200Y155800D02*
Y158600D01*
X230600Y155800D02*
Y158600D01*
X229700Y153500D02*
X232500D01*
X229700Y150100D02*
X232500D01*
D82*
X227052Y172074D02*
X227091D01*
X227347Y171287D02*
X227387D01*
X226284Y172468D02*
X226324D01*
X225261Y172527D02*
X225300D01*
X227347Y170361D02*
X227387D01*
X218706Y171739D02*
X226579D01*
Y169279D02*
Y171739D01*
Y161897D02*
Y164357D01*
X218706Y161897D02*
X226579D01*
X201973D02*
Y165300D01*
Y168450D02*
Y171739D01*
X209552D01*
X201973Y161897D02*
X209552D01*
X226579Y165399D02*
Y168295D01*
X227052Y158238D02*
X227091D01*
X227347Y157450D02*
X227387D01*
X226284Y158632D02*
X226324D01*
X225261Y158691D02*
X225300D01*
X227347Y156525D02*
X227387D01*
X218706Y157903D02*
X226579D01*
Y155443D02*
Y157903D01*
Y148061D02*
Y150521D01*
X218706Y148061D02*
X226579D01*
X201973D02*
Y151464D01*
Y154614D02*
Y157903D01*
X209552D01*
X201973Y148061D02*
X209552D01*
X226579Y151563D02*
Y154458D01*
X127700Y214399D02*
Y211900D01*
X127200Y211400D01*
X126200D01*
X125701Y211900D01*
Y214399D01*
X122702Y211400D02*
X124701D01*
X122702Y213399D01*
Y213899D01*
X123201Y214399D01*
X124201D01*
X124701Y213899D01*
X481300Y150899D02*
Y148400D01*
X480800Y147900D01*
X479801D01*
X479301Y148400D01*
Y150899D01*
X478301Y147900D02*
X477301D01*
X477801D01*
Y150899D01*
X478301Y150399D01*
X475802D02*
X475302Y150899D01*
X474302D01*
X473802Y150399D01*
Y149899D01*
X474302Y149399D01*
X473802Y148900D01*
Y148400D01*
X474302Y147900D01*
X475302D01*
X475802Y148400D01*
Y148900D01*
X475302Y149399D01*
X475802Y149899D01*
Y150399D01*
X475302Y149399D02*
X474302D01*
X259201Y144199D02*
X259700Y144699D01*
X260700D01*
X261200Y144199D01*
Y142200D01*
X260700Y141700D01*
X259700D01*
X259201Y142200D01*
X256202Y141700D02*
X258201D01*
X256202Y143699D01*
Y144199D01*
X256701Y144699D01*
X257701D01*
X258201Y144199D01*
X255202Y141700D02*
X254202D01*
X254702D01*
Y144699D01*
X255202Y144199D01*
X252703Y141200D02*
X250703D01*
X247704Y144699D02*
X249704D01*
Y143200D01*
X248704D01*
X249704D01*
Y141700D01*
X251201Y172699D02*
X251700Y173199D01*
X252700D01*
X253200Y172699D01*
Y170700D01*
X252700Y170200D01*
X251700D01*
X251201Y170700D01*
X248202Y170200D02*
X250201D01*
X248202Y172199D01*
Y172699D01*
X248702Y173199D01*
X249701D01*
X250201Y172699D01*
X245203Y170200D02*
X247202D01*
X245203Y172199D01*
Y172699D01*
X245702Y173199D01*
X246702D01*
X247202Y172699D01*
X244203Y169700D02*
X242204D01*
X239205Y173199D02*
X241204D01*
Y171700D01*
X240204D01*
X241204D01*
Y170200D01*
X200299Y195899D02*
X200799Y195399D01*
Y194400D01*
X200299Y193900D01*
X198300D01*
X197800Y194400D01*
Y195399D01*
X198300Y195899D01*
X197800Y198898D02*
Y196899D01*
X199799Y198898D01*
X200299D01*
X200799Y198399D01*
Y197399D01*
X200299Y196899D01*
X197800Y201398D02*
X200799D01*
X199300Y199898D01*
Y201897D01*
X197300Y202897D02*
Y204896D01*
X200799Y207895D02*
Y205896D01*
X199300D01*
Y206896D01*
Y205896D01*
X197800D01*
X208599Y195699D02*
X209099Y195200D01*
Y194200D01*
X208599Y193700D01*
X206600D01*
X206100Y194200D01*
Y195200D01*
X206600Y195699D01*
X206100Y198698D02*
Y196699D01*
X208099Y198698D01*
X208599D01*
X209099Y198199D01*
Y197199D01*
X208599Y196699D01*
X209099Y201697D02*
Y199698D01*
X207599D01*
X208099Y200698D01*
Y201198D01*
X207599Y201697D01*
X206600D01*
X206100Y201198D01*
Y200198D01*
X206600Y199698D01*
X205600Y202697D02*
Y204696D01*
X209099Y207696D02*
Y205696D01*
X207599D01*
Y206696D01*
Y205696D01*
X206100D01*
X216899Y195699D02*
X217399Y195200D01*
Y194200D01*
X216899Y193700D01*
X214900D01*
X214400Y194200D01*
Y195200D01*
X214900Y195699D01*
X216899Y196699D02*
X217399Y197199D01*
Y198199D01*
X216899Y198698D01*
X216399D01*
X215899Y198199D01*
Y197699D01*
Y198199D01*
X215400Y198698D01*
X214900D01*
X214400Y198199D01*
Y197199D01*
X214900Y196699D01*
X216899Y199698D02*
X217399Y200198D01*
Y201198D01*
X216899Y201697D01*
X216399D01*
X215899Y201198D01*
Y200698D01*
Y201198D01*
X215400Y201697D01*
X214900D01*
X214400Y201198D01*
Y200198D01*
X214900Y199698D01*
X213900Y202697D02*
Y204696D01*
X217399Y207696D02*
Y205696D01*
X215899D01*
Y206696D01*
Y205696D01*
X214400D01*
X226299Y195699D02*
X226799Y195200D01*
Y194200D01*
X226299Y193700D01*
X224300D01*
X223800Y194200D01*
Y195200D01*
X224300Y195699D01*
X226299Y196699D02*
X226799Y197199D01*
Y198199D01*
X226299Y198698D01*
X225799D01*
X225300Y198199D01*
Y197699D01*
Y198199D01*
X224800Y198698D01*
X224300D01*
X223800Y198199D01*
Y197199D01*
X224300Y196699D01*
X223800Y201198D02*
X226799D01*
X225300Y199698D01*
Y201697D01*
X223300Y202697D02*
Y204696D01*
X226799Y207696D02*
Y205696D01*
X225300D01*
Y206696D01*
Y205696D01*
X223800D01*
X259201Y139899D02*
X259700Y140399D01*
X260700D01*
X261200Y139899D01*
Y137900D01*
X260700Y137400D01*
X259700D01*
X259201Y137900D01*
X258201Y139899D02*
X257701Y140399D01*
X256701D01*
X256202Y139899D01*
Y139399D01*
X256701Y138900D01*
X257201D01*
X256701D01*
X256202Y138400D01*
Y137900D01*
X256701Y137400D01*
X257701D01*
X258201Y137900D01*
X255202Y140399D02*
X253203D01*
Y139899D01*
X255202Y137900D01*
Y137400D01*
X252203Y136900D02*
X250204D01*
X247204Y140399D02*
X249204D01*
Y138900D01*
X248204D01*
X249204D01*
Y137400D01*
X259201Y135599D02*
X259700Y136099D01*
X260700D01*
X261200Y135599D01*
Y133600D01*
X260700Y133100D01*
X259700D01*
X259201Y133600D01*
X258201Y135599D02*
X257701Y136099D01*
X256701D01*
X256202Y135599D01*
Y135099D01*
X256701Y134599D01*
X257201D01*
X256701D01*
X256202Y134100D01*
Y133600D01*
X256701Y133100D01*
X257701D01*
X258201Y133600D01*
X255202Y135599D02*
X254702Y136099D01*
X253702D01*
X253203Y135599D01*
Y135099D01*
X253702Y134599D01*
X253203Y134100D01*
Y133600D01*
X253702Y133100D01*
X254702D01*
X255202Y133600D01*
Y134100D01*
X254702Y134599D01*
X255202Y135099D01*
Y135599D01*
X254702Y134599D02*
X253702D01*
X252203Y132600D02*
X250204D01*
X247204Y136099D02*
X249204D01*
Y134599D01*
X248204D01*
X249204D01*
Y133100D01*
X197401Y165100D02*
Y167099D01*
X197900Y167599D01*
X198900D01*
X199400Y167099D01*
Y165100D01*
X198900Y164600D01*
X197900D01*
X198400Y165600D02*
X197401Y164600D01*
X197900D02*
X197401Y165100D01*
X196401Y164600D02*
X195401D01*
X195901D01*
Y167599D01*
X196401Y167099D01*
X193902Y164100D02*
X191902D01*
X188903Y167599D02*
X190903D01*
Y166100D01*
X189903D01*
X190903D01*
Y164600D01*
X197401Y154700D02*
Y156699D01*
X197900Y157199D01*
X198900D01*
X199400Y156699D01*
Y154700D01*
X198900Y154200D01*
X197900D01*
X198400Y155200D02*
X197401Y154200D01*
X197900D02*
X197401Y154700D01*
X194402Y154200D02*
X196401D01*
X194402Y156199D01*
Y156699D01*
X194901Y157199D01*
X195901D01*
X196401Y156699D01*
X193402Y153700D02*
X191403D01*
X188404Y157199D02*
X190403D01*
Y155700D01*
X189403D01*
X190403D01*
Y154200D01*
X262800Y177000D02*
X265799D01*
Y178499D01*
X265299Y178999D01*
X264300D01*
X263800Y178499D01*
Y177000D01*
Y178000D02*
X262800Y178999D01*
Y181499D02*
X265799D01*
X264300Y179999D01*
Y181998D01*
X262300Y182998D02*
Y184997D01*
X265799Y187996D02*
Y185997D01*
X264300D01*
Y186997D01*
Y185997D01*
X262800D01*
X258700Y177000D02*
X261699D01*
Y178499D01*
X261199Y178999D01*
X260199D01*
X259700Y178499D01*
Y177000D01*
Y178000D02*
X258700Y178999D01*
X261699Y181998D02*
Y179999D01*
X260199D01*
X260699Y180999D01*
Y181499D01*
X260199Y181998D01*
X259200D01*
X258700Y181499D01*
Y180499D01*
X259200Y179999D01*
X258200Y182998D02*
Y184997D01*
X261699Y187996D02*
Y185997D01*
X260199D01*
Y186997D01*
Y185997D01*
X258700D01*
X230100Y136400D02*
X233099D01*
Y137899D01*
X232599Y138399D01*
X231599D01*
X231100Y137899D01*
Y136400D01*
Y137400D02*
X230100Y138399D01*
X233099Y141398D02*
X232599Y140399D01*
X231599Y139399D01*
X230600D01*
X230100Y139899D01*
Y140899D01*
X230600Y141398D01*
X231100D01*
X231599Y140899D01*
Y139399D01*
X229600Y142398D02*
Y144397D01*
X233099Y147396D02*
Y145397D01*
X231599D01*
Y146397D01*
Y145397D01*
X230100D01*
X237100Y131100D02*
Y134099D01*
X235600D01*
X235101Y133599D01*
Y132599D01*
X235600Y132100D01*
X237100D01*
X236100D02*
X235101Y131100D01*
X234101Y134099D02*
X232102D01*
Y133599D01*
X234101Y131600D01*
Y131100D01*
X231102Y130600D02*
X229103D01*
X226104Y134099D02*
X228103D01*
Y132599D01*
X227103D01*
X228103D01*
Y131100D01*
X261200Y148999D02*
Y146500D01*
X260700Y146000D01*
X259700D01*
X259201Y146500D01*
Y148999D01*
X258201Y148499D02*
X257701Y148999D01*
X256701D01*
X256202Y148499D01*
Y147999D01*
X256701Y147500D01*
X257201D01*
X256701D01*
X256202Y147000D01*
Y146500D01*
X256701Y146000D01*
X257701D01*
X258201Y146500D01*
X255202Y145500D02*
X253203D01*
X250204Y148999D02*
X252203D01*
Y147500D01*
X251203D01*
X252203D01*
Y146000D01*
X549100Y90499D02*
Y88000D01*
X548600Y87500D01*
X547601D01*
X547101Y88000D01*
Y90499D01*
X546101Y88000D02*
X545601Y87500D01*
X544601D01*
X544102Y88000D01*
Y89999D01*
X544601Y90499D01*
X545601D01*
X546101Y89999D01*
Y89499D01*
X545601Y88999D01*
X544102D01*
X561500Y186199D02*
Y183700D01*
X561000Y183200D01*
X560001D01*
X559501Y183700D01*
Y186199D01*
X558501Y183200D02*
X557501D01*
X558001D01*
Y186199D01*
X558501Y185699D01*
X556002Y183700D02*
X555502Y183200D01*
X554502D01*
X554002Y183700D01*
Y185699D01*
X554502Y186199D01*
X555502D01*
X556002Y185699D01*
Y185199D01*
X555502Y184699D01*
X554002D01*
X580900Y85899D02*
Y83400D01*
X580400Y82900D01*
X579400D01*
X578901Y83400D01*
Y85899D01*
X575902D02*
X576901Y85399D01*
X577901Y84399D01*
Y83400D01*
X577401Y82900D01*
X576402D01*
X575902Y83400D01*
Y83900D01*
X576402Y84399D01*
X577901D01*
X187100Y169900D02*
Y172899D01*
X185600D01*
X185101Y172399D01*
Y171399D01*
X185600Y170900D01*
X187100D01*
X186100D02*
X185101Y169900D01*
X184101Y172399D02*
X183601Y172899D01*
X182601D01*
X182102Y172399D01*
Y171899D01*
X182601Y171399D01*
X183101D01*
X182601D01*
X182102Y170900D01*
Y170400D01*
X182601Y169900D01*
X183601D01*
X184101Y170400D01*
X554700Y147600D02*
Y150599D01*
X553200D01*
X552701Y150099D01*
Y149100D01*
X553200Y148600D01*
X554700D01*
X553700D02*
X552701Y147600D01*
X549702Y150599D02*
X551701D01*
Y149100D01*
X550701Y149599D01*
X550202D01*
X549702Y149100D01*
Y148100D01*
X550202Y147600D01*
X551201D01*
X551701Y148100D01*
X546703Y147600D02*
X548702D01*
X546703Y149599D01*
Y150099D01*
X547202Y150599D01*
X548202D01*
X548702Y150099D01*
X553900Y157000D02*
Y159999D01*
X552400D01*
X551901Y159499D01*
Y158500D01*
X552400Y158000D01*
X553900D01*
X552900D02*
X551901Y157000D01*
X548902Y159999D02*
X550901D01*
Y158500D01*
X549901Y158999D01*
X549402D01*
X548902Y158500D01*
Y157500D01*
X549402Y157000D01*
X550401D01*
X550901Y157500D01*
X547902Y157000D02*
X546902D01*
X547402D01*
Y159999D01*
X547902Y159499D01*
X560300Y201500D02*
Y204499D01*
X558801D01*
X558301Y203999D01*
Y202999D01*
X558801Y202500D01*
X560300D01*
X559300D02*
X558301Y201500D01*
X555302Y204499D02*
X557301D01*
Y202999D01*
X556301Y203499D01*
X555801D01*
X555302Y202999D01*
Y202000D01*
X555801Y201500D01*
X556801D01*
X557301Y202000D01*
X554302Y203999D02*
X553802Y204499D01*
X552802D01*
X552303Y203999D01*
Y202000D01*
X552802Y201500D01*
X553802D01*
X554302Y202000D01*
Y203999D01*
X578600Y156200D02*
Y159199D01*
X577101D01*
X576601Y158699D01*
Y157700D01*
X577101Y157200D01*
X578600D01*
X577600D02*
X576601Y156200D01*
X574101D02*
Y159199D01*
X575601Y157700D01*
X573602D01*
X572602Y156700D02*
X572102Y156200D01*
X571102D01*
X570603Y156700D01*
Y158699D01*
X571102Y159199D01*
X572102D01*
X572602Y158699D01*
Y158199D01*
X572102Y157700D01*
X570603D01*
X578600Y147100D02*
Y150099D01*
X577101D01*
X576601Y149599D01*
Y148600D01*
X577101Y148100D01*
X578600D01*
X577600D02*
X576601Y147100D01*
X574101D02*
Y150099D01*
X575601Y148600D01*
X573602D01*
X572602Y149599D02*
X572102Y150099D01*
X571102D01*
X570603Y149599D01*
Y149099D01*
X571102Y148600D01*
X570603Y148100D01*
Y147600D01*
X571102Y147100D01*
X572102D01*
X572602Y147600D01*
Y148100D01*
X572102Y148600D01*
X572602Y149099D01*
Y149599D01*
X572102Y148600D02*
X571102D01*
X592700Y163700D02*
Y166699D01*
X591200D01*
X590701Y166199D01*
Y165199D01*
X591200Y164700D01*
X592700D01*
X591700D02*
X590701Y163700D01*
X588202D02*
Y166699D01*
X589701Y165199D01*
X587702D01*
X586702Y166699D02*
X584703D01*
Y166199D01*
X586702Y164200D01*
Y163700D01*
X483000Y141700D02*
Y144699D01*
X481500D01*
X481001Y144199D01*
Y143200D01*
X481500Y142700D01*
X483000D01*
X482000D02*
X481001Y141700D01*
X478502D02*
Y144699D01*
X480001Y143200D01*
X478002D01*
X475003Y144699D02*
X476002Y144199D01*
X477002Y143200D01*
Y142200D01*
X476502Y141700D01*
X475502D01*
X475003Y142200D01*
Y142700D01*
X475502Y143200D01*
X477002D01*
X458700Y174800D02*
Y177799D01*
X457200D01*
X456701Y177299D01*
Y176300D01*
X457200Y175800D01*
X458700D01*
X457700D02*
X456701Y174800D01*
X454202D02*
Y177799D01*
X455701Y176300D01*
X453702D01*
X450703Y177799D02*
X452702D01*
Y176300D01*
X451702Y176799D01*
X451202D01*
X450703Y176300D01*
Y175300D01*
X451202Y174800D01*
X452202D01*
X452702Y175300D01*
X447800Y174800D02*
Y177799D01*
X446301D01*
X445801Y177299D01*
Y176300D01*
X446301Y175800D01*
X447800D01*
X446800D02*
X445801Y174800D01*
X443301D02*
Y177799D01*
X444801Y176300D01*
X442802D01*
X440302Y174800D02*
Y177799D01*
X441802Y176300D01*
X439803D01*
X106700Y122100D02*
Y125099D01*
X105201D01*
X104701Y124599D01*
Y123600D01*
X105201Y123100D01*
X106700D01*
X105700D02*
X104701Y122100D01*
X102201D02*
Y125099D01*
X103701Y123600D01*
X101702D01*
X100702Y122100D02*
X99702D01*
X100202D01*
Y125099D01*
X100702Y124599D01*
X107900Y138600D02*
Y141599D01*
X106401D01*
X105901Y141099D01*
Y140100D01*
X106401Y139600D01*
X107900D01*
X106900D02*
X105901Y138600D01*
X103401D02*
Y141599D01*
X104901Y140100D01*
X102902D01*
X101902Y141099D02*
X101402Y141599D01*
X100402D01*
X99903Y141099D01*
Y139100D01*
X100402Y138600D01*
X101402D01*
X101902Y139100D01*
Y141099D01*
X72300Y138300D02*
Y141299D01*
X70801D01*
X70301Y140799D01*
Y139799D01*
X70801Y139300D01*
X72300D01*
X71300D02*
X70301Y138300D01*
X69301Y140799D02*
X68801Y141299D01*
X67801D01*
X67302Y140799D01*
Y140299D01*
X67801Y139799D01*
X68301D01*
X67801D01*
X67302Y139300D01*
Y138800D01*
X67801Y138300D01*
X68801D01*
X69301Y138800D01*
X66302Y141299D02*
X64303D01*
Y140799D01*
X66302Y138800D01*
Y138300D01*
X72800Y121900D02*
Y124899D01*
X71301D01*
X70801Y124399D01*
Y123399D01*
X71301Y122900D01*
X72800D01*
X71800D02*
X70801Y121900D01*
X69801Y124399D02*
X69301Y124899D01*
X68301D01*
X67802Y124399D01*
Y123899D01*
X68301Y123399D01*
X68801D01*
X68301D01*
X67802Y122900D01*
Y122400D01*
X68301Y121900D01*
X69301D01*
X69801Y122400D01*
X64803Y124899D02*
X65802Y124399D01*
X66802Y123399D01*
Y122400D01*
X66302Y121900D01*
X65302D01*
X64803Y122400D01*
Y122900D01*
X65302Y123399D01*
X66802D01*
X80200Y213900D02*
Y216899D01*
X78701D01*
X78201Y216399D01*
Y215400D01*
X78701Y214900D01*
X80200D01*
X79200D02*
X78201Y213900D01*
X77201Y216399D02*
X76701Y216899D01*
X75701D01*
X75202Y216399D01*
Y215899D01*
X75701Y215400D01*
X76201D01*
X75701D01*
X75202Y214900D01*
Y214400D01*
X75701Y213900D01*
X76701D01*
X77201Y214400D01*
X74202Y216399D02*
X73702Y216899D01*
X72702D01*
X72203Y216399D01*
Y215899D01*
X72702Y215400D01*
X73202D01*
X72702D01*
X72203Y214900D01*
Y214400D01*
X72702Y213900D01*
X73702D01*
X74202Y214400D01*
X63600Y213900D02*
Y216899D01*
X62100D01*
X61601Y216399D01*
Y215400D01*
X62100Y214900D01*
X63600D01*
X62600D02*
X61601Y213900D01*
X60601Y216399D02*
X60101Y216899D01*
X59101D01*
X58602Y216399D01*
Y215899D01*
X59101Y215400D01*
X59601D01*
X59101D01*
X58602Y214900D01*
Y214400D01*
X59101Y213900D01*
X60101D01*
X60601Y214400D01*
X55603Y213900D02*
X57602D01*
X55603Y215899D01*
Y216399D01*
X56102Y216899D01*
X57102D01*
X57602Y216399D01*
X479600Y180900D02*
Y183899D01*
X478100D01*
X477601Y183399D01*
Y182399D01*
X478100Y181900D01*
X479600D01*
X478600D02*
X477601Y180900D01*
X474602D02*
X476601D01*
X474602Y182899D01*
Y183399D01*
X475102Y183899D01*
X476101D01*
X476601Y183399D01*
X473602Y180900D02*
X472602D01*
X473102D01*
Y183899D01*
X473602Y183399D01*
X469800Y180900D02*
Y183899D01*
X468300D01*
X467801Y183399D01*
Y182399D01*
X468300Y181900D01*
X469800D01*
X468800D02*
X467801Y180900D01*
X464802D02*
X466801D01*
X464802Y182899D01*
Y183399D01*
X465302Y183899D01*
X466301D01*
X466801Y183399D01*
X463802D02*
X463302Y183899D01*
X462302D01*
X461803Y183399D01*
Y181400D01*
X462302Y180900D01*
X463302D01*
X463802Y181400D01*
Y183399D01*
X599201Y189999D02*
X599700Y190499D01*
X600700D01*
X601200Y189999D01*
Y188000D01*
X600700Y187500D01*
X599700D01*
X599201Y188000D01*
X596202Y190499D02*
X598201D01*
Y188999D01*
X597201Y189499D01*
X596701D01*
X596202Y188999D01*
Y188000D01*
X596701Y187500D01*
X597701D01*
X598201Y188000D01*
X593203Y190499D02*
X595202D01*
Y188999D01*
X594202Y189499D01*
X593702D01*
X593203Y188999D01*
Y188000D01*
X593702Y187500D01*
X594702D01*
X595202Y188000D01*
X598501Y179899D02*
X599001Y180399D01*
X600000D01*
X600500Y179899D01*
Y177900D01*
X600000Y177400D01*
X599001D01*
X598501Y177900D01*
X595502Y180399D02*
X597501D01*
Y178900D01*
X596501Y179399D01*
X596001D01*
X595502Y178900D01*
Y177900D01*
X596001Y177400D01*
X597001D01*
X597501Y177900D01*
X593002Y177400D02*
Y180399D01*
X594502Y178900D01*
X592503D01*
X431201Y157599D02*
X431701Y158099D01*
X432700D01*
X433200Y157599D01*
Y155600D01*
X432700Y155100D01*
X431701D01*
X431201Y155600D01*
X428202Y158099D02*
X430201D01*
Y156599D01*
X429201Y157099D01*
X428701D01*
X428202Y156599D01*
Y155600D01*
X428701Y155100D01*
X429701D01*
X430201Y155600D01*
X427202Y157599D02*
X426702Y158099D01*
X425702D01*
X425203Y157599D01*
Y157099D01*
X425702Y156599D01*
X426202D01*
X425702D01*
X425203Y156100D01*
Y155600D01*
X425702Y155100D01*
X426702D01*
X427202Y155600D01*
X340801Y274399D02*
X341301Y274899D01*
X342300D01*
X342800Y274399D01*
Y272400D01*
X342300Y271900D01*
X341301D01*
X340801Y272400D01*
X338301Y271900D02*
Y274899D01*
X339801Y273399D01*
X337802D01*
X334803Y274899D02*
X335802Y274399D01*
X336802Y273399D01*
Y272400D01*
X336302Y271900D01*
X335302D01*
X334803Y272400D01*
Y272900D01*
X335302Y273399D01*
X336802D01*
X287101Y142499D02*
X287600Y142999D01*
X288600D01*
X289100Y142499D01*
Y140500D01*
X288600Y140000D01*
X287600D01*
X287101Y140500D01*
X284601Y140000D02*
Y142999D01*
X286101Y141499D01*
X284102D01*
X281103Y142999D02*
X283102D01*
Y141499D01*
X282102Y141999D01*
X281602D01*
X281103Y141499D01*
Y140500D01*
X281602Y140000D01*
X282602D01*
X283102Y140500D01*
X322401Y274799D02*
X322901Y275299D01*
X323900D01*
X324400Y274799D01*
Y272800D01*
X323900Y272300D01*
X322901D01*
X322401Y272800D01*
X319901Y272300D02*
Y275299D01*
X321401Y273799D01*
X319402D01*
X318402Y272300D02*
X317402D01*
X317902D01*
Y275299D01*
X318402Y274799D01*
X298301Y142599D02*
X298800Y143099D01*
X299800D01*
X300300Y142599D01*
Y140600D01*
X299800Y140100D01*
X298800D01*
X298301Y140600D01*
X295801Y140100D02*
Y143099D01*
X297301Y141600D01*
X295302D01*
X294302Y142599D02*
X293802Y143099D01*
X292802D01*
X292303Y142599D01*
Y140600D01*
X292802Y140100D01*
X293802D01*
X294302Y140600D01*
Y142599D01*
X379401Y274299D02*
X379901Y274799D01*
X380900D01*
X381400Y274299D01*
Y272300D01*
X380900Y271800D01*
X379901D01*
X379401Y272300D01*
X378401Y274299D02*
X377901Y274799D01*
X376902D01*
X376402Y274299D01*
Y273799D01*
X376902Y273300D01*
X377401D01*
X376902D01*
X376402Y272800D01*
Y272300D01*
X376902Y271800D01*
X377901D01*
X378401Y272300D01*
X375402D02*
X374902Y271800D01*
X373902D01*
X373403Y272300D01*
Y274299D01*
X373902Y274799D01*
X374902D01*
X375402Y274299D01*
Y273799D01*
X374902Y273300D01*
X373403D01*
X12801Y101599D02*
X13300Y102099D01*
X14300D01*
X14800Y101599D01*
Y99600D01*
X14300Y99100D01*
X13300D01*
X12801Y99600D01*
X11801Y101599D02*
X11301Y102099D01*
X10301D01*
X9802Y101599D01*
Y101099D01*
X10301Y100600D01*
X10801D01*
X10301D01*
X9802Y100100D01*
Y99600D01*
X10301Y99100D01*
X11301D01*
X11801Y99600D01*
X6803Y102099D02*
X7802Y101599D01*
X8802Y100600D01*
Y99600D01*
X8302Y99100D01*
X7302D01*
X6803Y99600D01*
Y100100D01*
X7302Y100600D01*
X8802D01*
X11801Y153499D02*
X12301Y153999D01*
X13300D01*
X13800Y153499D01*
Y151500D01*
X13300Y151000D01*
X12301D01*
X11801Y151500D01*
X10801Y153499D02*
X10301Y153999D01*
X9301D01*
X8802Y153499D01*
Y152999D01*
X9301Y152499D01*
X9801D01*
X9301D01*
X8802Y152000D01*
Y151500D01*
X9301Y151000D01*
X10301D01*
X10801Y151500D01*
X5803Y153999D02*
X7802D01*
Y152499D01*
X6802Y152999D01*
X6302D01*
X5803Y152499D01*
Y151500D01*
X6302Y151000D01*
X7302D01*
X7802Y151500D01*
X595501Y78299D02*
X596000Y78799D01*
X597000D01*
X597500Y78299D01*
Y76300D01*
X597000Y75800D01*
X596000D01*
X595501Y76300D01*
X594501Y78299D02*
X594001Y78799D01*
X593002D01*
X592502Y78299D01*
Y77799D01*
X593002Y77299D01*
X593501D01*
X593002D01*
X592502Y76800D01*
Y76300D01*
X593002Y75800D01*
X594001D01*
X594501Y76300D01*
X589503Y75800D02*
X591502D01*
X589503Y77799D01*
Y78299D01*
X590002Y78799D01*
X591002D01*
X591502Y78299D01*
X568101Y62899D02*
X568601Y63399D01*
X569600D01*
X570100Y62899D01*
Y60900D01*
X569600Y60400D01*
X568601D01*
X568101Y60900D01*
X567101Y62899D02*
X566601Y63399D01*
X565601D01*
X565102Y62899D01*
Y62399D01*
X565601Y61900D01*
X566101D01*
X565601D01*
X565102Y61400D01*
Y60900D01*
X565601Y60400D01*
X566601D01*
X567101Y60900D01*
X564102Y60400D02*
X563102D01*
X563602D01*
Y63399D01*
X564102Y62899D01*
X136949Y250799D02*
X137449Y251299D01*
X138448D01*
X138948Y250799D01*
Y248800D01*
X138448Y248300D01*
X137449D01*
X136949Y248800D01*
X133950Y248300D02*
X135949D01*
X133950Y250299D01*
Y250799D01*
X134450Y251299D01*
X135449D01*
X135949Y250799D01*
X132950Y248800D02*
X132450Y248300D01*
X131450D01*
X130951Y248800D01*
Y250799D01*
X131450Y251299D01*
X132450D01*
X132950Y250799D01*
Y250299D01*
X132450Y249799D01*
X130951D01*
X593001Y87099D02*
X593501Y87599D01*
X594500D01*
X595000Y87099D01*
Y85100D01*
X594500Y84600D01*
X593501D01*
X593001Y85100D01*
X590002Y84600D02*
X592001D01*
X590002Y86599D01*
Y87099D01*
X590501Y87599D01*
X591501D01*
X592001Y87099D01*
X589002D02*
X588502Y87599D01*
X587502D01*
X587003Y87099D01*
Y86599D01*
X587502Y86099D01*
X588002D01*
X587502D01*
X587003Y85600D01*
Y85100D01*
X587502Y84600D01*
X588502D01*
X589002Y85100D01*
X543501Y36199D02*
X544000Y36699D01*
X545000D01*
X545500Y36199D01*
Y34200D01*
X545000Y33700D01*
X544000D01*
X543501Y34200D01*
X542501Y33700D02*
X541501D01*
X542001D01*
Y36699D01*
X542501Y36199D01*
X540002Y34200D02*
X539502Y33700D01*
X538502D01*
X538002Y34200D01*
Y36199D01*
X538502Y36699D01*
X539502D01*
X540002Y36199D01*
Y35699D01*
X539502Y35199D01*
X538002D01*
X50801Y199699D02*
X51301Y200199D01*
X52300D01*
X52800Y199699D01*
Y197700D01*
X52300Y197200D01*
X51301D01*
X50801Y197700D01*
X49801Y197200D02*
X48801D01*
X49301D01*
Y200199D01*
X49801Y199699D01*
X47302Y200199D02*
X45302D01*
Y199699D01*
X47302Y197700D01*
Y197200D01*
X78401Y199299D02*
X78900Y199799D01*
X79900D01*
X80400Y199299D01*
Y197300D01*
X79900Y196800D01*
X78900D01*
X78401Y197300D01*
X77401Y196800D02*
X76401D01*
X76901D01*
Y199799D01*
X77401Y199299D01*
X72902Y199799D02*
X73902Y199299D01*
X74902Y198300D01*
Y197300D01*
X74402Y196800D01*
X73402D01*
X72902Y197300D01*
Y197800D01*
X73402Y198300D01*
X74902D01*
X277901Y78499D02*
X278400Y78999D01*
X279400D01*
X279900Y78499D01*
Y76500D01*
X279400Y76000D01*
X278400D01*
X277901Y76500D01*
X276901Y76000D02*
X275901D01*
X276401D01*
Y78999D01*
X276901Y78499D01*
X272902Y76000D02*
Y78999D01*
X274402Y77500D01*
X272402D01*
X449701Y86199D02*
X450201Y86699D01*
X451200D01*
X451700Y86199D01*
Y84200D01*
X451200Y83700D01*
X450201D01*
X449701Y84200D01*
X448701Y83700D02*
X447701D01*
X448201D01*
Y86699D01*
X448701Y86199D01*
X446202D02*
X445702Y86699D01*
X444702D01*
X444202Y86199D01*
Y85699D01*
X444702Y85199D01*
X445202D01*
X444702D01*
X444202Y84700D01*
Y84200D01*
X444702Y83700D01*
X445702D01*
X446202Y84200D01*
X52401Y59099D02*
X52900Y59599D01*
X53900D01*
X54400Y59099D01*
Y57100D01*
X53900Y56600D01*
X52900D01*
X52401Y57100D01*
X51401Y59099D02*
X50901Y59599D01*
X49901D01*
X49402Y59099D01*
Y58599D01*
X49901Y58100D01*
X49402Y57600D01*
Y57100D01*
X49901Y56600D01*
X50901D01*
X51401Y57100D01*
Y57600D01*
X50901Y58100D01*
X51401Y58599D01*
Y59099D01*
X50901Y58100D02*
X49901D01*
X542801Y76599D02*
X543300Y77099D01*
X544300D01*
X544800Y76599D01*
Y74600D01*
X544300Y74100D01*
X543300D01*
X542801Y74600D01*
X541801Y76599D02*
X541301Y77099D01*
X540302D01*
X539802Y76599D01*
Y76099D01*
X540302Y75599D01*
X540801D01*
X540302D01*
X539802Y75100D01*
Y74600D01*
X540302Y74100D01*
X541301D01*
X541801Y74600D01*
X437401Y141699D02*
X437900Y142199D01*
X438900D01*
X439400Y141699D01*
Y139700D01*
X438900Y139200D01*
X437900D01*
X437401Y139700D01*
X434402Y142199D02*
X435401Y141699D01*
X436401Y140700D01*
Y139700D01*
X435901Y139200D01*
X434902D01*
X434402Y139700D01*
Y140200D01*
X434902Y140700D01*
X436401D01*
X433402Y141699D02*
X432902Y142199D01*
X431902D01*
X431403Y141699D01*
Y139700D01*
X431902Y139200D01*
X432902D01*
X433402Y139700D01*
Y141699D01*
X188800Y204900D02*
Y207899D01*
X187301D01*
X186801Y207399D01*
Y206399D01*
X187301Y205900D01*
X188800D01*
X187800D02*
X186801Y204900D01*
X183802Y207899D02*
X185801D01*
Y206399D01*
X184801Y206899D01*
X184301D01*
X183802Y206399D01*
Y205400D01*
X184301Y204900D01*
X185301D01*
X185801Y205400D01*
X180803Y207899D02*
X181802Y207399D01*
X182802Y206399D01*
Y205400D01*
X182302Y204900D01*
X181302D01*
X180803Y205400D01*
Y205900D01*
X181302Y206399D01*
X182802D01*
X55701Y84799D02*
X56200Y85299D01*
X57200D01*
X57700Y84799D01*
Y82800D01*
X57200Y82300D01*
X56200D01*
X55701Y82800D01*
X54701Y82300D02*
X53701D01*
X54201D01*
Y85299D01*
X54701Y84799D01*
X576601Y253099D02*
X577101Y253599D01*
X578100D01*
X578600Y253099D01*
Y251100D01*
X578100Y250600D01*
X577101D01*
X576601Y251100D01*
X573602Y253599D02*
X575601D01*
Y252099D01*
X574601Y252599D01*
X574101D01*
X573602Y252099D01*
Y251100D01*
X574101Y250600D01*
X575101D01*
X575601Y251100D01*
X572602Y253599D02*
X570603D01*
Y253099D01*
X572602Y251100D01*
Y250600D01*
X561101Y249499D02*
X561600Y249999D01*
X562600D01*
X563100Y249499D01*
Y247500D01*
X562600Y247000D01*
X561600D01*
X561101Y247500D01*
X558102Y249999D02*
X560101D01*
Y248499D01*
X559101Y248999D01*
X558602D01*
X558102Y248499D01*
Y247500D01*
X558602Y247000D01*
X559601D01*
X560101Y247500D01*
X557102Y249499D02*
X556602Y249999D01*
X555602D01*
X555103Y249499D01*
Y248999D01*
X555602Y248499D01*
X555103Y248000D01*
Y247500D01*
X555602Y247000D01*
X556602D01*
X557102Y247500D01*
Y248000D01*
X556602Y248499D01*
X557102Y248999D01*
Y249499D01*
X556602Y248499D02*
X555602D01*
X543501Y252799D02*
X544000Y253299D01*
X545000D01*
X545500Y252799D01*
Y250800D01*
X545000Y250300D01*
X544000D01*
X543501Y250800D01*
X540502Y253299D02*
X542501D01*
Y251800D01*
X541501Y252299D01*
X541002D01*
X540502Y251800D01*
Y250800D01*
X541002Y250300D01*
X542001D01*
X542501Y250800D01*
X539502D02*
X539002Y250300D01*
X538002D01*
X537503Y250800D01*
Y252799D01*
X538002Y253299D01*
X539002D01*
X539502Y252799D01*
Y252299D01*
X539002Y251800D01*
X537503D01*
X100800Y180400D02*
Y183399D01*
X99300D01*
X98801Y182899D01*
Y181899D01*
X99300Y181400D01*
X100800D01*
X99800D02*
X98801Y180400D01*
X97801D02*
X96801D01*
X97301D01*
Y183399D01*
X97801Y182899D01*
X609800Y75500D02*
Y78499D01*
X608300D01*
X607801Y77999D01*
Y76999D01*
X608300Y76500D01*
X609800D01*
X608800D02*
X607801Y75500D01*
X604802D02*
X606801D01*
X604802Y77499D01*
Y77999D01*
X605302Y78499D01*
X606301D01*
X606801Y77999D01*
X382500Y80700D02*
Y83699D01*
X381000D01*
X380501Y83199D01*
Y82200D01*
X381000Y81700D01*
X382500D01*
X381500D02*
X380501Y80700D01*
X377502Y83699D02*
X379501D01*
Y82200D01*
X378501Y82699D01*
X378001D01*
X377502Y82200D01*
Y81200D01*
X378001Y80700D01*
X379001D01*
X379501Y81200D01*
X375002Y80700D02*
Y83699D01*
X376502Y82200D01*
X374503D01*
X104000Y166400D02*
Y169399D01*
X102500D01*
X102001Y168899D01*
Y167900D01*
X102500Y167400D01*
X104000D01*
X103000D02*
X102001Y166400D01*
X99002Y169399D02*
X101001D01*
Y167900D01*
X100001Y168399D01*
X99501D01*
X99002Y167900D01*
Y166900D01*
X99501Y166400D01*
X100501D01*
X101001Y166900D01*
X96003Y169399D02*
X98002D01*
Y167900D01*
X97002Y168399D01*
X96502D01*
X96003Y167900D01*
Y166900D01*
X96502Y166400D01*
X97502D01*
X98002Y166900D01*
X382300Y65800D02*
Y68799D01*
X380801D01*
X380301Y68299D01*
Y67299D01*
X380801Y66800D01*
X382300D01*
X381300D02*
X380301Y65800D01*
X377302Y68799D02*
X379301D01*
Y67299D01*
X378301Y67799D01*
X377801D01*
X377302Y67299D01*
Y66300D01*
X377801Y65800D01*
X378801D01*
X379301Y66300D01*
X376302Y68799D02*
X374303D01*
Y68299D01*
X376302Y66300D01*
Y65800D01*
X514399Y486499D02*
X514899Y485999D01*
Y485000D01*
X514399Y484500D01*
X512400D01*
X511900Y485000D01*
Y485999D01*
X512400Y486499D01*
X513400D01*
Y485500D01*
X511900Y487499D02*
X514899D01*
X511900Y489498D01*
X514899D01*
Y490498D02*
X511900D01*
Y491998D01*
X512400Y492497D01*
X514399D01*
X514899Y491998D01*
Y490498D01*
X511400Y493497D02*
Y495496D01*
X514399Y498495D02*
X514899Y497996D01*
Y496996D01*
X514399Y496496D01*
X513899D01*
X513400Y496996D01*
Y497996D01*
X512900Y498495D01*
X512400D01*
X511900Y497996D01*
Y496996D01*
X512400Y496496D01*
X514899Y501495D02*
Y499495D01*
X511900D01*
Y501495D01*
X513400Y499495D02*
Y500495D01*
X514399Y504494D02*
X514899Y503994D01*
Y502994D01*
X514399Y502494D01*
X512400D01*
X511900Y502994D01*
Y503994D01*
X512400Y504494D01*
M02*
