G04 Layer_Color=255*
%FSLAX25Y25*%
%MOIN*%
G70*
G01*
G75*
%ADD10R,0.03000X0.03000*%
%ADD11R,0.03000X0.03000*%
%ADD15R,0.02500X0.02000*%
%ADD16R,0.05000X0.06000*%
G04:AMPARAMS|DCode=17|XSize=10.63mil|YSize=31.26mil|CornerRadius=2.66mil|HoleSize=0mil|Usage=FLASHONLY|Rotation=0.000|XOffset=0mil|YOffset=0mil|HoleType=Round|Shape=RoundedRectangle|*
%AMROUNDEDRECTD17*
21,1,0.01063,0.02594,0,0,0.0*
21,1,0.00532,0.03126,0,0,0.0*
1,1,0.00532,0.00266,-0.01297*
1,1,0.00532,-0.00266,-0.01297*
1,1,0.00532,-0.00266,0.01297*
1,1,0.00532,0.00266,0.01297*
%
%ADD17ROUNDEDRECTD17*%
G04:AMPARAMS|DCode=18|XSize=10.63mil|YSize=31.32mil|CornerRadius=2.66mil|HoleSize=0mil|Usage=FLASHONLY|Rotation=0.000|XOffset=0mil|YOffset=0mil|HoleType=Round|Shape=RoundedRectangle|*
%AMROUNDEDRECTD18*
21,1,0.01063,0.02600,0,0,0.0*
21,1,0.00532,0.03132,0,0,0.0*
1,1,0.00532,0.00266,-0.01300*
1,1,0.00532,-0.00266,-0.01300*
1,1,0.00532,-0.00266,0.01300*
1,1,0.00532,0.00266,0.01300*
%
%ADD18ROUNDEDRECTD18*%
%ADD19R,0.02000X0.02500*%
%ADD20C,0.00906*%
%ADD23O,0.01614X0.06299*%
%ADD24R,0.01614X0.06299*%
%ADD33R,0.20000X0.07500*%
%ADD51C,0.03150*%
%ADD52C,0.14961*%
%ADD53R,0.06299X0.06299*%
%ADD54C,0.06299*%
%ADD55C,0.05905*%
%ADD56R,0.05905X0.05905*%
%ADD57R,0.09842X0.09842*%
%ADD58C,0.09842*%
%ADD59C,0.01968*%
%ADD60R,0.09842X0.09842*%
%ADD61C,0.11811*%
%ADD62C,0.06693*%
%ADD63R,0.05905X0.05905*%
%ADD64C,0.05000*%
%ADD65R,0.11811X0.29528*%
%ADD71R,0.06496X0.05591*%
%ADD72R,0.01378X0.05591*%
%ADD73R,0.14173X0.05591*%
G04:AMPARAMS|DCode=74|XSize=72mil|YSize=15mil|CornerRadius=3.75mil|HoleSize=0mil|Usage=FLASHONLY|Rotation=270.000|XOffset=0mil|YOffset=0mil|HoleType=Round|Shape=RoundedRectangle|*
%AMROUNDEDRECTD74*
21,1,0.07200,0.00750,0,0,270.0*
21,1,0.06450,0.01500,0,0,270.0*
1,1,0.00750,-0.00375,-0.03225*
1,1,0.00750,-0.00375,0.03225*
1,1,0.00750,0.00375,0.03225*
1,1,0.00750,0.00375,-0.03225*
%
%ADD74ROUNDEDRECTD74*%
%ADD75R,0.02200X0.05800*%
%ADD76R,0.06000X0.05000*%
D10*
X78450Y132699D02*
D03*
Y138199D02*
D03*
X78626Y116050D02*
D03*
Y121550D02*
D03*
X562600Y144300D02*
D03*
Y149800D02*
D03*
X562800Y159600D02*
D03*
Y165100D02*
D03*
X593700Y69300D02*
D03*
Y63800D02*
D03*
X185100Y177800D02*
D03*
Y183300D02*
D03*
X540800Y149700D02*
D03*
Y144200D02*
D03*
Y165400D02*
D03*
Y159900D02*
D03*
X479100Y130400D02*
D03*
Y135900D02*
D03*
X476400Y168900D02*
D03*
Y174400D02*
D03*
X466500Y169100D02*
D03*
Y174600D02*
D03*
X285500Y134500D02*
D03*
Y129000D02*
D03*
X296300Y134800D02*
D03*
Y129300D02*
D03*
X10300Y92600D02*
D03*
Y87100D02*
D03*
X124448Y242700D02*
D03*
Y248200D02*
D03*
X90625Y175275D02*
D03*
Y180775D02*
D03*
Y160975D02*
D03*
Y166475D02*
D03*
X93426Y138150D02*
D03*
Y132650D02*
D03*
Y122050D02*
D03*
Y116550D02*
D03*
X388100Y60500D02*
D03*
Y66000D02*
D03*
X388300Y74700D02*
D03*
Y80200D02*
D03*
X185200Y197300D02*
D03*
Y191800D02*
D03*
D11*
X54500Y207300D02*
D03*
X60000D02*
D03*
X71100D02*
D03*
X76600D02*
D03*
X54100Y75700D02*
D03*
X48600D02*
D03*
X565700Y201325D02*
D03*
X571200D02*
D03*
X575900Y167825D02*
D03*
X570400D02*
D03*
X581200Y188925D02*
D03*
X586700D02*
D03*
X581200Y178925D02*
D03*
X586700D02*
D03*
X444000Y154000D02*
D03*
X438500D02*
D03*
X353000Y273000D02*
D03*
X347500D02*
D03*
X368700D02*
D03*
X363200D02*
D03*
X567900Y55100D02*
D03*
X562400D02*
D03*
X600700Y85800D02*
D03*
X606200D02*
D03*
X537100Y258800D02*
D03*
X542600D02*
D03*
X555300Y258600D02*
D03*
X560800D02*
D03*
X575300Y258700D02*
D03*
X569800D02*
D03*
D15*
X237700Y155400D02*
D03*
X242700D02*
D03*
X241800Y167000D02*
D03*
X236800D02*
D03*
X243400Y151600D02*
D03*
X238400D02*
D03*
X243300Y148300D02*
D03*
X238300D02*
D03*
X228600Y151800D02*
D03*
X233600D02*
D03*
D16*
X198700Y178000D02*
D03*
Y187000D02*
D03*
X207400Y178000D02*
D03*
Y187000D02*
D03*
X215700Y178000D02*
D03*
Y187000D02*
D03*
X223800Y178000D02*
D03*
Y187000D02*
D03*
X8600Y135200D02*
D03*
Y144200D02*
D03*
X605400Y59700D02*
D03*
Y68700D02*
D03*
D17*
X225300Y164200D02*
D03*
X223725Y169436D02*
D03*
X222150D02*
D03*
X220576D02*
D03*
X214276D02*
D03*
X212702D02*
D03*
X215851D02*
D03*
X217426D02*
D03*
X207977D02*
D03*
X206402D02*
D03*
X209552D02*
D03*
X211127D02*
D03*
X203253D02*
D03*
X204828D02*
D03*
Y164200D02*
D03*
X203253D02*
D03*
X211127D02*
D03*
X209552D02*
D03*
X206402D02*
D03*
X207977D02*
D03*
X217426D02*
D03*
X215851D02*
D03*
X212702D02*
D03*
X214276D02*
D03*
X220576D02*
D03*
X219001D02*
D03*
X222150D02*
D03*
X223725D02*
D03*
X225300Y169436D02*
D03*
X225300Y150364D02*
D03*
X223725Y155600D02*
D03*
X222150D02*
D03*
X220576D02*
D03*
X214276D02*
D03*
X212702D02*
D03*
X215851D02*
D03*
X217426D02*
D03*
X207977D02*
D03*
X206402D02*
D03*
X209552D02*
D03*
X211127D02*
D03*
X203253D02*
D03*
X204828D02*
D03*
Y150364D02*
D03*
X203253D02*
D03*
X211127D02*
D03*
X209552D02*
D03*
X206402D02*
D03*
X207977D02*
D03*
X217426D02*
D03*
X215851D02*
D03*
X212702D02*
D03*
X214276D02*
D03*
X220576D02*
D03*
X219001D02*
D03*
X222150D02*
D03*
X223725D02*
D03*
X225300Y155600D02*
D03*
D18*
X219001Y169436D02*
D03*
Y155600D02*
D03*
D19*
X233400Y166700D02*
D03*
Y171700D02*
D03*
X230000Y171600D02*
D03*
Y166600D02*
D03*
X228900Y154700D02*
D03*
Y159700D02*
D03*
X452900Y169600D02*
D03*
Y164600D02*
D03*
X444800Y169700D02*
D03*
Y164700D02*
D03*
X444500Y134100D02*
D03*
Y139100D02*
D03*
D20*
X237362Y163662D02*
D03*
X235787D02*
D03*
X234213Y163662D02*
D03*
X232638D02*
D03*
X237362Y162087D02*
D03*
X232638Y162087D02*
D03*
X237362Y160513D02*
D03*
X232638Y160513D02*
D03*
X237362Y158938D02*
D03*
X235787D02*
D03*
X234213Y158938D02*
D03*
X232638D02*
D03*
D23*
X470350Y133070D02*
D03*
X467850D02*
D03*
X465350D02*
D03*
X462850D02*
D03*
X460350D02*
D03*
X457850D02*
D03*
X455350D02*
D03*
X452850D02*
D03*
X470350Y154330D02*
D03*
X467850D02*
D03*
X465350D02*
D03*
X462850D02*
D03*
X460350D02*
D03*
X457850D02*
D03*
X455350D02*
D03*
D24*
X452850D02*
D03*
D33*
X524600Y34900D02*
D03*
Y9900D02*
D03*
X42000Y189200D02*
D03*
Y164200D02*
D03*
X72000Y189000D02*
D03*
Y164000D02*
D03*
X434100Y75100D02*
D03*
Y50100D02*
D03*
X44300Y48300D02*
D03*
Y23300D02*
D03*
X524800Y71900D02*
D03*
Y46900D02*
D03*
X258200Y76100D02*
D03*
Y51100D02*
D03*
D51*
X556200Y14800D02*
D03*
X426500Y11600D02*
D03*
X435200Y7600D02*
D03*
X563022Y108500D02*
D03*
X560400Y101700D02*
D03*
X527300Y253700D02*
D03*
X459900Y244900D02*
D03*
X465600Y249800D02*
D03*
X474800Y250300D02*
D03*
X481700Y249300D02*
D03*
X519200Y251000D02*
D03*
X479000Y220100D02*
D03*
X465900Y231400D02*
D03*
X443400Y228400D02*
D03*
X436400Y227900D02*
D03*
X429400Y227800D02*
D03*
X425100Y232100D02*
D03*
X397600Y232700D02*
D03*
X397100Y226800D02*
D03*
X372700Y228400D02*
D03*
X384800Y240000D02*
D03*
X346400Y227500D02*
D03*
X338200Y222100D02*
D03*
X605500Y24200D02*
D03*
X54500Y219900D02*
D03*
X69400Y115800D02*
D03*
X102600Y121900D02*
D03*
X249300Y113800D02*
D03*
X615000Y23900D02*
D03*
X389200Y230100D02*
D03*
X236000Y251000D02*
D03*
X57700Y153300D02*
D03*
X273100Y110800D02*
D03*
X320000Y236300D02*
D03*
X315900Y141900D02*
D03*
X609200Y256000D02*
D03*
X497500Y233600D02*
D03*
X305500Y237300D02*
D03*
X266700Y218900D02*
D03*
X312700Y236800D02*
D03*
X198300Y150900D02*
D03*
Y145000D02*
D03*
X405000Y145900D02*
D03*
X404800Y136800D02*
D03*
X503100Y59300D02*
D03*
X141192Y102525D02*
D03*
X140492Y45400D02*
D03*
X306400Y151350D02*
D03*
X503100Y53000D02*
D03*
X141192Y108425D02*
D03*
X140492Y51300D02*
D03*
X306400Y145450D02*
D03*
X462700Y107400D02*
D03*
X450200Y107300D02*
D03*
D52*
X142200Y198821D02*
D03*
Y138979D02*
D03*
D53*
X505900Y199900D02*
D03*
D54*
X495900D02*
D03*
X485900D02*
D03*
X475900D02*
D03*
X455900D02*
D03*
X445900D02*
D03*
X435900D02*
D03*
X425900D02*
D03*
X505900Y119900D02*
D03*
X490900D02*
D03*
X475900D02*
D03*
X455900D02*
D03*
X440900D02*
D03*
X425900D02*
D03*
D55*
X599100Y279400D02*
D03*
Y269400D02*
D03*
X589100Y279400D02*
D03*
Y269400D02*
D03*
X579100Y279400D02*
D03*
Y269400D02*
D03*
X569100Y279400D02*
D03*
Y269400D02*
D03*
X559100Y279400D02*
D03*
Y269400D02*
D03*
X549100Y279400D02*
D03*
Y269400D02*
D03*
X539100Y279400D02*
D03*
Y269400D02*
D03*
X529100Y279400D02*
D03*
Y269400D02*
D03*
X519100Y279400D02*
D03*
Y269400D02*
D03*
X509100Y279400D02*
D03*
Y269400D02*
D03*
X499100Y279400D02*
D03*
Y269400D02*
D03*
X489100Y279400D02*
D03*
Y269400D02*
D03*
X479100Y279400D02*
D03*
Y269400D02*
D03*
X469100Y279400D02*
D03*
Y269400D02*
D03*
X459100Y279400D02*
D03*
Y269400D02*
D03*
X449100Y279400D02*
D03*
Y269400D02*
D03*
X439100Y279400D02*
D03*
Y269400D02*
D03*
X429100Y279400D02*
D03*
Y269400D02*
D03*
X419100Y279400D02*
D03*
Y269400D02*
D03*
X409100Y279400D02*
D03*
Y269400D02*
D03*
X399100D02*
D03*
X389100Y279400D02*
D03*
X399100D02*
D03*
X32200Y227200D02*
D03*
D56*
X389100Y269400D02*
D03*
D57*
X7000Y211286D02*
D03*
X614000Y222600D02*
D03*
X7400Y229700D02*
D03*
X7700Y54886D02*
D03*
D58*
X7000Y164514D02*
D03*
Y195695D02*
D03*
Y180105D02*
D03*
X524000Y122600D02*
D03*
X539000D02*
D03*
X554000D02*
D03*
X584000D02*
D03*
X599000D02*
D03*
X614000D02*
D03*
X524000Y222600D02*
D03*
X539000D02*
D03*
X554000D02*
D03*
X584000D02*
D03*
X599000D02*
D03*
X7400Y245290D02*
D03*
X498886Y7700D02*
D03*
X467705D02*
D03*
X483295D02*
D03*
X7700Y8114D02*
D03*
Y39295D02*
D03*
Y23705D02*
D03*
D59*
X84448Y260600D02*
D03*
X88779D02*
D03*
X84448Y255482D02*
D03*
X88779D02*
D03*
Y265718D02*
D03*
X84448D02*
D03*
Y250364D02*
D03*
X88779D02*
D03*
D60*
X452114Y7700D02*
D03*
D61*
X409600Y81570D02*
D03*
Y42200D02*
D03*
X231000Y81700D02*
D03*
Y42330D02*
D03*
X321600Y40500D02*
D03*
Y79870D02*
D03*
D62*
X299400Y261400D02*
D03*
X309400D02*
D03*
X319400D02*
D03*
X359400D02*
D03*
X369400D02*
D03*
X349400D02*
D03*
X339400D02*
D03*
D63*
X32200Y217200D02*
D03*
D64*
X20900Y105800D02*
D03*
Y85800D02*
D03*
Y75800D02*
D03*
Y95800D02*
D03*
Y125800D02*
D03*
Y135800D02*
D03*
Y145800D02*
D03*
D65*
X108895Y88700D02*
D03*
X88305Y23700D02*
D03*
D71*
X92884Y219100D02*
D03*
X115916D02*
D03*
D72*
X100561D02*
D03*
X103121D02*
D03*
X105680D02*
D03*
X108239D02*
D03*
X110798D02*
D03*
X98002D02*
D03*
D73*
X96723Y189100D02*
D03*
X112077D02*
D03*
D74*
X552961Y70500D02*
D03*
X555520D02*
D03*
X558079D02*
D03*
X560639D02*
D03*
Y87500D02*
D03*
X558079D02*
D03*
X555520D02*
D03*
X552961D02*
D03*
X582838Y75700D02*
D03*
X580279D02*
D03*
X577720D02*
D03*
X575161D02*
D03*
Y58700D02*
D03*
X577720D02*
D03*
X580279D02*
D03*
X582838D02*
D03*
D75*
X565460Y179225D02*
D03*
X572940D02*
D03*
Y188625D02*
D03*
X569200D02*
D03*
X565460D02*
D03*
D76*
X300300Y274200D02*
D03*
X309300D02*
D03*
M02*
