G04 Layer_Physical_Order=1*
G04 Layer_Color=255*
%FSLAX25Y25*%
%MOIN*%
G70*
G01*
G75*
%ADD10R,0.03000X0.03000*%
%ADD11R,0.03000X0.03000*%
%ADD12O,0.09252X0.04724*%
%ADD13R,0.09252X0.04724*%
%ADD14R,0.28504X0.16732*%
%ADD15R,0.02500X0.02000*%
%ADD16R,0.05000X0.06000*%
G04:AMPARAMS|DCode=17|XSize=10.63mil|YSize=31.26mil|CornerRadius=2.66mil|HoleSize=0mil|Usage=FLASHONLY|Rotation=0.000|XOffset=0mil|YOffset=0mil|HoleType=Round|Shape=RoundedRectangle|*
%AMROUNDEDRECTD17*
21,1,0.01063,0.02594,0,0,0.0*
21,1,0.00532,0.03126,0,0,0.0*
1,1,0.00532,0.00266,-0.01297*
1,1,0.00532,-0.00266,-0.01297*
1,1,0.00532,-0.00266,0.01297*
1,1,0.00532,0.00266,0.01297*
%
%ADD17ROUNDEDRECTD17*%
G04:AMPARAMS|DCode=18|XSize=10.63mil|YSize=31.32mil|CornerRadius=2.66mil|HoleSize=0mil|Usage=FLASHONLY|Rotation=0.000|XOffset=0mil|YOffset=0mil|HoleType=Round|Shape=RoundedRectangle|*
%AMROUNDEDRECTD18*
21,1,0.01063,0.02600,0,0,0.0*
21,1,0.00532,0.03132,0,0,0.0*
1,1,0.00532,0.00266,-0.01300*
1,1,0.00532,-0.00266,-0.01300*
1,1,0.00532,-0.00266,0.01300*
1,1,0.00532,0.00266,0.01300*
%
%ADD18ROUNDEDRECTD18*%
%ADD19R,0.02000X0.02500*%
%ADD20C,0.00906*%
%ADD21R,0.10000X0.06000*%
%ADD22R,0.06000X0.10000*%
%ADD23O,0.01614X0.06299*%
%ADD24R,0.01614X0.06299*%
%ADD25R,0.05800X0.02200*%
%ADD26R,0.03937X0.02362*%
%ADD27R,0.09842X0.13780*%
%ADD28R,0.09842X0.05118*%
%ADD29R,0.11614X0.19291*%
%ADD30R,0.05709X0.02362*%
%ADD31R,0.21260X0.11417*%
%ADD32R,0.06000X0.06000*%
%ADD33R,0.20000X0.07500*%
%ADD34R,0.03150X0.09449*%
%ADD35O,0.03150X0.09449*%
%ADD36O,0.03150X0.09449*%
%ADD37R,0.06000X0.12500*%
%ADD38C,0.00600*%
%ADD39C,0.00800*%
%ADD40C,0.01050*%
%ADD41C,0.01000*%
%ADD42C,0.01200*%
%ADD43C,0.01500*%
%ADD44C,0.03000*%
%ADD45C,0.02500*%
%ADD46C,0.02000*%
%ADD47C,0.04000*%
%ADD48R,0.13300X0.16800*%
%ADD49R,0.32700X0.06800*%
%ADD50R,0.32300X0.06800*%
%ADD51C,0.03150*%
%ADD52C,0.14961*%
%ADD53R,0.06299X0.06299*%
%ADD54C,0.06299*%
%ADD55C,0.05905*%
%ADD56R,0.05905X0.05905*%
%ADD57R,0.09842X0.09842*%
%ADD58C,0.09842*%
%ADD59C,0.01968*%
%ADD60R,0.09842X0.09842*%
%ADD61C,0.11811*%
%ADD62C,0.06693*%
%ADD63R,0.05905X0.05905*%
%ADD64C,0.05000*%
%ADD65R,0.11811X0.29528*%
%ADD66C,0.01000*%
%ADD67C,0.01500*%
%ADD68C,0.03000*%
%ADD69C,0.01400*%
%ADD70C,0.01200*%
G36*
X186292Y88125D02*
X186292Y85125D01*
X183292Y85125D01*
X182892Y85525D01*
X182892Y87325D01*
X181292Y88925D01*
X180543D01*
X180282Y89226D01*
X180215Y89259D01*
X180174Y89322D01*
X179958Y89466D01*
X179867Y89602D01*
X179842Y89725D01*
X180119Y90203D01*
X180138Y90225D01*
X184192D01*
X186292Y88125D01*
D02*
G37*
G36*
X179288Y89787D02*
X179283Y89763D01*
X179357Y89391D01*
X179568Y89076D01*
X179873Y88872D01*
X180902Y87685D01*
X181402Y87185D01*
Y85285D01*
X181202Y85084D01*
X178333D01*
X178202Y85215D01*
X178202Y90285D01*
X178955D01*
X179288Y89787D01*
D02*
G37*
G36*
X175892Y90325D02*
X175992Y90225D01*
Y89325D01*
X174192Y87725D01*
X174192Y85325D01*
X171792D01*
Y88125D01*
X172592Y88625D01*
X173320Y89080D01*
X175092Y90325D01*
X175892Y90325D01*
D02*
G37*
G36*
X173192Y94725D02*
Y94425D01*
X174192Y93425D01*
X174993D01*
X175092Y93384D01*
X175092Y93384D01*
X175934D01*
X176092Y93225D01*
Y92525D01*
X175992Y92425D01*
X170792D01*
X170692Y92525D01*
Y95025D01*
X170792Y95125D01*
X172792D01*
X173192Y94725D01*
D02*
G37*
G36*
X177592Y85742D02*
X177175Y85325D01*
X175292D01*
X175092Y85525D01*
Y87801D01*
X176132Y88725D01*
X176192D01*
X176692Y89225D01*
Y90225D01*
X177592D01*
X177592Y85742D01*
D02*
G37*
G36*
X168792Y85625D02*
X170892Y83525D01*
X177792D01*
Y80125D01*
X169692Y80125D01*
X167692Y82125D01*
X167692Y85625D01*
X168792Y85625D01*
D02*
G37*
G36*
X469200Y75900D02*
Y73624D01*
X468160Y72700D01*
X468100D01*
X467600Y72200D01*
Y71200D01*
X466700D01*
X466700Y75683D01*
X467117Y76100D01*
X469000D01*
X469200Y75900D01*
D02*
G37*
G36*
X461400Y75900D02*
X461400Y74100D01*
X463000Y72500D01*
X463749D01*
X464010Y72199D01*
X464077Y72165D01*
X464119Y72103D01*
X464334Y71959D01*
X464426Y71823D01*
X464450Y71700D01*
X464174Y71222D01*
X464154Y71200D01*
X460100D01*
X458000Y73300D01*
X458000Y76300D01*
X461000Y76300D01*
X461400Y75900D01*
D02*
G37*
G36*
X475904Y101100D02*
X507900Y101100D01*
Y101100D01*
X532500Y101100D01*
X535800Y97800D01*
Y67700D01*
X534800Y66700D01*
X534500Y67000D01*
X515000D01*
X512100Y69900D01*
Y79700D01*
X510435Y81365D01*
X507900Y81365D01*
Y81365D01*
X497200Y81365D01*
Y80360D01*
X497158Y80150D01*
X497176Y80061D01*
X497153Y79947D01*
Y78741D01*
X497152Y78733D01*
Y76139D01*
X497153Y76132D01*
Y73504D01*
X497152Y73497D01*
Y70903D01*
X496662Y70800D01*
X496483D01*
X495993Y70903D01*
Y73497D01*
X495992Y73504D01*
Y76132D01*
X495993Y76139D01*
Y78733D01*
X495992Y78741D01*
Y80150D01*
X495916Y80530D01*
X495701Y80853D01*
X495378Y81068D01*
X494998Y81144D01*
X494617Y81068D01*
X494295Y80853D01*
X494079Y80530D01*
X494003Y80150D01*
Y78741D01*
X494002Y78733D01*
Y76139D01*
X494003Y76132D01*
Y73504D01*
X494002Y73497D01*
Y70903D01*
X493513Y70800D01*
X493333D01*
X492843Y70903D01*
Y73497D01*
X492842Y73504D01*
Y76132D01*
X492843Y76139D01*
Y78733D01*
X492842Y78741D01*
Y79852D01*
X492810Y80014D01*
X492837Y80150D01*
X492762Y80528D01*
X492547Y80849D01*
X492227Y81063D01*
X491848Y81139D01*
X491470Y81063D01*
X491149Y80849D01*
X490934Y80528D01*
X490859Y80150D01*
X490886Y80014D01*
X490854Y79852D01*
Y78741D01*
X490852Y78733D01*
Y76139D01*
X490854Y76132D01*
Y73504D01*
X490852Y73497D01*
Y70903D01*
X490363Y70800D01*
X489778D01*
X489694Y70903D01*
Y73497D01*
X489692Y73504D01*
Y76132D01*
X489694Y76139D01*
Y78733D01*
X489693Y78738D01*
X489693Y80149D01*
X489618Y80530D01*
X489402Y80852D01*
X489080Y81068D01*
X488700Y81144D01*
X488319Y81068D01*
X487997Y80853D01*
X487781Y80530D01*
X487705Y80150D01*
X487705Y78743D01*
X487703Y78733D01*
Y76139D01*
X487704Y76132D01*
Y73504D01*
X487703Y73497D01*
Y70903D01*
X487619Y70800D01*
X487034D01*
X486544Y70903D01*
Y73497D01*
X486543Y73504D01*
Y76132D01*
X486544Y76139D01*
Y78733D01*
X486543Y78741D01*
Y80151D01*
X486467Y80532D01*
X486252Y80854D01*
X485929Y81070D01*
X485549Y81145D01*
X485168Y81070D01*
X484846Y80854D01*
X484630Y80532D01*
X484555Y80151D01*
Y78741D01*
X484553Y78733D01*
Y76139D01*
X484555Y76132D01*
Y73504D01*
X484553Y73497D01*
Y70903D01*
X484064Y70800D01*
X483883D01*
X483395Y70903D01*
Y73497D01*
X483393Y73504D01*
Y76129D01*
X483395Y76136D01*
Y78736D01*
X483393Y78742D01*
X483394Y80149D01*
X483318Y80530D01*
X483103Y80852D01*
X482780Y81068D01*
X482400Y81144D01*
X482019Y81068D01*
X481697Y80853D01*
X481481Y80530D01*
X481406Y80150D01*
X481405Y78745D01*
X481404Y78736D01*
Y76136D01*
X481405Y76129D01*
Y73504D01*
X481404Y73497D01*
Y70903D01*
X480914Y70800D01*
X480294D01*
Y72050D01*
X480245Y72297D01*
Y73497D01*
X480244Y73504D01*
Y76132D01*
X480245Y76139D01*
Y77240D01*
X480294Y77487D01*
Y80000D01*
X480218Y80380D01*
X480003Y80703D01*
X479680Y80918D01*
X479300Y80994D01*
X478920Y80918D01*
X478597Y80703D01*
X478382Y80380D01*
X478306Y80000D01*
Y78994D01*
X478254Y78733D01*
Y76139D01*
X478256Y76132D01*
Y73504D01*
X478254Y73497D01*
Y70903D01*
X478170Y70800D01*
X477180D01*
X477096Y70903D01*
Y73497D01*
X477040Y73777D01*
X476882Y74013D01*
X476645Y74172D01*
X476500Y74200D01*
Y75213D01*
X476600Y75313D01*
X476944Y75456D01*
X477087Y75800D01*
Y76097D01*
X477096Y76139D01*
Y78733D01*
X477094Y78741D01*
Y78900D01*
X477087Y78935D01*
Y79300D01*
X476944Y79644D01*
X476500Y80089D01*
Y80500D01*
X474300Y82700D01*
X457000Y82700D01*
X445802Y71503D01*
X446100Y71230D01*
Y59300D01*
X474600Y30800D01*
Y2900D01*
X472669Y969D01*
X446257D01*
X445300Y1926D01*
Y26635D01*
X424027Y47908D01*
X404274Y67431D01*
D01*
X383353D01*
Y67431D01*
X238431Y67431D01*
X219600Y48600D01*
Y15500D01*
X207300Y3200D01*
X172892D01*
X135692Y3200D01*
X135692Y22935D01*
X146392Y22935D01*
Y23940D01*
X146434Y24150D01*
X146416Y24239D01*
X146439Y24353D01*
Y25303D01*
X146492Y25567D01*
Y28161D01*
X146439Y28424D01*
Y30539D01*
X146492Y30803D01*
Y33397D01*
X146576Y33500D01*
X147464D01*
X147548Y33397D01*
Y30803D01*
X147601Y30539D01*
Y28424D01*
X147548Y28161D01*
Y25567D01*
X147601Y25303D01*
Y24150D01*
X147676Y23770D01*
X147892Y23448D01*
X148214Y23232D01*
X148595Y23156D01*
X148975Y23232D01*
X149298Y23448D01*
X149513Y23770D01*
X149589Y24150D01*
Y25303D01*
X149641Y25567D01*
Y28161D01*
X149589Y28424D01*
Y30539D01*
X149641Y30803D01*
Y33397D01*
X149725Y33500D01*
X150613D01*
X150698Y33397D01*
Y30803D01*
X150750Y30539D01*
Y28424D01*
X150698Y28161D01*
Y25567D01*
X150750Y25303D01*
Y24448D01*
X150782Y24286D01*
X150755Y24150D01*
X150831Y23772D01*
X151045Y23451D01*
X151366Y23237D01*
X151744Y23161D01*
X152123Y23237D01*
X152444Y23451D01*
X152658Y23772D01*
X152733Y24150D01*
X152706Y24286D01*
X152738Y24448D01*
Y25303D01*
X152791Y25567D01*
Y28161D01*
X152738Y28424D01*
Y30539D01*
X152791Y30803D01*
Y33397D01*
X152875Y33500D01*
X153763D01*
X153847Y33397D01*
Y30803D01*
X153900Y30539D01*
Y28424D01*
X153847Y28161D01*
Y25567D01*
X153899Y25306D01*
X153899Y24151D01*
X153974Y23770D01*
X154190Y23448D01*
X154512Y23232D01*
X154893Y23156D01*
X155273Y23232D01*
X155596Y23447D01*
X155811Y23770D01*
X155887Y24150D01*
X155887Y25300D01*
X155940Y25567D01*
Y28161D01*
X155888Y28424D01*
Y30539D01*
X155940Y30803D01*
Y33397D01*
X156025Y33500D01*
X156913D01*
X156997Y33397D01*
Y30803D01*
X157049Y30539D01*
Y28424D01*
X156997Y28161D01*
Y25567D01*
X157049Y25303D01*
Y24149D01*
X157125Y23768D01*
X157341Y23446D01*
X157663Y23230D01*
X158044Y23155D01*
X158424Y23230D01*
X158746Y23446D01*
X158962Y23768D01*
X159038Y24149D01*
Y25303D01*
X159090Y25567D01*
Y28161D01*
X159038Y28424D01*
Y30539D01*
X159090Y30803D01*
Y33397D01*
X159174Y33500D01*
X160062D01*
X160147Y33397D01*
Y30803D01*
X160199Y30539D01*
Y28427D01*
X160147Y28164D01*
Y25564D01*
X160199Y25302D01*
X160198Y24151D01*
X160274Y23770D01*
X160490Y23448D01*
X160812Y23232D01*
X161193Y23156D01*
X161573Y23232D01*
X161895Y23447D01*
X162111Y23770D01*
X162187Y24150D01*
X162187Y25299D01*
X162240Y25564D01*
Y28164D01*
X162187Y28427D01*
Y30539D01*
X162240Y30803D01*
Y33397D01*
X162324Y33500D01*
X163212D01*
X163296Y33397D01*
Y30803D01*
X163349Y30539D01*
Y28424D01*
X163296Y28161D01*
Y25567D01*
X163349Y25303D01*
Y24489D01*
X163311Y24300D01*
X163386Y23922D01*
X163601Y23601D01*
X163921Y23386D01*
X164300Y23311D01*
X164679Y23386D01*
X164999Y23601D01*
X165009Y23615D01*
X165046Y23640D01*
X165261Y23962D01*
X165337Y24343D01*
Y25303D01*
X165389Y25567D01*
Y28161D01*
X165337Y28424D01*
Y30539D01*
X165389Y30803D01*
Y33397D01*
X165474Y33500D01*
X166361D01*
X166446Y33397D01*
Y30803D01*
X166505Y30504D01*
X166674Y30251D01*
X166928Y30081D01*
X167092Y30049D01*
Y29087D01*
X166992Y28987D01*
X166648Y28844D01*
X166505Y28500D01*
Y28460D01*
X166446Y28161D01*
Y25567D01*
X166505Y25268D01*
Y25000D01*
X166648Y24656D01*
X167092Y24211D01*
Y23800D01*
X173992Y16900D01*
X188000D01*
X197000Y25900D01*
Y60300D01*
X173242D01*
X173219Y60325D01*
X134700Y60325D01*
X134700Y80059D01*
X147092Y80059D01*
Y81065D01*
X147134Y81275D01*
X147116Y81364D01*
X147139Y81478D01*
Y82684D01*
X147141Y82691D01*
Y85286D01*
X147139Y85293D01*
Y87920D01*
X147141Y87928D01*
Y90522D01*
X147630Y90625D01*
X147810D01*
X148299Y90522D01*
Y87928D01*
X148301Y87920D01*
Y85293D01*
X148299Y85286D01*
Y82691D01*
X148301Y82684D01*
Y81275D01*
X148376Y80895D01*
X148592Y80572D01*
X148914Y80357D01*
X149295Y80281D01*
X149675Y80357D01*
X149998Y80572D01*
X150213Y80895D01*
X150289Y81275D01*
Y82684D01*
X150290Y82691D01*
Y85286D01*
X150289Y85293D01*
Y87920D01*
X150290Y87928D01*
Y90522D01*
X150779Y90625D01*
X150959D01*
X151449Y90522D01*
Y87928D01*
X151450Y87920D01*
Y85293D01*
X151449Y85286D01*
Y82691D01*
X151450Y82684D01*
Y81573D01*
X151482Y81411D01*
X151455Y81275D01*
X151531Y80897D01*
X151745Y80576D01*
X152066Y80361D01*
X152444Y80286D01*
X152823Y80361D01*
X153144Y80576D01*
X153358Y80897D01*
X153433Y81275D01*
X153406Y81411D01*
X153438Y81573D01*
Y82684D01*
X153440Y82691D01*
Y85286D01*
X153438Y85293D01*
Y87920D01*
X153440Y87928D01*
Y90522D01*
X153929Y90625D01*
X154514D01*
X154598Y90522D01*
Y87928D01*
X154600Y87920D01*
Y85293D01*
X154598Y85286D01*
Y82691D01*
X154599Y82686D01*
X154599Y81275D01*
X154674Y80895D01*
X154890Y80572D01*
X155212Y80357D01*
X155593Y80281D01*
X155973Y80357D01*
X156296Y80572D01*
X156511Y80895D01*
X156587Y81275D01*
X156588Y82682D01*
X156589Y82691D01*
Y85286D01*
X156588Y85293D01*
Y87920D01*
X156589Y87928D01*
Y90522D01*
X156674Y90625D01*
X157259D01*
X157748Y90522D01*
Y87928D01*
X157749Y87920D01*
Y85293D01*
X157748Y85286D01*
Y82691D01*
X157749Y82684D01*
Y81274D01*
X157825Y80893D01*
X158041Y80571D01*
X158363Y80355D01*
X158744Y80279D01*
X159124Y80355D01*
X159446Y80571D01*
X159662Y80893D01*
X159738Y81274D01*
Y82684D01*
X159739Y82691D01*
Y85286D01*
X159738Y85293D01*
Y87920D01*
X159739Y87928D01*
Y90522D01*
X160228Y90625D01*
X160409D01*
X160898Y90522D01*
Y87928D01*
X160899Y87920D01*
Y85296D01*
X160898Y85289D01*
Y82689D01*
X160899Y82683D01*
X160898Y81275D01*
X160974Y80895D01*
X161190Y80572D01*
X161512Y80357D01*
X161892Y80281D01*
X162273Y80357D01*
X162595Y80572D01*
X162811Y80895D01*
X162887Y81275D01*
X162887Y82680D01*
X162889Y82689D01*
Y85289D01*
X162887Y85296D01*
Y87920D01*
X162889Y87928D01*
Y90522D01*
X163378Y90625D01*
X163998D01*
Y89374D01*
X164047Y89128D01*
Y87928D01*
X164049Y87920D01*
Y85293D01*
X164047Y85286D01*
Y84184D01*
X163998Y83938D01*
Y81425D01*
X164074Y81044D01*
X164289Y80722D01*
X164612Y80506D01*
X164992Y80431D01*
X165373Y80506D01*
X165695Y80722D01*
X165911Y81044D01*
X165986Y81425D01*
Y82431D01*
X166038Y82691D01*
Y85286D01*
X166037Y85293D01*
Y87920D01*
X166038Y87928D01*
Y90522D01*
X166123Y90625D01*
X167113D01*
X167197Y90522D01*
Y87928D01*
X167252Y87648D01*
X167411Y87411D01*
X167647Y87253D01*
X167792Y87225D01*
Y86212D01*
X167692Y86112D01*
X167348Y85969D01*
X167205Y85625D01*
Y85328D01*
X167197Y85286D01*
Y82691D01*
X167198Y82684D01*
Y82525D01*
X167205Y82490D01*
Y82125D01*
X167348Y81780D01*
X167792Y81336D01*
Y80925D01*
X174692Y74025D01*
Y74000D01*
X182800D01*
X203800Y95000D01*
X222900D01*
X388495Y95000D01*
X388495Y95000D01*
X397500D01*
X403600Y101100D01*
X412300D01*
X475904Y101100D01*
Y101100D01*
D02*
G37*
G36*
X621300Y127200D02*
X620900Y126800D01*
Y104900D01*
X620800D01*
X613200Y97300D01*
X602000D01*
X595600Y90900D01*
X595600Y77100D01*
X565600D01*
X565600Y104100D01*
X574700Y113200D01*
X574700Y128000D01*
X575000D01*
X578600Y131600D01*
X616900D01*
X621300Y127200D01*
D02*
G37*
G36*
X474600Y81300D02*
X476600Y79300D01*
X476600Y75800D01*
X475500Y75800D01*
X473400Y77900D01*
X466500D01*
Y81300D01*
X474600Y81300D01*
D02*
G37*
G36*
X271000Y159557D02*
X271000Y158050D01*
X269100Y156150D01*
X269100Y150450D01*
X278000D01*
X278700Y151150D01*
Y151792D01*
X278711Y151931D01*
X278950Y152307D01*
X279182Y152354D01*
X279618D01*
X279755Y152326D01*
X279831Y152276D01*
X279881Y152200D01*
X279908Y152063D01*
Y149516D01*
X279925Y149475D01*
X279916Y149432D01*
X279981Y149330D01*
Y148650D01*
X279991Y148599D01*
X279986Y148573D01*
X280061Y148194D01*
X280276Y147873D01*
X280596Y147659D01*
X280975Y147584D01*
X281353Y147659D01*
X281674Y147873D01*
X281889Y148194D01*
X281964Y148573D01*
X281959Y148599D01*
X281969Y148650D01*
Y149330D01*
X282034Y149432D01*
X282024Y149475D01*
X282041Y149516D01*
Y152111D01*
X282040Y152113D01*
X282043Y152118D01*
Y154746D01*
X282040Y154751D01*
X282041Y154753D01*
Y157347D01*
X282040Y157349D01*
X282043Y157354D01*
Y157950D01*
X283057D01*
Y157354D01*
X283059Y157349D01*
X283058Y157347D01*
Y156153D01*
X283074Y156114D01*
X283067Y156078D01*
X283069Y156068D01*
X283067Y156058D01*
X283074Y156023D01*
X283058Y155983D01*
Y154753D01*
X283059Y154751D01*
X283057Y154746D01*
Y152118D01*
X283059Y152113D01*
X283058Y152111D01*
Y149516D01*
X283075Y149475D01*
X283065Y149432D01*
X283130Y149330D01*
Y148650D01*
X283140Y148599D01*
X283135Y148573D01*
X283211Y148194D01*
X283425Y147873D01*
X283746Y147659D01*
X284124Y147584D01*
X284503Y147659D01*
X284824Y147873D01*
X285038Y148194D01*
X285113Y148573D01*
X285108Y148599D01*
X285119Y148650D01*
Y149330D01*
X285183Y149432D01*
X285174Y149475D01*
X285191Y149516D01*
Y152111D01*
X285190Y152113D01*
X285192Y152118D01*
Y154743D01*
X285190Y154748D01*
X285191Y154750D01*
Y157350D01*
X285190Y157352D01*
X285192Y157357D01*
Y157950D01*
X286206D01*
Y157357D01*
X286208Y157352D01*
X286208Y157350D01*
Y154750D01*
X286208Y154748D01*
X286206Y154743D01*
Y152118D01*
X286208Y152113D01*
X286208Y152111D01*
Y149516D01*
X286225Y149475D01*
X286215Y149432D01*
X286280Y149330D01*
Y148576D01*
X286356Y148196D01*
X286571Y147873D01*
X286894Y147658D01*
X287274Y147582D01*
X287654Y147658D01*
X287977Y147873D01*
X288192Y148196D01*
X288268Y148576D01*
Y149330D01*
X288333Y149432D01*
X288323Y149475D01*
X288340Y149516D01*
Y152111D01*
X288340Y152113D01*
X288342Y152118D01*
Y154746D01*
X288340Y154751D01*
X288340Y154753D01*
Y157347D01*
X288340Y157349D01*
X288342Y157354D01*
Y157950D01*
X289356D01*
Y157354D01*
X289358Y157349D01*
X289357Y157347D01*
Y154753D01*
X289358Y154751D01*
X289356Y154746D01*
Y152118D01*
X289358Y152113D01*
X289357Y152111D01*
Y149516D01*
X289374Y149475D01*
X289365Y149432D01*
X289429Y149330D01*
Y148574D01*
X289505Y148193D01*
X289721Y147871D01*
X290043Y147655D01*
X290424Y147580D01*
X290804Y147655D01*
X291126Y147871D01*
X291342Y148193D01*
X291418Y148574D01*
Y149330D01*
X291483Y149432D01*
X291473Y149475D01*
X291490Y149516D01*
Y152111D01*
X291489Y152113D01*
X291491Y152118D01*
Y154746D01*
X291489Y154751D01*
X291490Y154753D01*
Y157347D01*
X291489Y157349D01*
X291491Y157354D01*
Y157950D01*
X292506D01*
Y157354D01*
X292508Y157349D01*
X292507Y157347D01*
Y154753D01*
X292508Y154751D01*
X292506Y154746D01*
Y152118D01*
X292508Y152113D01*
X292507Y152111D01*
Y149516D01*
X292524Y149475D01*
X292514Y149432D01*
X292579Y149330D01*
Y148577D01*
X292655Y148196D01*
X292870Y147874D01*
X293193Y147658D01*
X293573Y147583D01*
X293954Y147658D01*
X294276Y147874D01*
X294492Y148196D01*
X294567Y148577D01*
Y149330D01*
X294632Y149432D01*
X294623Y149475D01*
X294640Y149516D01*
Y152111D01*
X294639Y152113D01*
X294641Y152118D01*
Y154746D01*
X294639Y154751D01*
X294640Y154753D01*
Y157347D01*
X294639Y157349D01*
X294641Y157354D01*
Y157950D01*
X295655D01*
Y157354D01*
X295657Y157349D01*
X295656Y157347D01*
Y154753D01*
X295657Y154751D01*
X295655Y154746D01*
Y152118D01*
X295657Y152113D01*
X295656Y152111D01*
Y149516D01*
X295673Y149475D01*
X295664Y149432D01*
X295729Y149330D01*
Y148573D01*
X295804Y148192D01*
X296020Y147870D01*
X296342Y147654D01*
X296723Y147579D01*
X297103Y147654D01*
X297426Y147870D01*
X297641Y148192D01*
X297717Y148573D01*
Y149330D01*
X297782Y149432D01*
X297772Y149475D01*
X297789Y149516D01*
Y152111D01*
X297788Y152113D01*
X297791Y152118D01*
Y154746D01*
X297788Y154751D01*
X297789Y154753D01*
Y157347D01*
X297788Y157349D01*
X297791Y157354D01*
Y157950D01*
X298805D01*
Y157354D01*
X298807Y157349D01*
X298806Y157347D01*
Y154753D01*
X298807Y154751D01*
X298805Y154746D01*
Y152118D01*
X298807Y152113D01*
X298806Y152111D01*
Y149516D01*
X298823Y149475D01*
X298814Y149432D01*
X298878Y149330D01*
Y148578D01*
X298954Y148197D01*
X299169Y147875D01*
X299492Y147659D01*
X299872Y147583D01*
X300253Y147659D01*
X300575Y147875D01*
X300791Y148197D01*
X300867Y148578D01*
Y149330D01*
X300931Y149432D01*
X300922Y149475D01*
X300939Y149516D01*
Y152111D01*
X300938Y152113D01*
X300940Y152118D01*
Y154746D01*
X300938Y154751D01*
X300939Y154753D01*
Y157347D01*
X300938Y157349D01*
X300940Y157354D01*
Y157950D01*
X301954D01*
Y157354D01*
X301956Y157349D01*
X301956Y157347D01*
Y154753D01*
X301956Y154751D01*
X301954Y154746D01*
Y152118D01*
X301956Y152113D01*
X301956Y152111D01*
Y149516D01*
X301973Y149475D01*
X301963Y149432D01*
X302042Y149308D01*
X302098Y149172D01*
X302139Y149155D01*
X302163Y149118D01*
X302544Y148851D01*
X302688Y148819D01*
X302823Y148763D01*
X311400D01*
Y140900D01*
X268480D01*
X264500Y147133D01*
X264500Y155850D01*
X265700Y157050D01*
X268200Y157050D01*
X270000Y158850D01*
X270000Y159557D01*
X270418Y159975D01*
X270582D01*
X271000Y159557D01*
D02*
G37*
G36*
X230700Y178400D02*
X226000Y173700D01*
X226000Y139000D01*
X193200Y139000D01*
X193200Y193200D01*
X230700D01*
Y178400D01*
D02*
G37*
G36*
X371500Y154100D02*
Y145500D01*
X368300Y145500D01*
X368300Y150500D01*
X370100Y152300D01*
X370100Y154400D01*
X370200Y154500D01*
X371100D01*
X371500Y154100D01*
D02*
G37*
G36*
X459800Y210300D02*
X459800Y193900D01*
X457300Y191400D01*
X371400D01*
X356000Y176000D01*
X356000Y154300D01*
X348600Y146900D01*
X339400Y146900D01*
X336400Y149900D01*
Y204000D01*
X357600Y223100D01*
X447000D01*
X459800Y210300D01*
D02*
G37*
G36*
X378500Y152100D02*
Y149100D01*
X378400Y149000D01*
X377700D01*
X376100Y147400D01*
X376100Y145600D01*
X372800Y145600D01*
X372800Y150800D01*
X373200Y151200D01*
X376100D01*
X377100Y152200D01*
X378400D01*
X378500Y152100D01*
D02*
G37*
G36*
X369600Y154107D02*
X369600Y152600D01*
X367700Y150700D01*
X367700Y145000D01*
X376600D01*
X377300Y145700D01*
Y146342D01*
X377311Y146481D01*
X377550Y146858D01*
X377782Y146904D01*
X378218D01*
X378355Y146876D01*
X378431Y146826D01*
X378481Y146750D01*
X378508Y146613D01*
Y144067D01*
X378525Y144025D01*
X378516Y143982D01*
X378581Y143880D01*
Y143200D01*
X378591Y143149D01*
X378586Y143123D01*
X378661Y142744D01*
X378875Y142423D01*
X379196Y142209D01*
X379575Y142134D01*
X379953Y142209D01*
X380274Y142423D01*
X380488Y142744D01*
X380564Y143123D01*
X380559Y143149D01*
X380569Y143200D01*
Y143880D01*
X380634Y143982D01*
X380624Y144025D01*
X380641Y144067D01*
Y146661D01*
X380640Y146663D01*
X380643Y146668D01*
Y149296D01*
X380640Y149301D01*
X380641Y149303D01*
Y151897D01*
X380640Y151899D01*
X380643Y151904D01*
Y152500D01*
X381657D01*
Y151904D01*
X381659Y151899D01*
X381658Y151897D01*
Y150703D01*
X381674Y150664D01*
X381667Y150628D01*
X381669Y150618D01*
X381667Y150608D01*
X381674Y150573D01*
X381658Y150533D01*
Y149303D01*
X381659Y149301D01*
X381657Y149296D01*
Y146668D01*
X381659Y146663D01*
X381658Y146661D01*
Y144067D01*
X381675Y144025D01*
X381665Y143982D01*
X381730Y143880D01*
Y143200D01*
X381740Y143149D01*
X381735Y143123D01*
X381811Y142744D01*
X382025Y142423D01*
X382346Y142209D01*
X382724Y142134D01*
X383103Y142209D01*
X383424Y142423D01*
X383638Y142744D01*
X383713Y143123D01*
X383708Y143149D01*
X383718Y143200D01*
Y143880D01*
X383783Y143982D01*
X383774Y144025D01*
X383791Y144067D01*
Y146661D01*
X383790Y146663D01*
X383792Y146668D01*
Y149293D01*
X383790Y149298D01*
X383791Y149300D01*
Y151900D01*
X383790Y151902D01*
X383792Y151907D01*
Y152500D01*
X384806D01*
Y151907D01*
X384808Y151902D01*
X384808Y151900D01*
Y149300D01*
X384808Y149298D01*
X384806Y149293D01*
Y146668D01*
X384808Y146663D01*
X384808Y146661D01*
Y144067D01*
X384825Y144025D01*
X384815Y143982D01*
X384880Y143880D01*
Y143126D01*
X384956Y142746D01*
X385171Y142423D01*
X385494Y142208D01*
X385874Y142132D01*
X386254Y142208D01*
X386577Y142423D01*
X386792Y142746D01*
X386868Y143126D01*
Y143880D01*
X386933Y143982D01*
X386923Y144025D01*
X386940Y144067D01*
Y146661D01*
X386940Y146663D01*
X386942Y146668D01*
Y149296D01*
X386940Y149301D01*
X386940Y149303D01*
Y151897D01*
X386940Y151899D01*
X386942Y151904D01*
Y152500D01*
X387956D01*
Y151904D01*
X387958Y151899D01*
X387957Y151897D01*
Y149303D01*
X387958Y149301D01*
X387956Y149296D01*
Y146668D01*
X387958Y146663D01*
X387957Y146661D01*
Y144067D01*
X387974Y144025D01*
X387965Y143982D01*
X388030Y143880D01*
Y143124D01*
X388105Y142743D01*
X388321Y142421D01*
X388643Y142205D01*
X389024Y142130D01*
X389404Y142205D01*
X389726Y142421D01*
X389942Y142743D01*
X390018Y143124D01*
Y143880D01*
X390083Y143982D01*
X390073Y144025D01*
X390090Y144067D01*
Y146661D01*
X390089Y146663D01*
X390091Y146668D01*
Y149296D01*
X390089Y149301D01*
X390090Y149303D01*
Y151897D01*
X390089Y151899D01*
X390091Y151904D01*
Y152500D01*
X391106D01*
Y151904D01*
X391108Y151899D01*
X391107Y151897D01*
Y149303D01*
X391108Y149301D01*
X391106Y149296D01*
Y146668D01*
X391108Y146663D01*
X391107Y146661D01*
Y144067D01*
X391124Y144025D01*
X391114Y143982D01*
X391179Y143880D01*
Y143127D01*
X391255Y142746D01*
X391470Y142424D01*
X391793Y142208D01*
X392173Y142133D01*
X392554Y142208D01*
X392876Y142424D01*
X393092Y142746D01*
X393167Y143127D01*
Y143880D01*
X393232Y143982D01*
X393223Y144025D01*
X393240Y144067D01*
Y146661D01*
X393239Y146663D01*
X393241Y146668D01*
Y149296D01*
X393239Y149301D01*
X393240Y149303D01*
Y151897D01*
X393239Y151899D01*
X393241Y151904D01*
Y152500D01*
X394255D01*
Y151904D01*
X394257Y151899D01*
X394256Y151897D01*
Y149303D01*
X394257Y149301D01*
X394255Y149296D01*
Y146668D01*
X394257Y146663D01*
X394256Y146661D01*
Y144067D01*
X394273Y144025D01*
X394264Y143982D01*
X394329Y143880D01*
Y143123D01*
X394404Y142742D01*
X394620Y142420D01*
X394942Y142204D01*
X395323Y142129D01*
X395703Y142204D01*
X396026Y142420D01*
X396241Y142742D01*
X396317Y143123D01*
Y143880D01*
X396382Y143982D01*
X396372Y144025D01*
X396389Y144067D01*
Y146661D01*
X396388Y146663D01*
X396391Y146668D01*
Y149296D01*
X396388Y149301D01*
X396389Y149303D01*
Y151897D01*
X396388Y151899D01*
X396391Y151904D01*
Y152500D01*
X397405D01*
Y151904D01*
X397407Y151899D01*
X397406Y151897D01*
Y149303D01*
X397407Y149301D01*
X397405Y149296D01*
Y146668D01*
X397407Y146663D01*
X397406Y146661D01*
Y144067D01*
X397423Y144025D01*
X397413Y143982D01*
X397478Y143880D01*
Y143128D01*
X397554Y142747D01*
X397769Y142425D01*
X398092Y142209D01*
X398472Y142133D01*
X398853Y142209D01*
X399175Y142425D01*
X399391Y142747D01*
X399466Y143128D01*
Y143880D01*
X399531Y143982D01*
X399522Y144025D01*
X399539Y144067D01*
Y146661D01*
X399538Y146663D01*
X399540Y146668D01*
Y149296D01*
X399538Y149301D01*
X399539Y149303D01*
Y151897D01*
X399538Y151899D01*
X399540Y151904D01*
Y152500D01*
X400554D01*
Y151904D01*
X400556Y151899D01*
X400556Y151897D01*
Y149303D01*
X400556Y149301D01*
X400554Y149296D01*
Y146668D01*
X400556Y146663D01*
X400556Y146661D01*
Y144067D01*
X400573Y144025D01*
X400563Y143982D01*
X400642Y143858D01*
X400698Y143722D01*
X400739Y143705D01*
X400763Y143667D01*
X401144Y143401D01*
X401288Y143369D01*
X401424Y143313D01*
X410000D01*
Y138100D01*
X365388D01*
X363100Y141683D01*
X363100Y150400D01*
X364300Y151600D01*
X366400Y151600D01*
X367933Y153133D01*
X368163Y153287D01*
X368318Y153517D01*
X368600Y153800D01*
X368600Y154107D01*
X369018Y154525D01*
X369182D01*
X369600Y154107D01*
D02*
G37*
G36*
X183092Y106742D02*
X183092Y98024D01*
X181892Y96825D01*
X179792Y96825D01*
X178259Y95292D01*
X178029Y95138D01*
X177875Y94907D01*
X177592Y94625D01*
X177592Y94318D01*
X177174Y93900D01*
X177010D01*
X176592Y94318D01*
X176592Y95825D01*
X178492Y97725D01*
X178492Y103425D01*
X169592D01*
X168892Y102725D01*
Y102083D01*
X168882Y101944D01*
X168642Y101567D01*
X168410Y101521D01*
X167974D01*
X167837Y101548D01*
X167762Y101599D01*
X167711Y101674D01*
X167684Y101812D01*
Y104358D01*
X167667Y104399D01*
X167676Y104443D01*
X167612Y104545D01*
Y105225D01*
X167601Y105276D01*
X167606Y105302D01*
X167531Y105680D01*
X167317Y106001D01*
X166996Y106216D01*
X166618Y106291D01*
X166239Y106216D01*
X165918Y106001D01*
X165704Y105680D01*
X165629Y105302D01*
X165634Y105276D01*
X165623Y105225D01*
Y104545D01*
X165559Y104443D01*
X165568Y104399D01*
X165551Y104358D01*
Y101764D01*
X165552Y101762D01*
X165550Y101757D01*
Y99129D01*
X165552Y99124D01*
X165551Y99122D01*
Y96527D01*
X165552Y96526D01*
X165550Y96521D01*
Y95925D01*
X164536D01*
Y96521D01*
X164533Y96526D01*
X164534Y96527D01*
Y97722D01*
X164518Y97761D01*
X164525Y97796D01*
X164523Y97807D01*
X164525Y97817D01*
X164518Y97852D01*
X164534Y97891D01*
Y99122D01*
X164533Y99124D01*
X164536Y99129D01*
Y101757D01*
X164533Y101762D01*
X164534Y101764D01*
Y104358D01*
X164517Y104399D01*
X164527Y104443D01*
X164462Y104545D01*
Y105225D01*
X164452Y105276D01*
X164457Y105302D01*
X164382Y105680D01*
X164167Y106001D01*
X163846Y106216D01*
X163468Y106291D01*
X163089Y106216D01*
X162769Y106001D01*
X162554Y105680D01*
X162479Y105302D01*
X162484Y105276D01*
X162474Y105225D01*
Y104545D01*
X162409Y104443D01*
X162419Y104399D01*
X162401Y104358D01*
Y101764D01*
X162402Y101762D01*
X162400Y101757D01*
Y99132D01*
X162402Y99127D01*
X162401Y99125D01*
Y96525D01*
X162402Y96523D01*
X162400Y96518D01*
Y95925D01*
X161386D01*
Y96518D01*
X161384Y96523D01*
X161385Y96525D01*
Y99125D01*
X161384Y99127D01*
X161386Y99132D01*
Y101757D01*
X161384Y101762D01*
X161385Y101764D01*
Y104358D01*
X161368Y104399D01*
X161377Y104443D01*
X161312Y104545D01*
Y105299D01*
X161237Y105679D01*
X161021Y106002D01*
X160699Y106217D01*
X160318Y106293D01*
X159938Y106217D01*
X159615Y106002D01*
X159400Y105679D01*
X159324Y105299D01*
Y104545D01*
X159259Y104443D01*
X159269Y104399D01*
X159252Y104358D01*
Y101764D01*
X159253Y101762D01*
X159250Y101757D01*
Y99129D01*
X159253Y99124D01*
X159252Y99122D01*
Y96527D01*
X159253Y96526D01*
X159250Y96521D01*
Y95925D01*
X158237D01*
Y96521D01*
X158234Y96526D01*
X158235Y96527D01*
Y99122D01*
X158234Y99124D01*
X158237Y99129D01*
Y101757D01*
X158234Y101762D01*
X158235Y101764D01*
Y104358D01*
X158218Y104399D01*
X158228Y104443D01*
X158163Y104545D01*
Y105301D01*
X158087Y105682D01*
X157872Y106004D01*
X157549Y106220D01*
X157169Y106295D01*
X156788Y106220D01*
X156466Y106004D01*
X156250Y105682D01*
X156175Y105301D01*
Y104545D01*
X156110Y104443D01*
X156119Y104399D01*
X156102Y104358D01*
Y101764D01*
X156103Y101762D01*
X156101Y101757D01*
Y99129D01*
X156103Y99124D01*
X156102Y99122D01*
Y96527D01*
X156103Y96526D01*
X156101Y96521D01*
Y95925D01*
X155087D01*
Y96521D01*
X155085Y96526D01*
X155085Y96527D01*
Y99122D01*
X155085Y99124D01*
X155087Y99129D01*
Y101757D01*
X155085Y101762D01*
X155085Y101764D01*
Y104358D01*
X155068Y104399D01*
X155078Y104443D01*
X155013Y104545D01*
Y105298D01*
X154938Y105678D01*
X154722Y106001D01*
X154400Y106217D01*
X154019Y106292D01*
X153639Y106217D01*
X153316Y106001D01*
X153101Y105678D01*
X153025Y105298D01*
Y104545D01*
X152960Y104443D01*
X152970Y104399D01*
X152953Y104358D01*
Y101764D01*
X152954Y101762D01*
X152951Y101757D01*
Y99129D01*
X152954Y99124D01*
X152953Y99122D01*
Y96527D01*
X152954Y96526D01*
X152951Y96521D01*
Y95925D01*
X151937D01*
Y96521D01*
X151935Y96526D01*
X151936Y96527D01*
Y99122D01*
X151935Y99124D01*
X151937Y99129D01*
Y101757D01*
X151935Y101762D01*
X151936Y101764D01*
Y104358D01*
X151919Y104399D01*
X151928Y104443D01*
X151864Y104545D01*
Y105302D01*
X151788Y105682D01*
X151572Y106005D01*
X151250Y106220D01*
X150870Y106296D01*
X150489Y106220D01*
X150167Y106005D01*
X149951Y105682D01*
X149875Y105302D01*
Y104545D01*
X149811Y104443D01*
X149820Y104399D01*
X149803Y104358D01*
Y101764D01*
X149804Y101762D01*
X149802Y101757D01*
Y99129D01*
X149804Y99124D01*
X149803Y99122D01*
Y96527D01*
X149804Y96526D01*
X149802Y96521D01*
Y95925D01*
X148788D01*
Y96521D01*
X148785Y96526D01*
X148786Y96527D01*
Y99122D01*
X148785Y99124D01*
X148788Y99129D01*
Y101757D01*
X148785Y101762D01*
X148786Y101764D01*
Y104358D01*
X148769Y104399D01*
X148779Y104443D01*
X148714Y104545D01*
Y105297D01*
X148638Y105678D01*
X148423Y106000D01*
X148100Y106216D01*
X147720Y106291D01*
X147339Y106216D01*
X147017Y106000D01*
X146801Y105678D01*
X146726Y105297D01*
Y104545D01*
X146661Y104443D01*
X146671Y104399D01*
X146653Y104358D01*
Y101764D01*
X146654Y101762D01*
X146652Y101757D01*
Y99129D01*
X146654Y99124D01*
X146653Y99122D01*
Y96527D01*
X146654Y96526D01*
X146652Y96521D01*
Y95925D01*
X145638D01*
Y96521D01*
X145636Y96526D01*
X145637Y96527D01*
Y99122D01*
X145636Y99124D01*
X145638Y99129D01*
Y101757D01*
X145636Y101762D01*
X145637Y101764D01*
Y104358D01*
X145620Y104399D01*
X145629Y104443D01*
X145550Y104567D01*
X145494Y104703D01*
X145453Y104720D01*
X145429Y104757D01*
X145048Y105024D01*
X144905Y105056D01*
X144769Y105112D01*
X134900D01*
X134800Y105179D01*
Y110325D01*
X180804D01*
X183092Y106742D01*
D02*
G37*
G36*
X167197Y104358D02*
Y101764D01*
X167252Y101485D01*
X167411Y101248D01*
X167647Y101090D01*
X167927Y101034D01*
X168458D01*
X168737Y101090D01*
X168809Y101137D01*
X169128Y100749D01*
X168230Y99852D01*
X167927D01*
X167764Y99820D01*
X167700D01*
X167356Y99677D01*
X167213Y99332D01*
Y99203D01*
X167197Y99122D01*
Y96527D01*
X167213Y96447D01*
Y96317D01*
X167213Y96317D01*
X167356Y95973D01*
X167356Y95973D01*
X167448Y95880D01*
X167792Y95738D01*
X169092D01*
X169437Y95880D01*
X169830Y96274D01*
X170292Y96083D01*
Y95235D01*
X170205Y95025D01*
Y92525D01*
X170292Y92315D01*
Y91825D01*
X176192D01*
Y91188D01*
X175692Y90812D01*
X175092Y90812D01*
X174956Y90755D01*
X174812Y90723D01*
X173051Y89486D01*
X171534Y88538D01*
X171501Y88491D01*
X171448Y88469D01*
X171396Y88344D01*
X171318Y88234D01*
X171327Y88178D01*
X171305Y88125D01*
Y87902D01*
X170605Y87425D01*
X170292D01*
Y85467D01*
X169830Y85276D01*
X169137Y85969D01*
X168792Y86112D01*
X168346D01*
X168279Y86212D01*
Y87225D01*
X168225Y87356D01*
X168211Y87425D01*
D01*
X168197Y87495D01*
X168156Y87523D01*
X168137Y87569D01*
X168005Y87623D01*
X167887Y87702D01*
X167837Y87712D01*
X167762Y87763D01*
X167711Y87838D01*
X167684Y87976D01*
Y90522D01*
X167621Y90674D01*
X167573Y90831D01*
X167489Y90934D01*
X167467Y90946D01*
X167457Y90969D01*
X167441Y90976D01*
X167399Y91038D01*
X167163Y91196D01*
X166883Y91252D01*
X166352D01*
X166072Y91196D01*
X165836Y91038D01*
X165794Y90976D01*
X165778Y90969D01*
X165768Y90946D01*
X165746Y90934D01*
X165662Y90831D01*
X165614Y90674D01*
X165551Y90522D01*
Y87928D01*
X165552Y87926D01*
X165550Y87920D01*
Y85293D01*
X165552Y85288D01*
X165551Y85286D01*
Y82739D01*
X165509Y82526D01*
X165518Y82477D01*
X165499Y82431D01*
Y81473D01*
X165452Y81234D01*
X165344Y81073D01*
X165183Y80965D01*
X164992Y80927D01*
X164802Y80965D01*
X164640Y81073D01*
X164533Y81234D01*
X164485Y81473D01*
Y83890D01*
X164525Y84089D01*
X164515Y84138D01*
X164534Y84184D01*
Y85286D01*
X164533Y85288D01*
X164536Y85293D01*
Y87920D01*
X164533Y87926D01*
X164534Y87928D01*
Y89128D01*
X164515Y89174D01*
X164525Y89223D01*
X164485Y89422D01*
Y90625D01*
X164343Y90969D01*
X164278Y90996D01*
X164250Y91038D01*
X164013Y91196D01*
X163734Y91252D01*
X163202D01*
X162923Y91196D01*
X162686Y91038D01*
X162582Y90882D01*
X162544Y90867D01*
X162524Y90818D01*
X162481Y90788D01*
X162455Y90651D01*
X162401Y90522D01*
Y87928D01*
X162402Y87926D01*
X162400Y87920D01*
Y85296D01*
X162402Y85290D01*
X162401Y85289D01*
Y82689D01*
X162402Y82687D01*
X162400Y82680D01*
X162400Y81323D01*
X162352Y81085D01*
X162244Y80923D01*
X162083Y80816D01*
X161892Y80778D01*
X161702Y80816D01*
X161541Y80923D01*
X161433Y81085D01*
X161386Y81323D01*
X161386Y82683D01*
X161384Y82687D01*
X161385Y82689D01*
Y85289D01*
X161384Y85290D01*
X161386Y85296D01*
Y87920D01*
X161384Y87926D01*
X161385Y87928D01*
Y90522D01*
X161331Y90651D01*
X161306Y90788D01*
X161262Y90818D01*
X161242Y90867D01*
X161204Y90882D01*
X161100Y91038D01*
X160863Y91196D01*
X160584Y91252D01*
X160053D01*
X159773Y91196D01*
X159537Y91038D01*
X159432Y90882D01*
X159395Y90867D01*
X159374Y90818D01*
X159331Y90788D01*
X159305Y90651D01*
X159252Y90522D01*
Y87928D01*
X159253Y87926D01*
X159250Y87920D01*
Y85293D01*
X159253Y85288D01*
X159252Y85286D01*
Y82691D01*
X159253Y82689D01*
X159250Y82684D01*
Y81322D01*
X159203Y81083D01*
X159095Y80922D01*
X158934Y80814D01*
X158744Y80776D01*
X158553Y80814D01*
X158392Y80922D01*
X158284Y81083D01*
X158237Y81322D01*
Y82684D01*
X158234Y82689D01*
X158235Y82691D01*
Y85286D01*
X158234Y85288D01*
X158237Y85293D01*
Y87920D01*
X158234Y87926D01*
X158235Y87928D01*
Y90522D01*
X158182Y90651D01*
X158156Y90788D01*
X158113Y90818D01*
X158092Y90867D01*
X158055Y90882D01*
X157950Y91038D01*
X157714Y91196D01*
X157434Y91252D01*
X156903D01*
X156624Y91196D01*
X156387Y91038D01*
X156345Y90976D01*
X156329Y90969D01*
X156320Y90946D01*
X156297Y90934D01*
X156213Y90831D01*
X156165Y90674D01*
X156102Y90522D01*
Y87928D01*
X156103Y87926D01*
X156101Y87920D01*
Y85293D01*
X156103Y85288D01*
X156102Y85286D01*
Y82691D01*
X156103Y82689D01*
X156100Y82682D01*
X156100Y81323D01*
X156052Y81085D01*
X155945Y80923D01*
X155783Y80816D01*
X155593Y80778D01*
X155402Y80816D01*
X155241Y80924D01*
X155133Y81085D01*
X155086Y81323D01*
X155086Y82686D01*
X155085Y82690D01*
X155085Y82691D01*
Y85286D01*
X155085Y85288D01*
X155087Y85293D01*
Y87920D01*
X155085Y87926D01*
X155085Y87928D01*
Y90522D01*
X155023Y90674D01*
X154975Y90831D01*
X154891Y90934D01*
X154868Y90946D01*
X154858Y90969D01*
X154842Y90976D01*
X154801Y91038D01*
X154564Y91196D01*
X154285Y91252D01*
X153753D01*
X153474Y91196D01*
X153237Y91038D01*
X153133Y90882D01*
X153095Y90867D01*
X153075Y90818D01*
X153032Y90788D01*
X153006Y90651D01*
X152953Y90522D01*
Y87928D01*
X152954Y87926D01*
X152951Y87920D01*
Y85293D01*
X152954Y85288D01*
X152953Y85286D01*
Y82691D01*
X152954Y82689D01*
X152951Y82684D01*
Y81621D01*
X152928Y81506D01*
X152947Y81411D01*
X152928Y81316D01*
X152937Y81275D01*
X152899Y81087D01*
X152792Y80927D01*
X152633Y80820D01*
X152444Y80783D01*
X152256Y80820D01*
X152096Y80927D01*
X151989Y81087D01*
X151952Y81275D01*
X151960Y81316D01*
X151941Y81411D01*
X151960Y81506D01*
X151937Y81621D01*
Y82684D01*
X151935Y82689D01*
X151936Y82691D01*
Y85286D01*
X151935Y85288D01*
X151937Y85293D01*
Y87920D01*
X151935Y87926D01*
X151936Y87928D01*
Y90522D01*
X151882Y90651D01*
X151857Y90788D01*
X151813Y90818D01*
X151793Y90867D01*
X151755Y90882D01*
X151651Y91038D01*
X151415Y91196D01*
X151135Y91252D01*
X150604D01*
X150324Y91196D01*
X150088Y91038D01*
X149984Y90882D01*
X149946Y90867D01*
X149926Y90818D01*
X149882Y90788D01*
X149857Y90651D01*
X149803Y90522D01*
Y87928D01*
X149804Y87926D01*
X149802Y87920D01*
Y85293D01*
X149804Y85288D01*
X149803Y85286D01*
Y82691D01*
X149804Y82689D01*
X149802Y82684D01*
Y81323D01*
X149754Y81085D01*
X149646Y80923D01*
X149485Y80816D01*
X149295Y80778D01*
X149104Y80816D01*
X148943Y80923D01*
X148835Y81085D01*
X148788Y81323D01*
Y82684D01*
X148785Y82689D01*
X148786Y82691D01*
Y85286D01*
X148785Y85288D01*
X148788Y85293D01*
Y87920D01*
X148785Y87926D01*
X148786Y87928D01*
Y90522D01*
X148733Y90651D01*
X148707Y90788D01*
X148664Y90818D01*
X148644Y90867D01*
X148606Y90882D01*
X148502Y91038D01*
X148265Y91196D01*
X147986Y91252D01*
X147454D01*
X147175Y91196D01*
X146938Y91038D01*
X146834Y90882D01*
X146796Y90867D01*
X146776Y90818D01*
X146733Y90788D01*
X146707Y90651D01*
X146653Y90522D01*
Y87928D01*
X146654Y87926D01*
X146652Y87920D01*
Y85293D01*
X146654Y85288D01*
X146653Y85286D01*
Y82691D01*
X146654Y82689D01*
X146652Y82684D01*
Y81526D01*
X146639Y81459D01*
X146656Y81370D01*
X146615Y81160D01*
X146327Y80725D01*
X134900D01*
Y104625D01*
X144769D01*
X145150Y104358D01*
Y101764D01*
X145151Y101757D01*
Y99129D01*
X145150Y99122D01*
Y96527D01*
X145151Y96521D01*
Y94525D01*
X145227Y94144D01*
X145442Y93822D01*
X145765Y93606D01*
X146145Y93531D01*
X146526Y93606D01*
X146848Y93822D01*
X147064Y94144D01*
X147139Y94525D01*
Y96521D01*
X147141Y96527D01*
Y99122D01*
X147139Y99129D01*
Y101757D01*
X147141Y101764D01*
Y104358D01*
X147521Y104625D01*
X147918D01*
X148299Y104358D01*
Y101764D01*
X148301Y101757D01*
Y99129D01*
X148299Y99122D01*
Y96527D01*
X148301Y96521D01*
Y94525D01*
X148376Y94144D01*
X148592Y93822D01*
X148914Y93606D01*
X149295Y93531D01*
X149675Y93606D01*
X149998Y93822D01*
X150213Y94144D01*
X150289Y94525D01*
Y96521D01*
X150290Y96527D01*
Y99122D01*
X150289Y99129D01*
Y101757D01*
X150290Y101764D01*
Y104358D01*
X150671Y104625D01*
X151068D01*
X151449Y104358D01*
Y101764D01*
X151450Y101757D01*
Y99129D01*
X151449Y99122D01*
Y96527D01*
X151450Y96521D01*
Y94525D01*
X151526Y94144D01*
X151741Y93822D01*
X152064Y93606D01*
X152444Y93531D01*
X152825Y93606D01*
X153147Y93822D01*
X153363Y94144D01*
X153438Y94525D01*
Y96521D01*
X153440Y96527D01*
Y99122D01*
X153438Y99129D01*
Y101757D01*
X153440Y101764D01*
Y104358D01*
X153821Y104625D01*
X154218D01*
X154598Y104358D01*
Y101764D01*
X154600Y101757D01*
Y99129D01*
X154598Y99122D01*
Y96527D01*
X154600Y96521D01*
Y94525D01*
X154675Y94144D01*
X154891Y93822D01*
X155213Y93606D01*
X155594Y93531D01*
X155974Y93606D01*
X156297Y93822D01*
X156512Y94144D01*
X156588Y94525D01*
Y96521D01*
X156589Y96527D01*
Y99122D01*
X156588Y99129D01*
Y101757D01*
X156589Y101764D01*
Y104358D01*
X156970Y104625D01*
X157367D01*
X157748Y104358D01*
Y101764D01*
X157749Y101757D01*
Y99129D01*
X157748Y99122D01*
Y96527D01*
X157749Y96521D01*
Y94525D01*
X157825Y94144D01*
X158041Y93822D01*
X158363Y93606D01*
X158744Y93531D01*
X159124Y93606D01*
X159446Y93822D01*
X159662Y94144D01*
X159738Y94525D01*
Y96521D01*
X159739Y96527D01*
Y99122D01*
X159738Y99129D01*
Y101757D01*
X159739Y101764D01*
Y104358D01*
X160120Y104625D01*
X160517D01*
X160898Y104358D01*
Y101764D01*
X160899Y101757D01*
Y99132D01*
X160898Y99125D01*
Y96525D01*
X160899Y96518D01*
Y94525D01*
X160975Y94144D01*
X161190Y93822D01*
X161513Y93606D01*
X161893Y93531D01*
X162274Y93606D01*
X162596Y93822D01*
X162812Y94144D01*
X162887Y94525D01*
Y96518D01*
X162889Y96525D01*
Y99125D01*
X162887Y99132D01*
Y101757D01*
X162889Y101764D01*
Y104358D01*
X163269Y104625D01*
X163666D01*
X164047Y104358D01*
Y101764D01*
X164049Y101757D01*
Y99129D01*
X164047Y99122D01*
Y97891D01*
X164030Y97807D01*
X164047Y97722D01*
Y96527D01*
X164049Y96521D01*
Y94525D01*
X164124Y94144D01*
X164340Y93822D01*
X164662Y93606D01*
X165043Y93531D01*
X165423Y93606D01*
X165746Y93822D01*
X165961Y94144D01*
X166037Y94525D01*
Y96521D01*
X166038Y96527D01*
Y99122D01*
X166037Y99129D01*
Y101757D01*
X166038Y101764D01*
Y104358D01*
X166419Y104625D01*
X166816D01*
X167197Y104358D01*
D02*
G37*
G36*
X177892Y97925D02*
X176092Y96125D01*
X176092Y94025D01*
X175992Y93925D01*
X175092D01*
X174692Y94325D01*
Y102925D01*
X177892Y102925D01*
X177892Y97925D01*
D02*
G37*
G36*
X173392Y102825D02*
X173392Y97625D01*
X172992Y97225D01*
X170092D01*
X169092Y96225D01*
X167792D01*
X167700Y96317D01*
Y99332D01*
X168400D01*
X170092Y101025D01*
X170092Y102825D01*
X173392Y102825D01*
D02*
G37*
G36*
X186792Y99225D02*
X187092Y98925D01*
Y91325D01*
X186592Y90825D01*
X178509D01*
X178092Y91242D01*
X178092Y94725D01*
X179492Y96125D01*
X182392Y96125D01*
X183792Y97525D01*
X183792Y98871D01*
X184146Y99225D01*
X186792Y99225D01*
D02*
G37*
G36*
X466090Y76209D02*
X466090Y71140D01*
X465337D01*
X465004Y71638D01*
X465009Y71662D01*
X464935Y72034D01*
X464725Y72349D01*
X464419Y72553D01*
X463390Y73740D01*
X462890Y74240D01*
Y76140D01*
X463091Y76340D01*
X465960D01*
X466090Y76209D01*
D02*
G37*
G36*
X176892Y28617D02*
X176475Y28200D01*
X174592D01*
X174392Y28400D01*
Y30676D01*
X175432Y31600D01*
X175492D01*
X175992Y32100D01*
Y33100D01*
X176892D01*
X176892Y28617D01*
D02*
G37*
G36*
X175192Y33200D02*
X175292Y33100D01*
Y32200D01*
X173492Y30600D01*
X173492Y28200D01*
X171092D01*
Y31000D01*
X171892Y31500D01*
X172620Y31955D01*
X174392Y33200D01*
X175192Y33200D01*
D02*
G37*
G36*
X51000Y57000D02*
X53200Y54800D01*
X53300D01*
X55000Y53100D01*
Y42700D01*
X46300Y34000D01*
X3300D01*
X620Y36680D01*
Y59920D01*
X5600Y64900D01*
X39100D01*
X42200Y68000D01*
X51000D01*
Y57000D01*
D02*
G37*
G36*
X182392Y49617D02*
X182392Y40900D01*
X181192Y39700D01*
X179092Y39700D01*
X177663Y38271D01*
X177608Y38260D01*
X177293Y38049D01*
X177082Y37734D01*
X177071Y37679D01*
X176892Y37500D01*
X176892Y37193D01*
X176474Y36775D01*
X176310D01*
X175892Y37193D01*
X175892Y38700D01*
X177792Y40600D01*
X177792Y46300D01*
X168892D01*
X168192Y45600D01*
Y44707D01*
X168189Y44701D01*
X167891Y44417D01*
X167758Y44345D01*
X167349D01*
X166964Y44639D01*
Y47234D01*
X166912Y47497D01*
Y48100D01*
X166901Y48151D01*
X166906Y48177D01*
X166831Y48556D01*
X166617Y48877D01*
X166296Y49091D01*
X165918Y49166D01*
X165539Y49091D01*
X165218Y48877D01*
X165004Y48556D01*
X164928Y48177D01*
X164934Y48151D01*
X164923Y48100D01*
Y47497D01*
X164871Y47234D01*
Y44639D01*
X164882Y44585D01*
X164859Y44471D01*
X164869Y44422D01*
X164850Y44376D01*
Y42261D01*
X164869Y42215D01*
X164859Y42166D01*
X164882Y42051D01*
X164871Y41997D01*
Y39403D01*
X164882Y39349D01*
X164859Y39234D01*
X164582Y38817D01*
X164103D01*
X163826Y39234D01*
X163804Y39349D01*
X163814Y39403D01*
Y41997D01*
X163804Y42051D01*
X163826Y42166D01*
X163817Y42215D01*
X163836Y42261D01*
Y44376D01*
X163817Y44422D01*
X163826Y44471D01*
X163804Y44585D01*
X163814Y44639D01*
Y47234D01*
X163762Y47497D01*
Y48100D01*
X163752Y48151D01*
X163757Y48177D01*
X163682Y48556D01*
X163467Y48877D01*
X163146Y49091D01*
X162768Y49166D01*
X162389Y49091D01*
X162069Y48877D01*
X161854Y48556D01*
X161779Y48177D01*
X161784Y48151D01*
X161774Y48100D01*
Y47497D01*
X161721Y47234D01*
Y44639D01*
X161732Y44585D01*
X161709Y44471D01*
X161719Y44422D01*
X161700Y44376D01*
Y42263D01*
X161719Y42217D01*
X161709Y42168D01*
X161732Y42053D01*
X161721Y41997D01*
Y39403D01*
X161732Y39347D01*
X161709Y39232D01*
X161434Y38822D01*
X160952D01*
X160677Y39232D01*
X160654Y39347D01*
X160665Y39403D01*
Y41997D01*
X160654Y42053D01*
X160677Y42168D01*
X160667Y42217D01*
X160686Y42263D01*
Y44376D01*
X160667Y44422D01*
X160677Y44471D01*
X160654Y44585D01*
X160665Y44639D01*
Y47234D01*
X160612Y47497D01*
Y48174D01*
X160537Y48554D01*
X160321Y48877D01*
X159999Y49092D01*
X159618Y49168D01*
X159238Y49092D01*
X158915Y48877D01*
X158700Y48554D01*
X158624Y48174D01*
Y47497D01*
X158572Y47234D01*
Y44639D01*
X158583Y44585D01*
X158560Y44471D01*
X158570Y44422D01*
X158551Y44376D01*
Y42261D01*
X158570Y42215D01*
X158560Y42166D01*
X158583Y42051D01*
X158572Y41997D01*
Y39403D01*
X158583Y39349D01*
X158560Y39234D01*
X158283Y38817D01*
X157804D01*
X157527Y39234D01*
X157504Y39349D01*
X157515Y39403D01*
Y41997D01*
X157504Y42051D01*
X157527Y42166D01*
X157517Y42215D01*
X157536Y42261D01*
Y44376D01*
X157517Y44422D01*
X157527Y44471D01*
X157504Y44585D01*
X157515Y44639D01*
Y47234D01*
X157463Y47497D01*
Y48176D01*
X157387Y48557D01*
X157172Y48879D01*
X156849Y49095D01*
X156469Y49171D01*
X156088Y49095D01*
X155766Y48879D01*
X155550Y48557D01*
X155475Y48176D01*
Y47497D01*
X155422Y47234D01*
Y44639D01*
X155433Y44585D01*
X155410Y44471D01*
X155420Y44422D01*
X155401Y44376D01*
Y42261D01*
X155420Y42215D01*
X155410Y42166D01*
X155433Y42051D01*
X155422Y41997D01*
Y39403D01*
X155433Y39349D01*
X155410Y39234D01*
X155133Y38817D01*
X154655D01*
X154377Y39234D01*
X154355Y39349D01*
X154366Y39403D01*
Y41997D01*
X154355Y42051D01*
X154377Y42166D01*
X154368Y42215D01*
X154387Y42261D01*
Y44376D01*
X154368Y44422D01*
X154377Y44471D01*
X154355Y44585D01*
X154366Y44639D01*
Y47234D01*
X154313Y47497D01*
Y48173D01*
X154237Y48554D01*
X154022Y48876D01*
X153700Y49092D01*
X153319Y49167D01*
X152939Y49092D01*
X152616Y48876D01*
X152401Y48554D01*
X152325Y48173D01*
Y47497D01*
X152273Y47234D01*
Y44639D01*
X152283Y44585D01*
X152261Y44471D01*
X152270Y44422D01*
X152251Y44376D01*
Y42261D01*
X152270Y42215D01*
X152261Y42166D01*
X152283Y42051D01*
X152273Y41997D01*
Y39403D01*
X152283Y39349D01*
X152261Y39234D01*
X151984Y38817D01*
X151505D01*
X151228Y39234D01*
X151205Y39349D01*
X151216Y39403D01*
Y41997D01*
X151205Y42051D01*
X151228Y42166D01*
X151218Y42215D01*
X151237Y42261D01*
Y44376D01*
X151218Y44422D01*
X151228Y44471D01*
X151205Y44585D01*
X151216Y44639D01*
Y47234D01*
X151164Y47497D01*
Y48177D01*
X151088Y48558D01*
X150872Y48880D01*
X150550Y49096D01*
X150170Y49171D01*
X149789Y49096D01*
X149467Y48880D01*
X149251Y48558D01*
X149175Y48177D01*
Y47497D01*
X149123Y47234D01*
Y44639D01*
X149134Y44585D01*
X149111Y44471D01*
X149121Y44422D01*
X149102Y44376D01*
Y42261D01*
X149121Y42215D01*
X149111Y42166D01*
X149134Y42051D01*
X149123Y41997D01*
Y39403D01*
X149134Y39349D01*
X149111Y39234D01*
X148834Y38817D01*
X148355D01*
X148078Y39234D01*
X148056Y39349D01*
X148066Y39403D01*
Y41997D01*
X148056Y42051D01*
X148078Y42166D01*
X148069Y42215D01*
X148088Y42261D01*
Y44376D01*
X148069Y44422D01*
X148078Y44471D01*
X148056Y44585D01*
X148066Y44639D01*
Y47234D01*
X148014Y47497D01*
Y48172D01*
X147938Y48553D01*
X147723Y48875D01*
X147400Y49091D01*
X147020Y49167D01*
X146640Y49091D01*
X146317Y48875D01*
X146101Y48553D01*
X146026Y48172D01*
Y47497D01*
X145973Y47234D01*
Y44639D01*
X145984Y44585D01*
X145961Y44471D01*
X145971Y44422D01*
X145952Y44376D01*
Y42261D01*
X145971Y42215D01*
X145961Y42166D01*
X145984Y42051D01*
X145973Y41997D01*
Y39403D01*
X145984Y39349D01*
X145961Y39234D01*
X145684Y38817D01*
X145206D01*
X144929Y39234D01*
X144886Y39451D01*
Y41949D01*
X144929Y42166D01*
X144919Y42215D01*
X144938Y42261D01*
Y44376D01*
X144919Y44422D01*
X144929Y44471D01*
X144886Y44687D01*
Y47234D01*
X144861Y47293D01*
X144870Y47357D01*
X144792Y47459D01*
X144743Y47578D01*
X144683Y47603D01*
X144644Y47654D01*
X144187Y47921D01*
X144060Y47938D01*
X143942Y47987D01*
X135492D01*
Y53200D01*
X180104D01*
X182392Y49617D01*
D02*
G37*
G36*
X172492Y37600D02*
Y37300D01*
X173492Y36300D01*
X174293D01*
X174392Y36259D01*
X174392Y36259D01*
X175233D01*
X175392Y36100D01*
Y35400D01*
X175292Y35300D01*
X170092D01*
X169992Y35400D01*
Y37900D01*
X170092Y38000D01*
X172092D01*
X172492Y37600D01*
D02*
G37*
G36*
X185592Y31000D02*
X185592Y28000D01*
X182592Y28000D01*
X182192Y28400D01*
X182192Y30200D01*
X180592Y31800D01*
X179843D01*
X179582Y32101D01*
X179515Y32135D01*
X179474Y32197D01*
X179258Y32341D01*
X179167Y32477D01*
X179142Y32600D01*
X179419Y33078D01*
X179438Y33100D01*
X183492D01*
X185592Y31000D01*
D02*
G37*
G36*
X58400Y29200D02*
X58400Y14200D01*
X55427Y11227D01*
X54933Y11301D01*
X54566Y11987D01*
X53629Y13129D01*
X52487Y14066D01*
X51184Y14763D01*
X49770Y15191D01*
X48300Y15336D01*
X46830Y15191D01*
X45416Y14763D01*
X44113Y14066D01*
X42971Y13129D01*
X42034Y11987D01*
X41337Y10684D01*
X40909Y9270D01*
X40764Y7800D01*
X40909Y6330D01*
X41337Y4916D01*
X42034Y3613D01*
X42971Y2471D01*
X43667Y1900D01*
X43488Y1400D01*
X3100Y1400D01*
X620Y3880D01*
Y29200D01*
X58400Y29200D01*
D02*
G37*
G36*
X467700Y67107D02*
X467700Y65600D01*
X465800Y63700D01*
X465800Y58000D01*
X474700D01*
X475400Y58700D01*
Y59342D01*
X475411Y59481D01*
X475650Y59857D01*
X475882Y59904D01*
X476318D01*
X476455Y59876D01*
X476531Y59826D01*
X476581Y59750D01*
X476608Y59613D01*
Y57067D01*
X476625Y57025D01*
X476616Y56982D01*
X476681Y56880D01*
Y56200D01*
X476691Y56149D01*
X476686Y56123D01*
X476761Y55744D01*
X476975Y55423D01*
X477296Y55209D01*
X477675Y55134D01*
X478053Y55209D01*
X478374Y55423D01*
X478588Y55744D01*
X478664Y56123D01*
X478659Y56149D01*
X478669Y56200D01*
Y56880D01*
X478734Y56982D01*
X478724Y57025D01*
X478741Y57067D01*
Y59661D01*
X478740Y59663D01*
X478743Y59668D01*
Y62296D01*
X478740Y62301D01*
X478741Y62303D01*
Y64897D01*
X478740Y64899D01*
X478743Y64904D01*
Y65500D01*
X479757D01*
Y64904D01*
X479759Y64899D01*
X479758Y64897D01*
Y63703D01*
X479774Y63664D01*
X479767Y63628D01*
X479769Y63618D01*
X479767Y63608D01*
X479774Y63573D01*
X479758Y63533D01*
Y62303D01*
X479759Y62301D01*
X479757Y62296D01*
Y59668D01*
X479759Y59663D01*
X479758Y59661D01*
Y57067D01*
X479775Y57025D01*
X479765Y56982D01*
X479830Y56880D01*
Y56200D01*
X479841Y56149D01*
X479835Y56123D01*
X479911Y55744D01*
X480125Y55423D01*
X480446Y55209D01*
X480824Y55134D01*
X481203Y55209D01*
X481524Y55423D01*
X481738Y55744D01*
X481813Y56123D01*
X481808Y56149D01*
X481818Y56200D01*
Y56880D01*
X481883Y56982D01*
X481874Y57025D01*
X481891Y57067D01*
Y59661D01*
X481890Y59663D01*
X481892Y59668D01*
Y62293D01*
X481890Y62298D01*
X481891Y62300D01*
Y64900D01*
X481890Y64902D01*
X481892Y64907D01*
Y65500D01*
X482906D01*
Y64907D01*
X482908Y64902D01*
X482908Y64900D01*
Y62300D01*
X482908Y62298D01*
X482906Y62293D01*
Y59668D01*
X482908Y59663D01*
X482908Y59661D01*
Y57067D01*
X482925Y57025D01*
X482915Y56982D01*
X482980Y56880D01*
Y56126D01*
X483056Y55746D01*
X483271Y55423D01*
X483594Y55208D01*
X483974Y55132D01*
X484354Y55208D01*
X484677Y55423D01*
X484892Y55746D01*
X484968Y56126D01*
Y56880D01*
X485033Y56982D01*
X485023Y57025D01*
X485040Y57067D01*
Y59661D01*
X485040Y59663D01*
X485042Y59668D01*
Y62296D01*
X485040Y62301D01*
X485040Y62303D01*
Y64897D01*
X485040Y64899D01*
X485042Y64904D01*
Y65500D01*
X486056D01*
Y64904D01*
X486058Y64899D01*
X486057Y64897D01*
Y62303D01*
X486058Y62301D01*
X486056Y62296D01*
Y59668D01*
X486058Y59663D01*
X486057Y59661D01*
Y57067D01*
X486074Y57025D01*
X486065Y56982D01*
X486130Y56880D01*
Y56124D01*
X486205Y55743D01*
X486421Y55421D01*
X486743Y55205D01*
X487124Y55129D01*
X487504Y55205D01*
X487826Y55421D01*
X488042Y55743D01*
X488118Y56124D01*
Y56880D01*
X488183Y56982D01*
X488173Y57025D01*
X488190Y57067D01*
Y59661D01*
X488189Y59663D01*
X488191Y59668D01*
Y62296D01*
X488189Y62301D01*
X488190Y62303D01*
Y64897D01*
X488189Y64899D01*
X488191Y64904D01*
Y65500D01*
X489206D01*
Y64904D01*
X489208Y64899D01*
X489207Y64897D01*
Y62303D01*
X489208Y62301D01*
X489206Y62296D01*
Y59668D01*
X489208Y59663D01*
X489207Y59661D01*
Y57067D01*
X489224Y57025D01*
X489214Y56982D01*
X489279Y56880D01*
Y56127D01*
X489355Y55746D01*
X489570Y55424D01*
X489893Y55208D01*
X490273Y55133D01*
X490654Y55208D01*
X490976Y55424D01*
X491192Y55746D01*
X491267Y56127D01*
Y56880D01*
X491332Y56982D01*
X491323Y57025D01*
X491340Y57067D01*
Y59661D01*
X491339Y59663D01*
X491341Y59668D01*
Y62296D01*
X491339Y62301D01*
X491340Y62303D01*
Y64897D01*
X491339Y64899D01*
X491341Y64904D01*
Y65500D01*
X492355D01*
Y64904D01*
X492357Y64899D01*
X492356Y64897D01*
Y62303D01*
X492357Y62301D01*
X492355Y62296D01*
Y59668D01*
X492357Y59663D01*
X492356Y59661D01*
Y57067D01*
X492374Y57025D01*
X492364Y56982D01*
X492429Y56880D01*
Y56123D01*
X492504Y55742D01*
X492720Y55420D01*
X493042Y55204D01*
X493423Y55129D01*
X493803Y55204D01*
X494126Y55420D01*
X494341Y55742D01*
X494417Y56123D01*
Y56880D01*
X494482Y56982D01*
X494472Y57025D01*
X494489Y57067D01*
Y59661D01*
X494488Y59663D01*
X494491Y59668D01*
Y62296D01*
X494488Y62301D01*
X494489Y62303D01*
Y64897D01*
X494488Y64899D01*
X494491Y64904D01*
Y65500D01*
X495505D01*
Y64904D01*
X495507Y64899D01*
X495506Y64897D01*
Y62303D01*
X495507Y62301D01*
X495505Y62296D01*
Y59668D01*
X495507Y59663D01*
X495506Y59661D01*
Y57067D01*
X495523Y57025D01*
X495513Y56982D01*
X495578Y56880D01*
Y56128D01*
X495654Y55747D01*
X495869Y55425D01*
X496192Y55209D01*
X496572Y55133D01*
X496953Y55209D01*
X497275Y55425D01*
X497491Y55747D01*
X497567Y56128D01*
Y56880D01*
X497631Y56982D01*
X497622Y57025D01*
X497639Y57067D01*
Y59661D01*
X497638Y59663D01*
X497640Y59668D01*
Y62296D01*
X497638Y62301D01*
X497639Y62303D01*
Y64897D01*
X497638Y64899D01*
X497640Y64904D01*
Y65500D01*
X498654D01*
Y64904D01*
X498656Y64899D01*
X498656Y64897D01*
Y62303D01*
X498656Y62301D01*
X498654Y62296D01*
Y59668D01*
X498656Y59663D01*
X498656Y59661D01*
Y57067D01*
X498673Y57025D01*
X498663Y56982D01*
X498742Y56858D01*
X498798Y56722D01*
X498840Y56705D01*
X498863Y56668D01*
X499244Y56401D01*
X499388Y56369D01*
X499523Y56313D01*
X508100D01*
Y51100D01*
Y22600D01*
X515300Y15400D01*
X535900Y15400D01*
X537200Y14100D01*
X537200Y2200D01*
X536000Y1000D01*
X479800D01*
X478100Y2700D01*
X478100Y31700D01*
X463488Y46312D01*
Y51100D01*
X461200Y54683D01*
X461200Y63400D01*
X462400Y64600D01*
X464500Y64600D01*
X466033Y66133D01*
X466263Y66287D01*
X466418Y66517D01*
X466700Y66800D01*
X466700Y67107D01*
X467118Y67525D01*
X467282D01*
X467700Y67107D01*
D02*
G37*
G36*
X536500Y51500D02*
Y40900D01*
X538900Y38500D01*
X548500D01*
X551200Y41200D01*
X551300D01*
Y50600D01*
X553100Y52400D01*
X594400D01*
X597000Y49800D01*
Y24700D01*
X593200Y20900D01*
X517000Y20900D01*
X512900Y25000D01*
Y53000D01*
X535000D01*
X536500Y51500D01*
D02*
G37*
G36*
X178588Y32662D02*
X178583Y32638D01*
X178657Y32266D01*
X178868Y31951D01*
X179173Y31747D01*
X180202Y30560D01*
X180702Y30060D01*
Y28160D01*
X180502Y27960D01*
X177633D01*
X177502Y28091D01*
X177502Y33160D01*
X178255D01*
X178588Y32662D01*
D02*
G37*
G36*
X168092Y28500D02*
X170192Y26400D01*
X177092D01*
Y23000D01*
X168992Y23000D01*
X166992Y25000D01*
X166992Y28500D01*
X168092Y28500D01*
D02*
G37*
G36*
X466200Y70183D02*
X466200Y66700D01*
X464800Y65300D01*
X461900Y65300D01*
X460500Y63900D01*
X460500Y62554D01*
X460147Y62200D01*
X457500Y62200D01*
X457200Y62500D01*
Y70100D01*
X457700Y70600D01*
X465783D01*
X466200Y70183D01*
D02*
G37*
G36*
X476600Y65100D02*
Y62100D01*
X476500Y62000D01*
X475800D01*
X474200Y60400D01*
X474200Y58600D01*
X470900Y58600D01*
X470900Y63800D01*
X471300Y64200D01*
X474200D01*
X475200Y65200D01*
X476500D01*
X476600Y65100D01*
D02*
G37*
G36*
X473600Y68900D02*
Y66400D01*
X473500Y66300D01*
X471500D01*
X471100Y66700D01*
Y67000D01*
X470100Y68000D01*
X469300D01*
X469200Y68041D01*
X469200Y68041D01*
X468359D01*
X468200Y68200D01*
Y68900D01*
X468300Y69000D01*
X473500D01*
X473600Y68900D01*
D02*
G37*
G36*
X472500Y73300D02*
X471700Y72800D01*
X470972Y72345D01*
X469200Y71100D01*
X468400Y71100D01*
X468300Y71200D01*
Y72100D01*
X470100Y73700D01*
X470100Y76100D01*
X472500D01*
Y73300D01*
D02*
G37*
G36*
X508100Y56800D02*
X499523D01*
X499143Y57067D01*
Y59661D01*
X499141Y59668D01*
Y62296D01*
X499143Y62303D01*
Y64897D01*
X499141Y64904D01*
Y66900D01*
X499066Y67280D01*
X498850Y67603D01*
X498528Y67818D01*
X498147Y67894D01*
X497767Y67818D01*
X497444Y67603D01*
X497229Y67280D01*
X497153Y66900D01*
Y64904D01*
X497152Y64897D01*
Y62303D01*
X497153Y62296D01*
Y59668D01*
X497152Y59661D01*
Y57067D01*
X496771Y56800D01*
X496374D01*
X495993Y57067D01*
Y59661D01*
X495992Y59668D01*
Y62296D01*
X495993Y62303D01*
Y64897D01*
X495992Y64904D01*
Y66900D01*
X495916Y67280D01*
X495701Y67603D01*
X495378Y67818D01*
X494998Y67894D01*
X494617Y67818D01*
X494295Y67603D01*
X494079Y67280D01*
X494003Y66900D01*
Y64904D01*
X494002Y64897D01*
Y62303D01*
X494003Y62296D01*
Y59668D01*
X494002Y59661D01*
Y57067D01*
X493621Y56800D01*
X493224D01*
X492843Y57067D01*
Y59661D01*
X492842Y59668D01*
Y62296D01*
X492843Y62303D01*
Y64897D01*
X492842Y64904D01*
Y66900D01*
X492767Y67280D01*
X492551Y67603D01*
X492229Y67818D01*
X491848Y67894D01*
X491468Y67818D01*
X491145Y67603D01*
X490930Y67280D01*
X490854Y66900D01*
Y64904D01*
X490852Y64897D01*
Y62303D01*
X490854Y62296D01*
Y59668D01*
X490852Y59661D01*
Y57067D01*
X490472Y56800D01*
X490075D01*
X489694Y57067D01*
Y59661D01*
X489692Y59668D01*
Y62296D01*
X489694Y62303D01*
Y64897D01*
X489692Y64904D01*
Y66900D01*
X489617Y67280D01*
X489401Y67603D01*
X489079Y67818D01*
X488698Y67894D01*
X488318Y67818D01*
X487995Y67603D01*
X487780Y67280D01*
X487704Y66900D01*
Y64904D01*
X487703Y64897D01*
Y62303D01*
X487704Y62296D01*
Y59668D01*
X487703Y59661D01*
Y57067D01*
X487322Y56800D01*
X486925D01*
X486544Y57067D01*
Y59661D01*
X486543Y59668D01*
Y62296D01*
X486544Y62303D01*
Y64897D01*
X486543Y64904D01*
Y66900D01*
X486467Y67280D01*
X486252Y67603D01*
X485929Y67818D01*
X485549Y67894D01*
X485168Y67818D01*
X484846Y67603D01*
X484630Y67280D01*
X484555Y66900D01*
Y64904D01*
X484553Y64897D01*
Y62303D01*
X484555Y62296D01*
Y59668D01*
X484553Y59661D01*
Y57067D01*
X484172Y56800D01*
X483776D01*
X483395Y57067D01*
Y59661D01*
X483393Y59668D01*
Y62293D01*
X483395Y62300D01*
Y64900D01*
X483393Y64907D01*
Y66900D01*
X483318Y67280D01*
X483102Y67603D01*
X482780Y67818D01*
X482399Y67894D01*
X482019Y67818D01*
X481696Y67603D01*
X481481Y67280D01*
X481405Y66900D01*
Y64907D01*
X481404Y64900D01*
Y62300D01*
X481405Y62293D01*
Y59668D01*
X481404Y59661D01*
Y57067D01*
X481023Y56800D01*
X480626D01*
X480245Y57067D01*
Y59661D01*
X480244Y59668D01*
Y62296D01*
X480245Y62303D01*
Y63533D01*
X480262Y63618D01*
X480245Y63703D01*
Y64897D01*
X480244Y64904D01*
Y66900D01*
X480168Y67280D01*
X479952Y67603D01*
X479630Y67818D01*
X479250Y67894D01*
X478869Y67818D01*
X478547Y67603D01*
X478331Y67280D01*
X478256Y66900D01*
Y64904D01*
X478254Y64897D01*
Y62303D01*
X478256Y62296D01*
Y59668D01*
X478254Y59661D01*
Y57067D01*
X477873Y56800D01*
X477476D01*
X477096Y57067D01*
Y59661D01*
X477040Y59940D01*
X476882Y60177D01*
X476645Y60335D01*
X476366Y60391D01*
X475834D01*
X475555Y60335D01*
X475483Y60287D01*
X475165Y60676D01*
X476002Y61513D01*
X476500D01*
X476844Y61656D01*
X476944Y61756D01*
X477087Y62100D01*
Y62260D01*
X477096Y62303D01*
Y64897D01*
X477087Y64940D01*
Y65100D01*
X476944Y65444D01*
X476844Y65544D01*
X476500Y65687D01*
X475200D01*
X474856Y65544D01*
X474462Y65151D01*
X474000Y65342D01*
Y66190D01*
X474087Y66400D01*
Y68900D01*
X474000Y69110D01*
Y69600D01*
X468100D01*
Y70237D01*
X468600Y70613D01*
X469200Y70613D01*
X469336Y70669D01*
X469480Y70701D01*
X471241Y71939D01*
X472758Y72887D01*
X472791Y72934D01*
X472844Y72956D01*
X472896Y73080D01*
X472975Y73190D01*
X472965Y73247D01*
X472987Y73300D01*
Y73523D01*
X473688Y74000D01*
X474000D01*
Y75958D01*
X474462Y76149D01*
X475156Y75456D01*
X475500Y75313D01*
X475946D01*
X476013Y75213D01*
Y74200D01*
X476067Y74069D01*
X476095Y73930D01*
X476136Y73902D01*
D01*
X476156Y73856D01*
X476287Y73801D01*
X476405Y73723D01*
X476455Y73713D01*
X476531Y73662D01*
X476581Y73586D01*
X476599Y73499D01*
X476608Y73449D01*
Y70903D01*
X476671Y70751D01*
X476719Y70594D01*
X476803Y70491D01*
X476826Y70479D01*
X476835Y70456D01*
X476852Y70449D01*
X476893Y70387D01*
X477130Y70228D01*
X477409Y70173D01*
X477941D01*
X478220Y70228D01*
X478457Y70387D01*
X478498Y70449D01*
X478514Y70456D01*
X478524Y70479D01*
X478546Y70491D01*
X478631Y70594D01*
X478678Y70751D01*
X478741Y70903D01*
Y73497D01*
X478740Y73499D01*
X478743Y73504D01*
Y76132D01*
X478740Y76137D01*
X478741Y76139D01*
Y78685D01*
X478784Y78899D01*
X478774Y78948D01*
X478793Y78994D01*
Y79952D01*
X478840Y80190D01*
X478948Y80352D01*
X479110Y80460D01*
X479300Y80497D01*
X479490Y80460D01*
X479652Y80352D01*
X479760Y80190D01*
X479807Y79952D01*
Y77535D01*
X479767Y77335D01*
X479777Y77286D01*
X479758Y77240D01*
Y76139D01*
X479759Y76137D01*
X479757Y76132D01*
Y73504D01*
X479759Y73499D01*
X479758Y73497D01*
Y72297D01*
X479777Y72251D01*
X479767Y72202D01*
X479807Y72002D01*
Y70800D01*
X479950Y70456D01*
X480015Y70429D01*
X480043Y70387D01*
X480279Y70228D01*
X480559Y70173D01*
X481090D01*
X481369Y70228D01*
X481606Y70387D01*
X481710Y70543D01*
X481748Y70558D01*
X481768Y70607D01*
X481812Y70636D01*
X481837Y70774D01*
X481891Y70903D01*
Y73497D01*
X481890Y73499D01*
X481892Y73504D01*
Y76129D01*
X481890Y76134D01*
X481891Y76136D01*
Y78736D01*
X481890Y78738D01*
X481892Y78744D01*
X481893Y80102D01*
X481940Y80340D01*
X482048Y80501D01*
X482209Y80609D01*
X482400Y80647D01*
X482590Y80609D01*
X482752Y80501D01*
X482859Y80340D01*
X482907Y80102D01*
X482906Y78742D01*
X482908Y78738D01*
X482908Y78736D01*
Y76136D01*
X482908Y76134D01*
X482906Y76129D01*
Y73504D01*
X482908Y73499D01*
X482908Y73497D01*
Y70903D01*
X482961Y70774D01*
X482987Y70637D01*
X483030Y70607D01*
X483050Y70558D01*
X483088Y70543D01*
X483192Y70387D01*
X483429Y70228D01*
X483708Y70173D01*
X484240D01*
X484519Y70228D01*
X484756Y70387D01*
X484860Y70543D01*
X484898Y70558D01*
X484918Y70607D01*
X484961Y70636D01*
X484987Y70774D01*
X485040Y70903D01*
Y73497D01*
X485040Y73499D01*
X485042Y73504D01*
Y76132D01*
X485040Y76137D01*
X485040Y76139D01*
Y78733D01*
X485040Y78735D01*
X485042Y78741D01*
Y80103D01*
X485089Y80342D01*
X485197Y80503D01*
X485358Y80611D01*
X485549Y80649D01*
X485739Y80611D01*
X485901Y80503D01*
X486008Y80342D01*
X486056Y80103D01*
Y78741D01*
X486058Y78735D01*
X486057Y78733D01*
Y76139D01*
X486058Y76137D01*
X486056Y76132D01*
Y73504D01*
X486058Y73499D01*
X486057Y73497D01*
Y70903D01*
X486111Y70774D01*
X486136Y70636D01*
X486180Y70607D01*
X486200Y70558D01*
X486238Y70543D01*
X486342Y70387D01*
X486579Y70228D01*
X486858Y70173D01*
X487389D01*
X487669Y70228D01*
X487905Y70387D01*
X487947Y70449D01*
X487963Y70456D01*
X487973Y70479D01*
X487995Y70491D01*
X488079Y70594D01*
X488127Y70751D01*
X488190Y70903D01*
Y73497D01*
X488189Y73499D01*
X488191Y73504D01*
Y76132D01*
X488189Y76137D01*
X488190Y76139D01*
Y78733D01*
X488189Y78736D01*
X488192Y78743D01*
X488192Y80102D01*
X488240Y80340D01*
X488348Y80502D01*
X488509Y80609D01*
X488699Y80647D01*
X488890Y80609D01*
X489051Y80501D01*
X489159Y80340D01*
X489206Y80102D01*
X489206Y78738D01*
X489207Y78735D01*
X489207Y78733D01*
Y76139D01*
X489208Y76137D01*
X489206Y76132D01*
Y73504D01*
X489208Y73499D01*
X489207Y73497D01*
Y70903D01*
X489270Y70751D01*
X489317Y70594D01*
X489402Y70491D01*
X489424Y70479D01*
X489434Y70456D01*
X489450Y70449D01*
X489492Y70387D01*
X489728Y70228D01*
X490007Y70173D01*
X490539D01*
X490818Y70228D01*
X491055Y70387D01*
X491159Y70543D01*
X491197Y70558D01*
X491217Y70607D01*
X491260Y70636D01*
X491286Y70774D01*
X491340Y70903D01*
Y73497D01*
X491339Y73499D01*
X491341Y73504D01*
Y76132D01*
X491339Y76137D01*
X491340Y76139D01*
Y78733D01*
X491339Y78735D01*
X491341Y78741D01*
Y79804D01*
X491364Y79919D01*
X491345Y80014D01*
X491364Y80109D01*
X491356Y80150D01*
X491393Y80338D01*
X491500Y80498D01*
X491660Y80604D01*
X491848Y80642D01*
X492036Y80604D01*
X492196Y80498D01*
X492303Y80338D01*
X492340Y80150D01*
X492332Y80109D01*
X492351Y80014D01*
X492332Y79919D01*
X492355Y79804D01*
Y78741D01*
X492357Y78735D01*
X492356Y78733D01*
Y76139D01*
X492357Y76137D01*
X492355Y76132D01*
Y73504D01*
X492357Y73499D01*
X492356Y73497D01*
Y70903D01*
X492410Y70774D01*
X492436Y70636D01*
X492479Y70607D01*
X492499Y70558D01*
X492537Y70543D01*
X492641Y70387D01*
X492878Y70228D01*
X493157Y70173D01*
X493689D01*
X493968Y70228D01*
X494205Y70387D01*
X494309Y70543D01*
X494347Y70558D01*
X494367Y70607D01*
X494410Y70636D01*
X494436Y70774D01*
X494489Y70903D01*
Y73497D01*
X494488Y73499D01*
X494491Y73504D01*
Y76132D01*
X494488Y76137D01*
X494489Y76139D01*
Y78733D01*
X494488Y78735D01*
X494491Y78741D01*
Y80102D01*
X494538Y80340D01*
X494646Y80501D01*
X494807Y80609D01*
X494998Y80647D01*
X495188Y80609D01*
X495349Y80501D01*
X495457Y80340D01*
X495505Y80102D01*
Y78741D01*
X495507Y78735D01*
X495506Y78733D01*
Y76139D01*
X495507Y76137D01*
X495505Y76132D01*
Y73504D01*
X495507Y73499D01*
X495506Y73497D01*
Y70903D01*
X495560Y70774D01*
X495585Y70636D01*
X495629Y70607D01*
X495649Y70558D01*
X495686Y70543D01*
X495791Y70387D01*
X496027Y70228D01*
X496307Y70173D01*
X496838D01*
X497118Y70228D01*
X497354Y70387D01*
X497458Y70543D01*
X497496Y70558D01*
X497516Y70607D01*
X497560Y70636D01*
X497585Y70774D01*
X497639Y70903D01*
Y73497D01*
X497638Y73499D01*
X497640Y73504D01*
Y76132D01*
X497638Y76137D01*
X497639Y76139D01*
Y78733D01*
X497638Y78735D01*
X497640Y78741D01*
Y79899D01*
X497653Y79966D01*
X497636Y80055D01*
X497678Y80265D01*
X497965Y80700D01*
X508100D01*
Y56800D01*
D02*
G37*
G36*
X469600Y67100D02*
Y58500D01*
X466400Y58500D01*
X466400Y63500D01*
X468200Y65300D01*
X468200Y67400D01*
X468300Y67500D01*
X469200D01*
X469600Y67100D01*
D02*
G37*
G36*
X186092Y42100D02*
X186392Y41800D01*
Y34200D01*
X185892Y33700D01*
X177810D01*
X177392Y34117D01*
X177392Y37600D01*
X178792Y39000D01*
X181692Y39000D01*
X183092Y40400D01*
X183092Y41747D01*
X183446Y42100D01*
X186092Y42100D01*
D02*
G37*
G36*
X177192Y40800D02*
X175392Y39000D01*
X175392Y36900D01*
X175292Y36800D01*
X174392D01*
X173992Y37200D01*
Y45800D01*
X177192Y45800D01*
X177192Y40800D01*
D02*
G37*
G36*
X172692Y45700D02*
X172692Y40500D01*
X172292Y40100D01*
X169392D01*
X168392Y39100D01*
X167092D01*
X167000Y39192D01*
Y42208D01*
X167092Y42300D01*
X167792D01*
X169393Y43900D01*
X169393Y45700D01*
X172692Y45700D01*
D02*
G37*
G36*
X120300Y104263D02*
Y74100D01*
X117100Y70900D01*
X96900Y70900D01*
X83900Y57900D01*
X52500Y57900D01*
Y67500D01*
X55700Y70700D01*
X61500Y76500D01*
X73157Y88157D01*
X89601Y104601D01*
X119946Y104616D01*
X120300Y104263D01*
D02*
G37*
G36*
X135492Y47500D02*
X143942D01*
X144399Y47234D01*
Y44639D01*
X144451Y44376D01*
Y42261D01*
X144399Y41997D01*
Y39403D01*
X144451Y39139D01*
Y37400D01*
X144527Y37020D01*
X144742Y36697D01*
X145065Y36482D01*
X145445Y36406D01*
X145826Y36482D01*
X146148Y36697D01*
X146363Y37020D01*
X146439Y37400D01*
Y39139D01*
X146492Y39403D01*
Y41997D01*
X146439Y42261D01*
Y44376D01*
X146492Y44639D01*
Y47234D01*
X146948Y47500D01*
X147091D01*
X147548Y47234D01*
Y44639D01*
X147601Y44376D01*
Y42261D01*
X147548Y41997D01*
Y39403D01*
X147601Y39139D01*
Y37400D01*
X147676Y37020D01*
X147892Y36697D01*
X148214Y36482D01*
X148595Y36406D01*
X148975Y36482D01*
X149298Y36697D01*
X149513Y37020D01*
X149589Y37400D01*
Y39139D01*
X149641Y39403D01*
Y41997D01*
X149589Y42261D01*
Y44376D01*
X149641Y44639D01*
Y47234D01*
X150098Y47500D01*
X150241D01*
X150698Y47234D01*
Y44639D01*
X150750Y44376D01*
Y42261D01*
X150698Y41997D01*
Y39403D01*
X150750Y39139D01*
Y37400D01*
X150826Y37020D01*
X151041Y36697D01*
X151364Y36482D01*
X151744Y36406D01*
X152125Y36482D01*
X152447Y36697D01*
X152663Y37020D01*
X152738Y37400D01*
Y39139D01*
X152791Y39403D01*
Y41997D01*
X152738Y42261D01*
Y44376D01*
X152791Y44639D01*
Y47234D01*
X153248Y47500D01*
X153391D01*
X153847Y47234D01*
Y44639D01*
X153900Y44376D01*
Y42261D01*
X153847Y41997D01*
Y39403D01*
X153900Y39139D01*
Y37400D01*
X153975Y37020D01*
X154191Y36697D01*
X154513Y36482D01*
X154894Y36406D01*
X155274Y36482D01*
X155597Y36697D01*
X155812Y37020D01*
X155888Y37400D01*
Y39139D01*
X155940Y39403D01*
Y41997D01*
X155888Y42261D01*
Y44376D01*
X155940Y44639D01*
Y47234D01*
X156397Y47500D01*
X156540D01*
X156997Y47234D01*
Y44639D01*
X157049Y44376D01*
Y42261D01*
X156997Y41997D01*
Y39403D01*
X157049Y39139D01*
Y37400D01*
X157125Y37020D01*
X157341Y36697D01*
X157663Y36482D01*
X158044Y36406D01*
X158424Y36482D01*
X158746Y36697D01*
X158962Y37020D01*
X159038Y37400D01*
Y39139D01*
X159090Y39403D01*
Y41997D01*
X159038Y42261D01*
Y44376D01*
X159090Y44639D01*
Y47234D01*
X159547Y47500D01*
X159690D01*
X160147Y47234D01*
Y44639D01*
X160199Y44376D01*
Y42263D01*
X160147Y42000D01*
Y39400D01*
X160199Y39137D01*
Y37400D01*
X160275Y37020D01*
X160490Y36697D01*
X160813Y36482D01*
X161193Y36406D01*
X161574Y36482D01*
X161896Y36697D01*
X162111Y37020D01*
X162187Y37400D01*
Y39137D01*
X162240Y39400D01*
Y42000D01*
X162187Y42263D01*
Y44376D01*
X162240Y44639D01*
Y47234D01*
X162696Y47500D01*
X162839D01*
X163296Y47234D01*
Y44639D01*
X163349Y44376D01*
Y42261D01*
X163296Y41997D01*
Y39403D01*
X163349Y39139D01*
Y37400D01*
X163424Y37020D01*
X163640Y36697D01*
X163962Y36482D01*
X164343Y36406D01*
X164723Y36482D01*
X165046Y36697D01*
X165261Y37020D01*
X165337Y37400D01*
Y39139D01*
X165389Y39403D01*
Y41997D01*
X165337Y42261D01*
Y44376D01*
X165389Y44639D01*
Y47234D01*
X165846Y47500D01*
X165989D01*
X166446Y47234D01*
Y44639D01*
X166505Y44340D01*
X166674Y44087D01*
X166928Y43918D01*
X167227Y43858D01*
X167758D01*
X168107Y43421D01*
X168124Y43320D01*
X167590Y42787D01*
X167092D01*
X167092Y42787D01*
X166748Y42644D01*
X166748Y42644D01*
X166656Y42552D01*
X166622Y42470D01*
X166505Y42296D01*
X166446Y41997D01*
Y39403D01*
X166505Y39104D01*
X166622Y38930D01*
X166656Y38848D01*
X166656Y38848D01*
X166748Y38756D01*
X167092Y38613D01*
X168392D01*
X168737Y38756D01*
X169130Y39149D01*
X169592Y38958D01*
Y38110D01*
X169505Y37900D01*
Y35400D01*
X169592Y35190D01*
Y34700D01*
X175492D01*
Y34063D01*
X174992Y33687D01*
X174392Y33687D01*
X174256Y33631D01*
X174112Y33599D01*
X172351Y32361D01*
X170834Y31413D01*
X170801Y31366D01*
X170748Y31344D01*
X170696Y31220D01*
X170618Y31109D01*
X170627Y31053D01*
X170605Y31000D01*
Y30777D01*
X169904Y30300D01*
X169592D01*
Y28342D01*
X169130Y28151D01*
X168437Y28844D01*
X168092Y28987D01*
X167646D01*
X167579Y29087D01*
Y30049D01*
X167525Y30180D01*
X167497Y30319D01*
X167456Y30347D01*
X167437Y30393D01*
X167305Y30448D01*
D01*
X167187Y30526D01*
X167118Y30540D01*
X167026Y30602D01*
X166992Y30652D01*
Y30768D01*
X166964Y30803D01*
Y33397D01*
X166905Y33696D01*
X166735Y33949D01*
X166482Y34119D01*
X166183Y34178D01*
X165652D01*
X165353Y34119D01*
X165100Y33949D01*
X164930Y33696D01*
X164871Y33397D01*
Y30803D01*
X164882Y30749D01*
X164859Y30634D01*
X164869Y30585D01*
X164850Y30539D01*
Y28424D01*
X164869Y28378D01*
X164859Y28329D01*
X164882Y28215D01*
X164871Y28161D01*
Y25567D01*
X164882Y25512D01*
X164859Y25398D01*
X164869Y25349D01*
X164850Y25303D01*
Y24391D01*
X164802Y24152D01*
X164685Y23976D01*
X164488Y23845D01*
X164300Y23808D01*
X164112Y23845D01*
X163952Y23952D01*
X163845Y24112D01*
X163808Y24300D01*
X163826Y24394D01*
X163817Y24443D01*
X163836Y24489D01*
Y25303D01*
X163817Y25349D01*
X163826Y25398D01*
X163804Y25512D01*
X163814Y25567D01*
Y28161D01*
X163804Y28215D01*
X163826Y28329D01*
X163817Y28378D01*
X163836Y28424D01*
Y30539D01*
X163817Y30585D01*
X163826Y30634D01*
X163804Y30749D01*
X163814Y30803D01*
Y33397D01*
X163755Y33696D01*
X163586Y33949D01*
X163332Y34119D01*
X163034Y34178D01*
X162502D01*
X162203Y34119D01*
X161950Y33949D01*
X161781Y33696D01*
X161721Y33397D01*
Y30803D01*
X161732Y30749D01*
X161709Y30634D01*
X161719Y30585D01*
X161700Y30539D01*
Y28427D01*
X161719Y28381D01*
X161709Y28332D01*
X161732Y28217D01*
X161721Y28161D01*
Y25567D01*
X161732Y25511D01*
X161709Y25394D01*
X161719Y25345D01*
X161700Y25299D01*
X161700Y24198D01*
X161652Y23960D01*
X161544Y23799D01*
X161383Y23691D01*
X161193Y23653D01*
X161002Y23691D01*
X160841Y23799D01*
X160733Y23960D01*
X160686Y24198D01*
X160686Y25302D01*
X160667Y25348D01*
X160676Y25397D01*
X160654Y25511D01*
X160665Y25567D01*
Y28161D01*
X160654Y28217D01*
X160677Y28332D01*
X160667Y28381D01*
X160686Y28427D01*
Y30539D01*
X160667Y30585D01*
X160677Y30634D01*
X160654Y30749D01*
X160665Y30803D01*
Y33397D01*
X160605Y33696D01*
X160436Y33949D01*
X160183Y34119D01*
X159884Y34178D01*
X159353D01*
X159054Y34119D01*
X158800Y33949D01*
X158631Y33696D01*
X158572Y33397D01*
Y30803D01*
X158583Y30749D01*
X158560Y30634D01*
X158570Y30585D01*
X158551Y30539D01*
Y28424D01*
X158570Y28378D01*
X158560Y28329D01*
X158583Y28215D01*
X158572Y28161D01*
Y25567D01*
X158583Y25512D01*
X158560Y25398D01*
X158570Y25349D01*
X158551Y25303D01*
Y24197D01*
X158503Y23958D01*
X158395Y23797D01*
X158234Y23689D01*
X158044Y23651D01*
X157853Y23689D01*
X157692Y23797D01*
X157584Y23958D01*
X157536Y24197D01*
Y25303D01*
X157517Y25349D01*
X157527Y25398D01*
X157504Y25512D01*
X157515Y25567D01*
Y28161D01*
X157504Y28215D01*
X157527Y28329D01*
X157517Y28378D01*
X157536Y28424D01*
Y30539D01*
X157517Y30585D01*
X157527Y30634D01*
X157504Y30749D01*
X157515Y30803D01*
Y33397D01*
X157456Y33696D01*
X157287Y33949D01*
X157033Y34119D01*
X156734Y34178D01*
X156203D01*
X155904Y34119D01*
X155651Y33949D01*
X155482Y33696D01*
X155422Y33397D01*
Y30803D01*
X155433Y30749D01*
X155410Y30634D01*
X155420Y30585D01*
X155401Y30539D01*
Y28424D01*
X155420Y28378D01*
X155410Y28329D01*
X155433Y28215D01*
X155422Y28161D01*
Y25567D01*
X155433Y25512D01*
X155410Y25396D01*
X155420Y25347D01*
X155400Y25301D01*
X155400Y24198D01*
X155352Y23960D01*
X155245Y23799D01*
X155083Y23691D01*
X154893Y23653D01*
X154702Y23691D01*
X154541Y23799D01*
X154433Y23960D01*
X154386Y24198D01*
X154386Y25306D01*
X154367Y25352D01*
X154377Y25401D01*
X154355Y25512D01*
X154366Y25567D01*
Y28161D01*
X154355Y28215D01*
X154377Y28329D01*
X154368Y28378D01*
X154387Y28424D01*
Y30539D01*
X154368Y30585D01*
X154377Y30634D01*
X154355Y30749D01*
X154366Y30803D01*
Y33397D01*
X154306Y33696D01*
X154137Y33949D01*
X153884Y34119D01*
X153585Y34178D01*
X153053D01*
X152754Y34119D01*
X152501Y33949D01*
X152332Y33696D01*
X152273Y33397D01*
Y30803D01*
X152283Y30749D01*
X152261Y30634D01*
X152270Y30585D01*
X152251Y30539D01*
Y28424D01*
X152270Y28378D01*
X152261Y28329D01*
X152283Y28215D01*
X152273Y28161D01*
Y25567D01*
X152283Y25512D01*
X152261Y25398D01*
X152270Y25349D01*
X152251Y25303D01*
Y24496D01*
X152228Y24381D01*
X152247Y24286D01*
X152228Y24191D01*
X152237Y24150D01*
X152199Y23962D01*
X152092Y23802D01*
X151933Y23696D01*
X151744Y23658D01*
X151556Y23696D01*
X151396Y23802D01*
X151289Y23962D01*
X151252Y24150D01*
X151260Y24191D01*
X151241Y24286D01*
X151260Y24381D01*
X151237Y24496D01*
Y25303D01*
X151218Y25349D01*
X151228Y25398D01*
X151205Y25512D01*
X151216Y25567D01*
Y28161D01*
X151205Y28215D01*
X151228Y28329D01*
X151218Y28378D01*
X151237Y28424D01*
Y30539D01*
X151218Y30585D01*
X151228Y30634D01*
X151205Y30749D01*
X151216Y30803D01*
Y33397D01*
X151156Y33696D01*
X150987Y33949D01*
X150734Y34119D01*
X150435Y34178D01*
X149904D01*
X149605Y34119D01*
X149352Y33949D01*
X149182Y33696D01*
X149123Y33397D01*
Y30803D01*
X149134Y30749D01*
X149111Y30634D01*
X149121Y30585D01*
X149102Y30539D01*
Y28424D01*
X149121Y28378D01*
X149111Y28329D01*
X149134Y28215D01*
X149123Y28161D01*
Y25567D01*
X149134Y25512D01*
X149111Y25398D01*
X149121Y25349D01*
X149102Y25303D01*
Y24198D01*
X149054Y23960D01*
X148946Y23799D01*
X148785Y23691D01*
X148595Y23653D01*
X148404Y23691D01*
X148243Y23799D01*
X148135Y23960D01*
X148088Y24198D01*
Y25303D01*
X148069Y25349D01*
X148078Y25398D01*
X148056Y25512D01*
X148066Y25567D01*
Y28161D01*
X148056Y28215D01*
X148078Y28329D01*
X148069Y28378D01*
X148088Y28424D01*
Y30539D01*
X148069Y30585D01*
X148078Y30634D01*
X148056Y30749D01*
X148066Y30803D01*
Y33397D01*
X148007Y33696D01*
X147838Y33949D01*
X147584Y34119D01*
X147286Y34178D01*
X146754D01*
X146455Y34119D01*
X146202Y33949D01*
X146033Y33696D01*
X145973Y33397D01*
Y30803D01*
X145984Y30749D01*
X145961Y30634D01*
X145971Y30585D01*
X145952Y30539D01*
Y28424D01*
X145971Y28378D01*
X145961Y28329D01*
X145984Y28215D01*
X145973Y28161D01*
Y25567D01*
X145984Y25512D01*
X145961Y25398D01*
X145971Y25349D01*
X145952Y25303D01*
Y24401D01*
X145939Y24334D01*
X145956Y24245D01*
X145915Y24035D01*
X145627Y23600D01*
X137700D01*
Y23600D01*
X117400Y23600D01*
X99500Y5700D01*
X78300D01*
X76100Y7900D01*
Y39400D01*
X84200Y47500D01*
X135492D01*
X135492Y47500D01*
D02*
G37*
G36*
X374400Y160300D02*
X373600Y159800D01*
X372872Y159345D01*
X371100Y158100D01*
X370300Y158100D01*
X370200Y158200D01*
Y159100D01*
X372000Y160700D01*
X372000Y163100D01*
X374400D01*
Y160300D01*
D02*
G37*
G36*
X367990Y163209D02*
X367990Y158140D01*
X367237D01*
X366904Y158638D01*
X366909Y158662D01*
X366835Y159034D01*
X366625Y159349D01*
X366319Y159553D01*
X365290Y160740D01*
X364791Y161240D01*
Y163140D01*
X364990Y163340D01*
X367860D01*
X367990Y163209D01*
D02*
G37*
G36*
X363300Y162900D02*
X363300Y161100D01*
X364900Y159500D01*
X365649D01*
X365910Y159199D01*
X365977Y159165D01*
X366019Y159103D01*
X366234Y158959D01*
X366325Y158823D01*
X366350Y158700D01*
X366074Y158222D01*
X366054Y158200D01*
X362000D01*
X359900Y160300D01*
X359900Y163300D01*
X362900Y163300D01*
X363300Y162900D01*
D02*
G37*
G36*
X269500Y162633D02*
X269500Y159150D01*
X268100Y157750D01*
X265200Y157750D01*
X263800Y156350D01*
X263800Y155003D01*
X263446Y154650D01*
X261899Y154650D01*
X261878Y154664D01*
X261500Y154739D01*
X261122Y154664D01*
X261101Y154650D01*
X260800D01*
X260500Y154950D01*
Y162550D01*
X261000Y163050D01*
X269083D01*
X269500Y162633D01*
D02*
G37*
G36*
X312100Y201200D02*
Y192300D01*
X312100D01*
X312100Y173815D01*
X300500Y173815D01*
Y172810D01*
X300458Y172600D01*
X300476Y172511D01*
X300453Y172397D01*
Y171191D01*
X300452Y171184D01*
Y168589D01*
X300453Y168582D01*
Y165954D01*
X300452Y165947D01*
Y163353D01*
X299962Y163250D01*
X299782D01*
X299293Y163353D01*
Y165947D01*
X299292Y165954D01*
Y168582D01*
X299293Y168589D01*
Y171184D01*
X299292Y171191D01*
Y172600D01*
X299216Y172980D01*
X299001Y173302D01*
X298678Y173518D01*
X298298Y173594D01*
X297917Y173518D01*
X297595Y173302D01*
X297379Y172980D01*
X297304Y172600D01*
Y171191D01*
X297302Y171184D01*
Y168589D01*
X297304Y168582D01*
Y165954D01*
X297302Y165947D01*
Y163353D01*
X296813Y163250D01*
X296633D01*
X296144Y163353D01*
Y165947D01*
X296142Y165954D01*
Y168582D01*
X296144Y168589D01*
Y171184D01*
X296142Y171191D01*
Y172302D01*
X296110Y172464D01*
X296137Y172600D01*
X296062Y172978D01*
X295847Y173299D01*
X295527Y173513D01*
X295148Y173589D01*
X294770Y173513D01*
X294449Y173299D01*
X294234Y172978D01*
X294159Y172600D01*
X294186Y172464D01*
X294154Y172302D01*
Y171191D01*
X294152Y171184D01*
Y168589D01*
X294154Y168582D01*
Y165954D01*
X294152Y165947D01*
Y163353D01*
X293663Y163250D01*
X293078D01*
X292994Y163353D01*
Y165947D01*
X292992Y165954D01*
Y168582D01*
X292994Y168589D01*
Y171184D01*
X292993Y171188D01*
X292993Y172599D01*
X292918Y172980D01*
X292703Y173302D01*
X292380Y173518D01*
X292000Y173594D01*
X291619Y173518D01*
X291297Y173303D01*
X291081Y172980D01*
X291005Y172600D01*
X291005Y171193D01*
X291003Y171184D01*
Y168589D01*
X291004Y168582D01*
Y165954D01*
X291003Y165947D01*
Y163353D01*
X290919Y163250D01*
X290334D01*
X289844Y163353D01*
Y165947D01*
X289843Y165954D01*
Y168582D01*
X289844Y168589D01*
Y171184D01*
X289843Y171191D01*
Y172601D01*
X289767Y172982D01*
X289552Y173304D01*
X289229Y173520D01*
X288849Y173595D01*
X288468Y173520D01*
X288146Y173304D01*
X287930Y172982D01*
X287855Y172601D01*
Y171191D01*
X287853Y171184D01*
Y168589D01*
X287855Y168582D01*
Y165954D01*
X287853Y165947D01*
Y163353D01*
X287364Y163250D01*
X287183D01*
X286695Y163353D01*
Y165947D01*
X286693Y165954D01*
Y168579D01*
X286695Y168586D01*
Y171186D01*
X286694Y171192D01*
X286694Y172599D01*
X286618Y172980D01*
X286403Y173302D01*
X286080Y173518D01*
X285700Y173594D01*
X285319Y173518D01*
X284997Y173303D01*
X284781Y172980D01*
X284706Y172600D01*
X284705Y171195D01*
X284704Y171186D01*
Y168586D01*
X284705Y168579D01*
Y165954D01*
X284704Y165947D01*
Y163353D01*
X284214Y163250D01*
X283594D01*
Y164500D01*
X283545Y164747D01*
Y165947D01*
X283544Y165954D01*
Y168582D01*
X283545Y168589D01*
Y169690D01*
X283594Y169937D01*
Y172450D01*
X283518Y172830D01*
X283303Y173153D01*
X282980Y173368D01*
X282600Y173444D01*
X282220Y173368D01*
X281897Y173153D01*
X281682Y172830D01*
X281606Y172450D01*
Y171444D01*
X281554Y171184D01*
Y168589D01*
X281556Y168582D01*
Y165954D01*
X281554Y165947D01*
Y163353D01*
X281470Y163250D01*
X280480D01*
X280396Y163353D01*
Y165947D01*
X280340Y166226D01*
X280182Y166463D01*
X279945Y166621D01*
X279800Y166650D01*
Y167663D01*
X279900Y167763D01*
X280244Y167906D01*
X280387Y168250D01*
Y168547D01*
X280396Y168589D01*
Y171184D01*
X280394Y171191D01*
Y171350D01*
X280387Y171385D01*
Y171750D01*
X280244Y172094D01*
X279800Y172539D01*
Y172950D01*
X272900Y179850D01*
X233200Y179850D01*
X233200Y192400D01*
X269100D01*
X272900Y196200D01*
X283300Y206600D01*
X306700D01*
X312100Y201200D01*
D02*
G37*
G36*
X269391Y168659D02*
X269391Y163590D01*
X268637D01*
X268304Y164088D01*
X268309Y164112D01*
X268235Y164484D01*
X268025Y164799D01*
X267719Y165003D01*
X266690Y166190D01*
X266191Y166690D01*
Y168590D01*
X266390Y168790D01*
X269260D01*
X269391Y168659D01*
D02*
G37*
G36*
X410000Y143800D02*
X401424D01*
X401043Y144067D01*
Y146661D01*
X401041Y146668D01*
Y149296D01*
X401043Y149303D01*
Y151897D01*
X401041Y151904D01*
Y153900D01*
X400966Y154280D01*
X400750Y154603D01*
X400428Y154818D01*
X400047Y154894D01*
X399667Y154818D01*
X399344Y154603D01*
X399129Y154280D01*
X399053Y153900D01*
Y151904D01*
X399052Y151897D01*
Y149303D01*
X399053Y149296D01*
Y146668D01*
X399052Y146661D01*
Y144067D01*
X398671Y143800D01*
X398274D01*
X397893Y144067D01*
Y146661D01*
X397892Y146668D01*
Y149296D01*
X397893Y149303D01*
Y151897D01*
X397892Y151904D01*
Y153900D01*
X397816Y154280D01*
X397601Y154603D01*
X397278Y154818D01*
X396898Y154894D01*
X396517Y154818D01*
X396195Y154603D01*
X395979Y154280D01*
X395903Y153900D01*
Y151904D01*
X395902Y151897D01*
Y149303D01*
X395903Y149296D01*
Y146668D01*
X395902Y146661D01*
Y144067D01*
X395521Y143800D01*
X395124D01*
X394743Y144067D01*
Y146661D01*
X394742Y146668D01*
Y149296D01*
X394743Y149303D01*
Y151897D01*
X394742Y151904D01*
Y153900D01*
X394667Y154280D01*
X394451Y154603D01*
X394128Y154818D01*
X393748Y154894D01*
X393368Y154818D01*
X393045Y154603D01*
X392830Y154280D01*
X392754Y153900D01*
Y151904D01*
X392753Y151897D01*
Y149303D01*
X392754Y149296D01*
Y146668D01*
X392753Y146661D01*
Y144067D01*
X392372Y143800D01*
X391975D01*
X391594Y144067D01*
Y146661D01*
X391593Y146668D01*
Y149296D01*
X391594Y149303D01*
Y151897D01*
X391593Y151904D01*
Y153900D01*
X391517Y154280D01*
X391301Y154603D01*
X390979Y154818D01*
X390598Y154894D01*
X390218Y154818D01*
X389896Y154603D01*
X389680Y154280D01*
X389604Y153900D01*
Y151904D01*
X389603Y151897D01*
Y149303D01*
X389604Y149296D01*
Y146668D01*
X389603Y146661D01*
Y144067D01*
X389222Y143800D01*
X388825D01*
X388444Y144067D01*
Y146661D01*
X388443Y146668D01*
Y149296D01*
X388444Y149303D01*
Y151897D01*
X388443Y151904D01*
Y153900D01*
X388367Y154280D01*
X388152Y154603D01*
X387829Y154818D01*
X387449Y154894D01*
X387068Y154818D01*
X386746Y154603D01*
X386530Y154280D01*
X386455Y153900D01*
Y151904D01*
X386453Y151897D01*
Y149303D01*
X386455Y149296D01*
Y146668D01*
X386453Y146661D01*
Y144067D01*
X386072Y143800D01*
X385676D01*
X385295Y144067D01*
Y146661D01*
X385293Y146668D01*
Y149293D01*
X385295Y149300D01*
Y151900D01*
X385293Y151907D01*
Y153900D01*
X385218Y154280D01*
X385002Y154603D01*
X384680Y154818D01*
X384299Y154894D01*
X383919Y154818D01*
X383596Y154603D01*
X383381Y154280D01*
X383305Y153900D01*
Y151907D01*
X383304Y151900D01*
Y149300D01*
X383305Y149293D01*
Y146668D01*
X383304Y146661D01*
Y144067D01*
X382923Y143800D01*
X382526D01*
X382145Y144067D01*
Y146661D01*
X382144Y146668D01*
Y149296D01*
X382145Y149303D01*
Y150533D01*
X382162Y150618D01*
X382145Y150703D01*
Y151897D01*
X382144Y151904D01*
Y153900D01*
X382068Y154280D01*
X381853Y154603D01*
X381530Y154818D01*
X381150Y154894D01*
X380769Y154818D01*
X380447Y154603D01*
X380231Y154280D01*
X380155Y153900D01*
Y151904D01*
X380154Y151897D01*
Y149303D01*
X380155Y149296D01*
Y146668D01*
X380154Y146661D01*
Y144067D01*
X379773Y143800D01*
X379376D01*
X378995Y144067D01*
Y146661D01*
X378940Y146940D01*
X378782Y147177D01*
X378545Y147335D01*
X378266Y147391D01*
X377734D01*
X377455Y147335D01*
X377383Y147287D01*
X377065Y147676D01*
X377902Y148513D01*
X378400D01*
X378744Y148656D01*
X378844Y148756D01*
X378987Y149100D01*
Y149260D01*
X378995Y149303D01*
Y151897D01*
X378987Y151940D01*
Y152100D01*
X378844Y152444D01*
X378744Y152544D01*
X378400Y152687D01*
X377100D01*
X376756Y152544D01*
X376362Y152151D01*
X375900Y152342D01*
Y153190D01*
X375987Y153400D01*
Y155900D01*
X375900Y156110D01*
Y156600D01*
X370000D01*
Y157237D01*
X370500Y157613D01*
X371100Y157613D01*
X371236Y157669D01*
X371380Y157701D01*
X373141Y158939D01*
X374658Y159887D01*
X374691Y159934D01*
X374744Y159956D01*
X374796Y160080D01*
X374875Y160190D01*
X374865Y160247D01*
X374887Y160300D01*
Y160523D01*
X375588Y161000D01*
X375900D01*
Y162958D01*
X376362Y163149D01*
X377056Y162456D01*
X377104Y162435D01*
X377401Y162304D01*
X377438Y161884D01*
X377521Y161171D01*
X377599Y161031D01*
X377660Y160883D01*
X377688Y160871D01*
X377702Y160845D01*
X377856Y160801D01*
X378005Y160740D01*
X378218D01*
X378355Y160713D01*
X378431Y160662D01*
X378481Y160587D01*
X378508Y160449D01*
Y157903D01*
X378571Y157751D01*
X378619Y157594D01*
X378703Y157491D01*
X378726Y157479D01*
X378735Y157456D01*
X378751Y157449D01*
X378793Y157387D01*
X379030Y157229D01*
X379309Y157173D01*
X379840D01*
X380120Y157229D01*
X380357Y157387D01*
X380398Y157449D01*
X380414Y157456D01*
X380424Y157479D01*
X380446Y157491D01*
X380531Y157594D01*
X380578Y157751D01*
X380641Y157903D01*
Y160497D01*
X380640Y160499D01*
X380643Y160504D01*
Y163132D01*
X380640Y163137D01*
X380641Y163139D01*
Y165685D01*
X380684Y165899D01*
X380674Y165948D01*
X380693Y165994D01*
Y166952D01*
X380740Y167190D01*
X380848Y167352D01*
X381010Y167460D01*
X381200Y167498D01*
X381390Y167460D01*
X381552Y167352D01*
X381660Y167190D01*
X381707Y166952D01*
Y164535D01*
X381667Y164335D01*
X381677Y164286D01*
X381658Y164240D01*
Y163139D01*
X381659Y163137D01*
X381657Y163132D01*
Y160504D01*
X381659Y160499D01*
X381658Y160497D01*
Y159297D01*
X381677Y159251D01*
X381667Y159202D01*
X381707Y159002D01*
Y157800D01*
X381850Y157456D01*
X381915Y157429D01*
X381943Y157387D01*
X382179Y157229D01*
X382459Y157173D01*
X382990D01*
X383269Y157229D01*
X383506Y157387D01*
X383610Y157543D01*
X383648Y157558D01*
X383668Y157607D01*
X383712Y157636D01*
X383737Y157774D01*
X383791Y157903D01*
Y160497D01*
X383790Y160499D01*
X383792Y160504D01*
Y163129D01*
X383790Y163134D01*
X383791Y163136D01*
Y165736D01*
X383790Y165738D01*
X383792Y165744D01*
X383793Y167102D01*
X383840Y167340D01*
X383948Y167501D01*
X384109Y167609D01*
X384300Y167647D01*
X384490Y167609D01*
X384651Y167501D01*
X384759Y167340D01*
X384807Y167102D01*
X384806Y165742D01*
X384808Y165738D01*
X384808Y165736D01*
Y163136D01*
X384808Y163134D01*
X384806Y163129D01*
Y160504D01*
X384808Y160499D01*
X384808Y160497D01*
Y157903D01*
X384861Y157774D01*
X384887Y157637D01*
X384930Y157607D01*
X384950Y157558D01*
X384988Y157543D01*
X385092Y157387D01*
X385329Y157229D01*
X385608Y157173D01*
X386140D01*
X386419Y157229D01*
X386656Y157387D01*
X386760Y157543D01*
X386798Y157558D01*
X386818Y157607D01*
X386861Y157636D01*
X386887Y157774D01*
X386940Y157903D01*
Y160497D01*
X386940Y160499D01*
X386942Y160504D01*
Y163132D01*
X386940Y163137D01*
X386940Y163139D01*
Y165734D01*
X386940Y165735D01*
X386942Y165741D01*
Y167103D01*
X386989Y167342D01*
X387097Y167503D01*
X387258Y167611D01*
X387449Y167649D01*
X387639Y167611D01*
X387801Y167503D01*
X387908Y167342D01*
X387956Y167103D01*
Y165741D01*
X387958Y165735D01*
X387957Y165734D01*
Y163139D01*
X387958Y163137D01*
X387956Y163132D01*
Y160504D01*
X387958Y160499D01*
X387957Y160497D01*
Y157903D01*
X388011Y157774D01*
X388036Y157636D01*
X388080Y157607D01*
X388100Y157558D01*
X388138Y157543D01*
X388242Y157387D01*
X388479Y157229D01*
X388758Y157173D01*
X389289D01*
X389569Y157229D01*
X389805Y157387D01*
X389847Y157449D01*
X389863Y157456D01*
X389873Y157479D01*
X389895Y157491D01*
X389979Y157594D01*
X390027Y157751D01*
X390090Y157903D01*
Y160497D01*
X390089Y160499D01*
X390091Y160504D01*
Y163132D01*
X390089Y163137D01*
X390090Y163139D01*
Y165734D01*
X390089Y165736D01*
X390092Y165743D01*
X390092Y167102D01*
X390140Y167340D01*
X390248Y167501D01*
X390409Y167609D01*
X390599Y167647D01*
X390790Y167609D01*
X390951Y167501D01*
X391059Y167340D01*
X391106Y167102D01*
X391106Y165738D01*
X391107Y165735D01*
X391107Y165734D01*
Y163139D01*
X391108Y163137D01*
X391106Y163132D01*
Y160504D01*
X391108Y160499D01*
X391107Y160497D01*
Y157903D01*
X391170Y157751D01*
X391217Y157594D01*
X391302Y157491D01*
X391324Y157479D01*
X391334Y157456D01*
X391350Y157449D01*
X391391Y157387D01*
X391628Y157229D01*
X391908Y157173D01*
X392439D01*
X392718Y157229D01*
X392955Y157387D01*
X393059Y157543D01*
X393097Y157558D01*
X393117Y157607D01*
X393160Y157636D01*
X393186Y157774D01*
X393240Y157903D01*
Y160497D01*
X393239Y160499D01*
X393241Y160504D01*
Y163132D01*
X393239Y163137D01*
X393240Y163139D01*
Y165734D01*
X393239Y165735D01*
X393241Y165741D01*
Y166804D01*
X393264Y166919D01*
X393245Y167014D01*
X393264Y167109D01*
X393256Y167150D01*
X393293Y167338D01*
X393400Y167498D01*
X393560Y167604D01*
X393748Y167642D01*
X393936Y167604D01*
X394096Y167498D01*
X394203Y167338D01*
X394240Y167150D01*
X394232Y167109D01*
X394251Y167014D01*
X394232Y166919D01*
X394255Y166804D01*
Y165741D01*
X394257Y165735D01*
X394256Y165734D01*
Y163139D01*
X394257Y163137D01*
X394255Y163132D01*
Y160504D01*
X394257Y160499D01*
X394256Y160497D01*
Y157903D01*
X394310Y157774D01*
X394336Y157636D01*
X394379Y157607D01*
X394399Y157558D01*
X394437Y157543D01*
X394541Y157387D01*
X394778Y157229D01*
X395057Y157173D01*
X395589D01*
X395868Y157229D01*
X396105Y157387D01*
X396209Y157543D01*
X396247Y157558D01*
X396267Y157607D01*
X396310Y157636D01*
X396336Y157774D01*
X396389Y157903D01*
Y160497D01*
X396388Y160499D01*
X396391Y160504D01*
Y163132D01*
X396388Y163137D01*
X396389Y163139D01*
Y165734D01*
X396388Y165735D01*
X396391Y165741D01*
Y167102D01*
X396438Y167340D01*
X396546Y167501D01*
X396707Y167609D01*
X396898Y167647D01*
X397088Y167609D01*
X397249Y167501D01*
X397357Y167340D01*
X397405Y167102D01*
Y165741D01*
X397407Y165735D01*
X397406Y165734D01*
Y163139D01*
X397407Y163137D01*
X397405Y163132D01*
Y160504D01*
X397407Y160499D01*
X397406Y160497D01*
Y157903D01*
X397460Y157774D01*
X397485Y157636D01*
X397529Y157607D01*
X397549Y157558D01*
X397586Y157543D01*
X397691Y157387D01*
X397927Y157229D01*
X398207Y157173D01*
X398738D01*
X399018Y157229D01*
X399254Y157387D01*
X399358Y157543D01*
X399396Y157558D01*
X399416Y157607D01*
X399460Y157636D01*
X399485Y157774D01*
X399539Y157903D01*
Y160497D01*
X399538Y160499D01*
X399540Y160504D01*
Y163132D01*
X399538Y163137D01*
X399539Y163139D01*
Y165734D01*
X399538Y165735D01*
X399540Y165741D01*
Y166899D01*
X399553Y166966D01*
X399536Y167055D01*
X399578Y167265D01*
X399865Y167700D01*
X410000D01*
Y143800D01*
D02*
G37*
G36*
X277900Y173750D02*
X279900Y171750D01*
X279900Y168250D01*
X278800Y168250D01*
X276700Y170350D01*
X269800D01*
Y173750D01*
X277900Y173750D01*
D02*
G37*
G36*
X272500Y168350D02*
Y166074D01*
X271460Y165150D01*
X271400D01*
X270900Y164650D01*
Y163650D01*
X270000D01*
X270000Y168133D01*
X270417Y168550D01*
X272300D01*
X272500Y168350D01*
D02*
G37*
G36*
X264700Y168350D02*
X264700Y166550D01*
X266300Y164950D01*
X267049D01*
X267310Y164649D01*
X267377Y164615D01*
X267419Y164553D01*
X267635Y164409D01*
X267725Y164273D01*
X267750Y164150D01*
X267474Y163672D01*
X267454Y163650D01*
X263400D01*
X261300Y165750D01*
X261300Y168750D01*
X264300Y168750D01*
X264700Y168350D01*
D02*
G37*
G36*
X409800Y168365D02*
X399100Y168365D01*
Y167360D01*
X399058Y167150D01*
X399076Y167061D01*
X399053Y166947D01*
Y165741D01*
X399052Y165734D01*
Y163139D01*
X399053Y163132D01*
Y160504D01*
X399052Y160497D01*
Y157903D01*
X398562Y157800D01*
X398382D01*
X397893Y157903D01*
Y160497D01*
X397892Y160504D01*
Y163132D01*
X397893Y163139D01*
Y165734D01*
X397892Y165741D01*
Y167150D01*
X397816Y167530D01*
X397601Y167852D01*
X397278Y168068D01*
X396898Y168144D01*
X396517Y168068D01*
X396195Y167852D01*
X395979Y167530D01*
X395903Y167150D01*
Y165741D01*
X395902Y165734D01*
Y163139D01*
X395903Y163132D01*
Y160504D01*
X395902Y160497D01*
Y157903D01*
X395413Y157800D01*
X395233D01*
X394743Y157903D01*
Y160497D01*
X394742Y160504D01*
Y163132D01*
X394743Y163139D01*
Y165734D01*
X394742Y165741D01*
Y166852D01*
X394710Y167014D01*
X394737Y167150D01*
X394662Y167528D01*
X394447Y167849D01*
X394127Y168063D01*
X393748Y168139D01*
X393370Y168063D01*
X393049Y167849D01*
X392834Y167528D01*
X392759Y167150D01*
X392786Y167014D01*
X392754Y166852D01*
Y165741D01*
X392753Y165734D01*
Y163139D01*
X392754Y163132D01*
Y160504D01*
X392753Y160497D01*
Y157903D01*
X392263Y157800D01*
X391678D01*
X391594Y157903D01*
Y160497D01*
X391593Y160504D01*
Y163132D01*
X391594Y163139D01*
Y165734D01*
X391593Y165738D01*
X391593Y167149D01*
X391518Y167530D01*
X391302Y167852D01*
X390980Y168068D01*
X390600Y168144D01*
X390219Y168068D01*
X389897Y167853D01*
X389681Y167530D01*
X389605Y167150D01*
X389605Y165743D01*
X389603Y165734D01*
Y163139D01*
X389604Y163132D01*
Y160504D01*
X389603Y160497D01*
Y157903D01*
X389519Y157800D01*
X388934D01*
X388444Y157903D01*
Y160497D01*
X388443Y160504D01*
Y163132D01*
X388444Y163139D01*
Y165734D01*
X388443Y165741D01*
Y167151D01*
X388367Y167532D01*
X388152Y167854D01*
X387829Y168070D01*
X387449Y168145D01*
X387068Y168070D01*
X386746Y167854D01*
X386530Y167532D01*
X386455Y167151D01*
Y165741D01*
X386453Y165734D01*
Y163139D01*
X386455Y163132D01*
Y160504D01*
X386453Y160497D01*
Y157903D01*
X385964Y157800D01*
X385783D01*
X385295Y157903D01*
Y160497D01*
X385293Y160504D01*
Y163129D01*
X385295Y163136D01*
Y165736D01*
X385294Y165742D01*
X385294Y167149D01*
X385218Y167530D01*
X385003Y167852D01*
X384680Y168068D01*
X384300Y168144D01*
X383919Y168068D01*
X383597Y167853D01*
X383381Y167530D01*
X383306Y167150D01*
X383305Y165744D01*
X383304Y165736D01*
Y163136D01*
X383305Y163129D01*
Y160504D01*
X383304Y160497D01*
Y157903D01*
X382814Y157800D01*
X382194D01*
Y159050D01*
X382145Y159297D01*
Y160497D01*
X382144Y160504D01*
Y163132D01*
X382145Y163139D01*
Y164240D01*
X382194Y164487D01*
Y167000D01*
X382118Y167380D01*
X381903Y167703D01*
X381580Y167918D01*
X381200Y167994D01*
X380820Y167918D01*
X380497Y167703D01*
X380282Y167380D01*
X380206Y167000D01*
Y165994D01*
X380154Y165734D01*
Y163139D01*
X380155Y163132D01*
Y160504D01*
X380154Y160497D01*
Y157903D01*
X380070Y157800D01*
X379080D01*
X378995Y157903D01*
Y160497D01*
X378940Y160776D01*
X378782Y161013D01*
X378545Y161171D01*
X378266Y161227D01*
X378005D01*
X377922Y161940D01*
X378255Y162313D01*
X378500D01*
X378844Y162456D01*
X378987Y162800D01*
Y163097D01*
X378995Y163139D01*
Y165734D01*
X378994Y165741D01*
Y165900D01*
X378987Y165935D01*
Y166300D01*
X378844Y166644D01*
X377188Y168300D01*
X377144Y168687D01*
X376733Y168691D01*
X376500Y168787D01*
X368400Y168787D01*
X368366Y168773D01*
X358800Y168867D01*
X358800Y174300D01*
X372600Y188100D01*
X409800Y188100D01*
X409800Y168365D01*
D02*
G37*
G36*
X371100Y162900D02*
Y160624D01*
X370060Y159700D01*
X370000D01*
X369500Y159200D01*
Y158200D01*
X368600D01*
X368600Y162683D01*
X369017Y163100D01*
X370900D01*
X371100Y162900D01*
D02*
G37*
G36*
X330300Y194600D02*
X332000Y192900D01*
Y149900D01*
X328900Y146800D01*
X319000D01*
X316550Y149250D01*
X302823D01*
X302443Y149516D01*
Y152111D01*
X302441Y152118D01*
Y154746D01*
X302443Y154753D01*
Y157347D01*
X302441Y157354D01*
Y159350D01*
X302366Y159730D01*
X302150Y160053D01*
X301828Y160268D01*
X301447Y160344D01*
X301067Y160268D01*
X300744Y160053D01*
X300529Y159730D01*
X300453Y159350D01*
Y157354D01*
X300452Y157347D01*
Y154753D01*
X300453Y154746D01*
Y152118D01*
X300452Y152111D01*
Y149516D01*
X300071Y149250D01*
X299674D01*
X299293Y149516D01*
Y152111D01*
X299292Y152118D01*
Y154746D01*
X299293Y154753D01*
Y157347D01*
X299292Y157354D01*
Y159350D01*
X299216Y159730D01*
X299001Y160053D01*
X298678Y160268D01*
X298298Y160344D01*
X297917Y160268D01*
X297595Y160053D01*
X297379Y159730D01*
X297304Y159350D01*
Y157354D01*
X297302Y157347D01*
Y154753D01*
X297304Y154746D01*
Y152118D01*
X297302Y152111D01*
Y149516D01*
X296921Y149250D01*
X296524D01*
X296144Y149516D01*
Y152111D01*
X296142Y152118D01*
Y154746D01*
X296144Y154753D01*
Y157347D01*
X296142Y157354D01*
Y159350D01*
X296066Y159730D01*
X295851Y160053D01*
X295529Y160268D01*
X295148Y160344D01*
X294768Y160268D01*
X294445Y160053D01*
X294230Y159730D01*
X294154Y159350D01*
Y157354D01*
X294152Y157347D01*
Y154753D01*
X294154Y154746D01*
Y152118D01*
X294152Y152111D01*
Y149516D01*
X293772Y149250D01*
X293375D01*
X292994Y149516D01*
Y152111D01*
X292992Y152118D01*
Y154746D01*
X292994Y154753D01*
Y157347D01*
X292992Y157354D01*
Y159350D01*
X292917Y159730D01*
X292701Y160053D01*
X292379Y160268D01*
X291998Y160344D01*
X291618Y160268D01*
X291296Y160053D01*
X291080Y159730D01*
X291004Y159350D01*
Y157354D01*
X291003Y157347D01*
Y154753D01*
X291004Y154746D01*
Y152118D01*
X291003Y152111D01*
Y149516D01*
X290622Y149250D01*
X290225D01*
X289844Y149516D01*
Y152111D01*
X289843Y152118D01*
Y154746D01*
X289844Y154753D01*
Y157347D01*
X289843Y157354D01*
Y159350D01*
X289767Y159730D01*
X289552Y160053D01*
X289229Y160268D01*
X288849Y160344D01*
X288468Y160268D01*
X288146Y160053D01*
X287930Y159730D01*
X287855Y159350D01*
Y157354D01*
X287853Y157347D01*
Y154753D01*
X287855Y154746D01*
Y152118D01*
X287853Y152111D01*
Y149516D01*
X287473Y149250D01*
X287075D01*
X286695Y149516D01*
Y152111D01*
X286693Y152118D01*
Y154743D01*
X286695Y154750D01*
Y157350D01*
X286693Y157357D01*
Y159350D01*
X286618Y159730D01*
X286402Y160053D01*
X286080Y160268D01*
X285699Y160344D01*
X285319Y160268D01*
X284996Y160053D01*
X284781Y159730D01*
X284705Y159350D01*
Y157357D01*
X284704Y157350D01*
Y154750D01*
X284705Y154743D01*
Y152118D01*
X284704Y152111D01*
Y149516D01*
X284323Y149250D01*
X283926D01*
X283545Y149516D01*
Y152111D01*
X283544Y152118D01*
Y154746D01*
X283545Y154753D01*
Y155983D01*
X283562Y156068D01*
X283545Y156153D01*
Y157347D01*
X283544Y157354D01*
Y159350D01*
X283468Y159730D01*
X283253Y160053D01*
X282930Y160268D01*
X282550Y160344D01*
X282169Y160268D01*
X281847Y160053D01*
X281631Y159730D01*
X281556Y159350D01*
Y157354D01*
X281554Y157347D01*
Y154753D01*
X281556Y154746D01*
Y152118D01*
X281554Y152111D01*
Y149516D01*
X281173Y149250D01*
X280776D01*
X280396Y149516D01*
Y152111D01*
X280340Y152390D01*
X280182Y152627D01*
X279945Y152785D01*
X279666Y152841D01*
X279134D01*
X278855Y152785D01*
X278783Y152737D01*
X278465Y153126D01*
X279302Y153963D01*
X279800D01*
X280144Y154106D01*
X280244Y154206D01*
X280387Y154550D01*
Y154710D01*
X280396Y154753D01*
Y157347D01*
X280387Y157390D01*
Y157550D01*
X280244Y157894D01*
X280144Y157994D01*
X279800Y158137D01*
X278500D01*
X278156Y157994D01*
X277762Y157601D01*
X277300Y157792D01*
Y158640D01*
X277387Y158850D01*
Y161350D01*
X277300Y161560D01*
Y162050D01*
X271400D01*
Y162687D01*
X271900Y163063D01*
X272500Y163063D01*
X272636Y163119D01*
X272780Y163151D01*
X274541Y164389D01*
X276058Y165337D01*
X276091Y165384D01*
X276144Y165406D01*
X276196Y165530D01*
X276275Y165640D01*
X276265Y165697D01*
X276287Y165750D01*
Y165973D01*
X276988Y166450D01*
X277300D01*
Y168408D01*
X277762Y168599D01*
X278456Y167906D01*
X278800Y167763D01*
X279246D01*
X279313Y167663D01*
Y166650D01*
X279367Y166519D01*
X279395Y166380D01*
X279436Y166352D01*
X279456Y166306D01*
X279587Y166252D01*
X279705Y166173D01*
X279755Y166163D01*
X279831Y166112D01*
X279881Y166036D01*
X279908Y165899D01*
Y163353D01*
X279971Y163201D01*
X280019Y163044D01*
X280103Y162941D01*
X280126Y162929D01*
X280135Y162906D01*
X280152Y162899D01*
X280193Y162837D01*
X280430Y162679D01*
X280709Y162623D01*
X281241D01*
X281520Y162679D01*
X281757Y162837D01*
X281798Y162899D01*
X281814Y162906D01*
X281824Y162929D01*
X281846Y162941D01*
X281931Y163044D01*
X281978Y163201D01*
X282041Y163353D01*
Y165947D01*
X282040Y165949D01*
X282043Y165954D01*
Y168582D01*
X282040Y168587D01*
X282041Y168589D01*
Y171135D01*
X282084Y171349D01*
X282074Y171398D01*
X282093Y171444D01*
Y172402D01*
X282140Y172640D01*
X282248Y172802D01*
X282410Y172910D01*
X282600Y172948D01*
X282790Y172910D01*
X282952Y172802D01*
X283060Y172640D01*
X283107Y172402D01*
Y169985D01*
X283067Y169785D01*
X283077Y169736D01*
X283058Y169690D01*
Y168589D01*
X283059Y168587D01*
X283057Y168582D01*
Y165954D01*
X283059Y165949D01*
X283058Y165947D01*
Y164747D01*
X283077Y164701D01*
X283067Y164652D01*
X283107Y164452D01*
Y163250D01*
X283250Y162906D01*
X283315Y162879D01*
X283343Y162837D01*
X283579Y162679D01*
X283859Y162623D01*
X284390D01*
X284669Y162679D01*
X284906Y162837D01*
X285010Y162993D01*
X285048Y163008D01*
X285068Y163057D01*
X285111Y163086D01*
X285137Y163224D01*
X285191Y163353D01*
Y165947D01*
X285190Y165949D01*
X285192Y165954D01*
Y168579D01*
X285190Y168584D01*
X285191Y168586D01*
Y171186D01*
X285190Y171188D01*
X285192Y171194D01*
X285193Y172552D01*
X285240Y172790D01*
X285348Y172951D01*
X285509Y173059D01*
X285700Y173097D01*
X285890Y173059D01*
X286052Y172951D01*
X286159Y172790D01*
X286207Y172552D01*
X286206Y171192D01*
X286208Y171188D01*
X286208Y171186D01*
Y168586D01*
X286208Y168584D01*
X286206Y168579D01*
Y165954D01*
X286208Y165949D01*
X286208Y165947D01*
Y163353D01*
X286261Y163224D01*
X286287Y163087D01*
X286330Y163057D01*
X286350Y163008D01*
X286388Y162993D01*
X286492Y162837D01*
X286729Y162679D01*
X287008Y162623D01*
X287540D01*
X287819Y162679D01*
X288056Y162837D01*
X288160Y162993D01*
X288198Y163008D01*
X288218Y163057D01*
X288261Y163086D01*
X288287Y163224D01*
X288340Y163353D01*
Y165947D01*
X288340Y165949D01*
X288342Y165954D01*
Y168582D01*
X288340Y168587D01*
X288340Y168589D01*
Y171184D01*
X288340Y171185D01*
X288342Y171191D01*
Y172553D01*
X288389Y172792D01*
X288497Y172953D01*
X288658Y173061D01*
X288849Y173099D01*
X289039Y173061D01*
X289201Y172953D01*
X289308Y172792D01*
X289356Y172553D01*
Y171191D01*
X289358Y171185D01*
X289357Y171184D01*
Y168589D01*
X289358Y168587D01*
X289356Y168582D01*
Y165954D01*
X289358Y165949D01*
X289357Y165947D01*
Y163353D01*
X289411Y163224D01*
X289437Y163086D01*
X289480Y163057D01*
X289500Y163008D01*
X289538Y162993D01*
X289642Y162837D01*
X289879Y162679D01*
X290158Y162623D01*
X290689D01*
X290969Y162679D01*
X291205Y162837D01*
X291247Y162899D01*
X291263Y162906D01*
X291273Y162929D01*
X291295Y162941D01*
X291379Y163044D01*
X291427Y163201D01*
X291490Y163353D01*
Y165947D01*
X291489Y165949D01*
X291491Y165954D01*
Y168582D01*
X291489Y168587D01*
X291490Y168589D01*
Y171184D01*
X291489Y171186D01*
X291492Y171193D01*
X291492Y172552D01*
X291540Y172790D01*
X291648Y172951D01*
X291809Y173059D01*
X292000Y173097D01*
X292190Y173059D01*
X292351Y172951D01*
X292459Y172790D01*
X292506Y172552D01*
X292506Y171188D01*
X292507Y171185D01*
X292507Y171184D01*
Y168589D01*
X292508Y168587D01*
X292506Y168582D01*
Y165954D01*
X292508Y165949D01*
X292507Y165947D01*
Y163353D01*
X292570Y163201D01*
X292617Y163044D01*
X292702Y162941D01*
X292724Y162929D01*
X292734Y162906D01*
X292750Y162899D01*
X292792Y162837D01*
X293028Y162679D01*
X293307Y162623D01*
X293839D01*
X294118Y162679D01*
X294355Y162837D01*
X294459Y162993D01*
X294497Y163008D01*
X294517Y163057D01*
X294560Y163086D01*
X294586Y163224D01*
X294640Y163353D01*
Y165947D01*
X294639Y165949D01*
X294641Y165954D01*
Y168582D01*
X294639Y168587D01*
X294640Y168589D01*
Y171184D01*
X294639Y171185D01*
X294641Y171191D01*
Y172254D01*
X294664Y172369D01*
X294645Y172464D01*
X294664Y172559D01*
X294656Y172600D01*
X294693Y172788D01*
X294800Y172948D01*
X294960Y173055D01*
X295148Y173092D01*
X295336Y173055D01*
X295496Y172948D01*
X295603Y172788D01*
X295640Y172600D01*
X295632Y172559D01*
X295651Y172464D01*
X295632Y172369D01*
X295655Y172254D01*
Y171191D01*
X295657Y171185D01*
X295656Y171184D01*
Y168589D01*
X295657Y168587D01*
X295655Y168582D01*
Y165954D01*
X295657Y165949D01*
X295656Y165947D01*
Y163353D01*
X295710Y163224D01*
X295736Y163086D01*
X295779Y163057D01*
X295799Y163008D01*
X295837Y162993D01*
X295941Y162837D01*
X296178Y162679D01*
X296457Y162623D01*
X296989D01*
X297268Y162679D01*
X297505Y162837D01*
X297609Y162993D01*
X297646Y163008D01*
X297667Y163057D01*
X297710Y163086D01*
X297736Y163224D01*
X297789Y163353D01*
Y165947D01*
X297788Y165949D01*
X297791Y165954D01*
Y168582D01*
X297788Y168587D01*
X297789Y168589D01*
Y171184D01*
X297788Y171185D01*
X297791Y171191D01*
Y172552D01*
X297838Y172790D01*
X297946Y172951D01*
X298107Y173059D01*
X298298Y173097D01*
X298488Y173059D01*
X298649Y172951D01*
X298757Y172790D01*
X298805Y172552D01*
Y171191D01*
X298807Y171185D01*
X298806Y171184D01*
Y168589D01*
X298807Y168587D01*
X298805Y168582D01*
Y165954D01*
X298807Y165949D01*
X298806Y165947D01*
Y163353D01*
X298860Y163224D01*
X298885Y163086D01*
X298929Y163057D01*
X298949Y163008D01*
X298986Y162993D01*
X299091Y162837D01*
X299327Y162679D01*
X299607Y162623D01*
X300138D01*
X300417Y162679D01*
X300654Y162837D01*
X300758Y162993D01*
X300796Y163008D01*
X300816Y163057D01*
X300860Y163086D01*
X300885Y163224D01*
X300939Y163353D01*
Y165947D01*
X300938Y165949D01*
X300940Y165954D01*
Y168582D01*
X300938Y168587D01*
X300939Y168589D01*
Y171184D01*
X300938Y171185D01*
X300940Y171191D01*
Y172349D01*
X300954Y172416D01*
X300936Y172505D01*
X300978Y172715D01*
X301265Y173150D01*
X311400D01*
Y173100D01*
X313900Y173100D01*
Y173100D01*
X315300Y174500D01*
X315300Y189100D01*
X321100Y194900D01*
X330300D01*
Y194600D01*
D02*
G37*
G36*
X276900Y161350D02*
Y158850D01*
X276800Y158750D01*
X274800D01*
X274400Y159150D01*
Y159450D01*
X273400Y160450D01*
X272600D01*
X272500Y160491D01*
X272500Y160491D01*
X271659D01*
X271500Y160650D01*
Y161350D01*
X271600Y161450D01*
X276800D01*
X276900Y161350D01*
D02*
G37*
G36*
X212900Y237900D02*
X231700D01*
Y232800D01*
X213500D01*
X209100Y228400D01*
X196941D01*
X196900Y228500D01*
Y242300D01*
X208500D01*
X212900Y237900D01*
D02*
G37*
G36*
X156200Y254800D02*
X156200Y227100D01*
X130600Y227100D01*
X130600Y252000D01*
X108800D01*
X108100Y252700D01*
Y255400D01*
X108900Y256200D01*
X154800D01*
X156200Y254800D01*
D02*
G37*
G36*
X621165Y232535D02*
Y199935D01*
X621200Y199900D01*
X611000Y189700D01*
X475000D01*
X470600Y194100D01*
Y205176D01*
X475224Y209800D01*
X562400D01*
X570300Y217700D01*
Y228000D01*
X579100Y236800D01*
X616900D01*
X621165Y232535D01*
D02*
G37*
G36*
X106600Y249800D02*
X112900D01*
X113700Y249000D01*
Y236900D01*
X113600D01*
X112700Y236000D01*
X107700D01*
X94300Y249400D01*
Y251800D01*
X94400Y251900D01*
X104500D01*
X106600Y249800D01*
D02*
G37*
G36*
X133400Y267900D02*
X133300Y267800D01*
X106100Y267800D01*
X102600Y264300D01*
X94600D01*
X94500Y264400D01*
Y279100D01*
X133400D01*
X133400Y267900D01*
D02*
G37*
G36*
X243500Y161600D02*
X226500Y161600D01*
Y168300D01*
X243500D01*
X243500Y161600D01*
D02*
G37*
G36*
X62800Y269100D02*
X70100Y261800D01*
X79100D01*
Y254659D01*
X78641Y254200D01*
X66400Y254200D01*
X60600Y260000D01*
X24500D01*
X24400Y260100D01*
Y269000D01*
X51800Y269075D01*
Y269100D01*
X62800Y269100D01*
D02*
G37*
G36*
X275800Y165750D02*
X275000Y165250D01*
X274272Y164795D01*
X272500Y163550D01*
X271700Y163550D01*
X271600Y163650D01*
Y164550D01*
X273400Y166150D01*
X273400Y168550D01*
X275800D01*
Y165750D01*
D02*
G37*
G36*
X375500Y155900D02*
Y153400D01*
X375400Y153300D01*
X373400D01*
X373000Y153700D01*
Y154000D01*
X372000Y155000D01*
X371199D01*
X371100Y155041D01*
X371100Y155041D01*
X370259D01*
X370100Y155200D01*
Y155900D01*
X370200Y156000D01*
X375400D01*
X375500Y155900D01*
D02*
G37*
G36*
X237250Y160900D02*
X237680Y160500D01*
X237758Y160110D01*
X237963Y159750D01*
X237758Y159390D01*
X237680Y159000D01*
X237758Y158610D01*
X237979Y158279D01*
X238310Y158058D01*
X238700Y157980D01*
X239090Y158058D01*
X239421Y158279D01*
X239642Y158610D01*
X239720Y159000D01*
X239642Y159390D01*
X239438Y159750D01*
X239642Y160110D01*
X239720Y160500D01*
X240150Y160900D01*
X244300D01*
X244300Y154323D01*
X244212Y154253D01*
X243800Y154102D01*
X243590Y154242D01*
X243200Y154320D01*
X242810Y154242D01*
X242479Y154021D01*
X242258Y153690D01*
X242180Y153300D01*
X242258Y152910D01*
X242479Y152579D01*
X242810Y152358D01*
X243200Y152280D01*
X243590Y152358D01*
X243800Y152498D01*
X244212Y152347D01*
X244300Y152277D01*
X244300Y139100D01*
X226600Y139100D01*
X226600Y160900D01*
X237250Y160900D01*
D02*
G37*
G36*
X368100Y157183D02*
X368100Y153700D01*
X366700Y152300D01*
X363800Y152300D01*
X362400Y150900D01*
X362400Y149554D01*
X362047Y149200D01*
X359400Y149200D01*
X359100Y149500D01*
Y157100D01*
X359600Y157600D01*
X367683D01*
X368100Y157183D01*
D02*
G37*
G36*
X376500Y168300D02*
X378500Y166300D01*
X378500Y162800D01*
X377400Y162800D01*
X375300Y164900D01*
X368400D01*
Y168300D01*
X376500Y168300D01*
D02*
G37*
G36*
X272900Y159550D02*
Y150950D01*
X269700Y150950D01*
X269700Y155950D01*
X271500Y157750D01*
X271500Y159850D01*
X271600Y159950D01*
X272500D01*
X272900Y159550D01*
D02*
G37*
G36*
X279900Y157550D02*
Y154550D01*
X279800Y154450D01*
X279100D01*
X277500Y152850D01*
X277500Y151050D01*
X274200Y151050D01*
X274200Y156250D01*
X274600Y156650D01*
X277500D01*
X278500Y157650D01*
X279800D01*
X279900Y157550D01*
D02*
G37*
%LPC*%
G36*
X170392Y13087D02*
X137692D01*
X137348Y12944D01*
X137205Y12600D01*
Y5800D01*
X137348Y5456D01*
X137692Y5313D01*
X170392D01*
X170737Y5456D01*
X170879Y5800D01*
Y12600D01*
X170737Y12944D01*
X170392Y13087D01*
D02*
G37*
G36*
X171092Y70212D02*
X138392D01*
X138048Y70069D01*
X137905Y69725D01*
Y62925D01*
X138048Y62580D01*
X138392Y62438D01*
X171092D01*
X171437Y62580D01*
X171579Y62925D01*
Y69725D01*
X171437Y70069D01*
X171092Y70212D01*
D02*
G37*
G36*
X505500Y98987D02*
X473200D01*
X472856Y98844D01*
X472713Y98500D01*
Y91700D01*
X472856Y91356D01*
X473200Y91213D01*
X505500D01*
X505844Y91356D01*
X505987Y91700D01*
Y98500D01*
X505844Y98844D01*
X505500Y98987D01*
D02*
G37*
G36*
X223725Y158944D02*
X223345Y158868D01*
X223022Y158652D01*
X222807Y158330D01*
X222731Y157950D01*
Y148123D01*
X222807Y147742D01*
X223022Y147420D01*
X223345Y147204D01*
X223725Y147129D01*
X224106Y147204D01*
X224428Y147420D01*
X224644Y147742D01*
X224719Y148123D01*
Y157950D01*
X224644Y158330D01*
X224428Y158652D01*
X224106Y158868D01*
X223725Y158944D01*
D02*
G37*
G36*
X220576D02*
X220195Y158868D01*
X219873Y158652D01*
X219657Y158330D01*
X219582Y157950D01*
Y148123D01*
X219657Y147742D01*
X219873Y147420D01*
X220195Y147204D01*
X220576Y147129D01*
X220956Y147204D01*
X221279Y147420D01*
X221494Y147742D01*
X221570Y148123D01*
Y157950D01*
X221494Y158330D01*
X221279Y158652D01*
X220956Y158868D01*
X220576Y158944D01*
D02*
G37*
G36*
X198300Y153219D02*
X197412Y153043D01*
X196660Y152540D01*
X196157Y151788D01*
X195981Y150900D01*
X196157Y150012D01*
X196660Y149260D01*
X197412Y148757D01*
X198300Y148581D01*
X199188Y148757D01*
X199940Y149260D01*
X200443Y150012D01*
X200619Y150900D01*
X200443Y151788D01*
X199940Y152540D01*
X199188Y153043D01*
X198300Y153219D01*
D02*
G37*
G36*
X204828Y158944D02*
X204447Y158868D01*
X204125Y158652D01*
X203909Y158330D01*
X203834Y157950D01*
Y148123D01*
X203909Y147742D01*
X204125Y147420D01*
X204447Y147204D01*
X204828Y147129D01*
X205208Y147204D01*
X205531Y147420D01*
X205746Y147742D01*
X205822Y148123D01*
Y157950D01*
X205746Y158330D01*
X205531Y158652D01*
X205208Y158868D01*
X204828Y158944D01*
D02*
G37*
G36*
X207977D02*
X207597Y158868D01*
X207274Y158652D01*
X207059Y158330D01*
X206983Y157950D01*
Y148123D01*
X207059Y147742D01*
X207274Y147420D01*
X207597Y147204D01*
X207977Y147129D01*
X208358Y147204D01*
X208680Y147420D01*
X208896Y147742D01*
X208971Y148123D01*
Y157950D01*
X208896Y158330D01*
X208680Y158652D01*
X208358Y158868D01*
X207977Y158944D01*
D02*
G37*
G36*
X211127D02*
X210746Y158868D01*
X210424Y158652D01*
X210208Y158330D01*
X210133Y157950D01*
Y148123D01*
X210208Y147742D01*
X210424Y147420D01*
X210746Y147204D01*
X211127Y147129D01*
X211507Y147204D01*
X211830Y147420D01*
X212045Y147742D01*
X212121Y148123D01*
Y157950D01*
X212045Y158330D01*
X211830Y158652D01*
X211507Y158868D01*
X211127Y158944D01*
D02*
G37*
G36*
X217426D02*
X217046Y158868D01*
X216723Y158652D01*
X216508Y158330D01*
X216432Y157950D01*
Y148123D01*
X216508Y147742D01*
X216723Y147420D01*
X217046Y147204D01*
X217426Y147129D01*
X217806Y147204D01*
X218129Y147420D01*
X218344Y147742D01*
X218420Y148123D01*
Y157950D01*
X218344Y158330D01*
X218129Y158652D01*
X217806Y158868D01*
X217426Y158944D01*
D02*
G37*
G36*
X214276D02*
X213896Y158868D01*
X213574Y158652D01*
X213358Y158330D01*
X213282Y157950D01*
Y148123D01*
X213358Y147742D01*
X213574Y147420D01*
X213896Y147204D01*
X214276Y147129D01*
X214657Y147204D01*
X214979Y147420D01*
X215195Y147742D01*
X215270Y148123D01*
Y157950D01*
X215195Y158330D01*
X214979Y158652D01*
X214657Y158868D01*
X214276Y158944D01*
D02*
G37*
G36*
X215851Y173145D02*
X215471Y173070D01*
X215148Y172854D01*
X214933Y172532D01*
X214857Y172151D01*
Y162100D01*
X214933Y161720D01*
X215148Y161397D01*
X215471Y161182D01*
X215851Y161106D01*
X216232Y161182D01*
X216554Y161397D01*
X216770Y161720D01*
X216845Y162100D01*
Y172151D01*
X216770Y172532D01*
X216554Y172854D01*
X216232Y173070D01*
X215851Y173145D01*
D02*
G37*
G36*
X209552Y173144D02*
X209172Y173068D01*
X208849Y172853D01*
X208633Y172530D01*
X208558Y172150D01*
Y162100D01*
X208633Y161720D01*
X208849Y161397D01*
X209172Y161182D01*
X209552Y161106D01*
X209932Y161182D01*
X210255Y161397D01*
X210470Y161720D01*
X210546Y162100D01*
Y172150D01*
X210470Y172530D01*
X210255Y172853D01*
X209932Y173068D01*
X209552Y173144D01*
D02*
G37*
G36*
X219001Y173144D02*
X218620Y173068D01*
X218298Y172853D01*
X218297Y172852D01*
X218082Y172529D01*
X218006Y172149D01*
Y162100D01*
X218082Y161720D01*
X218297Y161397D01*
X218620Y161182D01*
X219000Y161106D01*
X219380Y161182D01*
X219703Y161397D01*
X219918Y161720D01*
X219994Y162100D01*
Y172146D01*
X219995Y172150D01*
X219919Y172530D01*
X219704Y172853D01*
X219381Y173068D01*
X219001Y173144D01*
D02*
G37*
G36*
X222100Y172994D02*
X221720Y172918D01*
X221397Y172703D01*
X221182Y172380D01*
X221106Y172000D01*
Y162100D01*
X221182Y161720D01*
X221397Y161397D01*
X221720Y161182D01*
X222100Y161106D01*
X222480Y161182D01*
X222803Y161397D01*
X223018Y161720D01*
X223094Y162100D01*
Y172000D01*
X223018Y172380D01*
X222803Y172703D01*
X222480Y172918D01*
X222100Y172994D01*
D02*
G37*
G36*
X212702Y173144D02*
X212321Y173068D01*
X211999Y172853D01*
X211783Y172530D01*
X211707Y172150D01*
Y162000D01*
X211783Y161620D01*
X211999Y161297D01*
X212321Y161082D01*
X212702Y161006D01*
X213082Y161082D01*
X213404Y161297D01*
X213620Y161620D01*
X213696Y162000D01*
Y172150D01*
X213620Y172530D01*
X213404Y172853D01*
X213082Y173068D01*
X212702Y173144D01*
D02*
G37*
G36*
X206402D02*
X206022Y173068D01*
X205699Y172853D01*
X205484Y172530D01*
X205408Y172150D01*
Y162100D01*
X205484Y161720D01*
X205699Y161397D01*
X206022Y161182D01*
X206402Y161106D01*
X206783Y161182D01*
X207105Y161397D01*
X207321Y161720D01*
X207397Y162100D01*
Y172150D01*
X207321Y172530D01*
X207105Y172853D01*
X206783Y173068D01*
X206402Y173144D01*
D02*
G37*
G36*
X203253D02*
X202872Y173068D01*
X202550Y172853D01*
X202334Y172530D01*
X202259Y172150D01*
Y162100D01*
X202334Y161720D01*
X202550Y161397D01*
X202872Y161182D01*
X203253Y161106D01*
X203633Y161182D01*
X203956Y161397D01*
X204171Y161720D01*
X204247Y162100D01*
Y172150D01*
X204171Y172530D01*
X203956Y172853D01*
X203633Y173068D01*
X203253Y173144D01*
D02*
G37*
G36*
X180254Y95204D02*
X179980Y95149D01*
X179748Y94994D01*
X179593Y94761D01*
X179538Y94487D01*
X179593Y94213D01*
X179748Y93980D01*
Y93419D01*
X179593Y93186D01*
X179538Y92912D01*
X179593Y92638D01*
X179748Y92405D01*
X179980Y92250D01*
X180254Y92196D01*
X180529Y92250D01*
X180647Y92330D01*
X181133D01*
X181300Y92218D01*
X181592Y92160D01*
X181885Y92218D01*
X182133Y92384D01*
X182299Y92632D01*
X182357Y92925D01*
X182299Y93217D01*
X182133Y93466D01*
Y93884D01*
X182299Y94132D01*
X182357Y94425D01*
X182299Y94717D01*
X182133Y94965D01*
X181885Y95131D01*
X181592Y95189D01*
X181300Y95131D01*
X181133Y95020D01*
X180722D01*
X180529Y95149D01*
X180254Y95204D01*
D02*
G37*
G36*
X462454Y69315D02*
X462161Y69257D01*
X461913Y69091D01*
X461748Y68843D01*
X461690Y68550D01*
X461748Y68257D01*
X461866Y68080D01*
X461913Y68009D01*
X461913Y68009D01*
X461959Y67541D01*
X461884Y67428D01*
X461794Y67293D01*
X461735Y67000D01*
X461794Y66707D01*
X461959Y66459D01*
X462207Y66294D01*
X462500Y66235D01*
X462793Y66294D01*
X462959Y66405D01*
X463571D01*
X463764Y66276D01*
X464038Y66221D01*
X464312Y66276D01*
X464544Y66431D01*
X464700Y66664D01*
X464754Y66938D01*
X464700Y67212D01*
X464555Y67428D01*
X464544Y67447D01*
Y67725D01*
Y68003D01*
X464555Y68022D01*
X464700Y68238D01*
X464754Y68513D01*
X464700Y68787D01*
X464544Y69019D01*
X464312Y69175D01*
X464038Y69229D01*
X463764Y69175D01*
X463720Y69145D01*
X462913D01*
X462747Y69257D01*
X462454Y69315D01*
D02*
G37*
G36*
X179554Y38334D02*
X179183Y38260D01*
X178868Y38049D01*
X178657Y37734D01*
X178583Y37362D01*
X178657Y36990D01*
X178868Y36675D01*
Y36474D01*
X178657Y36159D01*
X178583Y35787D01*
X178657Y35416D01*
X178868Y35100D01*
X179183Y34890D01*
X179554Y34816D01*
X179926Y34890D01*
X180241Y35100D01*
X180311Y35205D01*
X180433D01*
X180600Y35094D01*
X180892Y35035D01*
X181185Y35094D01*
X181433Y35259D01*
X181599Y35507D01*
X181657Y35800D01*
X181599Y36093D01*
X181433Y36341D01*
Y36759D01*
X181599Y37007D01*
X181657Y37300D01*
X181599Y37593D01*
X181433Y37841D01*
X181185Y38006D01*
X180892Y38065D01*
X180600Y38006D01*
X180433Y37895D01*
X180344D01*
X180241Y38049D01*
X179926Y38260D01*
X179554Y38334D01*
D02*
G37*
G36*
X266000Y161939D02*
X265621Y161864D01*
X265301Y161649D01*
X265086Y161328D01*
X265011Y160950D01*
X265086Y160572D01*
X265275Y160200D01*
X265086Y159828D01*
X265011Y159450D01*
X265086Y159072D01*
X265301Y158751D01*
X265621Y158536D01*
X266000Y158461D01*
X266378Y158536D01*
X266601Y158685D01*
X266764D01*
X266986Y158537D01*
X267338Y158467D01*
X267690Y158537D01*
X267989Y158737D01*
X268188Y159036D01*
X268258Y159388D01*
X268188Y159740D01*
X268140Y159812D01*
X268030Y160175D01*
X268140Y160539D01*
X268188Y160610D01*
X268258Y160963D01*
X268188Y161315D01*
X267989Y161614D01*
X267690Y161813D01*
X267338Y161883D01*
X266986Y161813D01*
X266838Y161715D01*
X266601D01*
X266378Y161864D01*
X266000Y161939D01*
D02*
G37*
G36*
X309200Y191437D02*
X276500D01*
X276156Y191294D01*
X276013Y190950D01*
Y184150D01*
X276156Y183806D01*
X276500Y183663D01*
X309200D01*
X309544Y183806D01*
X309687Y184150D01*
Y190950D01*
X309544Y191294D01*
X309200Y191437D01*
D02*
G37*
G36*
X407800Y185987D02*
X375100D01*
X374756Y185844D01*
X374613Y185500D01*
Y178700D01*
X374756Y178356D01*
X375100Y178213D01*
X407800D01*
X408144Y178356D01*
X408287Y178700D01*
Y185500D01*
X408144Y185844D01*
X407800Y185987D01*
D02*
G37*
G36*
X364600Y156265D02*
X364307Y156207D01*
X364059Y156041D01*
X363894Y155793D01*
X363835Y155500D01*
X363894Y155207D01*
X364059Y154959D01*
Y154541D01*
X363894Y154293D01*
X363835Y154000D01*
X363894Y153707D01*
X364059Y153459D01*
X364307Y153294D01*
X364600Y153235D01*
X364893Y153294D01*
X365059Y153405D01*
X365471D01*
X365664Y153276D01*
X365938Y153221D01*
X366212Y153276D01*
X366444Y153431D01*
X366600Y153664D01*
X366654Y153938D01*
X366600Y154212D01*
X366444Y154445D01*
Y155006D01*
X366600Y155238D01*
X366654Y155513D01*
X366600Y155787D01*
X366444Y156019D01*
X366212Y156175D01*
X365938Y156229D01*
X365664Y156175D01*
X365545Y156095D01*
X365059D01*
X364893Y156207D01*
X364600Y156265D01*
D02*
G37*
%LPD*%
D10*
X336200Y130100D02*
D03*
Y135600D02*
D03*
X71048Y242600D02*
D03*
Y237100D02*
D03*
X216500Y272500D02*
D03*
Y267000D02*
D03*
X110148Y237700D02*
D03*
Y232200D02*
D03*
Y253700D02*
D03*
Y248200D02*
D03*
X176048Y264100D02*
D03*
Y269600D02*
D03*
X254500Y259900D02*
D03*
Y254400D02*
D03*
X176148Y247000D02*
D03*
Y252500D02*
D03*
X109848Y270200D02*
D03*
Y264700D02*
D03*
X302900Y108500D02*
D03*
Y114000D02*
D03*
D11*
X362600Y236400D02*
D03*
X368100D02*
D03*
X345900Y236300D02*
D03*
X351400D02*
D03*
X259900Y269500D02*
D03*
X254400D02*
D03*
X222200Y257100D02*
D03*
X216700D02*
D03*
X216800Y216900D02*
D03*
X222300D02*
D03*
X53800Y99200D02*
D03*
X59300D02*
D03*
X93200Y228400D02*
D03*
X98700D02*
D03*
D12*
X544799Y83600D02*
D03*
Y73600D02*
D03*
Y63600D02*
D03*
Y53600D02*
D03*
Y43600D02*
D03*
X616000Y83600D02*
D03*
Y73600D02*
D03*
Y63600D02*
D03*
Y53600D02*
D03*
D13*
Y43600D02*
D03*
D14*
X580400Y41474D02*
D03*
Y85726D02*
D03*
D15*
X365600Y150400D02*
D03*
X360600D02*
D03*
X361500Y162000D02*
D03*
X366500D02*
D03*
X359900Y146600D02*
D03*
X364900D02*
D03*
X360000Y143300D02*
D03*
X365000D02*
D03*
X374700Y146800D02*
D03*
X369700D02*
D03*
X463700Y63400D02*
D03*
X458700D02*
D03*
X180592Y98025D02*
D03*
X185592D02*
D03*
X179892Y40900D02*
D03*
X184892D02*
D03*
X267000Y155850D02*
D03*
X262000D02*
D03*
X459600Y75000D02*
D03*
X464600D02*
D03*
X184692Y86425D02*
D03*
X179692D02*
D03*
X183992Y29300D02*
D03*
X178992D02*
D03*
X262900Y167450D02*
D03*
X267900D02*
D03*
X463000Y59600D02*
D03*
X458000D02*
D03*
X186292Y101825D02*
D03*
X181292D02*
D03*
X180592Y44700D02*
D03*
X185592D02*
D03*
X266300Y152050D02*
D03*
X261300D02*
D03*
X463100Y56300D02*
D03*
X458100D02*
D03*
X186192Y105125D02*
D03*
X181192D02*
D03*
X180492Y48000D02*
D03*
X185492D02*
D03*
X266400Y148750D02*
D03*
X261400D02*
D03*
X467800Y59800D02*
D03*
X472800D02*
D03*
X171492Y101625D02*
D03*
X176492D02*
D03*
X175792Y44500D02*
D03*
X170792D02*
D03*
X271100Y152250D02*
D03*
X276100D02*
D03*
D16*
X404600Y173000D02*
D03*
Y182000D02*
D03*
X395900Y173000D02*
D03*
Y182000D02*
D03*
X387600Y173000D02*
D03*
Y182000D02*
D03*
X379500Y173000D02*
D03*
Y182000D02*
D03*
X502700Y86000D02*
D03*
Y95000D02*
D03*
X141592Y75425D02*
D03*
Y66425D02*
D03*
X140892Y18300D02*
D03*
Y9300D02*
D03*
X306000Y178450D02*
D03*
Y187450D02*
D03*
X494000Y86000D02*
D03*
Y95000D02*
D03*
X150292Y75425D02*
D03*
Y66425D02*
D03*
X149592Y18300D02*
D03*
Y9300D02*
D03*
X297300Y178450D02*
D03*
Y187450D02*
D03*
X485700Y86000D02*
D03*
Y95000D02*
D03*
X158592Y75425D02*
D03*
Y66425D02*
D03*
X157892Y18300D02*
D03*
Y9300D02*
D03*
X289000Y178450D02*
D03*
Y187450D02*
D03*
X477600Y86000D02*
D03*
Y95000D02*
D03*
X166692Y75425D02*
D03*
Y66425D02*
D03*
X165992Y18300D02*
D03*
Y9300D02*
D03*
X280900Y178450D02*
D03*
Y187450D02*
D03*
X54500Y263300D02*
D03*
Y254300D02*
D03*
X259700Y240600D02*
D03*
Y231600D02*
D03*
X189400Y247000D02*
D03*
Y238000D02*
D03*
D17*
X378000Y159200D02*
D03*
X379575Y164436D02*
D03*
X381150D02*
D03*
X382724D02*
D03*
X389024D02*
D03*
X390598D02*
D03*
X387449D02*
D03*
X385874D02*
D03*
X395323D02*
D03*
X396898D02*
D03*
X393748D02*
D03*
X392173D02*
D03*
X400047D02*
D03*
X398472D02*
D03*
Y159200D02*
D03*
X400047D02*
D03*
X392173D02*
D03*
X393748D02*
D03*
X396898D02*
D03*
X395323D02*
D03*
X385874D02*
D03*
X387449D02*
D03*
X390598D02*
D03*
X389024D02*
D03*
X382724D02*
D03*
X384299D02*
D03*
X381150D02*
D03*
X379575D02*
D03*
X378000Y164436D02*
D03*
X378000Y145364D02*
D03*
X379575Y150600D02*
D03*
X381150D02*
D03*
X382724D02*
D03*
X389024D02*
D03*
X390598D02*
D03*
X387449D02*
D03*
X385874D02*
D03*
X395323D02*
D03*
X396898D02*
D03*
X393748D02*
D03*
X392173D02*
D03*
X400047D02*
D03*
X398472D02*
D03*
Y145364D02*
D03*
X400047D02*
D03*
X392173D02*
D03*
X393748D02*
D03*
X396898D02*
D03*
X395323D02*
D03*
X385874D02*
D03*
X387449D02*
D03*
X390598D02*
D03*
X389024D02*
D03*
X382724D02*
D03*
X384299D02*
D03*
X381150D02*
D03*
X379575D02*
D03*
X378000Y150600D02*
D03*
X476100Y72200D02*
D03*
X477675Y77436D02*
D03*
X479250D02*
D03*
X480824D02*
D03*
X487124D02*
D03*
X488698D02*
D03*
X485549D02*
D03*
X483974D02*
D03*
X493423D02*
D03*
X494998D02*
D03*
X491848D02*
D03*
X490273D02*
D03*
X498147D02*
D03*
X496572D02*
D03*
Y72200D02*
D03*
X498147D02*
D03*
X490273D02*
D03*
X491848D02*
D03*
X494998D02*
D03*
X493423D02*
D03*
X483974D02*
D03*
X485549D02*
D03*
X488698D02*
D03*
X487124D02*
D03*
X480824D02*
D03*
X482399D02*
D03*
X479250D02*
D03*
X477675D02*
D03*
X476100Y77436D02*
D03*
X168192Y89225D02*
D03*
X166618Y83989D02*
D03*
X165043D02*
D03*
X163468D02*
D03*
X157169D02*
D03*
X155594D02*
D03*
X158744D02*
D03*
X160318D02*
D03*
X150870D02*
D03*
X149295D02*
D03*
X152444D02*
D03*
X154019D02*
D03*
X146145D02*
D03*
X147720D02*
D03*
Y89225D02*
D03*
X146145D02*
D03*
X154019D02*
D03*
X152444D02*
D03*
X149295D02*
D03*
X150870D02*
D03*
X160318D02*
D03*
X158744D02*
D03*
X155594D02*
D03*
X157169D02*
D03*
X163468D02*
D03*
X161893D02*
D03*
X165043D02*
D03*
X166618D02*
D03*
X168192Y83989D02*
D03*
X167492Y32100D02*
D03*
X165918Y26864D02*
D03*
X164343D02*
D03*
X162768D02*
D03*
X156469D02*
D03*
X154894D02*
D03*
X158044D02*
D03*
X159618D02*
D03*
X150170D02*
D03*
X148595D02*
D03*
X151744D02*
D03*
X153319D02*
D03*
X145445D02*
D03*
X147020D02*
D03*
Y32100D02*
D03*
X145445D02*
D03*
X153319D02*
D03*
X151744D02*
D03*
X148595D02*
D03*
X150170D02*
D03*
X159618D02*
D03*
X158044D02*
D03*
X154894D02*
D03*
X156469D02*
D03*
X162768D02*
D03*
X161193D02*
D03*
X164343D02*
D03*
X165918D02*
D03*
X167492Y26864D02*
D03*
X279400Y164650D02*
D03*
X280975Y169886D02*
D03*
X282550D02*
D03*
X284124D02*
D03*
X290424D02*
D03*
X291998D02*
D03*
X288849D02*
D03*
X287274D02*
D03*
X296723D02*
D03*
X298298D02*
D03*
X295148D02*
D03*
X293573D02*
D03*
X301447D02*
D03*
X299872D02*
D03*
Y164650D02*
D03*
X301447D02*
D03*
X293573D02*
D03*
X295148D02*
D03*
X298298D02*
D03*
X296723D02*
D03*
X287274D02*
D03*
X288849D02*
D03*
X291998D02*
D03*
X290424D02*
D03*
X284124D02*
D03*
X285699D02*
D03*
X282550D02*
D03*
X280975D02*
D03*
X279400Y169886D02*
D03*
X476100Y58364D02*
D03*
X477675Y63600D02*
D03*
X479250D02*
D03*
X480824D02*
D03*
X487124D02*
D03*
X488698D02*
D03*
X485549D02*
D03*
X483974D02*
D03*
X493423D02*
D03*
X494998D02*
D03*
X491848D02*
D03*
X490273D02*
D03*
X498147D02*
D03*
X496572D02*
D03*
Y58364D02*
D03*
X498147D02*
D03*
X490273D02*
D03*
X491848D02*
D03*
X494998D02*
D03*
X493423D02*
D03*
X483974D02*
D03*
X485549D02*
D03*
X488698D02*
D03*
X487124D02*
D03*
X480824D02*
D03*
X482399D02*
D03*
X479250D02*
D03*
X477675D02*
D03*
X476100Y63600D02*
D03*
X168192Y103061D02*
D03*
X166618Y97825D02*
D03*
X165043D02*
D03*
X163468D02*
D03*
X157169D02*
D03*
X155594D02*
D03*
X158744D02*
D03*
X160318D02*
D03*
X150870D02*
D03*
X149295D02*
D03*
X152444D02*
D03*
X154019D02*
D03*
X146145D02*
D03*
X147720D02*
D03*
Y103061D02*
D03*
X146145D02*
D03*
X154019D02*
D03*
X152444D02*
D03*
X149295D02*
D03*
X150870D02*
D03*
X160318D02*
D03*
X158744D02*
D03*
X155594D02*
D03*
X157169D02*
D03*
X163468D02*
D03*
X161893D02*
D03*
X165043D02*
D03*
X166618D02*
D03*
X168192Y97825D02*
D03*
X167492Y45936D02*
D03*
X165918Y40700D02*
D03*
X164343D02*
D03*
X162768D02*
D03*
X156469D02*
D03*
X154894D02*
D03*
X158044D02*
D03*
X159618D02*
D03*
X150170D02*
D03*
X148595D02*
D03*
X151744D02*
D03*
X153319D02*
D03*
X145445D02*
D03*
X147020D02*
D03*
Y45936D02*
D03*
X145445D02*
D03*
X153319D02*
D03*
X151744D02*
D03*
X148595D02*
D03*
X150170D02*
D03*
X159618D02*
D03*
X158044D02*
D03*
X154894D02*
D03*
X156469D02*
D03*
X162768D02*
D03*
X161193D02*
D03*
X164343D02*
D03*
X165918D02*
D03*
X167492Y40700D02*
D03*
X279400Y150814D02*
D03*
X280975Y156050D02*
D03*
X282550D02*
D03*
X284124D02*
D03*
X290424D02*
D03*
X291998D02*
D03*
X288849D02*
D03*
X287274D02*
D03*
X296723D02*
D03*
X298298D02*
D03*
X295148D02*
D03*
X293573D02*
D03*
X301447D02*
D03*
X299872D02*
D03*
Y150814D02*
D03*
X301447D02*
D03*
X293573D02*
D03*
X295148D02*
D03*
X298298D02*
D03*
X296723D02*
D03*
X287274D02*
D03*
X288849D02*
D03*
X291998D02*
D03*
X290424D02*
D03*
X284124D02*
D03*
X285699D02*
D03*
X282550D02*
D03*
X280975D02*
D03*
X279400Y156050D02*
D03*
D18*
X384299Y164436D02*
D03*
Y150600D02*
D03*
X482399Y77436D02*
D03*
X161893Y83989D02*
D03*
X161193Y26864D02*
D03*
X285699Y169886D02*
D03*
X482399Y63600D02*
D03*
X161893Y97825D02*
D03*
X161193Y40700D02*
D03*
X285699Y156050D02*
D03*
D19*
X369900Y161700D02*
D03*
Y166700D02*
D03*
X373300Y166600D02*
D03*
Y161600D02*
D03*
X374400Y149700D02*
D03*
Y154700D02*
D03*
X468000Y74700D02*
D03*
Y79700D02*
D03*
X176292Y86725D02*
D03*
Y81725D02*
D03*
X175592Y29600D02*
D03*
Y24600D02*
D03*
X271300Y167150D02*
D03*
Y172150D02*
D03*
X471400Y74600D02*
D03*
Y79600D02*
D03*
X172892Y81825D02*
D03*
Y86825D02*
D03*
X172192Y29700D02*
D03*
Y24700D02*
D03*
X274700Y167050D02*
D03*
Y172050D02*
D03*
X472500Y67700D02*
D03*
Y62700D02*
D03*
X171792Y98725D02*
D03*
Y93725D02*
D03*
X171092Y36600D02*
D03*
Y41600D02*
D03*
X275800Y160150D02*
D03*
Y155150D02*
D03*
X335300Y108900D02*
D03*
Y113900D02*
D03*
D20*
X365938Y158662D02*
D03*
X367513D02*
D03*
X369087Y158662D02*
D03*
X370662D02*
D03*
X365938Y157087D02*
D03*
X370662Y157087D02*
D03*
X365938Y155513D02*
D03*
X370662Y155513D02*
D03*
X365938Y153938D02*
D03*
X367513D02*
D03*
X369087Y153938D02*
D03*
X370662D02*
D03*
X464038Y71662D02*
D03*
X465613D02*
D03*
X467187Y71662D02*
D03*
X468762D02*
D03*
X464038Y70087D02*
D03*
X468762Y70087D02*
D03*
X464038Y68513D02*
D03*
X468762Y68513D02*
D03*
X464038Y66938D02*
D03*
X465613D02*
D03*
X467187Y66938D02*
D03*
X468762D02*
D03*
X180254Y89763D02*
D03*
X178680D02*
D03*
X177105Y89763D02*
D03*
X175530D02*
D03*
X180254Y91337D02*
D03*
X175530Y91337D02*
D03*
X180254Y92912D02*
D03*
X175530Y92912D02*
D03*
X180254Y94487D02*
D03*
X178680D02*
D03*
X177105Y94487D02*
D03*
X175530D02*
D03*
X179554Y32638D02*
D03*
X177980D02*
D03*
X176405Y32638D02*
D03*
X174830D02*
D03*
X179554Y34213D02*
D03*
X174830Y34213D02*
D03*
X179554Y35787D02*
D03*
X174830Y35787D02*
D03*
X179554Y37362D02*
D03*
X177980D02*
D03*
X176405Y37362D02*
D03*
X174830D02*
D03*
X267338Y164112D02*
D03*
X268913D02*
D03*
X270487Y164112D02*
D03*
X272062D02*
D03*
X267338Y162537D02*
D03*
X272062Y162537D02*
D03*
X267338Y160963D02*
D03*
X272062Y160963D02*
D03*
X267338Y159388D02*
D03*
X268913D02*
D03*
X270487Y159388D02*
D03*
X272062D02*
D03*
D21*
X39200Y252400D02*
D03*
Y265900D02*
D03*
D22*
X327500Y156299D02*
D03*
X341000D02*
D03*
X341200Y171500D02*
D03*
X327700D02*
D03*
D23*
X310550Y108870D02*
D03*
X313050D02*
D03*
X315550D02*
D03*
X318050D02*
D03*
X320550D02*
D03*
X323050D02*
D03*
X325550D02*
D03*
X328050D02*
D03*
X310550Y130130D02*
D03*
X313050D02*
D03*
X315550D02*
D03*
X318050D02*
D03*
X320550D02*
D03*
X323050D02*
D03*
X325550D02*
D03*
D24*
X328050D02*
D03*
D25*
X243300Y267640D02*
D03*
Y260160D02*
D03*
X233900D02*
D03*
Y263900D02*
D03*
Y267640D02*
D03*
D26*
X282376Y134980D02*
D03*
Y131240D02*
D03*
Y127500D02*
D03*
X293400Y134980D02*
D03*
Y127500D02*
D03*
D27*
X201900Y235400D02*
D03*
D28*
X226703D02*
D03*
Y244400D02*
D03*
Y226400D02*
D03*
D29*
X86613Y258041D02*
D03*
D30*
X97342Y265541D02*
D03*
Y260541D02*
D03*
Y255541D02*
D03*
Y250541D02*
D03*
X75885D02*
D03*
Y255541D02*
D03*
Y260541D02*
D03*
Y265541D02*
D03*
D31*
X142848Y273488D02*
D03*
Y234512D02*
D03*
D32*
X245800Y240500D02*
D03*
Y227000D02*
D03*
D33*
X41700Y189300D02*
D03*
Y164300D02*
D03*
X44000Y48500D02*
D03*
Y23500D02*
D03*
X294900Y201900D02*
D03*
Y226900D02*
D03*
X243900Y186100D02*
D03*
Y211100D02*
D03*
D34*
X44300Y62895D02*
D03*
D35*
X59300D02*
D03*
X54300D02*
D03*
X49300D02*
D03*
X54300Y87305D02*
D03*
X44300Y87305D02*
D03*
D36*
X59300D02*
D03*
X49300D02*
D03*
D37*
X344950Y186600D02*
D03*
X326450D02*
D03*
D38*
X462454Y68550D02*
X463950D01*
X185492Y48000D02*
X188000D01*
X258800Y148700D02*
X261350D01*
X261400Y148750D01*
X463950Y68550D02*
X464000D01*
X463950D02*
X464000Y68500D01*
X462500Y67000D02*
X463976D01*
X464038Y66938D01*
X180292Y92925D02*
X181592D01*
X186192Y105125D02*
X188492D01*
X180317Y94425D02*
X181592D01*
X180254Y94487D02*
X180317Y94425D01*
X185392Y43000D02*
Y44400D01*
X179592Y35800D02*
X180892D01*
X179617Y37300D02*
X180892D01*
X179554Y37362D02*
X179617Y37300D01*
X360100Y146900D02*
Y148300D01*
X364600Y155500D02*
X365900D01*
X364600Y154000D02*
X365876D01*
X365938Y153938D01*
X261500Y152350D02*
Y153750D01*
X266000Y160950D02*
X267300D01*
X266000Y159450D02*
X267276D01*
X267338Y159388D01*
X458200Y59900D02*
Y61300D01*
X455800Y56300D02*
X458100D01*
X186092Y100100D02*
Y100125D01*
Y101525D01*
D39*
X346350Y227450D02*
X350856Y222944D01*
X428600Y227000D02*
X429400Y227800D01*
X416200Y227000D02*
X428600D01*
X320550Y130430D02*
X320700Y130280D01*
X422200Y229200D02*
X425100Y232100D01*
X414000Y229200D02*
X422200D01*
X365500Y228400D02*
X372700D01*
X363050Y230850D02*
X365500Y228400D01*
X186092Y100100D02*
X315800D01*
X323050Y103350D02*
Y108870D01*
X320500Y100900D02*
X320550Y100950D01*
Y108870D01*
X318050Y102350D02*
Y108870D01*
X188492Y105125D02*
X190717Y102900D01*
X314700D01*
X315550Y103750D01*
Y108870D01*
X318000Y121100D02*
Y130080D01*
X315500D02*
X315550Y130130D01*
X315500Y124700D02*
Y130080D01*
X320400Y130580D02*
X320550Y130430D01*
Y139650D01*
Y130130D02*
Y130430D01*
Y139650D02*
X321800Y140900D01*
X323050Y130130D02*
Y138150D01*
X315800Y100100D02*
X318050Y102350D01*
D40*
X556200Y14800D02*
Y22400D01*
X435200Y7600D02*
X452014D01*
X164343Y24343D02*
Y26864D01*
X310550Y108870D02*
Y115150D01*
X327400Y115500D02*
X328500Y116600D01*
X325550Y113650D02*
X327400Y115500D01*
X334300Y116600D02*
X335300Y115600D01*
X328500Y116600D02*
X334300D01*
X335300Y113900D02*
Y115600D01*
X325550Y108870D02*
Y113650D01*
X158044Y26864D02*
Y32100D01*
X151744Y26864D02*
Y32100D01*
X148595Y26864D02*
Y32100D01*
X145445Y26864D02*
Y32100D01*
X168192Y106025D02*
Y107525D01*
Y103061D02*
Y106025D01*
X166618Y97825D02*
Y103061D01*
Y95475D02*
Y97825D01*
X166618Y103061D02*
Y105225D01*
X165043Y97825D02*
Y103061D01*
X165024Y97807D02*
X165043Y97825D01*
Y94525D02*
Y97825D01*
X161893D02*
Y103061D01*
Y94525D02*
Y97825D01*
X163468D02*
Y103061D01*
Y95475D02*
Y97825D01*
Y103061D02*
Y105225D01*
X157169Y103061D02*
Y105301D01*
Y97825D02*
Y103061D01*
Y95475D02*
Y97825D01*
X155594D02*
Y103061D01*
X158744Y97825D02*
Y103061D01*
Y94525D02*
Y97825D01*
X160318Y103061D02*
Y105299D01*
Y97825D02*
Y103061D01*
Y95475D02*
Y97825D01*
X150870Y103061D02*
Y105302D01*
Y97825D02*
Y103061D01*
Y95475D02*
Y97825D01*
X149295D02*
Y103061D01*
X152444Y97825D02*
Y103061D01*
Y94525D02*
Y97825D01*
X154019Y103061D02*
Y105298D01*
Y97825D02*
Y103061D01*
Y95475D02*
Y97825D01*
X146145D02*
Y103061D01*
Y94525D02*
Y97825D01*
X147720Y103061D02*
Y105297D01*
Y97825D02*
Y103061D01*
Y95475D02*
Y97825D01*
X146145Y103061D02*
Y106025D01*
Y107525D01*
X152444D02*
Y107573D01*
Y103061D02*
Y106025D01*
Y107525D01*
X158744Y103061D02*
Y106025D01*
Y107525D01*
X155594D02*
Y107623D01*
Y103061D02*
Y106025D01*
Y107525D01*
X165043D02*
Y107575D01*
Y106025D02*
Y107525D01*
Y103061D02*
Y106025D01*
X166618Y83989D02*
Y89225D01*
Y83989D02*
X166618Y83989D01*
X165043D02*
Y89225D01*
X164992Y89374D02*
Y91325D01*
Y89374D02*
X165043Y89324D01*
X164992Y83938D02*
X165043Y83989D01*
X164992Y81425D02*
Y83938D01*
X161893Y83989D02*
Y89225D01*
X161893Y81275D02*
X161893Y83989D01*
X161892Y89226D02*
Y91325D01*
Y89226D02*
X161893Y89225D01*
X163468Y83989D02*
Y89225D01*
X157169Y83989D02*
Y89225D01*
X155594Y83989D02*
Y89225D01*
X155593Y81275D02*
X155594Y83989D01*
X158744Y89225D02*
Y91325D01*
Y83989D02*
Y89225D01*
Y81274D02*
Y83989D01*
X160318D02*
Y89225D01*
X150870Y83989D02*
Y89225D01*
X149295D02*
Y91325D01*
Y83989D02*
Y89225D01*
Y81275D02*
Y83989D01*
X152444Y89225D02*
Y91325D01*
Y83989D02*
Y89225D01*
Y81573D02*
Y83989D01*
X154019D02*
Y89225D01*
X146145D02*
Y91325D01*
Y83989D02*
Y89225D01*
Y81478D02*
Y83989D01*
X147720D02*
Y89225D01*
X160292Y89251D02*
X160318Y89225D01*
X168192Y82525D02*
Y83989D01*
X167492Y48900D02*
Y50400D01*
Y45936D02*
Y48900D01*
X165918Y40700D02*
Y45936D01*
Y38350D02*
Y40700D01*
X165918Y45936D02*
Y48100D01*
X164343Y40700D02*
Y45936D01*
X164324Y40682D02*
X164343Y40700D01*
Y37400D02*
Y40700D01*
X161193D02*
Y45936D01*
Y37400D02*
Y40700D01*
X162768D02*
Y45936D01*
Y38350D02*
Y40700D01*
Y45936D02*
Y48100D01*
X156469Y45936D02*
Y48176D01*
Y40700D02*
Y45936D01*
Y38350D02*
Y40700D01*
X154894D02*
Y45936D01*
X158044Y40700D02*
Y45936D01*
Y37400D02*
Y40700D01*
X159618Y45936D02*
Y48174D01*
Y40700D02*
Y45936D01*
Y38350D02*
Y40700D01*
X150170D02*
Y45936D01*
Y48177D01*
Y38350D02*
Y40700D01*
X148595D02*
Y45936D01*
X151744Y40700D02*
Y45936D01*
Y37400D02*
Y40700D01*
X153319Y45936D02*
Y48173D01*
Y40700D02*
Y45936D01*
Y38350D02*
Y40700D01*
X145445D02*
Y45936D01*
Y37400D02*
Y40700D01*
X147020Y45936D02*
Y48172D01*
Y40700D02*
Y45936D01*
Y38350D02*
Y40700D01*
X145445Y48900D02*
Y50400D01*
Y45936D02*
Y48900D01*
X151744Y50400D02*
Y50448D01*
Y48900D02*
Y50400D01*
Y45936D02*
Y48900D01*
X158044D02*
Y50400D01*
Y45936D02*
Y48900D01*
X154894Y50400D02*
Y50498D01*
Y45936D02*
Y48900D01*
Y50400D01*
X164343D02*
Y50450D01*
Y48900D02*
Y50400D01*
Y45936D02*
Y48900D01*
X165918Y26864D02*
Y32100D01*
Y26864D02*
X165918Y26864D01*
X164343D02*
Y32100D01*
X161192Y32101D02*
Y34200D01*
X161193Y26864D02*
Y32100D01*
X161192Y32101D02*
X161193Y32100D01*
X161193Y24150D02*
X161193Y26864D01*
X162768D02*
Y32100D01*
X156469Y26864D02*
Y32100D01*
X154894Y26864D02*
Y32100D01*
X154893Y24150D02*
X154894Y26864D01*
X158044Y32100D02*
Y34200D01*
Y24149D02*
Y26864D01*
X159618D02*
Y32100D01*
X150170Y26864D02*
Y32100D01*
X148595D02*
Y34200D01*
Y24150D02*
Y26864D01*
X151744Y24448D02*
Y26864D01*
Y32100D02*
Y34200D01*
X153319Y26864D02*
Y32100D01*
X145445D02*
Y34200D01*
Y24353D02*
Y26864D01*
X147020D02*
Y32100D01*
X167492Y25400D02*
Y26864D01*
X378000Y140900D02*
Y142400D01*
Y145364D01*
X379575Y143200D02*
Y145364D01*
X379575Y145364D02*
Y150600D01*
Y152950D01*
X381150Y145364D02*
Y150600D01*
X381168Y150618D01*
X381150Y150600D02*
Y153900D01*
X384299Y145364D02*
Y150600D01*
Y153900D01*
X382724Y143200D02*
Y145364D01*
Y150600D01*
Y152950D01*
X389024Y143124D02*
Y145364D01*
Y150600D01*
Y152950D01*
X390598Y145364D02*
Y150600D01*
X387449Y145364D02*
Y150600D01*
Y153900D01*
X385874Y143126D02*
Y145364D01*
Y150600D01*
Y152950D01*
X395323Y143123D02*
Y145364D01*
Y150600D01*
Y152950D01*
X396898Y145364D02*
Y150600D01*
X393748Y145364D02*
Y150600D01*
Y153900D01*
X392173Y143127D02*
Y145364D01*
Y150600D01*
Y152950D01*
X400047Y145364D02*
Y150600D01*
Y153900D01*
X398472Y143128D02*
Y145364D01*
Y150600D01*
Y152950D01*
X400047Y140900D02*
Y142400D01*
Y145364D01*
X393748Y140852D02*
Y140900D01*
Y142400D01*
Y145364D01*
X387449Y140900D02*
Y142400D01*
Y145364D01*
X390598Y140900D02*
Y142400D01*
Y140802D02*
Y140900D01*
Y142400D02*
Y145364D01*
X381150Y140850D02*
Y140900D01*
Y142400D01*
Y145364D01*
X379575Y159200D02*
Y164436D01*
X379575Y164436D02*
X379575Y164436D01*
X381200Y157100D02*
Y159050D01*
X381150Y159101D02*
X381200Y159050D01*
X381150Y159200D02*
Y164436D01*
X381200Y164487D02*
Y167000D01*
X381150Y164436D02*
X381200Y164487D01*
X384300Y157100D02*
Y159199D01*
X384299Y159200D02*
Y164436D01*
Y159200D02*
X384300Y159199D01*
X384299Y164436D02*
X384300Y167150D01*
X382724Y159200D02*
Y164436D01*
X389024Y159200D02*
Y164436D01*
X390598Y159200D02*
Y164436D01*
X390599Y167150D01*
X387449Y157100D02*
Y159200D01*
Y164436D01*
Y167151D01*
X385874Y159200D02*
Y164436D01*
X395323Y159200D02*
Y164436D01*
X396898Y157100D02*
Y159200D01*
Y164436D01*
Y167150D01*
X393748Y157100D02*
Y159200D01*
Y164436D01*
Y166852D01*
X392173Y159200D02*
Y164436D01*
X400047Y157100D02*
Y159200D01*
Y164436D01*
Y166947D01*
X398472Y159200D02*
Y164436D01*
X385874Y159200D02*
X385900Y159174D01*
X378000Y164436D02*
Y165900D01*
X279400Y146350D02*
Y147850D01*
Y150814D01*
X280975Y148650D02*
Y150814D01*
X280975Y150814D02*
Y156050D01*
Y158400D01*
X282550Y156050D02*
X282568Y156068D01*
X282550Y150814D02*
Y156050D01*
Y159350D01*
X285699Y150814D02*
Y156050D01*
Y159350D01*
X284124Y148650D02*
Y150814D01*
Y156050D01*
Y158400D01*
X290424Y148574D02*
Y150814D01*
Y156050D02*
Y158400D01*
Y150814D02*
Y156050D01*
X291998Y150814D02*
Y156050D01*
X288849Y150814D02*
Y156050D01*
Y159350D01*
X287274Y150814D02*
Y156050D01*
Y148576D02*
Y150814D01*
Y156050D02*
Y158400D01*
X296723Y148573D02*
Y150814D01*
Y156050D01*
Y158400D01*
X298298Y150814D02*
Y156050D01*
X295148Y150814D02*
Y156050D01*
Y159350D01*
X293573Y148577D02*
Y150814D01*
Y156050D01*
Y158400D01*
X301447Y150814D02*
Y156050D01*
Y159350D01*
X299872Y148578D02*
Y150814D01*
Y156050D01*
Y158400D01*
X301447Y146350D02*
Y147850D01*
Y150814D01*
X295148Y146302D02*
Y146350D01*
Y147850D01*
Y150814D01*
X288849Y146350D02*
Y147850D01*
Y150814D01*
X291998Y146252D02*
Y146350D01*
Y147850D01*
Y150814D01*
X282550Y146300D02*
Y146350D01*
Y147850D01*
Y150814D01*
X280975Y164650D02*
Y169886D01*
X280975Y169886D02*
X280975Y169886D01*
X282600Y162550D02*
Y164500D01*
X282550Y164551D02*
X282600Y164500D01*
X282550Y164650D02*
Y169886D01*
X282600Y169937D02*
Y172450D01*
X282550Y169886D02*
X282600Y169937D01*
X285700Y162550D02*
Y164649D01*
X285699Y164650D02*
Y169886D01*
Y164650D02*
X285700Y164649D01*
X285699Y169886D02*
X285700Y172600D01*
X284124Y164650D02*
Y169886D01*
X290424Y164650D02*
Y169886D01*
X291998Y164650D02*
Y169886D01*
X291999Y172600D01*
X288849Y162550D02*
Y164650D01*
Y169886D01*
Y172601D01*
X287274Y164650D02*
Y169886D01*
X296723Y164650D02*
Y169886D01*
X298298Y162550D02*
Y164650D01*
Y169886D01*
Y172600D01*
X295148Y162550D02*
Y164650D01*
Y169886D01*
Y172302D01*
X293573Y164650D02*
Y169886D01*
X301447Y162550D02*
Y164650D01*
Y169886D01*
Y172397D01*
X299872Y164650D02*
Y169886D01*
X287274Y164650D02*
X287300Y164624D01*
X279400Y169886D02*
Y171350D01*
X203253Y162100D02*
Y172150D01*
X209552Y162100D02*
Y172150D01*
X206402Y162100D02*
Y172150D01*
X215851Y162100D02*
Y172151D01*
X212702Y162000D02*
Y172150D01*
X219000Y162100D02*
Y172149D01*
X219001Y172150D01*
X222100Y162100D02*
Y172000D01*
X206400Y147400D02*
X206402Y147398D01*
X204828Y148123D02*
Y157950D01*
X211127Y148123D02*
Y157950D01*
X207977Y148123D02*
Y157950D01*
X217426Y148123D02*
Y157950D01*
X214276Y148123D02*
Y157950D01*
X220576Y148123D02*
Y157950D01*
X223725Y148123D02*
Y157950D01*
X498147Y63600D02*
Y66900D01*
X491848Y63600D02*
Y66900D01*
X485549Y63600D02*
Y66900D01*
X482399Y63600D02*
Y66900D01*
X480824Y58364D02*
Y63600D01*
X479250D02*
X479268Y63618D01*
X476100Y53900D02*
Y55400D01*
Y58364D01*
X477675Y77436D02*
X477675Y77436D01*
Y72200D02*
Y77436D01*
X480824Y72200D02*
Y77436D01*
X479250Y72200D02*
Y77436D01*
X482399Y72200D02*
Y77436D01*
X490273Y72200D02*
Y77436D01*
X493423Y72200D02*
Y77436D01*
X496572Y72200D02*
Y77436D01*
X482399D02*
X482400Y80150D01*
X479250Y58364D02*
Y63600D01*
X482399Y58364D02*
Y63600D01*
X485549Y58364D02*
Y63600D01*
X488698Y58364D02*
Y63600D01*
X491848Y58364D02*
Y63600D01*
X494998Y58364D02*
Y63600D01*
X498147Y58364D02*
Y63600D01*
X476100Y77436D02*
Y78900D01*
X498147Y77436D02*
Y79947D01*
X494998Y77436D02*
Y80150D01*
X483974Y72200D02*
Y77436D01*
X485549D02*
Y80151D01*
X487124Y72200D02*
Y77436D01*
X498147Y72200D02*
Y77436D01*
X494998Y72200D02*
Y77436D01*
X491848Y72200D02*
Y77436D01*
X488698Y72200D02*
Y77436D01*
X485549Y72200D02*
Y77436D01*
X498147Y53900D02*
Y55400D01*
Y58364D01*
X491848Y53900D02*
Y55400D01*
Y58364D01*
X488698Y53900D02*
Y55400D01*
Y58364D01*
X485549Y53900D02*
Y55400D01*
Y58364D01*
X479250Y53850D02*
Y53900D01*
Y55400D01*
Y58364D01*
X482399Y72200D02*
X482400Y72199D01*
X483974Y72200D02*
X484000Y72174D01*
X493423Y58364D02*
Y63600D01*
X496572Y58364D02*
Y63600D01*
X487124Y58364D02*
Y63600D01*
X490273Y58364D02*
Y63600D01*
X477675Y58364D02*
Y63600D01*
X483974Y58364D02*
Y63600D01*
X477675Y56200D02*
Y58364D01*
X480824Y56200D02*
Y58364D01*
X496572Y56128D02*
Y58364D01*
X493423Y56123D02*
Y58364D01*
X490273Y56127D02*
Y58364D01*
X487124Y56124D02*
Y58364D01*
X483974Y56126D02*
Y58364D01*
X488698Y77436D02*
X488699Y80150D01*
X491848Y77436D02*
Y79852D01*
X479250Y72101D02*
X479300Y72050D01*
Y70100D02*
Y72050D01*
X482400Y70100D02*
Y72199D01*
X491848Y70100D02*
Y72200D01*
X494998Y70100D02*
Y72200D01*
X498147Y70100D02*
Y72200D01*
X485549Y70100D02*
Y72200D01*
X479250Y63600D02*
Y66900D01*
X477675Y63600D02*
Y65950D01*
X483974Y63600D02*
Y65950D01*
X487124Y63600D02*
Y65950D01*
X490273Y63600D02*
Y65950D01*
X493423Y63600D02*
Y65950D01*
X496572Y63600D02*
Y65950D01*
X480824Y63600D02*
Y65950D01*
X479250Y77436D02*
X479300Y77487D01*
Y80000D01*
X285699Y146351D02*
Y150814D01*
X384299Y140901D02*
Y145364D01*
X298298Y146350D02*
Y150814D01*
X396898Y140900D02*
Y145364D01*
X291998Y156050D02*
Y159350D01*
X298298Y156050D02*
Y159350D01*
X390598Y150600D02*
Y153900D01*
X396898Y150600D02*
Y153900D01*
X148595Y37400D02*
Y40700D01*
Y45936D02*
Y50400D01*
X154894Y37400D02*
Y40700D01*
X161193Y45936D02*
Y50399D01*
X149295Y94525D02*
Y97825D01*
Y103061D02*
Y107525D01*
X155594Y94525D02*
Y97825D01*
X161893Y103061D02*
Y107524D01*
X482399Y53901D02*
Y58364D01*
X494998Y53900D02*
Y58364D01*
X488698Y63600D02*
Y66900D01*
X494998Y63600D02*
Y66900D01*
D41*
X530300Y110200D02*
X548200Y92300D01*
X504500Y110200D02*
X530300D01*
X496300Y118400D02*
X504500Y110200D01*
X540700Y112600D02*
X558079Y95221D01*
X517800Y112600D02*
X540700D01*
X513100Y117300D02*
X517800Y112600D01*
X548200Y92300D02*
X553900Y86600D01*
X474800Y250300D02*
X479100Y254600D01*
Y269400D01*
X228300Y274000D02*
X474500D01*
X224400Y270100D02*
X228300Y274000D01*
X474500D02*
Y274800D01*
X479100Y279400D01*
X451100Y231400D02*
X465900D01*
X397600Y232700D02*
X403300D01*
X409100Y226900D01*
X236000Y251000D02*
X241700Y245300D01*
Y240500D02*
Y245300D01*
X356900Y143300D02*
X360000D01*
X572900Y172300D02*
Y173500D01*
X571700Y171100D02*
X572900Y172300D01*
X571700Y161900D02*
Y171100D01*
X358300Y153300D02*
X360300D01*
X356800Y151800D02*
X358300Y153300D01*
X222200Y252500D02*
Y257100D01*
X271200Y127500D02*
X282376D01*
X270100Y128600D02*
X271200Y127500D01*
X270100Y128600D02*
Y135300D01*
X282057D01*
X282376Y134980D01*
X98700Y228400D02*
X101900D01*
X103100Y227200D01*
Y224200D02*
Y227200D01*
X98700Y226100D02*
Y228400D01*
Y226100D02*
X100539Y224261D01*
X543500Y174200D02*
X569400D01*
X313050Y108870D02*
Y116250D01*
X311100Y118200D02*
X313050Y116250D01*
X304000Y118200D02*
X311100D01*
X302900Y117100D02*
X304000Y118200D01*
X302900Y114000D02*
Y117100D01*
X474500Y274000D02*
X479100Y269400D01*
X224400Y270100D02*
X226860Y267640D01*
X222000Y272500D02*
X224400Y270100D01*
X243300Y260160D02*
X254240D01*
X222200Y257100D02*
X225800D01*
X228860Y260160D01*
X233900D01*
X216500Y272500D02*
X222000D01*
X226860Y267640D02*
X233900D01*
X44300Y80500D02*
Y87305D01*
X468700Y186400D02*
X476400Y178700D01*
X489200Y140900D02*
X496300Y133800D01*
Y118400D02*
Y133800D01*
X553900Y77100D02*
Y86600D01*
X459500Y140900D02*
X489200D01*
X457900Y142500D02*
X459500Y140900D01*
X457900Y142500D02*
Y148100D01*
X460400Y146100D02*
X505100D01*
X513100Y138100D01*
Y117300D02*
Y138100D01*
X560700Y65300D02*
X561500Y64500D01*
X579300D01*
X580300Y65500D01*
X71048Y242600D02*
Y249348D01*
X72241Y250541D01*
X75885D01*
X258300Y161700D02*
X261400D01*
D42*
X68000Y127500D02*
X96700D01*
X49300Y108800D02*
X68000Y127500D01*
X49300Y87305D02*
Y108800D01*
X462400Y253000D02*
X465600Y249800D01*
X451000Y249000D02*
X459100Y257100D01*
X449200Y247200D02*
X451000Y249000D01*
X452600Y243800D02*
X469100Y260300D01*
X481700Y249300D02*
X489100D01*
X509600Y251000D02*
X519200D01*
X506300Y254300D02*
X509100Y257100D01*
X488400Y236400D02*
X506300Y254300D01*
X509600Y251000D01*
X315200Y211100D02*
X347900Y243800D01*
X281600Y211100D02*
X315200D01*
X347900Y243800D02*
X452600D01*
X351500Y236400D02*
X362600D01*
X310600Y130180D02*
Y137100D01*
X310550Y130130D02*
X310600Y130180D01*
X185500Y36800D02*
X189700D01*
X185500Y96000D02*
X190000D01*
X96700Y127500D02*
X165100Y195900D01*
X266400D01*
X455200Y65900D02*
X457700D01*
X210400Y257100D02*
X216700D01*
X589100Y279400D02*
X599100D01*
X579100D02*
X589100D01*
X569100D02*
X579100D01*
X275740Y131240D02*
X282376D01*
X328050Y108870D02*
X331600D01*
X297200Y108500D02*
X302900D01*
X489100Y269400D02*
Y279400D01*
Y249300D02*
Y269400D01*
Y249300D02*
X491800Y246600D01*
X153200Y219600D02*
X195900D01*
X446000Y251600D02*
X448900Y254500D01*
X264000Y203900D02*
X278200Y218100D01*
X211600Y203900D02*
X264000D01*
X195900Y219600D02*
X211600Y203900D01*
X265300Y199400D02*
X280299Y214400D01*
X206937Y199400D02*
X265300D01*
X266400Y195900D02*
X281600Y211100D01*
X194037Y212300D02*
X206937Y199400D01*
X163400Y212300D02*
X194037D01*
X509100Y269400D02*
Y279400D01*
X459100Y257100D02*
Y269400D01*
X469100Y260300D02*
Y269400D01*
X250300Y269500D02*
X254400D01*
X248440Y267640D02*
X250300Y269500D01*
X224700Y263900D02*
X233900D01*
X221600Y267000D02*
X224700Y263900D01*
X216500Y267000D02*
X221600D01*
X206045D02*
X216500D01*
X203545Y264500D02*
X206045Y267000D01*
X243300Y267640D02*
X248440D01*
X509100Y257100D02*
Y269400D01*
X368100Y236400D02*
X488400D01*
X343400Y247200D02*
X449200D01*
X342100Y251600D02*
X446000D01*
X278200Y218100D02*
X308600D01*
X342100Y251600D01*
X280299Y214400D02*
X310599D01*
X343400Y247200D01*
X331600Y108870D02*
X335370D01*
D43*
X339600Y229700D02*
X342100D01*
X310600Y200700D02*
X339600Y229700D01*
X304100Y200700D02*
X310600D01*
X345900Y233500D02*
Y236300D01*
X342100Y229700D02*
X345900Y233500D01*
X75885Y265541D02*
X81859D01*
X68300Y268382D02*
X71141Y265541D01*
X75885D01*
X451000Y169700D02*
X457200D01*
X411400Y130100D02*
X451000Y169700D01*
X336200Y130100D02*
X411400D01*
X330600Y135600D02*
X336200D01*
X326400D02*
X330600D01*
X369400Y261400D02*
Y261600D01*
X362400Y268600D02*
X369400Y261600D01*
X284656Y268600D02*
X362400D01*
X275956Y259900D02*
X284656Y268600D01*
X254500Y259900D02*
X275956D01*
X549100Y269400D02*
X559100D01*
X539100D02*
X549100D01*
X529100D02*
X539100D01*
X331300Y130130D02*
X336170D01*
X328050D02*
X331300D01*
X293400Y134980D02*
X303720D01*
X92884Y224684D02*
Y228084D01*
X66000Y237100D02*
X71048D01*
X104800Y232200D02*
X110148D01*
X59300Y94700D02*
Y99200D01*
Y87305D02*
Y94700D01*
X259900Y269500D02*
X266400D01*
X249600Y254400D02*
X254500D01*
X59500Y79900D02*
Y86905D01*
X53700Y99100D02*
X53800Y99200D01*
X53700Y95200D02*
Y99100D01*
Y95200D02*
X54300Y94600D01*
Y87305D02*
Y94600D01*
X325550Y134750D02*
X326400Y135600D01*
X325550Y130130D02*
Y134750D01*
X605500Y53600D02*
X616000D01*
X605500Y73600D02*
X616000D01*
X97342Y260541D02*
X102141D01*
X106300Y264700D01*
X109848D01*
X176048Y258300D02*
X176100D01*
X176048D02*
Y264100D01*
X569100Y269400D02*
X579100D01*
X589100D01*
X599100D01*
X176048Y252352D02*
Y258300D01*
X59200Y87205D02*
X59500Y86905D01*
D44*
X254900Y231600D02*
X259700D01*
X250300Y227000D02*
X254900Y231600D01*
X245800Y227000D02*
X250300D01*
X20900Y135500D02*
X90000D01*
X259700Y231600D02*
X267000D01*
X127200Y172700D02*
Y206300D01*
X90000Y135500D02*
X127200Y172700D01*
Y206300D02*
X142848Y221948D01*
X189400Y230100D02*
Y238000D01*
X39200Y244300D02*
Y252400D01*
X142848Y221948D02*
Y234512D01*
X210300Y216900D02*
X216650D01*
X201900Y225300D02*
X210300Y216900D01*
X201900Y225300D02*
Y235400D01*
X23400Y227200D02*
X32200D01*
X20900Y229700D02*
X23400Y227200D01*
X7400Y229700D02*
X20900D01*
X7400Y245290D02*
X14510Y252400D01*
X39200D01*
X235400Y227000D02*
X245800D01*
X227303D02*
X235400D01*
X222300Y216900D02*
X230100D01*
X235400Y222200D01*
Y227000D01*
D45*
X259700Y240600D02*
X298400D01*
X253900D02*
X259700D01*
X227035Y235732D02*
X237175D01*
X226703Y235400D02*
X227035Y235732D01*
X245800Y240500D02*
X253800D01*
X241700D02*
X245800D01*
X152200Y247000D02*
X176148D01*
X189400D01*
X233600Y244400D02*
X237500Y240500D01*
X241700D01*
X226703Y244400D02*
X233600D01*
X189400Y247000D02*
X216600D01*
X219100Y244500D01*
X226603D01*
X226703Y244400D01*
X298400Y240600D02*
X309400Y251600D01*
Y261400D01*
D46*
X168900Y269700D02*
X176600D01*
X54500Y246500D02*
Y254300D01*
X44300Y87305D02*
Y126400D01*
X39200Y265900D02*
X47000D01*
X49600Y263300D01*
X54500D01*
X97342Y265541D02*
X101641D01*
X106300Y270200D01*
X109848D01*
X139560D01*
X142848Y273488D02*
X165112D01*
X168900Y269700D01*
D47*
X7000Y211286D02*
X26286D01*
X32200Y217200D01*
D48*
X559550Y41500D02*
D03*
D49*
X154742Y66325D02*
D03*
X154042Y9200D02*
D03*
X391450Y182100D02*
D03*
X292850Y187550D02*
D03*
X391350Y172500D02*
D03*
D50*
X489350Y95100D02*
D03*
D51*
X556200Y14800D02*
D03*
X426500Y11600D02*
D03*
X435200Y7600D02*
D03*
X563022Y108500D02*
D03*
X560400Y101700D02*
D03*
X527300Y253700D02*
D03*
X459900Y244900D02*
D03*
X465600Y249800D02*
D03*
X474800Y250300D02*
D03*
X481700Y249300D02*
D03*
X519200Y251000D02*
D03*
X479000Y220100D02*
D03*
X465900Y231400D02*
D03*
X443400Y228400D02*
D03*
X436400Y227900D02*
D03*
X429400Y227800D02*
D03*
X425100Y232100D02*
D03*
X397600Y232700D02*
D03*
X397100Y226800D02*
D03*
X372700Y228400D02*
D03*
X384800Y240000D02*
D03*
X346400Y227500D02*
D03*
X338200Y222100D02*
D03*
X605500Y24200D02*
D03*
X54500Y219900D02*
D03*
X69400Y115800D02*
D03*
X102600Y121900D02*
D03*
X249300Y113800D02*
D03*
X615000Y23900D02*
D03*
X389200Y230100D02*
D03*
X236000Y251000D02*
D03*
X57700Y153300D02*
D03*
X273100Y110800D02*
D03*
X320000Y236300D02*
D03*
X315900Y141900D02*
D03*
X609200Y256000D02*
D03*
X497500Y233600D02*
D03*
X305500Y237300D02*
D03*
X266700Y218900D02*
D03*
X312700Y236800D02*
D03*
X198300Y150900D02*
D03*
Y145000D02*
D03*
X405000Y145900D02*
D03*
X404800Y136800D02*
D03*
X503100Y59300D02*
D03*
X141192Y102525D02*
D03*
X140492Y45400D02*
D03*
X306400Y151350D02*
D03*
X503100Y53000D02*
D03*
X141192Y108425D02*
D03*
X140492Y51300D02*
D03*
X306400Y145450D02*
D03*
X462700Y107400D02*
D03*
X450200Y107300D02*
D03*
D52*
X142200Y198821D02*
D03*
Y138979D02*
D03*
D53*
X505900Y199900D02*
D03*
D54*
X495900D02*
D03*
X485900D02*
D03*
X475900D02*
D03*
X455900D02*
D03*
X445900D02*
D03*
X435900D02*
D03*
X425900D02*
D03*
X505900Y119900D02*
D03*
X490900D02*
D03*
X475900D02*
D03*
X455900D02*
D03*
X440900D02*
D03*
X425900D02*
D03*
D55*
X599100Y279400D02*
D03*
Y269400D02*
D03*
X589100Y279400D02*
D03*
Y269400D02*
D03*
X579100Y279400D02*
D03*
Y269400D02*
D03*
X569100Y279400D02*
D03*
Y269400D02*
D03*
X559100Y279400D02*
D03*
Y269400D02*
D03*
X549100Y279400D02*
D03*
Y269400D02*
D03*
X539100Y279400D02*
D03*
Y269400D02*
D03*
X529100Y279400D02*
D03*
Y269400D02*
D03*
X519100Y279400D02*
D03*
Y269400D02*
D03*
X509100Y279400D02*
D03*
Y269400D02*
D03*
X499100Y279400D02*
D03*
Y269400D02*
D03*
X489100Y279400D02*
D03*
Y269400D02*
D03*
X479100Y279400D02*
D03*
Y269400D02*
D03*
X469100Y279400D02*
D03*
Y269400D02*
D03*
X459100Y279400D02*
D03*
Y269400D02*
D03*
X449100Y279400D02*
D03*
Y269400D02*
D03*
X439100Y279400D02*
D03*
Y269400D02*
D03*
X429100Y279400D02*
D03*
Y269400D02*
D03*
X419100Y279400D02*
D03*
Y269400D02*
D03*
X409100Y279400D02*
D03*
Y269400D02*
D03*
X399100D02*
D03*
X389100Y279400D02*
D03*
X399100D02*
D03*
X32200Y227200D02*
D03*
D56*
X389100Y269400D02*
D03*
D57*
X7000Y211286D02*
D03*
X614000Y222600D02*
D03*
X7400Y229700D02*
D03*
X7700Y54886D02*
D03*
D58*
X7000Y164514D02*
D03*
Y195695D02*
D03*
Y180105D02*
D03*
X524000Y122600D02*
D03*
X539000D02*
D03*
X554000D02*
D03*
X584000D02*
D03*
X599000D02*
D03*
X614000D02*
D03*
X524000Y222600D02*
D03*
X539000D02*
D03*
X554000D02*
D03*
X584000D02*
D03*
X599000D02*
D03*
X7400Y245290D02*
D03*
X498886Y7700D02*
D03*
X467705D02*
D03*
X483295D02*
D03*
X7700Y8114D02*
D03*
Y39295D02*
D03*
Y23705D02*
D03*
D59*
X84448Y260600D02*
D03*
X88779D02*
D03*
X84448Y255482D02*
D03*
X88779D02*
D03*
Y265718D02*
D03*
X84448D02*
D03*
Y250364D02*
D03*
X88779D02*
D03*
D60*
X452114Y7700D02*
D03*
D61*
X409600Y81570D02*
D03*
Y42200D02*
D03*
X231000Y81700D02*
D03*
Y42330D02*
D03*
X321600Y40500D02*
D03*
Y79870D02*
D03*
D62*
X299400Y261400D02*
D03*
X309400D02*
D03*
X319400D02*
D03*
X359400D02*
D03*
X369400D02*
D03*
X349400D02*
D03*
X339400D02*
D03*
D63*
X32200Y217200D02*
D03*
D64*
X20900Y105800D02*
D03*
Y85800D02*
D03*
Y75800D02*
D03*
Y95800D02*
D03*
Y125800D02*
D03*
Y135800D02*
D03*
Y145800D02*
D03*
D65*
X108895Y88700D02*
D03*
X88305Y23700D02*
D03*
D66*
X462454Y68550D02*
D03*
X473900Y93100D02*
D03*
Y97100D02*
D03*
X277100Y189700D02*
D03*
X277200Y185500D02*
D03*
X188000Y48000D02*
D03*
X227600Y189200D02*
D03*
Y185000D02*
D03*
X258800Y148700D02*
D03*
X170400Y64200D02*
D03*
Y68300D02*
D03*
X462500Y67000D02*
D03*
X491848Y53900D02*
D03*
X416200Y227000D02*
D03*
X404100Y226800D02*
D03*
X414000Y229200D02*
D03*
X408200Y165900D02*
D03*
X408300Y146600D02*
D03*
Y152898D02*
D03*
Y149749D02*
D03*
Y159198D02*
D03*
Y156048D02*
D03*
Y162347D02*
D03*
X275600Y162800D02*
D03*
X229000Y162300D02*
D03*
X374300Y157300D02*
D03*
X171200Y34000D02*
D03*
X171900Y91200D02*
D03*
X472500Y70300D02*
D03*
X356900Y143300D02*
D03*
X164300Y24300D02*
D03*
X593700Y73300D02*
D03*
X115916Y223216D02*
D03*
X110798Y223398D02*
D03*
X105680Y224480D02*
D03*
X103100Y224200D02*
D03*
X92884Y224684D02*
D03*
X100539Y224261D02*
D03*
X569400Y174200D02*
D03*
X543500D02*
D03*
X535200Y144000D02*
D03*
X331600Y108870D02*
D03*
X310550Y115150D02*
D03*
X327400Y115500D02*
D03*
X297200Y108500D02*
D03*
X323050Y103350D02*
D03*
X320500Y100900D02*
D03*
X577100Y179225D02*
D03*
X460200Y240100D02*
D03*
X491800Y246600D02*
D03*
X153200Y219600D02*
D03*
X448900Y254500D02*
D03*
X163400Y212300D02*
D03*
X262400Y171900D02*
D03*
X266400Y269500D02*
D03*
X248440Y267640D02*
D03*
X203545Y264500D02*
D03*
X140300Y64100D02*
D03*
X143100D02*
D03*
X140300Y68200D02*
D03*
X143100D02*
D03*
X59500Y79900D02*
D03*
X44300Y80500D02*
D03*
X562500Y139000D02*
D03*
X534700Y86700D02*
D03*
X318000Y121100D02*
D03*
X315500Y124700D02*
D03*
X321800Y140900D02*
D03*
X323050Y138150D02*
D03*
X250200Y164000D02*
D03*
X247300Y158621D02*
D03*
X268100Y171600D02*
D03*
X358300Y158900D02*
D03*
X455000Y76000D02*
D03*
X449000Y154000D02*
D03*
X456900Y79000D02*
D03*
X468700Y186400D02*
D03*
X476400Y178700D02*
D03*
X460400Y146100D02*
D03*
X457900Y148100D02*
D03*
X553900Y77100D02*
D03*
X558079Y95221D02*
D03*
X553000Y93800D02*
D03*
X582838Y70238D02*
D03*
X560700Y65300D02*
D03*
X580300Y65500D02*
D03*
X605500Y53600D02*
D03*
Y73600D02*
D03*
X455800Y56300D02*
D03*
X473500Y57400D02*
D03*
Y55700D02*
D03*
Y54000D02*
D03*
X465200Y57100D02*
D03*
Y58800D02*
D03*
Y60500D02*
D03*
X498147Y66900D02*
D03*
X491848D02*
D03*
X488700D02*
D03*
X485549D02*
D03*
X482400D02*
D03*
X498147Y53900D02*
D03*
X494998D02*
D03*
X488698D02*
D03*
X485549D02*
D03*
X482400D02*
D03*
X479250D02*
D03*
X498147Y55400D02*
D03*
X495000D02*
D03*
X491848D02*
D03*
X488698D02*
D03*
X485549D02*
D03*
X482400D02*
D03*
X479250D02*
D03*
X476100Y53900D02*
D03*
Y55400D02*
D03*
X482399Y80150D02*
D03*
X488698D02*
D03*
X491848D02*
D03*
X498147Y70100D02*
D03*
X494998D02*
D03*
X491848D02*
D03*
X485549D02*
D03*
X462200Y71700D02*
D03*
X459200Y73000D02*
D03*
X461300D02*
D03*
X473700Y72900D02*
D03*
Y71200D02*
D03*
X495000Y66900D02*
D03*
X494998Y80150D02*
D03*
X498147D02*
D03*
X485549Y80151D02*
D03*
X504500Y97200D02*
D03*
X501300D02*
D03*
Y93100D02*
D03*
X479000D02*
D03*
X476100D02*
D03*
Y97200D02*
D03*
X479000D02*
D03*
X481700Y93100D02*
D03*
Y97200D02*
D03*
X484300D02*
D03*
Y93100D02*
D03*
X487200Y97200D02*
D03*
Y93100D02*
D03*
X492600Y97200D02*
D03*
Y93100D02*
D03*
X495400Y97200D02*
D03*
Y93100D02*
D03*
X504500D02*
D03*
X489900D02*
D03*
Y97200D02*
D03*
X498400D02*
D03*
Y93100D02*
D03*
X458200Y61300D02*
D03*
X482400Y70100D02*
D03*
X477675Y65950D02*
D03*
X483974D02*
D03*
X487124D02*
D03*
X490273D02*
D03*
X493423D02*
D03*
X496572D02*
D03*
X477675Y56123D02*
D03*
X480824D02*
D03*
X483974D02*
D03*
X487124D02*
D03*
X490273D02*
D03*
X493423D02*
D03*
X496572D02*
D03*
X479300Y70100D02*
D03*
X488698Y70000D02*
D03*
X480824Y65950D02*
D03*
X479250Y66900D02*
D03*
X479300Y80000D02*
D03*
X186092Y100125D02*
D03*
X181592Y92925D02*
D03*
X188492Y105125D02*
D03*
X181592Y94425D02*
D03*
X168192Y107525D02*
D03*
Y106025D02*
D03*
X166618Y105302D02*
D03*
X166618Y95475D02*
D03*
X165043Y94525D02*
D03*
X161892D02*
D03*
X163468Y105302D02*
D03*
Y95475D02*
D03*
X157169Y105302D02*
D03*
Y95475D02*
D03*
X155592Y94525D02*
D03*
X158744D02*
D03*
X160318Y105302D02*
D03*
Y95475D02*
D03*
X150870Y105302D02*
D03*
Y95475D02*
D03*
X149292Y94525D02*
D03*
X152444D02*
D03*
X154019Y105302D02*
D03*
Y95475D02*
D03*
X146145Y94525D02*
D03*
X147720Y105302D02*
D03*
Y95475D02*
D03*
X146145Y107525D02*
D03*
Y106025D02*
D03*
X152444Y107525D02*
D03*
Y106025D02*
D03*
X149295Y107525D02*
D03*
X149292Y106025D02*
D03*
X158744Y107525D02*
D03*
Y106025D02*
D03*
X155594Y107525D02*
D03*
Y106025D02*
D03*
X161892Y107525D02*
D03*
Y106025D02*
D03*
X165043Y107525D02*
D03*
Y106025D02*
D03*
X164992Y91325D02*
D03*
Y81425D02*
D03*
X161892Y91325D02*
D03*
X161893Y81275D02*
D03*
X155594Y91425D02*
D03*
Y81275D02*
D03*
X158744Y91325D02*
D03*
Y81274D02*
D03*
X149295Y91325D02*
D03*
Y81275D02*
D03*
X152444Y91325D02*
D03*
Y81275D02*
D03*
X146145Y91325D02*
D03*
Y81275D02*
D03*
X168192Y64225D02*
D03*
Y68325D02*
D03*
X165292Y64225D02*
D03*
Y68325D02*
D03*
X159992D02*
D03*
Y64225D02*
D03*
X157092Y68325D02*
D03*
Y64225D02*
D03*
X151692Y68325D02*
D03*
X148892D02*
D03*
X151692Y64225D02*
D03*
X148892D02*
D03*
X179092Y100925D02*
D03*
Y102625D02*
D03*
Y104325D02*
D03*
X182092Y89725D02*
D03*
X182992Y88425D02*
D03*
X170792Y107425D02*
D03*
Y105725D02*
D03*
Y104025D02*
D03*
X170592Y88525D02*
D03*
X162592Y68325D02*
D03*
Y64225D02*
D03*
X154392Y68325D02*
D03*
Y64225D02*
D03*
X170592Y90225D02*
D03*
X185092Y88425D02*
D03*
X145892Y68325D02*
D03*
Y64225D02*
D03*
X185392Y43000D02*
D03*
X180892Y35800D02*
D03*
Y37300D02*
D03*
X167492Y50400D02*
D03*
Y48900D02*
D03*
X165918Y48177D02*
D03*
X165918Y38350D02*
D03*
X164343Y37400D02*
D03*
X161192D02*
D03*
X162768Y48177D02*
D03*
Y38350D02*
D03*
X156469Y48177D02*
D03*
Y38350D02*
D03*
X154892Y37400D02*
D03*
X158044D02*
D03*
X159618Y48177D02*
D03*
Y38350D02*
D03*
X150170Y48177D02*
D03*
Y38350D02*
D03*
X148592Y37400D02*
D03*
X151744D02*
D03*
X153319Y48177D02*
D03*
Y38350D02*
D03*
X145445Y37400D02*
D03*
X147020Y48177D02*
D03*
Y38350D02*
D03*
X145445Y50400D02*
D03*
Y48900D02*
D03*
X151744Y50400D02*
D03*
Y48900D02*
D03*
X148595Y50400D02*
D03*
X148592Y48900D02*
D03*
X158044D02*
D03*
Y50400D02*
D03*
X154894D02*
D03*
Y48900D02*
D03*
X161192Y50400D02*
D03*
Y48900D02*
D03*
X164343Y50400D02*
D03*
Y48900D02*
D03*
X164292Y34200D02*
D03*
X161193Y24150D02*
D03*
X161192Y34200D02*
D03*
X154894Y34300D02*
D03*
Y24150D02*
D03*
X158044Y34200D02*
D03*
Y24149D02*
D03*
X148595Y34200D02*
D03*
Y24150D02*
D03*
X151744Y34200D02*
D03*
Y24150D02*
D03*
X145445Y34200D02*
D03*
Y24150D02*
D03*
X167492Y11200D02*
D03*
X164592D02*
D03*
X167492Y7100D02*
D03*
X164592D02*
D03*
X159292Y11200D02*
D03*
Y7100D02*
D03*
X156392Y11200D02*
D03*
Y7100D02*
D03*
X150992D02*
D03*
Y11200D02*
D03*
X148192D02*
D03*
Y7100D02*
D03*
X139092Y11200D02*
D03*
X142292D02*
D03*
X139092Y7100D02*
D03*
X142292D02*
D03*
X178392Y43800D02*
D03*
Y45500D02*
D03*
Y47200D02*
D03*
X181392Y32600D02*
D03*
X182292Y31300D02*
D03*
X170092Y50300D02*
D03*
Y48600D02*
D03*
Y46900D02*
D03*
X169892Y31400D02*
D03*
X161892Y11200D02*
D03*
Y7100D02*
D03*
X153692Y11200D02*
D03*
Y7100D02*
D03*
X169892Y33100D02*
D03*
X184392Y31300D02*
D03*
X145192Y11200D02*
D03*
Y7100D02*
D03*
X360100Y148300D02*
D03*
X364600Y155500D02*
D03*
Y154000D02*
D03*
X378000Y142400D02*
D03*
Y140900D02*
D03*
X379575Y143123D02*
D03*
X379575Y152950D02*
D03*
X381150Y153900D02*
D03*
X384300D02*
D03*
X382724Y143123D02*
D03*
Y152950D02*
D03*
X389024Y143123D02*
D03*
Y152950D02*
D03*
X390600Y153900D02*
D03*
X387449D02*
D03*
X385874Y143123D02*
D03*
Y152950D02*
D03*
X395323Y143123D02*
D03*
Y152950D02*
D03*
X396900Y153900D02*
D03*
X393748D02*
D03*
X392173Y143123D02*
D03*
Y152950D02*
D03*
X400047Y153900D02*
D03*
X398472Y143123D02*
D03*
Y152950D02*
D03*
X400047Y140900D02*
D03*
Y142400D02*
D03*
X393748Y140900D02*
D03*
Y142400D02*
D03*
X396898Y140900D02*
D03*
X396900Y142400D02*
D03*
X387449Y140900D02*
D03*
Y142400D02*
D03*
X390598Y140900D02*
D03*
Y142400D02*
D03*
X384300Y140900D02*
D03*
Y142400D02*
D03*
X381150Y140900D02*
D03*
Y142400D02*
D03*
X381200Y157100D02*
D03*
Y167000D02*
D03*
X384300Y157100D02*
D03*
X384299Y167150D02*
D03*
X390598Y157000D02*
D03*
Y167150D02*
D03*
X387449Y157100D02*
D03*
Y167151D02*
D03*
X396898Y157100D02*
D03*
Y167150D02*
D03*
X393748Y157100D02*
D03*
Y167150D02*
D03*
X400047Y157100D02*
D03*
Y167150D02*
D03*
X378000Y184200D02*
D03*
X386200Y180100D02*
D03*
X389100D02*
D03*
X386200Y184200D02*
D03*
X394500Y180100D02*
D03*
X397300D02*
D03*
X394500Y184200D02*
D03*
X397300D02*
D03*
X403200Y180100D02*
D03*
X406400Y184200D02*
D03*
Y180100D02*
D03*
X403200Y184200D02*
D03*
X367100Y144100D02*
D03*
Y145800D02*
D03*
Y147500D02*
D03*
X364100Y158700D02*
D03*
X363200Y160000D02*
D03*
X375400Y141000D02*
D03*
Y144400D02*
D03*
Y142700D02*
D03*
X375600Y159900D02*
D03*
X383600Y180100D02*
D03*
X391800D02*
D03*
Y184200D02*
D03*
X375600Y158200D02*
D03*
X376000Y180100D02*
D03*
Y184200D02*
D03*
X400300Y180100D02*
D03*
Y184200D02*
D03*
X261500Y153750D02*
D03*
X266000Y160950D02*
D03*
Y159450D02*
D03*
X279400Y146350D02*
D03*
Y147850D02*
D03*
X280975Y148573D02*
D03*
X280975Y158400D02*
D03*
X282550Y159350D02*
D03*
X285700D02*
D03*
X284124Y148573D02*
D03*
Y158400D02*
D03*
X290424Y148573D02*
D03*
Y158400D02*
D03*
X292000Y159350D02*
D03*
X288849D02*
D03*
X287274Y148573D02*
D03*
Y158400D02*
D03*
X296723Y148573D02*
D03*
Y158400D02*
D03*
X298300Y159350D02*
D03*
X295148D02*
D03*
X293573Y148573D02*
D03*
Y158400D02*
D03*
X301447Y159350D02*
D03*
X299872Y148573D02*
D03*
Y158400D02*
D03*
X301447Y146350D02*
D03*
Y147850D02*
D03*
X295148Y146350D02*
D03*
Y147850D02*
D03*
X298298Y146350D02*
D03*
X298300Y147850D02*
D03*
X288849D02*
D03*
Y146350D02*
D03*
X291998Y147850D02*
D03*
Y146350D02*
D03*
X285700D02*
D03*
Y147850D02*
D03*
X282550D02*
D03*
Y146350D02*
D03*
X282600Y162550D02*
D03*
Y172450D02*
D03*
X285700Y162550D02*
D03*
X285699Y172600D02*
D03*
X291998Y162450D02*
D03*
Y172600D02*
D03*
X288849Y162550D02*
D03*
Y172601D02*
D03*
X298298Y162550D02*
D03*
Y172600D02*
D03*
X295148Y162550D02*
D03*
Y172600D02*
D03*
X301447Y162550D02*
D03*
Y172600D02*
D03*
X279400Y185550D02*
D03*
X282300D02*
D03*
X279400Y189650D02*
D03*
X282300D02*
D03*
X287600Y185550D02*
D03*
Y189650D02*
D03*
X290500Y185550D02*
D03*
Y189650D02*
D03*
X295900D02*
D03*
Y185550D02*
D03*
X298700D02*
D03*
Y189650D02*
D03*
X304600Y185550D02*
D03*
X307800D02*
D03*
X304600Y189650D02*
D03*
X307800D02*
D03*
X268500Y149550D02*
D03*
Y151250D02*
D03*
Y152950D02*
D03*
X265500Y164150D02*
D03*
X264600Y165450D02*
D03*
X276800Y146450D02*
D03*
Y149850D02*
D03*
Y148150D02*
D03*
X277000Y165350D02*
D03*
X285000Y185550D02*
D03*
Y189650D02*
D03*
X293200Y185550D02*
D03*
Y189650D02*
D03*
X277000Y163650D02*
D03*
X262500Y165450D02*
D03*
X301700Y185550D02*
D03*
Y189650D02*
D03*
X243200Y153300D02*
D03*
X238700Y160500D02*
D03*
X245600Y148300D02*
D03*
X238700Y159000D02*
D03*
X225300Y145900D02*
D03*
Y147400D02*
D03*
X223725Y157950D02*
D03*
X223725Y148123D02*
D03*
X222150Y158900D02*
D03*
X219000D02*
D03*
X220576Y148123D02*
D03*
Y157950D02*
D03*
X214276Y148123D02*
D03*
Y157950D02*
D03*
X212700Y158900D02*
D03*
X215851D02*
D03*
X217426Y148123D02*
D03*
Y157950D02*
D03*
X207977D02*
D03*
Y148123D02*
D03*
X206400Y158900D02*
D03*
X209552D02*
D03*
X211127Y148123D02*
D03*
Y157950D02*
D03*
X203253Y158900D02*
D03*
X204828Y148123D02*
D03*
Y157950D02*
D03*
X203253Y145900D02*
D03*
Y147400D02*
D03*
X209552Y145900D02*
D03*
Y147400D02*
D03*
X206402Y145900D02*
D03*
X206400Y147400D02*
D03*
X215851D02*
D03*
Y145900D02*
D03*
X212702Y147400D02*
D03*
Y145900D02*
D03*
X219000D02*
D03*
Y147400D02*
D03*
X222150Y145900D02*
D03*
Y147400D02*
D03*
X222100Y162100D02*
D03*
Y172000D02*
D03*
X219000Y162100D02*
D03*
X219001Y172150D02*
D03*
X212702Y162000D02*
D03*
Y172150D02*
D03*
X215851Y162100D02*
D03*
Y172151D02*
D03*
X206402Y162100D02*
D03*
Y172150D02*
D03*
X209552Y162100D02*
D03*
Y172150D02*
D03*
X203253Y162100D02*
D03*
Y172150D02*
D03*
X225300Y185100D02*
D03*
X222400D02*
D03*
X225300Y189200D02*
D03*
X222400D02*
D03*
X217100Y185100D02*
D03*
Y189200D02*
D03*
X214200Y185100D02*
D03*
Y189200D02*
D03*
X208800Y185100D02*
D03*
X206000D02*
D03*
X208800Y189200D02*
D03*
X206000D02*
D03*
X200100Y185100D02*
D03*
X196900D02*
D03*
X200100Y189200D02*
D03*
X196900D02*
D03*
X236200Y149100D02*
D03*
Y150800D02*
D03*
Y152500D02*
D03*
X239200Y163700D02*
D03*
X240100Y165000D02*
D03*
X227900Y146000D02*
D03*
Y149400D02*
D03*
Y147700D02*
D03*
X227700Y164900D02*
D03*
X219700Y185100D02*
D03*
Y189200D02*
D03*
X211500Y185100D02*
D03*
Y189200D02*
D03*
X227700Y163200D02*
D03*
X242200Y165000D02*
D03*
X203000Y185100D02*
D03*
Y189200D02*
D03*
X409100Y226900D02*
D03*
X258300Y161700D02*
D03*
X371000Y184100D02*
D03*
Y181520D02*
D03*
X373000Y184100D02*
D03*
Y181520D02*
D03*
X371000Y178940D02*
D03*
Y173780D02*
D03*
X373000Y178940D02*
D03*
Y173780D02*
D03*
X371000Y176360D02*
D03*
Y171200D02*
D03*
X373000Y176360D02*
D03*
Y171200D02*
D03*
X380900Y184200D02*
D03*
X378000Y180100D02*
D03*
X389100Y184200D02*
D03*
X383600D02*
D03*
X380900Y180100D02*
D03*
X361100Y160000D02*
D03*
X368600Y171200D02*
D03*
Y176360D02*
D03*
X366600Y171200D02*
D03*
Y176360D02*
D03*
X368600Y173780D02*
D03*
Y178940D02*
D03*
X366600Y173780D02*
D03*
Y178940D02*
D03*
X362500Y173880D02*
D03*
X364500D02*
D03*
X362500Y176460D02*
D03*
Y171300D02*
D03*
X364500Y176460D02*
D03*
Y171300D02*
D03*
X360300Y173760D02*
D03*
Y171180D02*
D03*
X368700Y181440D02*
D03*
D67*
X548200Y92300D02*
D03*
X451000Y249000D02*
D03*
X451100Y231400D02*
D03*
X363050Y230850D02*
D03*
X350856Y222944D02*
D03*
X565700Y258700D02*
D03*
X448600Y149000D02*
D03*
X330600Y135600D02*
D03*
X59300Y94700D02*
D03*
X110100Y242700D02*
D03*
D68*
X237175Y235732D02*
D03*
X310600Y137100D02*
D03*
X555300Y253400D02*
D03*
X27900Y266300D02*
D03*
X68300Y268382D02*
D03*
X189700Y36800D02*
D03*
X190000Y96000D02*
D03*
X59300Y127400D02*
D03*
X249600Y254400D02*
D03*
X235400Y227000D02*
D03*
X267000Y231600D02*
D03*
X596700Y172825D02*
D03*
X581000Y167700D02*
D03*
X586700Y184500D02*
D03*
X185200Y203100D02*
D03*
X303100Y129300D02*
D03*
X331300Y130130D02*
D03*
X303720Y134980D02*
D03*
X275740Y131240D02*
D03*
X270100Y135300D02*
D03*
X189400Y230100D02*
D03*
X39200Y244300D02*
D03*
X54500Y246500D02*
D03*
X66000Y237100D02*
D03*
X104800Y232200D02*
D03*
X44300Y126400D02*
D03*
X176048Y258300D02*
D03*
D69*
X572900Y173500D02*
D03*
X571700Y161900D02*
D03*
X606200Y80500D02*
D03*
X552961Y64861D02*
D03*
X557700Y55100D02*
D03*
X571700Y58700D02*
D03*
X585900Y63800D02*
D03*
X560639Y81039D02*
D03*
X485000Y130400D02*
D03*
X470350Y126650D02*
D03*
X455350Y127550D02*
D03*
X455200Y65900D02*
D03*
X449500Y133000D02*
D03*
X463000Y189600D02*
D03*
X356800Y151800D02*
D03*
X577700Y66570D02*
D03*
D70*
X457200Y169700D02*
D03*
X234900Y188700D02*
D03*
X238440D02*
D03*
X241980D02*
D03*
X245520D02*
D03*
X249060D02*
D03*
X252600D02*
D03*
X234900Y186200D02*
D03*
X238440D02*
D03*
X241980D02*
D03*
X245520D02*
D03*
X249060D02*
D03*
X252600D02*
D03*
X252620Y183500D02*
D03*
X249080D02*
D03*
X245540D02*
D03*
X242000D02*
D03*
X238460D02*
D03*
X234920D02*
D03*
X246400Y163200D02*
D03*
X222200Y252500D02*
D03*
X210400Y257100D02*
D03*
X467200Y148600D02*
D03*
X286420Y224100D02*
D03*
X289960D02*
D03*
X293500D02*
D03*
X297040D02*
D03*
X300580D02*
D03*
X304120D02*
D03*
X304100Y226800D02*
D03*
X300560D02*
D03*
X297020D02*
D03*
X293480D02*
D03*
X289940D02*
D03*
X286400D02*
D03*
X304100Y229300D02*
D03*
X300560D02*
D03*
X297020D02*
D03*
X293480D02*
D03*
X289940D02*
D03*
X286400D02*
D03*
X235520Y208700D02*
D03*
X239060D02*
D03*
X242600D02*
D03*
X246140D02*
D03*
X249680D02*
D03*
X253220D02*
D03*
X253200Y211400D02*
D03*
X249660D02*
D03*
X246120D02*
D03*
X242580D02*
D03*
X239040D02*
D03*
X235500D02*
D03*
X253200Y213900D02*
D03*
X249660D02*
D03*
X246120D02*
D03*
X242580D02*
D03*
X239040D02*
D03*
X235500D02*
D03*
X63400Y166800D02*
D03*
X66940D02*
D03*
X70480D02*
D03*
X74020D02*
D03*
X77560D02*
D03*
X81100D02*
D03*
X63400Y164300D02*
D03*
X66940D02*
D03*
X70480D02*
D03*
X74020D02*
D03*
X77560D02*
D03*
X81100D02*
D03*
X81120Y161600D02*
D03*
X77580D02*
D03*
X74040D02*
D03*
X70500D02*
D03*
X66960D02*
D03*
X63420D02*
D03*
X63500Y191800D02*
D03*
X67040D02*
D03*
X70580D02*
D03*
X74120D02*
D03*
X77660D02*
D03*
X81200D02*
D03*
X63500Y189300D02*
D03*
X67040D02*
D03*
X70580D02*
D03*
X74120D02*
D03*
X77660D02*
D03*
X81200D02*
D03*
X81220Y186600D02*
D03*
X77680D02*
D03*
X74140D02*
D03*
X70600D02*
D03*
X67060D02*
D03*
X63520D02*
D03*
X515980Y74600D02*
D03*
X519520D02*
D03*
X523060D02*
D03*
X526600D02*
D03*
X530140D02*
D03*
X533680D02*
D03*
X515980Y72100D02*
D03*
X519520D02*
D03*
X523060D02*
D03*
X526600D02*
D03*
X530140D02*
D03*
X533680D02*
D03*
X533700Y69400D02*
D03*
X530160D02*
D03*
X526620D02*
D03*
X523080D02*
D03*
X519540D02*
D03*
X516000D02*
D03*
X557700Y40000D02*
D03*
Y37500D02*
D03*
X557720Y34800D02*
D03*
X557700Y48300D02*
D03*
Y45800D02*
D03*
X557720Y43100D02*
D03*
X554420Y43200D02*
D03*
X554400Y45900D02*
D03*
Y48400D02*
D03*
X554420Y34900D02*
D03*
X554400Y37600D02*
D03*
Y40100D02*
D03*
X564300Y39800D02*
D03*
Y37300D02*
D03*
X564320Y34600D02*
D03*
X564300Y48100D02*
D03*
Y45600D02*
D03*
X564320Y42900D02*
D03*
X561020Y43000D02*
D03*
X561000Y45700D02*
D03*
Y48200D02*
D03*
X561020Y34700D02*
D03*
X561000Y37400D02*
D03*
Y39900D02*
D03*
X568940D02*
D03*
Y37400D02*
D03*
X568960Y34700D02*
D03*
X568940Y48200D02*
D03*
Y45700D02*
D03*
X568960Y43000D02*
D03*
X572260Y42900D02*
D03*
X575800D02*
D03*
X579340D02*
D03*
X582880D02*
D03*
X586420D02*
D03*
X589960D02*
D03*
X589940Y45600D02*
D03*
X586400D02*
D03*
X582860D02*
D03*
X579320D02*
D03*
X575780D02*
D03*
X572240D02*
D03*
X589940Y48100D02*
D03*
X586400D02*
D03*
X582860D02*
D03*
X579320D02*
D03*
X575780D02*
D03*
X572240D02*
D03*
X572260Y34600D02*
D03*
X575800D02*
D03*
X579340D02*
D03*
X582880D02*
D03*
X586420D02*
D03*
X589960D02*
D03*
X589940Y37300D02*
D03*
X586400D02*
D03*
X582860D02*
D03*
X579320D02*
D03*
X575780D02*
D03*
X572240D02*
D03*
X586400Y39800D02*
D03*
X582860D02*
D03*
X579320D02*
D03*
X575780D02*
D03*
X572240D02*
D03*
X589940D02*
D03*
X33100Y161500D02*
D03*
X36640D02*
D03*
X40180D02*
D03*
X43720D02*
D03*
X47260D02*
D03*
X50800D02*
D03*
X50780Y164200D02*
D03*
X47240D02*
D03*
X43700D02*
D03*
X40160D02*
D03*
X36620D02*
D03*
X33080D02*
D03*
X50780Y166700D02*
D03*
X47240D02*
D03*
X43700D02*
D03*
X40160D02*
D03*
X36620D02*
D03*
X33080D02*
D03*
X33300Y186600D02*
D03*
X36840D02*
D03*
X40380D02*
D03*
X43920D02*
D03*
X47460D02*
D03*
X51000D02*
D03*
X50980Y189300D02*
D03*
X47440D02*
D03*
X43900D02*
D03*
X40360D02*
D03*
X36820D02*
D03*
X33280D02*
D03*
X50980Y191800D02*
D03*
X47440D02*
D03*
X43900D02*
D03*
X40360D02*
D03*
X36820D02*
D03*
X33280D02*
D03*
X426300Y89580D02*
D03*
X428800D02*
D03*
X431500Y89600D02*
D03*
X418000Y89580D02*
D03*
X420500D02*
D03*
X423200Y89600D02*
D03*
X426100Y82980D02*
D03*
X428600D02*
D03*
X431300Y83000D02*
D03*
X417800Y82980D02*
D03*
X420300D02*
D03*
X423000Y83000D02*
D03*
X423100Y86300D02*
D03*
X420400Y86280D02*
D03*
X417900D02*
D03*
X431400Y86300D02*
D03*
X428700Y86280D02*
D03*
X426200D02*
D03*
X434000D02*
D03*
X436700Y86300D02*
D03*
X436600Y83000D02*
D03*
X433900Y82980D02*
D03*
X436800Y89600D02*
D03*
X434100Y89580D02*
D03*
X439200Y86280D02*
D03*
X441900Y86300D02*
D03*
X441800Y83000D02*
D03*
X439100Y82980D02*
D03*
X442000Y89600D02*
D03*
X439300Y89580D02*
D03*
X262300Y90410D02*
D03*
X265000Y90430D02*
D03*
X262100Y83810D02*
D03*
X264800Y83830D02*
D03*
X264900Y87130D02*
D03*
X262200Y87110D02*
D03*
X257100Y90410D02*
D03*
X259800Y90430D02*
D03*
X256900Y83810D02*
D03*
X259600Y83830D02*
D03*
X259700Y87130D02*
D03*
X257000Y87110D02*
D03*
X249200D02*
D03*
X251700D02*
D03*
X254400Y87130D02*
D03*
X240900Y87110D02*
D03*
X243400D02*
D03*
X246100Y87130D02*
D03*
X246000Y83830D02*
D03*
X243300Y83810D02*
D03*
X240800D02*
D03*
X254300Y83830D02*
D03*
X251600Y83810D02*
D03*
X249100D02*
D03*
X246200Y90430D02*
D03*
X243500Y90410D02*
D03*
X241000D02*
D03*
X254500Y90430D02*
D03*
X251800Y90410D02*
D03*
X249300D02*
D03*
X35500Y25600D02*
D03*
X39040D02*
D03*
X42580D02*
D03*
X46120D02*
D03*
X49660D02*
D03*
X53200D02*
D03*
X35500Y23100D02*
D03*
X39040D02*
D03*
X42580D02*
D03*
X46120D02*
D03*
X49660D02*
D03*
X53200D02*
D03*
X53220Y20400D02*
D03*
X49680D02*
D03*
X46140D02*
D03*
X42600D02*
D03*
X39060D02*
D03*
X35520D02*
D03*
X35500Y50900D02*
D03*
X39040D02*
D03*
X42580D02*
D03*
X46120D02*
D03*
X49660D02*
D03*
X53200D02*
D03*
X35500Y48400D02*
D03*
X39040D02*
D03*
X42580D02*
D03*
X46120D02*
D03*
X49660D02*
D03*
X53200D02*
D03*
X53220Y45700D02*
D03*
X49680D02*
D03*
X46140D02*
D03*
X42600D02*
D03*
X39060D02*
D03*
X35520D02*
D03*
X285700Y204500D02*
D03*
X289240D02*
D03*
X292780D02*
D03*
X296320D02*
D03*
X299860D02*
D03*
X303400D02*
D03*
X285700Y202000D02*
D03*
X289240D02*
D03*
X292780D02*
D03*
X296320D02*
D03*
X299860D02*
D03*
X303400D02*
D03*
X303420Y199300D02*
D03*
X299880D02*
D03*
X296340D02*
D03*
X292800D02*
D03*
X289260D02*
D03*
X285720D02*
D03*
X515920Y44300D02*
D03*
X519460D02*
D03*
X523000D02*
D03*
X526540D02*
D03*
X530080D02*
D03*
X533620D02*
D03*
X533600Y47000D02*
D03*
X530060D02*
D03*
X526520D02*
D03*
X522980D02*
D03*
X519440D02*
D03*
X515900D02*
D03*
X533600Y49500D02*
D03*
X530060D02*
D03*
X526520D02*
D03*
X522980D02*
D03*
X519440D02*
D03*
X515900D02*
D03*
X516120Y32300D02*
D03*
X519660D02*
D03*
X523200D02*
D03*
X526740D02*
D03*
X530280D02*
D03*
X533820D02*
D03*
X533800Y35000D02*
D03*
X530260D02*
D03*
X526720D02*
D03*
X523180D02*
D03*
X519640D02*
D03*
X516100D02*
D03*
X533800Y37500D02*
D03*
X530260D02*
D03*
X526720D02*
D03*
X523180D02*
D03*
X519640D02*
D03*
X516100D02*
D03*
X515820Y7300D02*
D03*
X519360D02*
D03*
X522900D02*
D03*
X526440D02*
D03*
X529980D02*
D03*
X533520D02*
D03*
X533500Y10000D02*
D03*
X529960D02*
D03*
X526420D02*
D03*
X522880D02*
D03*
X519340D02*
D03*
X515800D02*
D03*
X533500Y12500D02*
D03*
X529960D02*
D03*
X526420D02*
D03*
X522880D02*
D03*
X519340D02*
D03*
X515800D02*
D03*
X270800Y186800D02*
D03*
X270900Y183700D02*
D03*
Y180900D02*
D03*
X270780Y189500D02*
D03*
Y192000D02*
D03*
X273500Y192100D02*
D03*
Y189600D02*
D03*
X273620Y181000D02*
D03*
Y183800D02*
D03*
X273520Y186900D02*
D03*
M02*
